<svg xmlns="http://www.w3.org/2000/svg" xmlns:xlink="http://www.w3.org/1999/xlink" width="108" height="108" viewBox="0 0 108 108">
  <defs>
    <filter id="Trazado_896985" x="0" y="0" width="108" height="108" filterUnits="userSpaceOnUse">
      <feOffset dy="3" input="SourceAlpha"/>
      <feGaussianBlur stdDeviation="3" result="blur"/>
      <feFlood flood-opacity="0.161"/>
      <feComposite operator="in" in2="blur"/>
      <feComposite in="SourceGraphic"/>
    </filter>
  </defs>
  <g id="Grupo_1178533" data-name="Grupo 1178533" transform="translate(-200.759 -10424.722)">
    <g id="Grupo_1178332" data-name="Grupo 1178332" transform="translate(-0.094 8936.17)">
      <g id="Grupo_1176700" data-name="Grupo 1176700" transform="translate(209.853 1494.552)">
        <g id="Grupo_1111318" data-name="Grupo 1111318" transform="translate(0 0)">
          <g id="Grupo_1109826" data-name="Grupo 1109826">
            <g id="Grupo_1098742" data-name="Grupo 1098742">
              <g transform="matrix(1, 0, 0, 1, -9, -6)" filter="url(#Trazado_896985)">
                <g id="Trazado_896985-2" data-name="Trazado 896985" transform="translate(9 6)" fill="#edf7fe" opacity="0.859">
                  <path d="M 45 88.00010681152344 C 39.19416046142578 88.00010681152344 33.56304168701172 86.86346435546875 28.2630672454834 84.62177276611328 C 23.14290618896484 82.45613098144531 18.54409408569336 79.35540008544922 14.59441375732422 75.40570831298828 C 10.64472007751465 71.45601654052734 7.543986797332764 66.85721588134766 5.378333568572998 61.73704147338867 C 3.136640071868896 56.43708038330078 2 50.80596160888672 2 45.00011825561523 C 2 39.19416046142578 3.136640071868896 33.56304168701172 5.378333568572998 28.26308059692383 C 7.543986797332764 23.14290618896484 10.64472007751465 18.54409408569336 14.59441375732422 14.59441375732422 C 18.54409408569336 10.64472007751465 23.14290618896484 7.543986797332764 28.26308059692383 5.378333568572998 C 33.56304168701172 3.136640071868896 39.19416046142578 2 45 2 C 50.80583953857422 2 56.43695831298828 3.136640071868896 61.73691940307617 5.378333568572998 C 66.85709381103516 7.543986797332764 71.45590972900391 10.64472007751465 75.40558624267578 14.59441375732422 C 79.35527801513672 18.54409408569336 82.45601654052734 23.14290618896484 84.62166595458984 28.26308059692383 C 86.86335754394531 33.56304168701172 88 39.19416046142578 88 45 C 88 50.80596160888672 86.86335754394531 56.43708038330078 84.62166595458984 61.73704147338867 C 82.45601654052734 66.85721588134766 79.35527801513672 71.45601654052734 75.40558624267578 75.40570831298828 C 71.45590972900391 79.35540008544922 66.85709381103516 82.45613098144531 61.73693466186523 84.62177276611328 C 56.43695831298828 86.86346435546875 50.80583953857422 88.00010681152344 45 88.00010681152344 Z" stroke="none"/>
                  <path d="M 45 3.999992370605469 C 39.46327590942383 3.999992370605469 34.09429168701172 5.083465576171875 29.04218292236328 7.220329284667969 C 24.160400390625 9.285148620605469 19.77527618408203 12.24195861816406 16.00861358642578 16.00862121582031 C 12.24196624755859 19.77528381347656 9.28515625 24.16040802001953 7.2203369140625 29.04217529296875 C 5.083473205566406 34.09428405761719 4 39.46328353881836 4 45.00011444091797 C 4 50.53683853149414 5.083473205566406 55.90582275390625 7.2203369140625 60.95793151855469 C 9.28515625 65.83971405029297 12.24195098876953 70.22482299804688 16.00861358642578 73.99148559570312 C 19.77527618408203 77.75814819335938 24.160400390625 80.71494293212891 29.04216766357422 82.77976226806641 C 34.09427642822266 84.9166259765625 39.46327590942383 86.00009918212891 45 86.00009918212891 C 50.53672409057617 86.00009918212891 55.90572357177734 84.9166259765625 60.95783233642578 82.77976226806641 C 65.839599609375 80.71494293212891 70.22472381591797 77.75814819335938 73.99138641357422 73.99148559570312 C 77.75804901123047 70.22482299804688 80.71484375 65.83971405029297 82.7796630859375 60.95793151855469 C 84.91651916503906 55.90582275390625 86 50.53683853149414 86 45.00000762939453 C 86 39.46328353881836 84.91651916503906 34.09428405761719 82.7796630859375 29.04217529296875 C 80.71484375 24.16040802001953 77.75803375244141 19.77528381347656 73.99138641357422 16.00862121582031 C 70.22472381591797 12.24195861816406 65.839599609375 9.285148620605469 60.95781707763672 7.220329284667969 C 55.90570831298828 5.083465576171875 50.53672409057617 3.999992370605469 45 3.999992370605469 M 45 -7.62939453125e-06 C 69.85281372070312 -7.62939453125e-06 90 20.14719390869141 90 45.00000762939453 L 90 45.00011444091797 C 90 69.85292816162109 69.85281372070312 90.00009918212891 45 90.00009918212891 C 20.14718627929688 90.00009918212891 0 69.85292816162109 0 45.00011444091797 L 0 45.00000762939453 C 0 20.14719390869141 20.14718627929688 -7.62939453125e-06 45 -7.62939453125e-06 Z" stroke="none" fill="#3e7dad"/>
                </g>
              </g>
            </g>
          </g>
        </g>
      </g>
    </g>
    <g id="best_18610418" transform="translate(194.369 10442.795)">
      <g id="Grupo_1178532" data-name="Grupo 1178532" transform="translate(36.557 7.727)">
        <g id="Grupo_1178528" data-name="Grupo 1178528" transform="translate(0 0)">
          <path id="Trazado_1033615" data-name="Trazado 1033615" d="M77.756,58.192V13.457H46.674a3.329,3.329,0,0,0-3.318,3.318v38.1a3.326,3.326,0,0,0,3.318,3.315Z" transform="translate(-43.356 -13.457)" fill="#8ac9fe" fill-rule="evenodd"/>
          <path id="Trazado_1033616" data-name="Trazado 1033616" d="M46.674,51.558v-38.1a3.329,3.329,0,0,0-3.318,3.318V54.862a3.328,3.328,0,0,1,3.318-3.3Z" transform="translate(-43.356 -13.457)" fill="#60b7ff" fill-rule="evenodd"/>
          <path id="Trazado_1033617" data-name="Trazado 1033617" d="M77.756,358.443V351.81H46.674a3.317,3.317,0,1,0,0,6.634Z" transform="translate(-43.356 -313.709)" fill="#eceff1" fill-rule="evenodd"/>
          <path id="Trazado_1033618" data-name="Trazado 1033618" d="M46.674,351.81v6.634a3.317,3.317,0,1,1,0-6.634Z" transform="translate(-43.356 -313.709)" fill="#d1d1d6" fill-rule="evenodd"/>
        </g>
        <g id="Grupo_1178529" data-name="Grupo 1178529" transform="translate(8.831 13.447)">
          <path id="Trazado_1033619" data-name="Trazado 1033619" d="M135.324,132.869a.563.563,0,0,1,.563.563V136.4a.563.563,0,0,1-.563.563H122.345a.563.563,0,0,1-.563-.563v-2.965a.563.563,0,0,1,.563-.563Z" transform="translate(-121.782 -132.869)" fill="#fe646f" fill-rule="evenodd"/>
          <path id="Trazado_1033620" data-name="Trazado 1033620" d="M123.471,136.96h-1.126a.563.563,0,0,1-.563-.563v-2.965a.563.563,0,0,1,.563-.563h1.126a.563.563,0,0,0-.563.563V136.4a.563.563,0,0,0,.563.563Z" transform="translate(-121.782 -132.869)" fill="#fd4755" fill-rule="evenodd"/>
        </g>
        <g id="Grupo_1178530" data-name="Grupo 1178530" transform="translate(8.526)">
          <path id="Trazado_1033621" data-name="Trazado 1033621" d="M119.069,13.457h5.8v7.019a.338.338,0,0,1-.527.28l-2.248-1.518-2.506,1.584a.338.338,0,0,1-.518-.285Z" transform="translate(-119.069 -13.457)" fill="#ffe177" fill-rule="evenodd"/>
          <path id="Trazado_1033622" data-name="Trazado 1033622" d="M120.2,20.438l-.608.384a.338.338,0,0,1-.518-.285v-7.08H120.2Zm4.673-.087v.124a.338.338,0,0,1-.527.28l-2.248-1.518.582-.368Z" transform="translate(-119.069 -13.457)" fill="#ffd064" fill-rule="evenodd"/>
        </g>
        <g id="Grupo_1178531" data-name="Grupo 1178531" transform="translate(20.928 20.063)">
          <path id="Trazado_1033623" data-name="Trazado 1033623" d="M370.611,361.654,364.5,366.72l3.277,7.608a.328.328,0,0,0,.581.041l2.115-3.407,3.928.8a.329.329,0,0,0,.369-.452Z" transform="translate(-349.266 -342.507)" fill="#fe646f" fill-rule="evenodd"/>
          <path id="Trazado_1033624" data-name="Trazado 1033624" d="M394.86,361.654l-.808.67,3.873,8.99a.326.326,0,0,1-.02.3l.747.152a.329.329,0,0,0,.369-.452Zm-3.032,12.21.2.464a.328.328,0,0,0,.581.041l2.115-3.407-.972-.2Z" transform="translate(-373.515 -342.507)" fill="#fd4755" fill-rule="evenodd"/>
          <path id="Trazado_1033625" data-name="Trazado 1033625" d="M249.458,378.639l-4.393,9.435a.328.328,0,0,1-.583.026l-2.015-3.466-3.952.689a.328.328,0,0,1-.353-.462l4.343-9.332Z" transform="translate(-237.126 -354.819)" fill="#fe646f" fill-rule="evenodd"/>
          <path id="Trazado_1033626" data-name="Trazado 1033626" d="M249.458,400.241l-4.393,9.435a.328.328,0,0,1-.583.026l-2.015-3.466-3.952.689a.328.328,0,0,1-.353-.462l.267-.575,3.484-.608,2.015,3.468a.329.329,0,0,0,.583-.026l4.12-8.85Z" transform="translate(-237.126 -376.422)" fill="#fd4755" fill-rule="evenodd"/>
          <path id="Trazado_1033627" data-name="Trazado 1033627" d="M244.138,192.193c2.627,1.965,2.032,1.748,5.307,1.932a2.76,2.76,0,0,1,2.568,2.153c.272,1.159.4,2.621,1.29,3.45l1.535,1.442a2.761,2.761,0,0,1,.581,3.3c-1.479,2.927-1.369,2.3-.98,5.56a2.761,2.761,0,0,1-1.677,2.9c-3.016,1.292-2.53.885-4.325,3.63a2.76,2.76,0,0,1-3.148,1.146c-3.142-.948-2.508-.948-5.649,0a2.76,2.76,0,0,1-3.148-1.146c-1.8-2.745-1.311-2.338-4.327-3.63a2.762,2.762,0,0,1-1.675-2.9c.389-3.257.5-2.633-.98-5.56a2.761,2.761,0,0,1,.581-3.3c2.392-2.246,2.076-1.7,2.824-4.892a2.76,2.76,0,0,1,2.568-2.153c3.275-.184,2.68.034,5.3-1.932A2.759,2.759,0,0,1,244.138,192.193Z" transform="translate(-229.2 -191.625)" fill="#ffe177" fill-rule="evenodd"/>
          <path id="Trazado_1033628" data-name="Trazado 1033628" d="M314.243,192.2c2.627,1.965,2.032,1.748,5.307,1.932a2.76,2.76,0,0,1,2.568,2.153c.272,1.159.4,2.621,1.29,3.45l1.535,1.442a2.761,2.761,0,0,1,.581,3.3c-1.479,2.927-1.369,2.3-.98,5.56a2.761,2.761,0,0,1-1.677,2.9c-3.016,1.292-2.53.885-4.325,3.63a2.758,2.758,0,0,1-3.042,1.175,2.772,2.772,0,0,0,1.606-1.175c1.8-2.745,1.309-2.338,4.325-3.63a2.764,2.764,0,0,0,1.677-2.9c-.391-3.257-.5-2.633.98-5.56a2.759,2.759,0,0,0-.583-3.3l-1.535-1.442c-.883-.829-1.017-2.291-1.288-3.45a2.762,2.762,0,0,0-2.568-2.153c-3.277-.184-2.68.034-5.307-1.932a2.793,2.793,0,0,0-.958-.47A2.755,2.755,0,0,1,314.243,192.2Zm-2.394,24.9c-.48.111-1.1.316-2.105.62a2.793,2.793,0,0,1-1.542.03,1.076,1.076,0,0,0,.107-.03C310.441,217.068,310.834,216.86,311.849,217.091Z" transform="translate(-299.305 -191.629)" fill="#ffd064" fill-rule="evenodd"/>
          <path id="Trazado_1033629" data-name="Trazado 1033629" d="M285.3,254.146a7.826,7.826,0,1,0-7.827-7.827,7.842,7.842,0,0,0,7.827,7.827Z" transform="translate(-272.037 -233.216)" fill="#eceff1" fill-rule="evenodd"/>
          <path id="Trazado_1033630" data-name="Trazado 1033630" d="M285.3,238.494c.211,0,.419.008.626.024a7.827,7.827,0,0,0,0,15.6c-.207.016-.415.024-.626.024a7.826,7.826,0,1,1,0-15.652Z" transform="translate(-272.037 -233.216)" fill="#d1d1d6" fill-rule="evenodd"/>
        </g>
      </g>
      <path id="Trazado_1033631" data-name="Trazado 1033631" d="M35.694,49.176V11.207A4.221,4.221,0,0,1,39.9,7H70.875a.9.9,0,0,1,.9.9V25.354a.9.9,0,1,1-1.8,0V8.8H51.909v6.754a.9.9,0,0,1-1.4.747l-2.287-1.544-2.527,1.6a.9.9,0,0,1-1.382-.761V8.8H40.8V44.968H56.381a.9.9,0,0,1,0,1.8H39.9a2.4,2.4,0,1,0,0,4.809h18.44a.9.9,0,0,1,0,1.8H39.9A4.218,4.218,0,0,1,35.694,49.176ZM50.107,8.8h-4v5.157l1.642-1.038a.9.9,0,0,1,.985.015l1.37.925ZM39,8.978a2.415,2.415,0,0,0-1.5,2.23V45.729a4.19,4.19,0,0,1,1.5-.663Zm22.116,41.63c-.263-.109-.569-.235-.928-.389a3.653,3.653,0,0,1-2.223-3.844,11.04,11.04,0,0,0,.219-2.651,10.943,10.943,0,0,0-1.112-2.415h0a3.657,3.657,0,0,1,.774-4.373,11,11,0,0,0,1.869-1.891,10.994,10.994,0,0,0,.7-2.566h0a3.663,3.663,0,0,1,3.4-2.853h0a10.987,10.987,0,0,0,2.648-.246,11.008,11.008,0,0,0,2.187-1.514,3.658,3.658,0,0,1,4.44,0,11.01,11.01,0,0,0,2.188,1.514,10.986,10.986,0,0,0,2.648.246h0a3.654,3.654,0,0,1,3.4,2.854,11.01,11.01,0,0,0,.7,2.566A11.023,11.023,0,0,0,83.9,36.934a3.663,3.663,0,0,1,.775,4.374h0a11.006,11.006,0,0,0-1.113,2.416,10.936,10.936,0,0,0,.22,2.649v0a3.658,3.658,0,0,1-2.223,3.842l-.246.1,2.921,6.82a.9.9,0,0,1-1.009,1.237l-3.948-.808L77.155,61a.9.9,0,0,1-1.595-.125l-2.514-5.948a8.409,8.409,0,0,0-2.173-.552,3.939,3.939,0,0,0-1.156.233l-3.634,7.731a.9.9,0,0,1-1.594.069l-2.024-3.484-3.969.7a.9.9,0,0,1-.973-1.266Zm18.543.426a2.578,2.578,0,0,0-.5.323,10.944,10.944,0,0,0-1.535,2.173h0a3.671,3.671,0,0,1-2.515,1.638l1.437,3.4,1.539-2.478a.9.9,0,0,1,.946-.407l2.876.588ZM67.446,55.2A3.651,3.651,0,0,1,64.13,53.53h0a14.764,14.764,0,0,0-1.422-2.069l-2.823,6.084,2.889-.506a.9.9,0,0,1,.934.435l1.477,2.541Zm4.571-25.9a1.88,1.88,0,0,0-2.282,0h0a12.157,12.157,0,0,1-2.65,1.764,12.135,12.135,0,0,1-3.163.352,1.884,1.884,0,0,0-1.752,1.466,12.132,12.132,0,0,1-.893,3.055,12.154,12.154,0,0,1-2.2,2.3l0,0a1.877,1.877,0,0,0-.4,2.246,12.091,12.091,0,0,1,1.278,2.915,12.179,12.179,0,0,1-.2,3.176h0a1.873,1.873,0,0,0,1.14,1.973h0a12.118,12.118,0,0,1,2.853,1.413,12.174,12.174,0,0,1,1.886,2.567,1.879,1.879,0,0,0,2.145.778h0a12.123,12.123,0,0,1,3.09-.751,12.157,12.157,0,0,1,3.093.751h0a1.88,1.88,0,0,0,2.144-.778A12.088,12.088,0,0,1,78,49.976a12.155,12.155,0,0,1,2.854-1.413h0A1.879,1.879,0,0,0,82,46.587a12.066,12.066,0,0,1-.205-3.176A12.142,12.142,0,0,1,83.07,40.5a1.883,1.883,0,0,0-.4-2.248h0a12.179,12.179,0,0,1-2.2-2.3,12.157,12.157,0,0,1-.9-3.056v0a1.875,1.875,0,0,0-1.747-1.463,12.134,12.134,0,0,1-3.163-.352,12.155,12.155,0,0,1-2.65-1.764Zm-1.143,20.61a8.753,8.753,0,1,1,8.753-8.753A8.772,8.772,0,0,1,70.873,49.915Zm0-1.8a6.952,6.952,0,1,0-6.952-6.952A6.964,6.964,0,0,0,70.873,48.114ZM74.831,40.8l-2.959,2.959a.9.9,0,0,1-1.274,0L68.9,42.065l-2.253,2.253a.9.9,0,0,1-1.274-1.274l2.89-2.89a.9.9,0,0,1,1.274,0l1.694,1.694,2.3-2.3h-.284a.9.9,0,0,1,0-1.8h2.476a.9.9,0,0,1,.9.9v2.476a.9.9,0,0,1-1.8,0ZM60.214,21.1v4.091a.9.9,0,0,1-.9.9h-14.1a.9.9,0,0,1-.9-.9V21.1a.9.9,0,0,1,.9-.9h14.1A.9.9,0,0,1,60.214,21.1Zm-1.8.9h-12.3v2.29h12.3Zm-13.2,9.087a.9.9,0,1,1,0-1.8h9.425a.9.9,0,1,1,0,1.8Zm0,4.031a.9.9,0,1,1,0-1.8h9.425a.9.9,0,1,1,0,1.8Zm0,4.031a.9.9,0,1,1,0-1.8h9.425a.9.9,0,0,1,0,1.8Z" transform="translate(0)" fill-rule="evenodd"/>
    </g>
  </g>
</svg>
