<svg xmlns="http://www.w3.org/2000/svg" xmlns:xlink="http://www.w3.org/1999/xlink" width="108" height="108" viewBox="0 0 108 108">
  <defs>
    <filter id="Trazado_896985" x="0" y="0" width="108" height="108" filterUnits="userSpaceOnUse">
      <feOffset dy="3" input="SourceAlpha"/>
      <feGaussianBlur stdDeviation="3" result="blur"/>
      <feFlood flood-opacity="0.161"/>
      <feComposite operator="in" in2="blur"/>
      <feComposite in="SourceGraphic"/>
    </filter>
  </defs>
  <g id="Grupo_1178536" data-name="Grupo 1178536" transform="translate(-200.759 -15963.5)">
    <g id="Grupo_1178534" data-name="Grupo 1178534" transform="translate(0 5538.778)">
      <g id="Grupo_1178332" data-name="Grupo 1178332" transform="translate(-0.094 8936.17)">
        <g id="Grupo_1176700" data-name="Grupo 1176700" transform="translate(209.853 1494.552)">
          <g id="Grupo_1111318" data-name="Grupo 1111318" transform="translate(0 0)">
            <g id="Grupo_1109826" data-name="Grupo 1109826">
              <g id="Grupo_1098742" data-name="Grupo 1098742">
                <g transform="matrix(1, 0, 0, 1, -9, -6)" filter="url(#Trazado_896985)">
                  <g id="Trazado_896985-2" data-name="Trazado 896985" transform="translate(9 6)" fill="#edf7fe" opacity="0.859">
                    <path d="M 45 88.00010681152344 C 39.19416046142578 88.00010681152344 33.56304168701172 86.86346435546875 28.2630672454834 84.62177276611328 C 23.14290618896484 82.45613098144531 18.54409408569336 79.35540008544922 14.59441375732422 75.40570831298828 C 10.64472007751465 71.45601654052734 7.543986797332764 66.85721588134766 5.378333568572998 61.73704147338867 C 3.136640071868896 56.43708038330078 2 50.80596160888672 2 45.00011825561523 C 2 39.19416046142578 3.136640071868896 33.56304168701172 5.378333568572998 28.26308059692383 C 7.543986797332764 23.14290618896484 10.64472007751465 18.54409408569336 14.59441375732422 14.59441375732422 C 18.54409408569336 10.64472007751465 23.14290618896484 7.543986797332764 28.26308059692383 5.378333568572998 C 33.56304168701172 3.136640071868896 39.19416046142578 2 45 2 C 50.80583953857422 2 56.43695831298828 3.136640071868896 61.73691940307617 5.378333568572998 C 66.85709381103516 7.543986797332764 71.45590972900391 10.64472007751465 75.40558624267578 14.59441375732422 C 79.35527801513672 18.54409408569336 82.45601654052734 23.14290618896484 84.62166595458984 28.26308059692383 C 86.86335754394531 33.56304168701172 88 39.19416046142578 88 45 C 88 50.80596160888672 86.86335754394531 56.43708038330078 84.62166595458984 61.73704147338867 C 82.45601654052734 66.85721588134766 79.35527801513672 71.45601654052734 75.40558624267578 75.40570831298828 C 71.45590972900391 79.35540008544922 66.85709381103516 82.45613098144531 61.73693466186523 84.62177276611328 C 56.43695831298828 86.86346435546875 50.80583953857422 88.00010681152344 45 88.00010681152344 Z" stroke="none"/>
                    <path d="M 45 3.999992370605469 C 39.46327590942383 3.999992370605469 34.09429168701172 5.083465576171875 29.04218292236328 7.220329284667969 C 24.160400390625 9.285148620605469 19.77527618408203 12.24195861816406 16.00861358642578 16.00862121582031 C 12.24196624755859 19.77528381347656 9.28515625 24.16040802001953 7.2203369140625 29.04217529296875 C 5.083473205566406 34.09428405761719 4 39.46328353881836 4 45.00011444091797 C 4 50.53683853149414 5.083473205566406 55.90582275390625 7.2203369140625 60.95793151855469 C 9.28515625 65.83971405029297 12.24195098876953 70.22482299804688 16.00861358642578 73.99148559570312 C 19.77527618408203 77.75814819335938 24.160400390625 80.71494293212891 29.04216766357422 82.77976226806641 C 34.09427642822266 84.9166259765625 39.46327590942383 86.00009918212891 45 86.00009918212891 C 50.53672409057617 86.00009918212891 55.90572357177734 84.9166259765625 60.95783233642578 82.77976226806641 C 65.839599609375 80.71494293212891 70.22472381591797 77.75814819335938 73.99138641357422 73.99148559570312 C 77.75804901123047 70.22482299804688 80.71484375 65.83971405029297 82.7796630859375 60.95793151855469 C 84.91651916503906 55.90582275390625 86 50.53683853149414 86 45.00000762939453 C 86 39.46328353881836 84.91651916503906 34.09428405761719 82.7796630859375 29.04217529296875 C 80.71484375 24.16040802001953 77.75803375244141 19.77528381347656 73.99138641357422 16.00862121582031 C 70.22472381591797 12.24195861816406 65.839599609375 9.285148620605469 60.95781707763672 7.220329284667969 C 55.90570831298828 5.083465576171875 50.53672409057617 3.999992370605469 45 3.999992370605469 M 45 -7.62939453125e-06 C 69.85281372070312 -7.62939453125e-06 90 20.14719390869141 90 45.00000762939453 L 90 45.00011444091797 C 90 69.85292816162109 69.85281372070312 90.00009918212891 45 90.00009918212891 C 20.14718627929688 90.00009918212891 0 69.85292816162109 0 45.00011444091797 L 0 45.00000762939453 C 0 20.14719390869141 20.14718627929688 -7.62939453125e-06 45 -7.62939453125e-06 Z" stroke="none" fill="#3e7dad"/>
                  </g>
                </g>
              </g>
            </g>
          </g>
        </g>
      </g>
    </g>
    <g id="debt_10983289" transform="translate(175.457 15963.644)">
      <g id="Grupo_1178535" data-name="Grupo 1178535" transform="translate(52.566 20.465)">
        <path id="Trazado_1033632" data-name="Trazado 1033632" d="M60.666,160.652c-2.164-32.957,34.9-33.66,33.457,0H94.7c2.15,0,2.353,3.11.527,3.354-12.644,1.69-21.705,2.164-35.634,0-1.853-.284-1.663-3.354.5-3.354Z" transform="translate(-58.33 -121.055)" fill="#718446" fill-rule="evenodd"/>
        <path id="Trazado_1033633" data-name="Trazado 1033633" d="M75.8,155.24c1.474-19.366,18.27-24.41,27.493-14.5-.69,8.614-9.656,15.444-20.623,15.444A25.777,25.777,0,0,1,75.8,155.24Z" transform="translate(-73.438 -121.161)" fill="#9bb561" fill-rule="evenodd"/>
        <path id="Trazado_1033634" data-name="Trazado 1033634" d="M160.37,28.966c-.365,5.937-3.462,10.575-7.235,10.575S146.279,34.9,145.9,28.966a3.7,3.7,0,0,0,1.028.135,4.054,4.054,0,0,0,3.1-1.5,4.032,4.032,0,0,0,3.1,1.5,4.081,4.081,0,0,0,3.11-1.5,4.032,4.032,0,0,0,3.1,1.5,3.793,3.793,0,0,0,1.041-.135Z" transform="translate(-134.058 -27.6)" fill="#9bb561" fill-rule="evenodd"/>
        <path id="Trazado_1033635" data-name="Trazado 1033635" d="M145.423,110.161h10.061a2.63,2.63,0,0,0,0-5.261H145.423a2.63,2.63,0,0,0,0,5.261Z" transform="translate(-131.376 -94.446)" fill="#dd6e42" fill-rule="evenodd"/>
        <path id="Trazado_1033636" data-name="Trazado 1033636" d="M256.669,207.547h17.364l7.3-7.3V179.269a2.078,2.078,0,0,0-2.069-2.069h-22.6a2.078,2.078,0,0,0-2.069,2.069v26.222A2.066,2.066,0,0,0,256.669,207.547Z" transform="translate(-228.058 -156.969)" fill="#e6e6e6" fill-rule="evenodd"/>
        <path id="Trazado_1033637" data-name="Trazado 1033637" d="M405.6,347.7h-5.234a2.078,2.078,0,0,0-2.069,2.069V355Z" transform="translate(-352.325 -304.412)" fill="gray" fill-rule="evenodd"/>
        <path id="Trazado_1033638" data-name="Trazado 1033638" d="M125.895,339.09A11.495,11.495,0,1,0,114.4,327.595,11.52,11.52,0,0,0,125.895,339.09Z" transform="translate(-106.817 -277.085)" fill="#faa21b" fill-rule="evenodd"/>
        <path id="Trazado_1033639" data-name="Trazado 1033639" d="M147.082,316.1a11.492,11.492,0,0,1,9.223,18.351,11.5,11.5,0,0,1-15.133-16.728A11.527,11.527,0,0,1,147.082,316.1Z" transform="translate(-128.004 -277.085)" fill="#ffc60b" fill-rule="evenodd"/>
        <path id="Trazado_1033640" data-name="Trazado 1033640" d="M116.893,200.3h1.988a1.4,1.4,0,0,1,1.393,1.393v6.072a1.4,1.4,0,0,1-1.393,1.393h-1.988a1.391,1.391,0,0,1-1.393-1.393v-6.072a1.4,1.4,0,0,1,1.393-1.393Z" transform="translate(-107.769 -176.945)" fill="#c3d3a2" fill-rule="evenodd"/>
        <path id="Trazado_1033641" data-name="Trazado 1033641" d="M116.514,281.576h2.759a1.022,1.022,0,0,0,1.014-1.014v-1.447a1.022,1.022,0,0,0-1.014-1.014h-2.759a1.022,1.022,0,0,0-1.014,1.014v1.447a1.022,1.022,0,0,0,1.014,1.014Z" transform="translate(-107.769 -244.224)" fill="#c3d3a2" fill-rule="evenodd"/>
      </g>
      <path id="Trazado_1033642" data-name="Trazado 1033642" d="M66.707,35.057H76.769a1.623,1.623,0,1,0,0-3.246H66.707a1.625,1.625,0,0,0-1.149,2.772A1.648,1.648,0,0,0,66.707,35.057ZM81.989,22.981a1,1,0,1,1,2,0v.609a1,1,0,1,1-2,0Zm0,3.124a1,1,0,1,1,2,0V28.8a1,1,0,0,1-1,1H81.921l2.745,4.152L87.412,29.8H86.343a1,1,0,0,1-1-1V26.1a1,1,0,1,1,2,0v1.677h1.92a1,1,0,0,1,.838,1.555l-4.6,6.951a1,1,0,0,1-1.69.014l-4.571-6.924a1,1,0,0,1,.8-1.609h1.92V26.1Zm5.369-2.515a1,1,0,1,1-2,0v-.609a1,1,0,1,1,2,0ZM76.634,64.538a1,1,0,0,1,1.42,1.42L66.829,77.182a1,1,0,0,1-1.42-1.42Zm-6.559.054a3.255,3.255,0,1,1-4.6,0A3.259,3.259,0,0,1,70.075,64.592Zm-1.42,1.42a1.244,1.244,0,1,0,0,1.758A1.243,1.243,0,0,0,68.655,66.012ZM78,72.517a3.255,3.255,0,1,1-4.6,0A3.259,3.259,0,0,1,78,72.517Zm-1.42,1.42a1.244,1.244,0,1,0,0,1.758A1.243,1.243,0,0,0,76.579,73.937ZM71.725,58.358a12.477,12.477,0,0,1,6.464,1.8V42.644a3.068,3.068,0,0,1,2.583-3.029,14.1,14.1,0,0,0-1.109-.906,14.357,14.357,0,0,0-2.84-1.65H66.68a2.394,2.394,0,0,1-.311-.014,16.055,16.055,0,0,0-8.087,8.236A29.586,29.586,0,0,0,55.97,59.818a1,1,0,0,1-1,1.136c-.5,0-1-.081-1.231.338-.189.325-.162.947.311,1.028,2.448.379,5.274.744,7.695.974A12.6,12.6,0,0,1,71.725,58.358ZM80.2,61.671A12.321,12.321,0,0,1,82.773,65a.984.984,0,0,1,.906-.582H93.971a1,1,0,0,1,0,2H83.679a1.029,1.029,0,0,1-.284-.041,12.282,12.282,0,0,1,.784,3.543H97.608V65.688a3.076,3.076,0,0,1,3.07-3.07h4.233V42.644a1.071,1.071,0,0,0-1.068-1.068H81.272a1.059,1.059,0,0,0-1.055,1.068V61.671Zm3.989,10.264a12.5,12.5,0,1,1-23.6-6.748c-2.353-.243-4.327-.5-6.816-.893-2.908-.446-2.786-4.868.176-5.315a30.818,30.818,0,0,1,2.529-14.551,18.577,18.577,0,0,1,7.6-8.479,3.646,3.646,0,0,1,1.961-6.113,16.276,16.276,0,0,1-2.556-8.073A1,1,0,0,1,64.8,20.749a2.928,2.928,0,0,0,1.974-.189,3.325,3.325,0,0,0,1.082-.852,1,1,0,0,1,1.542.014,2.963,2.963,0,0,0,4.666-.014,1,1,0,0,1,1.542.014,3,3,0,0,0,3.083,1.028,1.008,1.008,0,0,1,1.271,1.028A16.191,16.191,0,0,1,77.4,29.864a3.632,3.632,0,0,1,1.866,6.194,17.209,17.209,0,0,1,4.287,3.53H103.87a3.076,3.076,0,0,1,3.07,3.07V63.632a.606.606,0,0,1-.014.162,1.051,1.051,0,0,1-.284.541l-7.289,7.3a.99.99,0,0,1-.717.3Zm-5.044-8.493a10.49,10.49,0,1,0,0,14.835A10.488,10.488,0,0,0,79.149,63.443Zm4.544-2.989a1.008,1.008,0,1,1,0-2.015h17.783a1.013,1.013,0,0,1,1.014,1.014,1,1,0,0,1-1.014,1Zm0-4.26a1,1,0,1,1,0-2h17.783a1,1,0,1,1,0,2Zm0-4.26a1.008,1.008,0,1,1,0-2.015h17.783a1.013,1.013,0,0,1,1.014,1.014,1,1,0,0,1-1.014,1Zm12.766-4.273a1,1,0,1,1,0-2h5a1,1,0,1,1,0,2ZM103.5,64.633h-2.813a1.068,1.068,0,0,0-1.068,1.055V68.5ZM72.739,55.978v1.19a1,1,0,1,1-2,0v-1.19a4.113,4.113,0,0,1-3.11-3.989,1.008,1.008,0,0,1,2.015,0,2.1,2.1,0,0,0,4.206,0c0-1.569-1.163-1.853-2.34-2.123-1.934-.46-3.881-.92-3.881-4.084a4.113,4.113,0,0,1,3.11-3.989V40.6a1,1,0,1,1,2,0v1.19a4.117,4.117,0,0,1,3.11,3.989,1,1,0,1,1-2,0,2.1,2.1,0,1,0-4.192,0c0,1.569,1.163,1.853,2.326,2.123,1.934.46,3.881.92,3.881,4.084A4.171,4.171,0,0,1,72.739,55.978ZM68.6,29.783h6.275a12.309,12.309,0,0,0,2.975-6.938,5.007,5.007,0,0,1-3.016-1.109,4.875,4.875,0,0,1-6.207,0,4.894,4.894,0,0,1-3.016,1.109A12.416,12.416,0,0,0,68.6,29.783Z" transform="translate(0 0)"/>
    </g>
  </g>
</svg>
