<svg xmlns="http://www.w3.org/2000/svg" xmlns:xlink="http://www.w3.org/1999/xlink" width="505" height="510" viewBox="0 0 505 510">
  <defs>
    <clipPath id="clip-path">
      <rect id="Rectángulo_405530" data-name="Rectángulo 405530" width="505" height="510" transform="translate(915.051 24326)" fill="#412976" stroke="#707070" stroke-width="1" opacity="0.64"/>
    </clipPath>
  </defs>
  <g id="Enmascarar_grupo_1098767" data-name="Enmascarar grupo 1098767" transform="translate(-915.051 -24326)" clip-path="url(#clip-path)">
    <g id="Grupo_1178801" data-name="Grupo 1178801" transform="translate(1004.051 24326.352)" opacity="0.69">
      <rect id="Rectángulo_405529" data-name="Rectángulo 405529" width="327.071" height="509.648" rx="12" transform="translate(0 0)" fill="#fed6a8"/>
    </g>
    <g id="graficos_cf13_Recuperado__cuotas_copia" data-name="graficos cf13 [Recuperado]_cuotas copia" transform="translate(910.631 24326.078)">
      <g id="freepik--background-complete--inject-45" transform="translate(34.166 30.498)">
        <path id="Trazado_109028" data-name="Trazado 109028" d="M89.2,44.561h60.912s-5.384-9.8-21.033-8.413C114.1,37.515,113.3,31.32,105.732,30.563S91.734,35.674,89.2,44.561Z" transform="translate(-30.097 -30.498)" fill="#fff"/>
        <path id="Trazado_109029" data-name="Trazado 109029" d="M270.28,131.009H375.446s-9.3-16.932-36.366-14.46c-25.86,2.366-27.175-8.3-40.321-9.623S274.707,115.7,270.28,131.009Z" transform="translate(-20.742 -26.555)" fill="#fff"/>
        <path id="Trazado_109038" data-name="Trazado 109038" d="M95.37,208h51.205s-4.533-8.245-17.72-7.046c-12.62,1.146-13.282-4.049-19.645-4.7S97.5,200.523,95.37,208Z" transform="translate(-29.778 -21.938)" fill="#fff"/>
        <path id="Trazado_109039" data-name="Trazado 109039" d="M488.816,449.1a1.908,1.908,0,0,1-.21.221l-.673.589c-.315.242-.715.515-1.188.852a17.586,17.586,0,0,1-1.756.946,19.76,19.76,0,0,1-5.258,1.588,29.763,29.763,0,0,1-7.235.2,57.125,57.125,0,0,1-8.634-1.546c-3.06-.726-6.31-1.609-9.78-2.208a34.029,34.029,0,0,0-10.979-.2,85.669,85.669,0,0,0-11.568,2.734,83.156,83.156,0,0,1-11.621,2.713,34.357,34.357,0,0,1-11.127-.274q-4.932-.946-9.77-2.387c-3.018-.873-5.837-1.662-8.413-2.251a44.961,44.961,0,0,0-7.1-1.052h-2.955a23.951,23.951,0,0,0-2.45.294l-1.9.421-1.367.473-.852.284-.3.084.284-.137.831-.326c.368-.147.82-.337,1.378-.526l1.893-.463a21.786,21.786,0,0,1,2.471-.337c.946-.116,1.9,0,2.976-.084a43.218,43.218,0,0,1,7.172.946c2.619.568,5.458,1.336,8.476,2.187a96.627,96.627,0,0,0,9.749,2.335,34.283,34.283,0,0,0,10.969.252,83.468,83.468,0,0,0,11.568-2.713,83.23,83.23,0,0,1,11.621-2.734,34.066,34.066,0,0,1,11.127.231c3.492.61,6.741,1.514,9.791,2.261a57.356,57.356,0,0,0,8.54,1.6,30.225,30.225,0,0,0,7.162-.137,20.181,20.181,0,0,0,5.185-1.483,17.758,17.758,0,0,0,3.954-2.356Z" transform="translate(-15.401 -8.897)" fill="#e0e0e0"/>
        <path id="Trazado_109040" data-name="Trazado 109040" d="M148.178,463.567a1.374,1.374,0,0,1-.221.21l-.673.6c-.315.242-.7.526-1.2.852a18.057,18.057,0,0,1-6.973,2.545,29.765,29.765,0,0,1-7.235.2,57.355,57.355,0,0,1-8.634-1.546c-3.06-.736-6.31-1.62-9.78-2.209a33.748,33.748,0,0,0-10.979-.179,87.287,87.287,0,0,0-11.568,2.724,83.345,83.345,0,0,1-11.642,2.7,34.705,34.705,0,0,1-11.127-.284,94.288,94.288,0,0,1-9.759-2.387c-3.029-.862-5.847-1.662-8.413-2.24a42.616,42.616,0,0,0-7.109-1.052c-1.052,0-2.04-.063-2.945,0a21.358,21.358,0,0,0-2.45.305l-1.893.41-1.378.473-.852.284a1.546,1.546,0,0,1-.347.116l.273-.126.831-.337c.368-.137.831-.326,1.367-.515l1.893-.463a19.85,19.85,0,0,1,2.482-.347c.946-.116,1.893,0,2.976-.084a43.233,43.233,0,0,1,7.162.946c2.619.557,5.458,1.336,8.487,2.187a92.551,92.551,0,0,0,9.738,2.335,34.338,34.338,0,0,0,10.979.252,84.18,84.18,0,0,0,11.568-2.629,84.233,84.233,0,0,1,11.568-2.734,34,34,0,0,1,11.116.231c3.513.62,6.752,1.514,9.8,2.261a57.359,57.359,0,0,0,8.539,1.6,29.577,29.577,0,0,0,7.151-.137,19.916,19.916,0,0,0,5.258-1.483,18.479,18.479,0,0,0,3.986-2.482Z" transform="translate(-33 -8.144)" fill="#e0e0e0"/>
        <path id="Trazado_109041" data-name="Trazado 109041" d="M301.05,453.507a12.266,12.266,0,0,0-1.746-1.251,13.409,13.409,0,0,0-5.511-1.756,26.914,26.914,0,0,0-8.6.641,69.667,69.667,0,0,1-10.517,1.9c-3.849.2-7.414-.883-10.59-1.651a39.165,39.165,0,0,0-4.543-.957,18.225,18.225,0,0,0-4.007-.052,11.148,11.148,0,0,0-5.427,1.893,15.82,15.82,0,0,0-1.588,1.441,5.889,5.889,0,0,1,1.472-1.588,10.906,10.906,0,0,1,5.5-2.1,17.879,17.879,0,0,1,4.1,0,34.23,34.23,0,0,1,4.606.883c3.155.757,6.689,1.83,10.432,1.6a76.3,76.3,0,0,0,10.432-1.84,26.479,26.479,0,0,1,8.729-.547,12.873,12.873,0,0,1,5.574,1.946,8.026,8.026,0,0,1,1.251,1A3.491,3.491,0,0,1,301.05,453.507Z" transform="translate(-21.866 -8.831)" fill="#e0e0e0"/>
        <rect id="Rectángulo_8656" data-name="Rectángulo 8656" width="3.239" height="117.88" transform="translate(321.934 189.28)" fill="#fff"/>
        <rect id="Rectángulo_8657" data-name="Rectángulo 8657" width="3.239" height="117.88" transform="translate(314.12 189.28)" fill="#fff"/>
        <rect id="Rectángulo_8658" data-name="Rectángulo 8658" width="3.239" height="117.88" transform="translate(284.432 189.28)" fill="#fff"/>
        <rect id="Rectángulo_8659" data-name="Rectángulo 8659" width="3.239" height="117.88" transform="translate(352.4 189.28)" fill="#fff"/>
        <rect id="Rectángulo_8660" data-name="Rectángulo 8660" width="33.706" height="3.323" transform="translate(321.934 189.28)" fill="#fff"/>
        <rect id="Rectángulo_8661" data-name="Rectángulo 8661" width="230.282" height="3.839" transform="translate(244.921 197.304)" fill="#fff"/>
        <rect id="Rectángulo_8662" data-name="Rectángulo 8662" width="69.578" height="3.586" transform="translate(284.432 248.226)" fill="#fff"/>
        <rect id="Rectángulo_8663" data-name="Rectángulo 8663" width="2.897" height="55.243" transform="translate(286.172 201.166) rotate(-31.926)" fill="#fff"/>
        <rect id="Rectángulo_8664" data-name="Rectángulo 8664" width="2.892" height="55.244" transform="translate(321.962 204.103) rotate(-31.926)" fill="#fff"/>
        <rect id="Rectángulo_8665" data-name="Rectángulo 8665" width="51.636" height="16.322" transform="translate(268.762 180.982)" fill="#fff"/>
        <path id="Trazado_109042" data-name="Trazado 109042" d="M439.835,223.572l-81.388-62.321-29,48.439-1.073-.652L358.09,159.4l.557.431L440.6,222.573Z" transform="translate(-17.741 -23.839)" fill="#fff"/>
        <path id="Trazado_109043" data-name="Trazado 109043" d="M339,226.361l18.72-68.431,15.87,65.823Zm18.646-63.394-16.974,62.048,31.339-2.356Z" transform="translate(-17.192 -23.915)" fill="#fff"/>
      </g>
      <g id="freepik--Sea--inject-45" transform="translate(13.133 416.446)">
        <path id="Trazado_109044" data-name="Trazado 109044" d="M120.066,426.584l-1.893-.925a14.555,14.555,0,0,0-5.342-1.588,17.691,17.691,0,0,0-3.87.294c-1.4.21-2.829.463-4.427.82a53.033,53.033,0,0,1-10.212,1.641c-3.733.063-7.151-1.052-10.212-1.735a34.932,34.932,0,0,0-4.406-.82,18.3,18.3,0,0,0-3.87,0,11.116,11.116,0,0,0-5.258,1.84,18.74,18.74,0,0,0-1.535,1.346,2.39,2.39,0,0,1,.3-.421,6.731,6.731,0,0,1,1.115-1.052,10.821,10.821,0,0,1,5.258-2.1,17.245,17.245,0,0,1,3.965-.074,35.3,35.3,0,0,1,4.459.789c3.155.7,6.468,1.756,10.106,1.693a56.238,56.238,0,0,0,10.127-1.6c1.556-.337,3.06-.578,4.459-.789a19.131,19.131,0,0,1,3.954-.242,14.06,14.06,0,0,1,5.416,1.777c.589.326,1.052.578,1.336.768a2.1,2.1,0,0,1,.526.379Z" transform="translate(-10.105 -396.136)" fill="#344154"/>
        <path id="Trazado_109045" data-name="Trazado 109045" d="M65.3,400.908a13.341,13.341,0,0,0-1.735-1.22,13.524,13.524,0,0,0-5.469-1.7,27.174,27.174,0,0,0-8.55.631,71,71,0,0,1-10.517,1.84c-3.807.2-7.362-.862-10.517-1.609a41.5,41.5,0,0,0-4.522-.915A18.048,18.048,0,0,0,20,397.869a11.347,11.347,0,0,0-5.4,1.851A18.853,18.853,0,0,0,13,401.181a6.236,6.236,0,0,1,1.472-1.546,11.011,11.011,0,0,1,5.469-2.03,17.564,17.564,0,0,1,4.07,0,37.444,37.444,0,0,1,4.585.852c3.155.736,6.594,1.777,10.369,1.556a76.358,76.358,0,0,0,10.422-1.788,27.027,27.027,0,0,1,8.676-.536,13.041,13.041,0,0,1,5.532,1.893,8.1,8.1,0,0,1,1.262.978,3.011,3.011,0,0,1,.442.347Z" transform="translate(-13 -397.488)" fill="#344154"/>
        <path id="Trazado_109046" data-name="Trazado 109046" d="M487.049,433.65a5.354,5.354,0,0,1-.81-.2c-.526-.137-1.283-.379-2.272-.684-1.967-.61-4.775-1.62-8.329-2.587a40.205,40.205,0,0,0-5.889-1.157,29.992,29.992,0,0,0-6.867,0c-4.838.515-10.033,1.967-15.649,2.661a30.223,30.223,0,0,1-8.266,0c-2.64-.347-5.164-.873-7.54-1.357a51.992,51.992,0,0,0-12.788-1.525,21.632,21.632,0,0,0-8.413,1.9,20.4,20.4,0,0,0-2.04,1.157,6.186,6.186,0,0,1-.7.452,11.986,11.986,0,0,1,2.661-1.777,21.19,21.19,0,0,1,8.487-2.1,51.929,51.929,0,0,1,12.9,1.43c4.775.978,10.075,2.177,15.67,1.325s10.769-2.1,15.649-2.64a30.922,30.922,0,0,1,6.973,0,41.072,41.072,0,0,1,5.942,1.22c3.544,1.052,6.31,2.1,8.287,2.766l2.251.768A4.213,4.213,0,0,1,487.049,433.65Z" transform="translate(7.378 -395.893)" fill="#344154"/>
      </g>
      <g id="freepik--Crane--inject-45" transform="translate(10.42 116.757)">
        <rect id="Rectángulo_8666" data-name="Rectángulo 8666" width="366.23" height="22.432" transform="translate(0 229.756)" fill="#344154"/>
        <path id="Trazado_109047" data-name="Trazado 109047" d="M134.732,333.713H99.47V287.44h35.262Zm-34.326-.946h33.38v-44.38H100.417Z" transform="translate(-5.82 -103.484)" fill="#344154"/>
        <rect id="Rectángulo_8667" data-name="Rectángulo 8667" width="28.542" height="47.987" transform="translate(128.45 184.429)" fill="#344154"/>
        <rect id="Rectángulo_8668" data-name="Rectángulo 8668" width="3.397" height="175.795" transform="translate(206.63 57.137)" fill="#344154"/>
        <rect id="Rectángulo_8669" data-name="Rectángulo 8669" width="3.397" height="175.795" transform="translate(214.78 57.137)" fill="#344154"/>
        <rect id="Rectángulo_8670" data-name="Rectángulo 8670" width="3.397" height="175.795" transform="translate(245.857 57.137)" fill="#344154"/>
        <rect id="Rectángulo_8671" data-name="Rectángulo 8671" width="3.397" height="175.795" transform="translate(174.744 57.137)" fill="#344154"/>
        <rect id="Rectángulo_8672" data-name="Rectángulo 8672" width="35.262" height="3.492" transform="translate(174.744 57.137)" fill="#344154"/>
        <rect id="Rectángulo_8673" data-name="Rectángulo 8673" width="240.925" height="4.007" transform="translate(49.649 65.539)" fill="#344154"/>
        <rect id="Rectángulo_8674" data-name="Rectángulo 8674" width="72.806" height="3.754" transform="translate(176.447 118.806)" fill="#344154"/>
        <rect id="Rectángulo_8675" data-name="Rectángulo 8675" width="57.705" height="3.029" transform="translate(215.4 119.081) rotate(-58.33)" fill="#344154"/>
        <rect id="Rectángulo_8676" data-name="Rectángulo 8676" width="57.705" height="3.029" transform="translate(176.37 117.656) rotate(-58.33)" fill="#344154"/>
        <rect id="Rectángulo_8677" data-name="Rectángulo 8677" width="54.034" height="17.079" transform="translate(211.615 48.46)" fill="#344154"/>
        <path id="Trazado_109048" data-name="Trazado 109048" d="M110.388,180.377l-.578-.747,86.173-65.971,30.982,51.763-.8.494L195.72,115.069Z" transform="translate(-5.286 -112.461)" fill="#344154"/>
        <path id="Trazado_109049" data-name="Trazado 109049" d="M211.756,183.191,176,180.5l16.374-67.979Zm-34.579-3.555,33.264,2.5-18.015-65.813Z" transform="translate(-1.866 -112.52)" fill="#344154"/>
        <path id="Trazado_109050" data-name="Trazado 109050" d="M42.13,243.616l2.882-15.586,17.752-53.34.894.3L45.916,228.262l-2.64,14.387,58.967-1.031L79.159,174.995l.894-.3,23.515,67.843Z" transform="translate(-8.782 -109.308)" fill="#344154"/>
        <rect id="Rectángulo_8678" data-name="Rectángulo 8678" width="23.052" height="28.006" transform="translate(18.677 119.7)" fill="#344154"/>
        <rect id="Rectángulo_8679" data-name="Rectángulo 8679" width="64.467" height="28.006" transform="translate(41.74 119.7)" fill="#344154"/>
        <path id="Trazado_109051" data-name="Trazado 109051" d="M39.612,254.364c-.137,0-.242-6.226-.242-13.882s.105-13.882.242-13.882.252,6.2.252,13.882S39.749,254.364,39.612,254.364Z" transform="translate(-8.924 -106.627)" fill="#455a64"/>
        <path id="Trazado_109052" data-name="Trazado 109052" d="M50.122,254.364c-.137,0-.252-6.226-.252-13.882s.116-13.882.252-13.882.242,6.2.242,13.882S50.249,254.364,50.122,254.364Z" transform="translate(-8.382 -106.627)" fill="#455a64"/>
        <path id="Trazado_109053" data-name="Trazado 109053" d="M110.869,251v-5.711c0-3.7,0-9.034-.084-15.68l.158.168-58.083.084.242-.242h0V251.03l-.315-.189,41.562.116,12.126.063h.126l-12.157.053-41.73.105H52.47V229.5h0l.252-.252,58.094.084h.168v.158c0,6.636-.063,12.052-.095,15.775v5.258a1.472,1.472,0,0,1-.021.473Z" transform="translate(-8.248 -106.49)" fill="#455a64"/>
        <path id="Trazado_109054" data-name="Trazado 109054" d="M57.012,250.983c-.147,0-.252-4.8-.252-10.716s.105-10.716.252-10.716.242,4.8.242,10.716S57.128,250.983,57.012,250.983Z" transform="translate(-8.026 -106.474)" fill="#455a64"/>
        <path id="Trazado_109055" data-name="Trazado 109055" d="M62.192,250.983c-.147,0-.252-4.8-.252-10.716s.105-10.716.252-10.716.242,4.8.242,10.716S62.319,250.983,62.192,250.983Z" transform="translate(-7.759 -106.474)" fill="#455a64"/>
        <path id="Trazado_109056" data-name="Trazado 109056" d="M67.382,250.983c-.126,0-.242-4.8-.242-10.716s.116-10.716.242-10.716.252,4.8.252,10.716S67.519,250.983,67.382,250.983Z" transform="translate(-7.49 -106.474)" fill="#455a64"/>
        <path id="Trazado_109057" data-name="Trazado 109057" d="M72.582,250.983c-.137,0-.252-4.8-.252-10.716s.116-10.716.252-10.716.242,4.8.242,10.716S72.719,250.983,72.582,250.983Z" transform="translate(-7.222 -106.474)" fill="#455a64"/>
        <path id="Trazado_109058" data-name="Trazado 109058" d="M77.772,250.983c-.137,0-.252-4.8-.252-10.716s.116-10.716.252-10.716.242,4.8.242,10.716S77.951,250.983,77.772,250.983Z" transform="translate(-6.954 -106.474)" fill="#455a64"/>
        <path id="Trazado_109059" data-name="Trazado 109059" d="M83.012,250.983c-.137,0-.252-4.8-.252-10.716s.116-10.716.252-10.716.252,4.8.252,10.716S83.107,250.983,83.012,250.983Z" transform="translate(-6.683 -106.474)" fill="#455a64"/>
        <path id="Trazado_109060" data-name="Trazado 109060" d="M88.172,250.983c-.147,0-.252-4.8-.252-10.716s.105-10.716.252-10.716.242,4.8.242,10.716S88.3,250.983,88.172,250.983Z" transform="translate(-6.416 -106.474)" fill="#455a64"/>
        <path id="Trazado_109061" data-name="Trazado 109061" d="M93.362,250.983c-.147,0-.252-4.8-.252-10.716s.105-10.716.252-10.716.242,4.8.242,10.716S93.5,250.983,93.362,250.983Z" transform="translate(-6.148 -106.474)" fill="#455a64"/>
        <path id="Trazado_109062" data-name="Trazado 109062" d="M98.552,250.983c-.126,0-.242-4.8-.242-10.716s.116-10.716.242-10.716.252,4.8.252,10.716S98.689,250.983,98.552,250.983Z" transform="translate(-5.88 -106.474)" fill="#455a64"/>
        <path id="Trazado_109063" data-name="Trazado 109063" d="M103.752,250.983c-.137,0-.252-4.8-.252-10.716s.116-10.716.252-10.716.242,4.8.242,10.716S103.889,250.983,103.752,250.983Z" transform="translate(-5.612 -106.474)" fill="#455a64"/>
      </g>
      <g id="freepik--Container--inject-45" transform="translate(64.852 275.589)">
        <path id="Trazado_109064" data-name="Trazado 109064" d="M416.715,309.814H407.25V293.65h6.689Z" transform="translate(-44.352 -261.995)" fill="#d9a171"/>
        <rect id="Rectángulo_8680" data-name="Rectángulo 8680" width="23.052" height="28.006" transform="translate(149.201 55.843)" fill="#d9a171"/>
        <rect id="Rectángulo_8681" data-name="Rectángulo 8681" width="23.052" height="28.006" transform="translate(149.201 55.843)" fill="#fff" opacity="0.4"/>
        <rect id="Rectángulo_8682" data-name="Rectángulo 8682" width="64.467" height="28.006" transform="translate(172.253 55.843)" fill="#d9a171"/>
        <rect id="Rectángulo_8683" data-name="Rectángulo 8683" width="64.467" height="28.006" transform="translate(172.253 55.843)" fill="#fff" opacity="0.2"/>
        <path id="Trazado_109065" data-name="Trazado 109065" d="M215.472,344.643c-.126,0-.242-6.226-.242-13.882s.116-13.871.242-13.871.252,6.2.252,13.871S215.619,344.643,215.472,344.643Z" transform="translate(-54.272 -260.794)" fill="#344154"/>
        <path id="Trazado_109066" data-name="Trazado 109066" d="M286.692,341.307a2.415,2.415,0,0,1,0-.389v-5.363c0-3.7-.063-9.034-.095-15.67l.168.168-58.094.084c-.221.21.294-.3.242-.252h0v21.422l-.242-.231,41.562.095,12.126.074h.116l-12.084.063-41.719.116h-.231V319.885h0c-.063.053.473-.473.252-.242l58.094.074h.168v.168c0,6.636-.074,12.042-.095,15.775v5.258a3.72,3.72,0,0,1-.168.389Z" transform="translate(-53.59 -260.655)" fill="#344154"/>
        <path id="Trazado_109067" data-name="Trazado 109067" d="M232.862,341.292c-.137,0-.252-4.8-.252-10.716s.116-10.706.252-10.706.242,4.8.242,10.706S233.02,341.292,232.862,341.292Z" transform="translate(-53.374 -260.641)" fill="#344154"/>
        <path id="Trazado_109068" data-name="Trazado 109068" d="M238.063,341.292c-.147,0-.263-4.8-.263-10.716s.116-10.706.263-10.706.242,4.8.242,10.706S238.189,341.292,238.063,341.292Z" transform="translate(-53.106 -260.641)" fill="#344154"/>
        <path id="Trazado_109069" data-name="Trazado 109069" d="M243.252,341.292c-.137,0-.242-4.8-.242-10.716s.105-10.706.242-10.706.252,4.8.252,10.706S243.389,341.292,243.252,341.292Z" transform="translate(-52.837 -260.641)" fill="#344154"/>
        <path id="Trazado_109070" data-name="Trazado 109070" d="M248.452,341.292c-.147,0-.252-4.8-.252-10.716s.105-10.706.252-10.706.242,4.8.242,10.706S248.579,341.292,248.452,341.292Z" transform="translate(-52.569 -260.641)" fill="#344154"/>
        <path id="Trazado_109071" data-name="Trazado 109071" d="M253.642,341.292c-.137,0-.252-4.8-.252-10.716s.116-10.706.252-10.706.242,4.8.242,10.706S253.769,341.292,253.642,341.292Z" transform="translate(-52.3 -260.641)" fill="#344154"/>
        <path id="Trazado_109072" data-name="Trazado 109072" d="M258.832,341.292c-.126,0-.242-4.8-.242-10.716s.116-10.706.242-10.706.252,4.8.252,10.706S259.021,341.292,258.832,341.292Z" transform="translate(-52.032 -260.641)" fill="#344154"/>
        <path id="Trazado_109073" data-name="Trazado 109073" d="M264.012,341.292c-.137,0-.252-4.8-.252-10.716s.116-10.706.252-10.706.242,4.8.242,10.706S264.17,341.292,264.012,341.292Z" transform="translate(-51.765 -260.641)" fill="#344154"/>
        <path id="Trazado_109074" data-name="Trazado 109074" d="M269.232,341.292c-.147,0-.252-4.8-.252-10.716s.105-10.706.252-10.706.242,4.8.242,10.706S269.359,341.292,269.232,341.292Z" transform="translate(-51.495 -260.641)" fill="#344154"/>
        <path id="Trazado_109075" data-name="Trazado 109075" d="M274.422,341.292c-.137,0-.242-4.8-.242-10.716s.105-10.706.242-10.706.252,4.8.252,10.706S274.559,341.292,274.422,341.292Z" transform="translate(-51.227 -260.641)" fill="#344154"/>
        <path id="Trazado_109076" data-name="Trazado 109076" d="M279.622,341.292c-.137,0-.252-4.8-.252-10.716s.116-10.706.252-10.706.242,4.8.242,10.706S279.749,341.292,279.622,341.292Z" transform="translate(-50.958 -260.641)" fill="#344154"/>
        <rect id="Rectángulo_8684" data-name="Rectángulo 8684" width="23.052" height="28.006" transform="translate(225.372)" fill="#d9a171"/>
        <rect id="Rectángulo_8685" data-name="Rectángulo 8685" width="23.052" height="28.006" transform="translate(225.372)" fill="#fff" opacity="0.4"/>
        <rect id="Rectángulo_8686" data-name="Rectángulo 8686" width="64.467" height="28.006" transform="translate(248.425)" fill="#d9a171"/>
        <rect id="Rectángulo_8687" data-name="Rectángulo 8687" width="64.467" height="28.006" transform="translate(248.425)" fill="#fff" opacity="0.2"/>
        <path id="Trazado_109077" data-name="Trazado 109077" d="M287.9,291.544c-.126,0-.242-6.215-.242-13.882s.116-13.882.242-13.882.252,6.215.252,13.882S288.018,291.544,287.9,291.544Z" transform="translate(-50.53 -263.538)" fill="#344154"/>
        <path id="Trazado_109078" data-name="Trazado 109078" d="M359.122,288.207a1.209,1.209,0,0,1,0-.389v-5.363c0-3.7-.063-9.034-.095-15.67l.168.168-58.1.084.252-.252h0V288.2l-.242-.231,41.562.105,12.126.063h.105l-12.063.063-41.73.116h-.231V266.8h0c-.063.053.463-.473.242-.252l58.1.084h.158v.168c0,6.636-.063,12.042-.084,15.775,0,1.809,0,3.218-.053,4.207v1.052A.421.421,0,0,1,359.122,288.207Z" transform="translate(-49.848 -263.398)" fill="#344154"/>
        <path id="Trazado_109079" data-name="Trazado 109079" d="M305.292,288.192c-.137,0-.252-4.8-.252-10.716s.116-10.706.252-10.706.242,4.8.242,10.706S305.419,288.192,305.292,288.192Z" transform="translate(-49.632 -263.384)" fill="#344154"/>
        <path id="Trazado_109080" data-name="Trazado 109080" d="M310.482,288.192c-.137,0-.242-4.8-.242-10.716s.105-10.706.242-10.706.242,4.8.242,10.706S310.577,288.192,310.482,288.192Z" transform="translate(-49.364 -263.384)" fill="#344154"/>
        <path id="Trazado_109081" data-name="Trazado 109081" d="M315.672,288.192c-.126,0-.242-4.8-.242-10.716s.116-10.706.242-10.706.252,4.8.252,10.706S315.819,288.192,315.672,288.192Z" transform="translate(-49.096 -263.384)" fill="#344154"/>
        <path id="Trazado_109082" data-name="Trazado 109082" d="M320.872,288.192c-.137,0-.252-4.8-.252-10.716s.116-10.706.252-10.706.252,4.8.252,10.706S321.02,288.192,320.872,288.192Z" transform="translate(-48.827 -263.384)" fill="#344154"/>
        <path id="Trazado_109083" data-name="Trazado 109083" d="M326.072,288.192c-.147,0-.252-4.8-.252-10.716s.105-10.706.252-10.706.242,4.8.242,10.706S326.209,288.192,326.072,288.192Z" transform="translate(-48.559 -263.384)" fill="#344154"/>
        <path id="Trazado_109084" data-name="Trazado 109084" d="M331.312,288.192c-.147,0-.252-4.8-.252-10.716s.105-10.706.252-10.706.242,4.8.242,10.706S331.4,288.192,331.312,288.192Z" transform="translate(-48.288 -263.384)" fill="#344154"/>
        <path id="Trazado_109085" data-name="Trazado 109085" d="M336.462,288.192c-.137,0-.252-4.8-.252-10.716s.116-10.706.252-10.706.242,4.8.242,10.706S336.589,288.192,336.462,288.192Z" transform="translate(-48.022 -263.384)" fill="#344154"/>
        <path id="Trazado_109086" data-name="Trazado 109086" d="M341.652,288.192c-.137,0-.242-4.8-.242-10.716s.105-10.706.242-10.706.242,4.8.242,10.706S341.8,288.192,341.652,288.192Z" transform="translate(-47.753 -263.384)" fill="#344154"/>
        <path id="Trazado_109087" data-name="Trazado 109087" d="M346.842,288.192c-.126,0-.242-4.8-.242-10.716s.116-10.706.242-10.706.252,4.8.252,10.706S347.021,288.192,346.842,288.192Z" transform="translate(-47.485 -263.384)" fill="#344154"/>
        <path id="Trazado_109088" data-name="Trazado 109088" d="M352.013,288.192c-.147,0-.263-4.8-.263-10.716s.116-10.706.263-10.706.242,4.8.242,10.706a105.382,105.382,0,0,1-.242,10.716Z" transform="translate(-47.219 -263.384)" fill="#344154"/>
        <rect id="Rectángulo_8688" data-name="Rectángulo 8688" width="23.052" height="28.006" transform="translate(26.914 70.009)" fill="#d9a171"/>
        <rect id="Rectángulo_8689" data-name="Rectángulo 8689" width="23.052" height="28.006" transform="translate(26.914 70.009)" fill="#fff" opacity="0.4"/>
        <rect id="Rectángulo_8690" data-name="Rectángulo 8690" width="64.467" height="28.006" transform="translate(49.966 70.009)" fill="#d9a171"/>
        <rect id="Rectángulo_8691" data-name="Rectángulo 8691" width="64.467" height="28.006" transform="translate(49.966 70.009)" fill="#fff" opacity="0.2"/>
        <path id="Trazado_109089" data-name="Trazado 109089" d="M99.192,358.113c-.126,0-.242-6.215-.242-13.882s.116-13.871.242-13.871.252,6.2.252,13.871S99.329,358.113,99.192,358.113Z" transform="translate(-60.279 -260.099)" fill="#344154"/>
        <path id="Trazado_109090" data-name="Trazado 109090" d="M170.412,354.777a1.209,1.209,0,0,1,0-.389v-5.363c0-3.7-.063-9.034-.095-15.67l.168.168-58.1.084.252-.252h0v21.422l-.242-.231,41.562.105,12.136.074h.095l-12.063.063-41.73.116h-.231V333.355h0c-.063,0,.463-.473.242-.242l58.1.074h.158v.168c0,6.636-.063,12.042-.084,15.775,0,1.809,0,3.218-.053,4.207v1.052A.463.463,0,0,1,170.412,354.777Z" transform="translate(-59.597 -259.96)" fill="#344154"/>
        <path id="Trazado_109091" data-name="Trazado 109091" d="M116.582,354.762c-.147,0-.252-4.8-.252-10.716s.105-10.706.252-10.706.242,4.743.242,10.706S116.719,354.762,116.582,354.762Z" transform="translate(-59.381 -259.945)" fill="#344154"/>
        <path id="Trazado_109092" data-name="Trazado 109092" d="M121.772,354.762c-.137,0-.242-4.8-.242-10.716s.105-10.706.242-10.706.242,4.743.242,10.706S121.909,354.762,121.772,354.762Z" transform="translate(-59.112 -259.945)" fill="#344154"/>
        <path id="Trazado_109093" data-name="Trazado 109093" d="M127.012,354.762c-.126,0-.242-4.8-.242-10.716s.116-10.706.242-10.706.252,4.743.252,10.706S127.107,354.762,127.012,354.762Z" transform="translate(-58.842 -259.945)" fill="#344154"/>
        <path id="Trazado_109094" data-name="Trazado 109094" d="M132.162,354.762c-.137,0-.252-4.8-.252-10.716s.116-10.706.252-10.706.242,4.743.242,10.706S132.3,354.762,132.162,354.762Z" transform="translate(-58.576 -259.945)" fill="#344154"/>
        <path id="Trazado_109095" data-name="Trazado 109095" d="M137.362,354.762c-.137,0-.242-4.8-.242-10.716s.105-10.706.242-10.706.242,4.743.242,10.706S137.457,354.762,137.362,354.762Z" transform="translate(-58.307 -259.945)" fill="#344154"/>
        <path id="Trazado_109096" data-name="Trazado 109096" d="M142.552,354.762c-.137,0-.242-4.8-.242-10.716s.105-10.706.242-10.706.252,4.743.252,10.706S142.689,354.762,142.552,354.762Z" transform="translate(-58.039 -259.945)" fill="#344154"/>
        <path id="Trazado_109097" data-name="Trazado 109097" d="M147.752,354.762c-.137,0-.252-4.8-.252-10.716s.116-10.706.252-10.706.242,4.743.242,10.706S147.879,354.762,147.752,354.762Z" transform="translate(-57.771 -259.945)" fill="#344154"/>
        <path id="Trazado_109098" data-name="Trazado 109098" d="M152.942,354.762c-.137,0-.242-4.8-.242-10.716s.105-10.706.242-10.706.252,4.743.252,10.706S153.079,354.762,152.942,354.762Z" transform="translate(-57.502 -259.945)" fill="#344154"/>
        <path id="Trazado_109099" data-name="Trazado 109099" d="M158.132,354.762c-.126,0-.242-4.8-.242-10.716s.116-10.706.242-10.706.252,4.743.252,10.706S158.279,354.762,158.132,354.762Z" transform="translate(-57.234 -259.945)" fill="#344154"/>
        <path id="Trazado_109100" data-name="Trazado 109100" d="M163.332,354.762c-.137,0-.252-4.8-.252-10.716s.116-10.706.252-10.706.242,4.743.242,10.706S163.469,354.762,163.332,354.762Z" transform="translate(-56.966 -259.945)" fill="#344154"/>
        <rect id="Rectángulo_8692" data-name="Rectángulo 8692" width="23.052" height="28.006" transform="translate(175.534 28.153)" fill="#344154"/>
        <rect id="Rectángulo_8693" data-name="Rectángulo 8693" width="64.467" height="28.006" transform="translate(198.597 28.153)" fill="#344154"/>
        <path id="Trazado_109101" data-name="Trazado 109101" d="M240.522,318.3c-.137,0-.242-6.2-.242-13.871s.105-13.882.242-13.882.242,6.215.242,13.882S240.659,318.3,240.522,318.3Z" transform="translate(-52.978 -262.155)" fill="#455a64"/>
        <path id="Trazado_109102" data-name="Trazado 109102" d="M251.062,318.3c-.147,0-.242-6.2-.242-13.871s.095-13.882.242-13.882.242,6.215.242,13.882S251.167,318.3,251.062,318.3Z" transform="translate(-52.433 -262.155)" fill="#455a64"/>
        <path id="Trazado_109103" data-name="Trazado 109103" d="M311.737,314.963v-5.753c0-3.7-.053-9.023-.095-15.67l.179.179-58.094.074c-.231.221.294-.3.242-.252h0v21.412l-.242-.242,41.562.116,12.126.063h0l-12.073.063-41.719.105h-.242v-21.5h0l.252-.242,58.094.074h.168v.168c0,6.689-.074,12.052-.095,15.775V314.6a1.683,1.683,0,0,1-.063.368Z" transform="translate(-52.301 -262.012)" fill="#455a64"/>
        <path id="Trazado_109104" data-name="Trazado 109104" d="M257.9,314.952c-.126,0-.242-4.8-.242-10.706s.116-10.716.242-10.716.252,4.806.252,10.716S258.018,314.952,257.9,314.952Z" transform="translate(-52.08 -262.001)" fill="#455a64"/>
        <path id="Trazado_109105" data-name="Trazado 109105" d="M263.1,314.952c-.137,0-.252-4.8-.252-10.706s.116-10.716.252-10.716.242,4.806.242,10.716S263.239,314.952,263.1,314.952Z" transform="translate(-51.812 -262.001)" fill="#455a64"/>
        <path id="Trazado_109106" data-name="Trazado 109106" d="M268.3,314.952c-.147,0-.242-4.8-.242-10.706s.095-10.716.242-10.716.242,4.806.242,10.716S268.439,314.952,268.3,314.952Z" transform="translate(-51.543 -262.001)" fill="#455a64"/>
        <path id="Trazado_109107" data-name="Trazado 109107" d="M273.492,314.952c-.137,0-.242-4.8-.242-10.706s.105-10.716.242-10.716.252,4.806.252,10.716S273.608,314.952,273.492,314.952Z" transform="translate(-51.275 -262.001)" fill="#455a64"/>
        <path id="Trazado_109108" data-name="Trazado 109108" d="M278.692,314.952c-.137,0-.252-4.8-.252-10.706s.116-10.716.252-10.716.242,4.806.242,10.716S278.819,314.952,278.692,314.952Z" transform="translate(-51.006 -262.001)" fill="#455a64"/>
        <path id="Trazado_109109" data-name="Trazado 109109" d="M283.882,314.952c-.137,0-.242-4.8-.242-10.706s.105-10.716.242-10.716.242,4.806.242,10.716S284.019,314.952,283.882,314.952Z" transform="translate(-50.738 -262.001)" fill="#455a64"/>
        <path id="Trazado_109110" data-name="Trazado 109110" d="M289.072,314.952c-.126,0-.242-4.8-.242-10.706s.116-10.716.242-10.716.252,4.806.252,10.716S289.219,314.952,289.072,314.952Z" transform="translate(-50.47 -262.001)" fill="#455a64"/>
        <path id="Trazado_109111" data-name="Trazado 109111" d="M294.272,314.952c-.137,0-.252-4.8-.252-10.706s.116-10.716.252-10.716.252,4.806.252,10.716S294.409,314.952,294.272,314.952Z" transform="translate(-50.202 -262.001)" fill="#455a64"/>
        <path id="Trazado_109112" data-name="Trazado 109112" d="M299.472,314.952c-.147,0-.242-4.8-.242-10.706s.095-10.716.242-10.716.242,4.806.242,10.716S299.609,314.952,299.472,314.952Z" transform="translate(-49.932 -262.001)" fill="#455a64"/>
        <path id="Trazado_109113" data-name="Trazado 109113" d="M304.662,314.952c-.137,0-.242-4.8-.242-10.706s.105-10.716.242-10.716.252,4.806.252,10.716S304.8,314.952,304.662,314.952Z" transform="translate(-49.664 -262.001)" fill="#455a64"/>
        <rect id="Rectángulo_8694" data-name="Rectángulo 8694" width="23.052" height="28.006" transform="translate(119.775 84.753)" fill="#d9a171"/>
        <rect id="Rectángulo_8695" data-name="Rectángulo 8695" width="64.467" height="28.006" transform="translate(142.838 84.753)" fill="#d9a171"/>
        <rect id="Rectángulo_8696" data-name="Rectángulo 8696" width="64.467" height="28.006" transform="translate(142.838 84.753)" opacity="0.4"/>
        <path id="Trazado_109114" data-name="Trazado 109114" d="M187.5,372.123c-.137,0-.242-6.2-.242-13.882s.105-13.871.242-13.871.252,6.215.252,13.871S187.639,372.123,187.5,372.123Z" transform="translate(-55.717 -259.375)" fill="#344154"/>
        <path id="Trazado_109115" data-name="Trazado 109115" d="M258.717,368.79v-5.753c0-3.7,0-9.023-.084-15.67l.158.168-58.083.084.242-.252h0V368.79l-.231-.231,41.562.116,12.115.063h0l-12.073.063-41.73.116h-.242V347.252h0L200.6,347l58.094.084h.179v.168c0,6.636-.063,12.042-.095,15.775v5.258a1.484,1.484,0,0,1-.063.5Z" transform="translate(-55.04 -259.239)" fill="#344154"/>
        <path id="Trazado_109116" data-name="Trazado 109116" d="M204.892,368.772c-.147,0-.252-4.8-.252-10.716s.105-10.706.252-10.706.242,4.8.242,10.706S205.019,368.772,204.892,368.772Z" transform="translate(-54.819 -259.221)" fill="#344154"/>
        <path id="Trazado_109117" data-name="Trazado 109117" d="M210.082,368.772c-.147,0-.252-4.8-.252-10.716s.105-10.706.252-10.706.242,4.8.242,10.706S210.219,368.772,210.082,368.772Z" transform="translate(-54.551 -259.221)" fill="#344154"/>
        <path id="Trazado_109118" data-name="Trazado 109118" d="M215.272,368.772c-.126,0-.242-4.8-.242-10.716s.116-10.706.242-10.706.252,4.8.252,10.706S215.409,368.772,215.272,368.772Z" transform="translate(-54.282 -259.221)" fill="#344154"/>
        <path id="Trazado_109119" data-name="Trazado 109119" d="M220.472,368.772c-.137,0-.252-4.8-.252-10.716s.116-10.706.252-10.706.242,4.8.242,10.706S220.609,368.772,220.472,368.772Z" transform="translate(-54.014 -259.221)" fill="#344154"/>
        <path id="Trazado_109120" data-name="Trazado 109120" d="M225.662,368.772c-.137,0-.242-4.8-.242-10.716s.105-10.706.242-10.706.242,4.8.242,10.706S225.82,368.772,225.662,368.772Z" transform="translate(-53.745 -259.221)" fill="#344154"/>
        <path id="Trazado_109121" data-name="Trazado 109121" d="M230.852,368.772c-.126,0-.242-4.8-.242-10.716s.116-10.706.242-10.706.263,4.8.263,10.706a101.518,101.518,0,0,1-.263,10.716Z" transform="translate(-53.477 -259.221)" fill="#344154"/>
        <path id="Trazado_109122" data-name="Trazado 109122" d="M236.062,368.772c-.147,0-.252-4.8-.252-10.716s.105-10.706.252-10.706.242,4.8.242,10.706S236.189,368.772,236.062,368.772Z" transform="translate(-53.209 -259.221)" fill="#344154"/>
        <path id="Trazado_109123" data-name="Trazado 109123" d="M241.252,368.772c-.147,0-.242-4.8-.242-10.716s.095-10.706.242-10.706.242,4.8.242,10.706S241.389,368.772,241.252,368.772Z" transform="translate(-52.94 -259.221)" fill="#344154"/>
        <path id="Trazado_109124" data-name="Trazado 109124" d="M246.442,368.772c-.126,0-.242-4.8-.242-10.716s.116-10.706.242-10.706.252,4.8.252,10.706S246.558,368.772,246.442,368.772Z" transform="translate(-52.672 -259.221)" fill="#344154"/>
        <path id="Trazado_109125" data-name="Trazado 109125" d="M251.642,368.772c-.137,0-.252-4.8-.252-10.716s.116-10.706.252-10.706.242,4.8.242,10.706S251.779,368.772,251.642,368.772Z" transform="translate(-52.404 -259.221)" fill="#344154"/>
        <rect id="Rectángulo_8697" data-name="Rectángulo 8697" width="23.052" height="28.006" transform="translate(193.454 83.838)" fill="#344154"/>
        <rect id="Rectángulo_8698" data-name="Rectángulo 8698" width="64.467" height="28.006" transform="translate(216.507 83.838)" fill="#344154"/>
        <path id="Trazado_109126" data-name="Trazado 109126" d="M257.552,371.264c-.137,0-.242-6.226-.242-13.882s.105-13.882.242-13.882.252,6.2.252,13.882S257.689,371.264,257.552,371.264Z" transform="translate(-52.098 -259.42)" fill="#455a64"/>
        <path id="Trazado_109127" data-name="Trazado 109127" d="M268.062,371.264c-.137,0-.252-6.226-.252-13.882s.116-13.882.252-13.882.242,6.2.242,13.882S268.2,371.264,268.062,371.264Z" transform="translate(-51.556 -259.42)" fill="#455a64"/>
        <path id="Trazado_109128" data-name="Trazado 109128" d="M328.753,367.927v-1.514c0-.989,0-2.419-.053-4.207,0-3.691,0-9.023-.084-15.67l.168.168-58.094.084.242-.242h0v21.412l-.231-.242,41.562.105,12.115.074h.116l-12.073.063-41.719.116h-.242V346.516h0s.463-.473.252-.263l58.083.095h.179v.158c0,6.636-.074,12.052-.095,15.775v5.258A2.107,2.107,0,0,1,328.753,367.927Z" transform="translate(-51.419 -259.28)" fill="#455a64"/>
        <path id="Trazado_109129" data-name="Trazado 109129" d="M274.942,367.913c-.147,0-.252-4.8-.252-10.716s.105-10.716.252-10.716.242,4.8.242,10.716S275.069,367.913,274.942,367.913Z" transform="translate(-51.2 -259.266)" fill="#455a64"/>
        <path id="Trazado_109130" data-name="Trazado 109130" d="M280.132,367.913c-.147,0-.242-4.8-.242-10.716s.095-10.716.242-10.716.242,4.8.242,10.716S280.269,367.913,280.132,367.913Z" transform="translate(-50.932 -259.266)" fill="#455a64"/>
        <path id="Trazado_109131" data-name="Trazado 109131" d="M285.322,367.913c-.126,0-.242-4.8-.242-10.716s.116-10.716.242-10.716.252,4.8.252,10.716S285.459,367.913,285.322,367.913Z" transform="translate(-50.663 -259.266)" fill="#455a64"/>
        <path id="Trazado_109132" data-name="Trazado 109132" d="M290.522,367.913c-.137,0-.252-4.8-.252-10.716s.116-10.716.252-10.716.242,4.8.242,10.716S290.659,367.913,290.522,367.913Z" transform="translate(-50.395 -259.266)" fill="#455a64"/>
        <path id="Trazado_109133" data-name="Trazado 109133" d="M295.712,367.913c-.137,0-.242-4.8-.242-10.716s.105-10.716.242-10.716.242,4.8.242,10.716S295.859,367.913,295.712,367.913Z" transform="translate(-50.127 -259.266)" fill="#455a64"/>
        <path id="Trazado_109134" data-name="Trazado 109134" d="M300.912,367.913c-.137,0-.242-4.8-.242-10.716s.105-10.716.242-10.716.252,4.8.252,10.716S301.017,367.913,300.912,367.913Z" transform="translate(-49.858 -259.266)" fill="#455a64"/>
        <path id="Trazado_109135" data-name="Trazado 109135" d="M306.112,367.913c-.147,0-.252-4.8-.252-10.716s.105-10.716.252-10.716.242,4.8.242,10.716S306.239,367.913,306.112,367.913Z" transform="translate(-49.59 -259.266)" fill="#455a64"/>
        <path id="Trazado_109136" data-name="Trazado 109136" d="M311.3,367.913c-.137,0-.242-4.8-.242-10.716s.105-10.716.242-10.716.242,4.8.242,10.716S311.481,367.913,311.3,367.913Z" transform="translate(-49.321 -259.266)" fill="#455a64"/>
        <path id="Trazado_109137" data-name="Trazado 109137" d="M316.492,367.913c-.126,0-.242-4.8-.242-10.716s.116-10.716.242-10.716.252,4.8.252,10.716S316.629,367.913,316.492,367.913Z" transform="translate(-49.053 -259.266)" fill="#455a64"/>
        <path id="Trazado_109138" data-name="Trazado 109138" d="M321.692,367.913c-.137,0-.252-4.8-.252-10.716s.116-10.716.252-10.716.242,4.8.242,10.716S321.829,367.913,321.692,367.913Z" transform="translate(-48.785 -259.266)" fill="#455a64"/>
        <rect id="Rectángulo_8699" data-name="Rectángulo 8699" width="23.052" height="28.006" transform="translate(211.575 28.269)" fill="#455a64"/>
        <rect id="Rectángulo_8700" data-name="Rectángulo 8700" width="64.467" height="28.006" transform="translate(234.627 28.269)" fill="#455a64"/>
        <path id="Trazado_109139" data-name="Trazado 109139" d="M274.782,318.424c-.126,0-.242-6.226-.242-13.882s.116-13.882.242-13.882.252,6.215.252,13.882S274.929,318.424,274.782,318.424Z" transform="translate(-51.208 -262.15)" fill="#344154"/>
        <path id="Trazado_109140" data-name="Trazado 109140" d="M285.322,318.424c-.126,0-.242-6.226-.242-13.882s.116-13.882.242-13.882.252,6.215.252,13.882S285.427,318.424,285.322,318.424Z" transform="translate(-50.663 -262.15)" fill="#344154"/>
        <path id="Trazado_109141" data-name="Trazado 109141" d="M346,315.063a2.415,2.415,0,0,1,0-.389v-5.363c0-3.7-.063-9.034-.095-15.67l.168.168-58.1.084.252-.252h0v21.422l-.242-.242,41.562.105,12.1.137h.095l-12.063.063-41.73.116h-.231v-21.58h0l.242-.242,58.1.074h.168v.168c-.053,6.636-.074,12.042-.095,15.775V314.7a.4.4,0,0,1-.137.368Z" transform="translate(-50.527 -262.007)" fill="#344154"/>
        <path id="Trazado_109142" data-name="Trazado 109142" d="M292.172,315.052c-.137,0-.252-4.8-.252-10.716s.116-10.706.252-10.706.242,4.8.242,10.706S292.3,315.052,292.172,315.052Z" transform="translate(-50.31 -261.996)" fill="#344154"/>
        <path id="Trazado_109143" data-name="Trazado 109143" d="M297.362,315.052c-.137,0-.242-4.8-.242-10.716s.105-10.706.242-10.706.242,4.8.242,10.706S297.509,315.052,297.362,315.052Z" transform="translate(-50.041 -261.996)" fill="#344154"/>
        <path id="Trazado_109144" data-name="Trazado 109144" d="M302.552,315.052c-.126,0-.242-4.8-.242-10.716s.116-10.706.242-10.706.252,4.8.252,10.706S302.7,315.052,302.552,315.052Z" transform="translate(-49.773 -261.996)" fill="#344154"/>
        <path id="Trazado_109145" data-name="Trazado 109145" d="M307.762,315.052c-.147,0-.252-4.8-.252-10.716s.105-10.706.252-10.706.242,4.8.242,10.706S307.868,315.052,307.762,315.052Z" transform="translate(-49.505 -261.996)" fill="#344154"/>
        <path id="Trazado_109146" data-name="Trazado 109146" d="M312.952,315.052c-.147,0-.242-4.8-.242-10.716s.095-10.706.242-10.706.242,4.8.242,10.706S313.089,315.052,312.952,315.052Z" transform="translate(-49.236 -261.996)" fill="#344154"/>
        <path id="Trazado_109147" data-name="Trazado 109147" d="M318.142,315.052c-.126,0-.242-4.8-.242-10.716s.116-10.706.242-10.706.252,4.8.252,10.706S318.279,315.052,318.142,315.052Z" transform="translate(-48.968 -261.996)" fill="#344154"/>
        <path id="Trazado_109148" data-name="Trazado 109148" d="M323.342,315.052c-.137,0-.252-4.8-.252-10.716s.116-10.706.252-10.706.242,4.8.242,10.706S323.479,315.052,323.342,315.052Z" transform="translate(-48.7 -261.996)" fill="#344154"/>
        <path id="Trazado_109149" data-name="Trazado 109149" d="M328.532,315.052c-.137,0-.242-4.8-.242-10.716s.105-10.706.242-10.706.252,4.8.252,10.706S328.679,315.052,328.532,315.052Z" transform="translate(-48.431 -261.996)" fill="#344154"/>
        <path id="Trazado_109150" data-name="Trazado 109150" d="M333.732,315.052c-.137,0-.252-4.8-.252-10.716s.116-10.706.252-10.706.252,4.8.252,10.706S333.869,315.052,333.732,315.052Z" transform="translate(-48.163 -261.996)" fill="#344154"/>
        <path id="Trazado_109151" data-name="Trazado 109151" d="M338.932,315.052c-.147,0-.252-4.8-.252-10.716s.105-10.706.252-10.706.242,4.8.242,10.706S339.017,315.052,338.932,315.052Z" transform="translate(-47.894 -261.996)" fill="#344154"/>
        <rect id="Rectángulo_8701" data-name="Rectángulo 8701" width="23.052" height="28.006" transform="translate(177.07 55.843)" fill="#d9a171"/>
        <rect id="Rectángulo_8702" data-name="Rectángulo 8702" width="64.467" height="28.006" transform="translate(200.122 55.843)" fill="#d9a171"/>
        <rect id="Rectángulo_8703" data-name="Rectángulo 8703" width="64.467" height="28.006" transform="translate(200.122 55.843)" opacity="0.4"/>
        <path id="Trazado_109152" data-name="Trazado 109152" d="M242.012,344.643c-.137,0-.242-6.226-.242-13.882s.105-13.871.242-13.871.252,6.2.252,13.871S242.117,344.643,242.012,344.643Z" transform="translate(-52.901 -260.794)" fill="#344154"/>
        <path id="Trazado_109153" data-name="Trazado 109153" d="M313.191,341.307v-5.753c0-3.7-.063-9.034-.095-15.67l.168.168-58.094.084c-.221.21.294-.3.242-.252h0v21.422l-.242-.231,41.562.095,12.126.074h.116l-12.084.063-41.719.116h-.231V319.885h0c0,.053.473-.473.252-.242l58.094.074h.168v.168c0,6.636-.074,12.042-.095,15.775v5.258A3.743,3.743,0,0,1,313.191,341.307Z" transform="translate(-52.22 -260.655)" fill="#344154"/>
        <path id="Trazado_109154" data-name="Trazado 109154" d="M259.362,341.292c-.137,0-.252-4.8-.252-10.716s.116-10.706.252-10.706.242,4.8.242,10.706S259.5,341.292,259.362,341.292Z" transform="translate(-52.005 -260.641)" fill="#344154"/>
        <path id="Trazado_109155" data-name="Trazado 109155" d="M264.582,341.292c-.137,0-.242-4.8-.242-10.716s.105-10.706.242-10.706.252,4.8.252,10.706S264.687,341.292,264.582,341.292Z" transform="translate(-51.735 -260.641)" fill="#344154"/>
        <path id="Trazado_109156" data-name="Trazado 109156" d="M269.752,341.292c-.137,0-.242-4.8-.242-10.716s.105-10.706.242-10.706.252,4.8.252,10.706S269.889,341.292,269.752,341.292Z" transform="translate(-51.468 -260.641)" fill="#344154"/>
        <path id="Trazado_109157" data-name="Trazado 109157" d="M274.952,341.292c-.137,0-.252-4.8-.252-10.716s.116-10.706.252-10.706.242,4.8.242,10.706S275.079,341.292,274.952,341.292Z" transform="translate(-51.2 -260.641)" fill="#344154"/>
        <path id="Trazado_109158" data-name="Trazado 109158" d="M280.142,341.292c-.137,0-.252-4.8-.252-10.716s.116-10.706.252-10.706.242,4.8.242,10.706S280.269,341.292,280.142,341.292Z" transform="translate(-50.932 -260.641)" fill="#344154"/>
        <path id="Trazado_109159" data-name="Trazado 109159" d="M285.322,341.292c-.126,0-.242-4.8-.242-10.716s.116-10.706.242-10.706.252,4.8.252,10.706a106.907,106.907,0,0,1-.252,10.716Z" transform="translate(-50.663 -260.641)" fill="#344154"/>
        <path id="Trazado_109160" data-name="Trazado 109160" d="M290.532,341.292c-.137,0-.252-4.8-.252-10.716s.116-10.706.252-10.706.252,4.8.252,10.706S290.669,341.292,290.532,341.292Z" transform="translate(-50.395 -260.641)" fill="#344154"/>
        <path id="Trazado_109161" data-name="Trazado 109161" d="M295.732,341.292c-.147,0-.252-4.8-.252-10.716s.105-10.706.252-10.706.242,4.8.242,10.706S295.859,341.292,295.732,341.292Z" transform="translate(-50.126 -260.641)" fill="#344154"/>
        <path id="Trazado_109162" data-name="Trazado 109162" d="M300.922,341.292c-.137,0-.242-4.8-.242-10.716s.105-10.706.242-10.706.252,4.8.252,10.706S301.017,341.292,300.922,341.292Z" transform="translate(-49.858 -260.641)" fill="#344154"/>
        <path id="Trazado_109163" data-name="Trazado 109163" d="M306.122,341.292c-.137,0-.252-4.8-.252-10.716s.116-10.706.252-10.706.242,4.8.242,10.706S306.249,341.292,306.122,341.292Z" transform="translate(-49.589 -260.641)" fill="#344154"/>
        <rect id="Rectángulo_8704" data-name="Rectángulo 8704" width="23.052" height="28.006" transform="translate(241.862 55.727)" fill="#84aacc"/>
        <rect id="Rectángulo_8705" data-name="Rectángulo 8705" width="64.467" height="28.006" transform="translate(264.915 55.727)" fill="#6595bf"/>
        <path id="Trazado_109164" data-name="Trazado 109164" d="M303.582,344.523c-.126,0-.242-6.2-.242-13.871s.116-13.882.242-13.882.252,6.215.252,13.882S303.719,344.523,303.582,344.523Z" transform="translate(-49.72 -260.801)" fill="#344154"/>
        <path id="Trazado_109165" data-name="Trazado 109165" d="M314.092,344.523c-.137,0-.252-6.2-.252-13.871s.116-13.882.252-13.882.242,6.215.242,13.882S314.229,344.523,314.092,344.523Z" transform="translate(-49.178 -260.801)" fill="#344154"/>
        <path id="Trazado_109166" data-name="Trazado 109166" d="M374.8,341.183a1.207,1.207,0,0,1,0-.389v-5.353c0-3.712-.063-9.034-.095-15.68l.168.179-58.1.074.252-.252h0v21.412l-.242-.231,41.562.116,12.126.063h.105l-12.063.063-41.73.105h-.231V319.782h0l.242-.242,58.1.074h.158v.168c0,6.689-.063,12.052-.084,15.775v5.258C374.97,341.12,374.8,341.194,374.8,341.183Z" transform="translate(-49.038 -260.658)" fill="#344154"/>
        <path id="Trazado_109167" data-name="Trazado 109167" d="M321.012,341.172c-.137,0-.252-4.8-.252-10.706s.116-10.716.252-10.716.242,4.806.242,10.716S321.1,341.172,321.012,341.172Z" transform="translate(-48.82 -260.647)" fill="#344154"/>
        <path id="Trazado_109168" data-name="Trazado 109168" d="M326.162,341.172c-.137,0-.242-4.8-.242-10.706s.105-10.716.242-10.716.242,4.806.242,10.716S326.3,341.172,326.162,341.172Z" transform="translate(-48.554 -260.647)" fill="#344154"/>
        <path id="Trazado_109169" data-name="Trazado 109169" d="M331.352,341.172c-.126,0-.242-4.8-.242-10.706s.116-10.716.242-10.716.252,4.806.252,10.716S331.5,341.172,331.352,341.172Z" transform="translate(-48.286 -260.647)" fill="#344154"/>
        <path id="Trazado_109170" data-name="Trazado 109170" d="M336.552,341.172c-.137,0-.252-4.8-.252-10.706s.116-10.716.252-10.716.242,4.806.242,10.716S336.731,341.172,336.552,341.172Z" transform="translate(-48.017 -260.647)" fill="#344154"/>
        <path id="Trazado_109171" data-name="Trazado 109171" d="M341.752,341.172c-.147,0-.252-4.8-.252-10.706s.105-10.716.252-10.716.242,4.806.242,10.716S341.889,341.172,341.752,341.172Z" transform="translate(-47.749 -260.647)" fill="#344154"/>
        <path id="Trazado_109172" data-name="Trazado 109172" d="M346.942,341.172c-.137,0-.242-4.8-.242-10.706s.105-10.716.242-10.716.252,4.806.252,10.716S347.079,341.172,346.942,341.172Z" transform="translate(-47.48 -260.647)" fill="#344154"/>
        <path id="Trazado_109173" data-name="Trazado 109173" d="M352.142,341.172c-.137,0-.252-4.8-.252-10.706s.116-10.716.252-10.716.242,4.806.242,10.716S352.269,341.172,352.142,341.172Z" transform="translate(-47.212 -260.647)" fill="#344154"/>
        <path id="Trazado_109174" data-name="Trazado 109174" d="M357.332,341.172c-.137,0-.242-4.8-.242-10.706s.105-10.716.242-10.716.242,4.806.242,10.716S357.469,341.172,357.332,341.172Z" transform="translate(-46.943 -260.647)" fill="#344154"/>
        <path id="Trazado_109175" data-name="Trazado 109175" d="M362.522,341.172c-.126,0-.242-4.8-.242-10.706s.116-10.716.242-10.716.252,4.806.252,10.716S362.669,341.172,362.522,341.172Z" transform="translate(-46.675 -260.647)" fill="#344154"/>
        <path id="Trazado_109176" data-name="Trazado 109176" d="M367.722,341.172c-.137,0-.252-4.8-.252-10.706s.116-10.716.252-10.716.252,4.806.252,10.716S367.859,341.172,367.722,341.172Z" transform="translate(-46.407 -260.647)" fill="#344154"/>
        <rect id="Rectángulo_8706" data-name="Rectángulo 8706" width="23.052" height="28.006" transform="translate(38.429 13.367)" fill="#84aacc"/>
        <rect id="Rectángulo_8707" data-name="Rectángulo 8707" width="64.467" height="28.006" transform="translate(61.492 13.367)" fill="#6595bf"/>
        <path id="Trazado_109177" data-name="Trazado 109177" d="M110.162,304.244c-.147,0-.252-6.215-.252-13.882s.105-13.882.252-13.882.242,6.215.242,13.882S110.289,304.244,110.162,304.244Z" transform="translate(-59.713 -262.882)" fill="#344154"/>
        <path id="Trazado_109178" data-name="Trazado 109178" d="M120.662,304.244c-.126,0-.242-6.215-.242-13.882s.116-13.882.242-13.882.252,6.215.252,13.882S120.8,304.244,120.662,304.244Z" transform="translate(-59.17 -262.882)" fill="#344154"/>
        <path id="Trazado_109179" data-name="Trazado 109179" d="M181.367,300.906v-5.753c0-3.691,0-9.034-.084-15.67l.158.168-58.083.074.242-.242h0v21.4l-.231-.242,41.562.116,12.115.074h.116l-12.073.063L123.368,301H123V279.515h0c0,.053.473-.473.263-.252l58.083.084h.179v.168c0,6.636-.074,12.052-.095,15.775v5.258a1.136,1.136,0,0,1-.063.358Z" transform="translate(-59.036 -262.741)" fill="#344154"/>
        <path id="Trazado_109180" data-name="Trazado 109180" d="M127.532,300.892c-.137,0-.242-4.8-.242-10.706s.105-10.716.242-10.716.252,4.8.252,10.716S127.679,300.892,127.532,300.892Z" transform="translate(-58.815 -262.728)" fill="#344154"/>
        <path id="Trazado_109181" data-name="Trazado 109181" d="M132.732,300.892c-.137,0-.242-4.8-.242-10.706s.105-10.716.242-10.716.252,4.8.252,10.716S132.869,300.892,132.732,300.892Z" transform="translate(-58.546 -262.728)" fill="#344154"/>
        <path id="Trazado_109182" data-name="Trazado 109182" d="M137.932,300.892c-.137,0-.252-4.8-.252-10.706s.116-10.716.252-10.716.242,4.8.242,10.716S138.017,300.892,137.932,300.892Z" transform="translate(-58.278 -262.728)" fill="#344154"/>
        <path id="Trazado_109183" data-name="Trazado 109183" d="M143.122,300.892c-.126,0-.242-4.8-.242-10.706s.116-10.716.242-10.716.252,4.8.252,10.716S143.269,300.892,143.122,300.892Z" transform="translate(-58.009 -262.728)" fill="#344154"/>
        <path id="Trazado_109184" data-name="Trazado 109184" d="M148.322,300.892c-.137,0-.252-4.8-.252-10.706s.116-10.716.252-10.716.242,4.8.242,10.716S148.459,300.892,148.322,300.892Z" transform="translate(-57.741 -262.728)" fill="#344154"/>
        <path id="Trazado_109185" data-name="Trazado 109185" d="M153.523,300.892c-.147,0-.263-4.8-.263-10.706s.116-10.716.263-10.716.242,4.8.242,10.716A105.108,105.108,0,0,1,153.523,300.892Z" transform="translate(-57.473 -262.728)" fill="#344154"/>
        <path id="Trazado_109186" data-name="Trazado 109186" d="M158.712,300.892c-.137,0-.242-4.8-.242-10.706s.105-10.716.242-10.716.252,4.8.252,10.716S158.849,300.892,158.712,300.892Z" transform="translate(-57.204 -262.728)" fill="#344154"/>
        <path id="Trazado_109187" data-name="Trazado 109187" d="M163.912,300.892c-.147,0-.252-4.8-.252-10.706s.105-10.716.252-10.716.242,4.8.242,10.716S164.018,300.892,163.912,300.892Z" transform="translate(-56.936 -262.728)" fill="#344154"/>
        <path id="Trazado_109188" data-name="Trazado 109188" d="M169.1,300.892c-.137,0-.252-4.8-.252-10.706s.116-10.716.252-10.716.242,4.8.242,10.716S169.239,300.892,169.1,300.892Z" transform="translate(-56.668 -262.728)" fill="#344154"/>
        <path id="Trazado_109189" data-name="Trazado 109189" d="M174.292,300.892c-.126,0-.242-4.8-.242-10.706s.116-10.716.242-10.716.252,4.8.252,10.716S174.429,300.892,174.292,300.892Z" transform="translate(-56.399 -262.728)" fill="#344154"/>
        <rect id="Rectángulo_8708" data-name="Rectángulo 8708" width="23.052" height="28.006" transform="translate(243.324 27.375)" fill="#344154"/>
        <rect id="Rectángulo_8709" data-name="Rectángulo 8709" width="64.467" height="28.006" transform="translate(266.376 27.375)" fill="#344154"/>
        <path id="Trazado_109190" data-name="Trazado 109190" d="M305.012,317.553c-.147,0-.252-6.2-.252-13.871s.105-13.882.252-13.882.242,6.215.242,13.882S305.118,317.553,305.012,317.553Z" transform="translate(-49.647 -262.194)" fill="#455a64"/>
        <path id="Trazado_109191" data-name="Trazado 109191" d="M315.482,317.553c-.126,0-.242-6.2-.242-13.871s.116-13.882.242-13.882.252,6.215.252,13.882S315.619,317.553,315.482,317.553Z" transform="translate(-49.105 -262.194)" fill="#455a64"/>
        <path id="Trazado_109192" data-name="Trazado 109192" d="M376.181,314.214v-5.7c0-3.7,0-9.034-.084-15.67l.158.168-58.083.074c-.221.231.294-.294.242-.231h0v21.4l-.242-.231,41.562.116,12.136.063h4.4a.558.558,0,0,1-.263,0h-4.028l-12.073.063-41.73.116h-.231V292.812h0l.242-.252,58.094.084h.168v.168c0,6.678-.063,12.052-.084,15.775v5.258a1.234,1.234,0,0,1-.179.368Z" transform="translate(-48.966 -262.051)" fill="#455a64"/>
        <path id="Trazado_109193" data-name="Trazado 109193" d="M322.362,314.2c-.137,0-.242-4.785-.242-10.706s.105-10.706.242-10.706.252,4.8.252,10.706S322.5,314.2,322.362,314.2Z" transform="translate(-48.75 -262.039)" fill="#455a64"/>
        <path id="Trazado_109194" data-name="Trazado 109194" d="M327.562,314.2c-.137,0-.252-4.785-.252-10.706s.116-10.706.252-10.706.242,4.8.242,10.706S327.71,314.2,327.562,314.2Z" transform="translate(-48.482 -262.039)" fill="#455a64"/>
        <path id="Trazado_109195" data-name="Trazado 109195" d="M332.752,314.2c-.137,0-.242-4.785-.242-10.706s.105-10.706.242-10.706.252,4.8.252,10.706S332.889,314.2,332.752,314.2Z" transform="translate(-48.213 -262.039)" fill="#455a64"/>
        <path id="Trazado_109196" data-name="Trazado 109196" d="M337.942,314.2c-.126,0-.242-4.785-.242-10.706s.116-10.706.242-10.706.252,4.8.252,10.706S338.089,314.2,337.942,314.2Z" transform="translate(-47.945 -262.039)" fill="#455a64"/>
        <path id="Trazado_109197" data-name="Trazado 109197" d="M343.142,314.2c-.137,0-.252-4.785-.252-10.706s.116-10.706.252-10.706.242,4.8.242,10.706S343.279,314.2,343.142,314.2Z" transform="translate(-47.677 -262.039)" fill="#455a64"/>
        <path id="Trazado_109198" data-name="Trazado 109198" d="M348.342,314.2c-.137,0-.242-4.785-.242-10.706s.105-10.706.242-10.706.242,4.8.242,10.706S348.447,314.2,348.342,314.2Z" transform="translate(-47.408 -262.039)" fill="#455a64"/>
        <path id="Trazado_109199" data-name="Trazado 109199" d="M353.532,314.2c-.137,0-.242-4.785-.242-10.706s.105-10.706.242-10.706.252,4.8.252,10.706S353.669,314.2,353.532,314.2Z" transform="translate(-47.14 -262.039)" fill="#455a64"/>
        <path id="Trazado_109200" data-name="Trazado 109200" d="M358.732,314.2c-.137,0-.252-4.785-.252-10.706s.116-10.706.252-10.706.242,4.8.242,10.706S358.859,314.2,358.732,314.2Z" transform="translate(-46.872 -262.039)" fill="#455a64"/>
        <path id="Trazado_109201" data-name="Trazado 109201" d="M363.922,314.2c-.137,0-.242-4.785-.242-10.706s.105-10.706.242-10.706.252,4.8.252,10.706S364.069,314.2,363.922,314.2Z" transform="translate(-46.603 -262.039)" fill="#455a64"/>
        <path id="Trazado_109202" data-name="Trazado 109202" d="M369.112,314.2c-.126,0-.242-4.785-.242-10.706s.116-10.706.242-10.706.252,4.8.252,10.706S369.259,314.2,369.112,314.2Z" transform="translate(-46.335 -262.039)" fill="#455a64"/>
        <rect id="Rectángulo_8710" data-name="Rectángulo 8710" width="23.052" height="28.006" transform="translate(246.942 83.723)" fill="#d9a171"/>
        <rect id="Rectángulo_8711" data-name="Rectángulo 8711" width="64.467" height="28.006" transform="translate(270.005 83.723)" fill="#d9a171"/>
        <rect id="Rectángulo_8712" data-name="Rectángulo 8712" width="64.467" height="28.006" transform="translate(270.005 83.723)" opacity="0.4"/>
        <path id="Trazado_109203" data-name="Trazado 109203" d="M308.422,371.154c-.137,0-.242-6.226-.242-13.882s.105-13.882.242-13.882.252,6.215.252,13.882S308.559,371.154,308.422,371.154Z" transform="translate(-49.47 -259.426)" fill="#344154"/>
        <path id="Trazado_109204" data-name="Trazado 109204" d="M379.631,367.817v-5.753c0-3.7,0-9.034-.084-15.67l.158.158-58.083.095.242-.252h0v21.422l-.242-.242,41.562.105,12.126.074h.116l-12.073.063-41.73.116h-.231V346.395h0c0,.053.473-.473.252-.242l58.094.074h.137v.168c0,6.636-.063,12.042-.095,15.775v5.258a1.621,1.621,0,0,1-.147.389Z" transform="translate(-48.788 -259.286)" fill="#344154"/>
        <path id="Trazado_109205" data-name="Trazado 109205" d="M325.812,367.8c-.147,0-.252-4.8-.252-10.716s.105-10.706.252-10.706.242,4.785.242,10.706S325.907,367.8,325.812,367.8Z" transform="translate(-48.572 -259.271)" fill="#344154"/>
        <path id="Trazado_109206" data-name="Trazado 109206" d="M331.012,367.8c-.137,0-.242-4.8-.242-10.716s.105-10.706.242-10.706.252,4.785.252,10.706S331.138,367.8,331.012,367.8Z" transform="translate(-48.303 -259.271)" fill="#344154"/>
        <path id="Trazado_109207" data-name="Trazado 109207" d="M336.192,367.8c-.126,0-.242-4.8-.242-10.716s.116-10.706.242-10.706.252,4.785.252,10.706S336.329,367.8,336.192,367.8Z" transform="translate(-48.036 -259.271)" fill="#344154"/>
        <path id="Trazado_109208" data-name="Trazado 109208" d="M341.392,367.8c-.137,0-.252-4.8-.252-10.716s.116-10.706.252-10.706.242,4.785.242,10.706S341.519,367.8,341.392,367.8Z" transform="translate(-47.767 -259.271)" fill="#344154"/>
        <path id="Trazado_109209" data-name="Trazado 109209" d="M346.582,367.8c-.126,0-.242-4.8-.242-10.716s.116-10.706.242-10.706.252,4.785.252,10.706S346.729,367.8,346.582,367.8Z" transform="translate(-47.499 -259.271)" fill="#344154"/>
        <path id="Trazado_109210" data-name="Trazado 109210" d="M351.782,367.8c-.137,0-.252-4.8-.252-10.716s.116-10.706.252-10.706.252,4.785.252,10.706S351.919,367.8,351.782,367.8Z" transform="translate(-47.231 -259.271)" fill="#344154"/>
        <path id="Trazado_109211" data-name="Trazado 109211" d="M357.012,367.8c-.147,0-.252-4.8-.252-10.716s.105-10.706.252-10.706.242,4.785.242,10.706S357.107,367.8,357.012,367.8Z" transform="translate(-46.96 -259.271)" fill="#344154"/>
        <path id="Trazado_109212" data-name="Trazado 109212" d="M362.172,367.8c-.137,0-.242-4.8-.242-10.716s.105-10.706.242-10.706.252,4.785.252,10.706S362.309,367.8,362.172,367.8Z" transform="translate(-46.693 -259.271)" fill="#344154"/>
        <path id="Trazado_109213" data-name="Trazado 109213" d="M367.372,367.8c-.126,0-.242-4.8-.242-10.716s.116-10.706.242-10.706.252,4.785.252,10.706S367.5,367.8,367.372,367.8Z" transform="translate(-46.425 -259.271)" fill="#344154"/>
        <path id="Trazado_109214" data-name="Trazado 109214" d="M372.562,367.8c-.137,0-.252-4.8-.252-10.716s.116-10.706.252-10.706.242,4.785.242,10.706S372.7,367.8,372.562,367.8Z" transform="translate(-46.157 -259.271)" fill="#344154"/>
        <path id="Trazado_109215" data-name="Trazado 109215" d="M292.135,361.567h-4.89l-13.346.074-44,.084c-22.758,0-42.666-.053-53.288-.126l.126-.126c0,2.85,0,5.08-.063,6.636h0v-6.762h.126c10.653-.074,30.5-.116,53.3-.116l43.991.074,13.346.074h4.575Z" transform="translate(-56.267 -258.504)" fill="#344154"/>
        <path id="Trazado_109216" data-name="Trazado 109216" d="M277.362,369.466a31.675,31.675,0,0,1,0-7.856,31.679,31.679,0,0,1,0,7.856Z" transform="translate(-51.075 -258.484)" fill="#344154"/>
        <path id="Trazado_109217" data-name="Trazado 109217" d="M262.012,369.466a30.686,30.686,0,0,1,0-7.856A31.678,31.678,0,0,1,262.012,369.466Z" transform="translate(-51.868 -258.484)" fill="#344154"/>
        <path id="Trazado_109218" data-name="Trazado 109218" d="M246.672,369.466a31.674,31.674,0,0,1,0-7.856,31.675,31.675,0,0,1,0,7.856Z" transform="translate(-52.66 -258.484)" fill="#344154"/>
        <path id="Trazado_109219" data-name="Trazado 109219" d="M231.312,369.466a31.676,31.676,0,0,1,0-7.856A30.686,30.686,0,0,1,231.312,369.466Z" transform="translate(-53.454 -258.484)" fill="#344154"/>
        <path id="Trazado_109220" data-name="Trazado 109220" d="M216.012,369.466a30.687,30.687,0,0,1,0-7.856,31.679,31.679,0,0,1,0,7.856Z" transform="translate(-54.244 -258.484)" fill="#344154"/>
        <path id="Trazado_109221" data-name="Trazado 109221" d="M200.622,369.466a30.688,30.688,0,0,1,0-7.856A31.675,31.675,0,0,1,200.622,369.466Z" transform="translate(-55.039 -258.484)" fill="#344154"/>
        <path id="Trazado_109222" data-name="Trazado 109222" d="M185.242,369.466a31.673,31.673,0,0,1,0-7.856,31.676,31.676,0,0,1,0,7.856Z" transform="translate(-55.834 -258.484)" fill="#344154"/>
        <path id="Trazado_109223" data-name="Trazado 109223" d="M401.911,369.188a3.871,3.871,0,0,1,0-.494v-1.409c0-1.325,0-3.218-.063-5.689l.116.116c-10.149.084-30.5.126-53.95.126l-43.539-.063-13.188-.084h-3.6l3.6-.053,13.188-.074,43.539-.074c23.42,0,43.8.053,53.95.126h.126v7.12A3.161,3.161,0,0,1,401.911,369.188Z" transform="translate(-50.529 -258.491)" fill="#344154"/>
        <path id="Trazado_109224" data-name="Trazado 109224" d="M356.552,369.5a31.676,31.676,0,0,1,0-7.856,30.689,30.689,0,0,1,0,7.856Z" transform="translate(-46.984 -258.483)" fill="#344154"/>
        <path id="Trazado_109225" data-name="Trazado 109225" d="M341.162,369.5a31.676,31.676,0,0,1,0-7.856A30.688,30.688,0,0,1,341.162,369.5Z" transform="translate(-47.779 -258.483)" fill="#344154"/>
        <path id="Trazado_109226" data-name="Trazado 109226" d="M325.812,369.5a31.675,31.675,0,0,1,0-7.856A30.686,30.686,0,0,1,325.812,369.5Z" transform="translate(-48.572 -258.483)" fill="#344154"/>
        <path id="Trazado_109227" data-name="Trazado 109227" d="M310.462,369.5a31.675,31.675,0,0,1,0-7.856,31.678,31.678,0,0,1,0,7.856Z" transform="translate(-49.365 -258.483)" fill="#344154"/>
        <path id="Trazado_109228" data-name="Trazado 109228" d="M295.122,369.5a30.686,30.686,0,0,1,0-7.856A31.675,31.675,0,0,1,295.122,369.5Z" transform="translate(-50.158 -258.483)" fill="#344154"/>
        <path id="Trazado_109229" data-name="Trazado 109229" d="M180.321,357.9a3.866,3.866,0,0,1,0-.494v-1.451c0-1.315,0-3.218-.053-5.689l.116.116c-10.727.074-32.885.126-58.43.126-24.546,0-45.957,0-57.084-.116l.116-.126v8.95a5.5,5.5,0,0,1,0-.589V356.9c0-1.535,0-3.8-.063-6.636v-.126h.084c11.137-.074,32.6-.126,57.095-.126,25.534,0,47.693.063,58.42.137h.116v7.214A2.407,2.407,0,0,1,180.321,357.9Z" transform="translate(-62.039 -259.084)" fill="#344154"/>
        <path id="Trazado_109230" data-name="Trazado 109230" d="M165.562,358.2a31.758,31.758,0,0,1,0-7.866A30.772,30.772,0,0,1,165.562,358.2Z" transform="translate(-56.85 -259.067)" fill="#344154"/>
        <path id="Trazado_109231" data-name="Trazado 109231" d="M150.222,358.2a31.759,31.759,0,0,1,0-7.866A31.76,31.76,0,0,1,150.222,358.2Z" transform="translate(-57.643 -259.067)" fill="#344154"/>
        <path id="Trazado_109232" data-name="Trazado 109232" d="M134.862,358.2a31.758,31.758,0,0,1,0-7.866,30.773,30.773,0,0,1,0,7.866Z" transform="translate(-58.436 -259.067)" fill="#344154"/>
        <path id="Trazado_109233" data-name="Trazado 109233" d="M119.522,358.2a30.77,30.77,0,0,1,0-7.866,31.76,31.76,0,0,1,0,7.866Z" transform="translate(-59.229 -259.067)" fill="#344154"/>
        <path id="Trazado_109234" data-name="Trazado 109234" d="M104.172,358.2a31.759,31.759,0,0,1,0-7.866,31.76,31.76,0,0,1,0,7.866Z" transform="translate(-60.022 -259.067)" fill="#344154"/>
        <path id="Trazado_109235" data-name="Trazado 109235" d="M88.812,358.2a31.759,31.759,0,0,1,0-7.866A30.772,30.772,0,0,1,88.812,358.2Z" transform="translate(-60.815 -259.067)" fill="#344154"/>
        <path id="Trazado_109236" data-name="Trazado 109236" d="M73.432,358.2a31.759,31.759,0,0,1,0-7.866,31.76,31.76,0,0,1,0,7.866Z" transform="translate(-61.61 -259.067)" fill="#344154"/>
        <rect id="Rectángulo_8713" data-name="Rectángulo 8713" width="23.052" height="28.006" transform="translate(38.429 41.362)" fill="#d9a171"/>
        <rect id="Rectángulo_8714" data-name="Rectángulo 8714" width="64.467" height="28.006" transform="translate(61.492 41.362)" fill="#d9a171"/>
        <rect id="Rectángulo_8715" data-name="Rectángulo 8715" width="64.467" height="28.006" transform="translate(61.492 41.362)" opacity="0.4"/>
        <path id="Trazado_109237" data-name="Trazado 109237" d="M110.162,330.874c-.147,0-.252-6.215-.252-13.882s.105-13.882.252-13.882.242,6.226.242,13.882S110.289,330.874,110.162,330.874Z" transform="translate(-59.713 -261.506)" fill="#344154"/>
        <path id="Trazado_109238" data-name="Trazado 109238" d="M181.367,327.543V321.79c0-3.7,0-9.023-.084-15.67l.158.168-58.083.084.242-.252h0v21.422l-.231-.231,41.562.105,12.115.063h4.112a1.377,1.377,0,0,1,.294,0H177.16l-12.073.063-41.719.116H123V306.015h0s.473-.473.263-.252l58.083.084h.179v.168c0,6.636-.074,12.042-.095,15.775v5.258a1.567,1.567,0,0,1-.063.494Z" transform="translate(-59.036 -261.372)" fill="#344154"/>
        <path id="Trazado_109239" data-name="Trazado 109239" d="M127.532,327.522c-.137,0-.242-4.8-.242-10.716s.105-10.706.242-10.706.252,4.8.252,10.706S127.679,327.522,127.532,327.522Z" transform="translate(-58.815 -261.352)" fill="#344154"/>
        <path id="Trazado_109240" data-name="Trazado 109240" d="M132.732,327.522c-.137,0-.242-4.8-.242-10.716s.105-10.706.242-10.706.252,4.8.252,10.706S132.869,327.522,132.732,327.522Z" transform="translate(-58.546 -261.352)" fill="#344154"/>
        <path id="Trazado_109241" data-name="Trazado 109241" d="M137.932,327.522c-.137,0-.252-4.8-.252-10.716s.116-10.706.252-10.706.242,4.8.242,10.706S138.017,327.522,137.932,327.522Z" transform="translate(-58.278 -261.352)" fill="#344154"/>
        <path id="Trazado_109242" data-name="Trazado 109242" d="M143.122,327.522c-.126,0-.242-4.8-.242-10.716s.116-10.706.242-10.706.252,4.8.252,10.706S143.269,327.522,143.122,327.522Z" transform="translate(-58.009 -261.352)" fill="#344154"/>
        <path id="Trazado_109243" data-name="Trazado 109243" d="M148.322,327.522c-.137,0-.252-4.8-.252-10.716s.116-10.706.252-10.706.242,4.8.242,10.706S148.459,327.522,148.322,327.522Z" transform="translate(-57.741 -261.352)" fill="#344154"/>
        <path id="Trazado_109244" data-name="Trazado 109244" d="M153.523,327.522c-.147,0-.263-4.8-.263-10.716s.116-10.706.263-10.706.242,4.8.242,10.706a105.244,105.244,0,0,1-.242,10.716Z" transform="translate(-57.473 -261.352)" fill="#344154"/>
        <path id="Trazado_109245" data-name="Trazado 109245" d="M158.712,327.522c-.137,0-.242-4.8-.242-10.716s.105-10.706.242-10.706.252,4.8.252,10.706S158.849,327.522,158.712,327.522Z" transform="translate(-57.204 -261.352)" fill="#344154"/>
        <path id="Trazado_109246" data-name="Trazado 109246" d="M163.912,327.522c-.147,0-.252-4.8-.252-10.716s.105-10.706.252-10.706.242,4.8.242,10.706S164.018,327.522,163.912,327.522Z" transform="translate(-56.936 -261.352)" fill="#344154"/>
        <path id="Trazado_109247" data-name="Trazado 109247" d="M169.1,327.522c-.137,0-.252-4.8-.252-10.716s.116-10.706.252-10.706.242,4.8.242,10.706S169.239,327.522,169.1,327.522Z" transform="translate(-56.668 -261.352)" fill="#344154"/>
        <path id="Trazado_109248" data-name="Trazado 109248" d="M174.292,327.522c-.126,0-.242-4.8-.242-10.716s.116-10.706.242-10.706.252,4.8.252,10.706S174.429,327.522,174.292,327.522Z" transform="translate(-56.399 -261.352)" fill="#344154"/>
        <path id="Trazado_109249" data-name="Trazado 109249" d="M397.07,372.653V308.46h63.657v64.782" transform="translate(-44.878 -261.23)" fill="#6595bf"/>
        <rect id="Rectángulo_8716" data-name="Rectángulo 8716" width="3.544" height="7.719" transform="translate(395.32 103.704)" fill="#344154"/>
        <rect id="Rectángulo_8717" data-name="Rectángulo 8717" width="2.23" height="5.511" transform="translate(357.345 93.303)" fill="#344154"/>
        <rect id="Rectángulo_8718" data-name="Rectángulo 8718" width="2.23" height="5.511" transform="translate(357.345 103.063)" fill="#344154"/>
        <rect id="Rectángulo_8719" data-name="Rectángulo 8719" width="2.23" height="5.511" transform="translate(370.133 93.303)" fill="#344154"/>
        <rect id="Rectángulo_8720" data-name="Rectángulo 8720" width="2.23" height="5.511" transform="translate(370.133 102.978)" fill="#344154"/>
        <rect id="Rectángulo_8721" data-name="Rectángulo 8721" width="2.23" height="5.511" transform="translate(382.932 93.303)" fill="#344154"/>
        <rect id="Rectángulo_8722" data-name="Rectángulo 8722" width="2.23" height="5.511" transform="translate(382.932 102.894)" fill="#344154"/>
        <rect id="Rectángulo_8723" data-name="Rectángulo 8723" width="2.23" height="5.511" transform="translate(395.72 93.303)" fill="#344154"/>
        <rect id="Rectángulo_8724" data-name="Rectángulo 8724" width="2.23" height="5.511" transform="translate(408.498 93.303)" fill="#344154"/>
        <rect id="Rectángulo_8725" data-name="Rectángulo 8725" width="2.23" height="5.511" transform="translate(408.498 102.579)" fill="#344154"/>
        <rect id="Rectángulo_8726" data-name="Rectángulo 8726" width="3.544" height="7.719" transform="translate(395.057 68.736)" fill="#344154"/>
        <rect id="Rectángulo_8727" data-name="Rectángulo 8727" width="2.23" height="5.511" transform="translate(357.345 53.95)" fill="#344154"/>
        <rect id="Rectángulo_8728" data-name="Rectángulo 8728" width="2.23" height="5.511" transform="translate(357.345 63.71)" fill="#344154"/>
        <rect id="Rectángulo_8729" data-name="Rectángulo 8729" width="2.23" height="5.511" transform="translate(370.133 53.95)" fill="#344154"/>
        <rect id="Rectángulo_8730" data-name="Rectángulo 8730" width="2.23" height="5.511" transform="translate(370.133 63.625)" fill="#344154"/>
        <rect id="Rectángulo_8731" data-name="Rectángulo 8731" width="2.23" height="5.511" transform="translate(382.932 53.95)" fill="#344154"/>
        <rect id="Rectángulo_8732" data-name="Rectángulo 8732" width="2.23" height="5.511" transform="translate(382.932 63.541)" fill="#344154"/>
        <rect id="Rectángulo_8733" data-name="Rectángulo 8733" width="2.23" height="5.511" transform="translate(395.72 53.95)" fill="#344154"/>
        <rect id="Rectángulo_8734" data-name="Rectángulo 8734" width="2.23" height="5.511" transform="translate(408.498 53.95)" fill="#344154"/>
        <rect id="Rectángulo_8735" data-name="Rectángulo 8735" width="2.23" height="5.511" transform="translate(408.498 63.226)" fill="#344154"/>
        <path id="Trazado_109250" data-name="Trazado 109250" d="M121.052,430.853s9.959-36.482-26.039-44.79C61.36,378.291,62.18,357.51,62.18,357.51H182.774v12.62H500.186s-1.735,40.878-31.55,60.733" transform="translate(-62.178 -258.696)" fill="#4c708f"/>
        <path id="Trazado_109251" data-name="Trazado 109251" d="M119.043,411H482.749s-10.043,13.6-16.974,17.121H118.16A94.157,94.157,0,0,0,119.043,411Z" transform="translate(-59.286 -255.933)" fill="#344154"/>
        <path id="Trazado_109252" data-name="Trazado 109252" d="M459.217,336.393a3.283,3.283,0,0,1-.053-.715v-2.04l.095.095c-5.416.095-18.457.158-33.653.158s-28.29-.063-33.706-.158l.095-.095v2.04a3.283,3.283,0,0,1-.053.715,5.429,5.429,0,0,1,0-.715c0-.5,0-1.188-.053-2.04h.095c5.416-.095,18.467-.158,33.706-.158s28.269.063,33.653.158h-.032v2.03A4.564,4.564,0,0,1,459.217,336.393Z" transform="translate(-45.146 -259.937)" fill="#344154"/>
        <path id="Trazado_109253" data-name="Trazado 109253" d="M399.833,337.178a3.691,3.691,0,0,1-.242-1.809c0-1.052.116-1.809.242-1.809a3.621,3.621,0,0,1,.252,1.809A3.955,3.955,0,0,1,399.833,337.178Z" transform="translate(-44.749 -259.933)" fill="#344154"/>
        <path id="Trazado_109254" data-name="Trazado 109254" d="M408.273,337.178a3.691,3.691,0,0,1-.242-1.809c0-1.052.116-1.809.242-1.809a3.621,3.621,0,0,1,.252,1.809C408.526,336.368,408.42,337.178,408.273,337.178Z" transform="translate(-44.313 -259.933)" fill="#344154"/>
        <path id="Trazado_109255" data-name="Trazado 109255" d="M416.762,337.178c-.147,0-.252-.81-.252-1.809s.105-1.809.252-1.809.242.81.242,1.809a3.723,3.723,0,0,1-.242,1.809Z" transform="translate(-43.874 -259.933)" fill="#344154"/>
        <path id="Trazado_109256" data-name="Trazado 109256" d="M425.232,337.178c-.137,0-.242-.81-.242-1.809s.105-1.809.242-1.809.252.81.252,1.809S425.369,337.178,425.232,337.178Z" transform="translate(-43.436 -259.933)" fill="#344154"/>
        <path id="Trazado_109257" data-name="Trazado 109257" d="M433.712,337.178c-.137,0-.242-.81-.242-1.809s.105-1.809.242-1.809.242.81.242,1.809S433.849,337.178,433.712,337.178Z" transform="translate(-42.998 -259.933)" fill="#344154"/>
        <path id="Trazado_109258" data-name="Trazado 109258" d="M442.213,337.178a3.692,3.692,0,0,1-.242-1.809c0-1.052.116-1.809.242-1.809a3.62,3.62,0,0,1,.252,1.809,3.8,3.8,0,0,1-.252,1.809Z" transform="translate(-42.56 -259.933)" fill="#344154"/>
        <path id="Trazado_109259" data-name="Trazado 109259" d="M450.662,337.178c-.137,0-.242-.81-.242-1.809s.105-1.809.242-1.809.252.81.252,1.809S450.809,337.178,450.662,337.178Z" transform="translate(-42.122 -259.933)" fill="#344154"/>
        <rect id="Rectángulo_8736" data-name="Rectángulo 8736" width="70.493" height="7.036" transform="translate(345.346 76.456)" fill="#344154"/>
        <path id="Trazado_109260" data-name="Trazado 109260" d="M407.25,299.11h7.677l.841,4.869H407.25Z" transform="translate(-44.352 -261.713)" fill="#fff" opacity="0.4"/>
        <path id="Trazado_109261" data-name="Trazado 109261" d="M482.812,369.187a4.039,4.039,0,0,1,0-.5V367.2c0-1.325,0-3.218-.074-5.626l.137.137c-8.529.074-23.873.116-41.33.116l-34.61-.063-10.517-.095h-3.586a.516.516,0,0,1-.252,0h3.839l10.517-.074,34.61-.084c17.458,0,32.78,0,41.33.116h.137c0,2.4,0,4.291-.063,5.616v1.483a3.146,3.146,0,0,1-.137.463Z" transform="translate(-45.11 -258.49)" fill="#344154"/>
        <path id="Trazado_109262" data-name="Trazado 109262" d="M469.262,369.5a31.678,31.678,0,0,1,0-7.856,31.674,31.674,0,0,1,0,7.856Z" transform="translate(-41.161 -258.483)" fill="#344154"/>
        <path id="Trazado_109263" data-name="Trazado 109263" d="M453.932,369.5a30.685,30.685,0,0,1,0-7.856A30.686,30.686,0,0,1,453.932,369.5Z" transform="translate(-41.954 -258.483)" fill="#344154"/>
        <path id="Trazado_109264" data-name="Trazado 109264" d="M438.612,369.5a30.686,30.686,0,0,1,0-7.856,31.676,31.676,0,0,1,0,7.856Z" transform="translate(-42.745 -258.483)" fill="#344154"/>
        <path id="Trazado_109265" data-name="Trazado 109265" d="M423.282,369.5a30.686,30.686,0,0,1,0-7.856,31.676,31.676,0,0,1,0,7.856Z" transform="translate(-43.537 -258.483)" fill="#344154"/>
        <path id="Trazado_109266" data-name="Trazado 109266" d="M407.892,369.5a30.689,30.689,0,0,1,0-7.856A30.686,30.686,0,0,1,407.892,369.5Z" transform="translate(-44.332 -258.483)" fill="#344154"/>
        <path id="Trazado_109267" data-name="Trazado 109267" d="M392.542,369.5a31.679,31.679,0,0,1,0-7.856,31.676,31.676,0,0,1,0,7.856Z" transform="translate(-45.125 -258.483)" fill="#344154"/>
        <path id="Trazado_109268" data-name="Trazado 109268" d="M377.192,369.5a31.678,31.678,0,0,1,0-7.856A30.686,30.686,0,0,1,377.192,369.5Z" transform="translate(-45.918 -258.483)" fill="#344154"/>
      </g>
    </g>
  </g>
</svg>
