<svg xmlns="http://www.w3.org/2000/svg" xmlns:xlink="http://www.w3.org/1999/xlink" width="108" height="108" viewBox="0 0 108 108">
  <defs>
    <filter id="Trazado_896985" x="0" y="0" width="108" height="108" filterUnits="userSpaceOnUse">
      <feOffset dy="3" input="SourceAlpha"/>
      <feGaussianBlur stdDeviation="3" result="blur"/>
      <feFlood flood-opacity="0.161"/>
      <feComposite operator="in" in2="blur"/>
      <feComposite in="SourceGraphic"/>
    </filter>
  </defs>
  <g id="Grupo_1178834" data-name="Grupo 1178834" transform="translate(9 6)">
    <g id="Grupo_1178447" data-name="Grupo 1178447" transform="translate(0 0)">
      <g id="Grupo_1176700" data-name="Grupo 1176700" transform="translate(0 0)">
        <g id="Grupo_1111318" data-name="Grupo 1111318" transform="translate(0 0)">
          <g id="Grupo_1109826" data-name="Grupo 1109826">
            <g id="Grupo_1098742" data-name="Grupo 1098742">
              <g transform="matrix(1, 0, 0, 1, -9, -6)" filter="url(#Trazado_896985)">
                <g id="Trazado_896985-2" data-name="Trazado 896985" transform="translate(9 6)" fill="#edf7fe" opacity="0.859">
                  <path d="M 45 88.00009918212891 C 39.19416046142578 88.00009918212891 33.56304168701172 86.86346435546875 28.2630672454834 84.62177276611328 C 23.14290618896484 82.45613098144531 18.54409408569336 79.35539245605469 14.59441375732422 75.40570068359375 C 10.64472007751465 71.45600891113281 7.543986797332764 66.85720825195312 5.378333568572998 61.73703765869141 C 3.136640071868896 56.43707656860352 2 50.80595779418945 2 45.00011444091797 C 2 39.19415664672852 3.136640071868896 33.56303787231445 5.378333568572998 28.26307678222656 C 7.543986797332764 23.14290237426758 10.64472007751465 18.54409027099609 14.59441375732422 14.59440994262695 C 18.54409408569336 10.64471626281738 23.14290618896484 7.543982982635498 28.26308059692383 5.378329753875732 C 33.56304168701172 3.136636257171631 39.19416046142578 1.999996304512024 45 1.999996304512024 C 50.80583953857422 1.999996304512024 56.43695831298828 3.136636257171631 61.73691940307617 5.378329753875732 C 66.85709381103516 7.543982982635498 71.45590972900391 10.64471626281738 75.40558624267578 14.59440994262695 C 79.35527801513672 18.54409027099609 82.45601654052734 23.14290237426758 84.62166595458984 28.26307678222656 C 86.86335754394531 33.56303787231445 88 39.19415664672852 88 44.99999618530273 C 88 50.80595779418945 86.86335754394531 56.43707656860352 84.62166595458984 61.73703765869141 C 82.45601654052734 66.85720825195312 79.35527801513672 71.45600891113281 75.40558624267578 75.40570068359375 C 71.45590972900391 79.35539245605469 66.85709381103516 82.45613098144531 61.73693466186523 84.62177276611328 C 56.43695831298828 86.86346435546875 50.80583953857422 88.00009918212891 45 88.00009918212891 Z" stroke="none"/>
                  <path d="M 45 4 C 39.46327590942383 4 34.09427642822266 5.083480834960938 29.04216766357422 7.220344543457031 C 24.160400390625 9.28515625 19.77527618408203 12.24195861816406 16.00861358642578 16.00862121582031 C 12.24195098876953 19.77528381347656 9.28515625 24.160400390625 7.2203369140625 29.04217147827148 C 5.083473205566406 34.09428024291992 4 39.46326446533203 4 45.0001106262207 C 4 50.53683471679688 5.083473205566406 55.90581893920898 7.2203369140625 60.95792388916016 C 9.28515625 65.83970642089844 12.24195098876953 70.22482299804688 16.00861358642578 73.99147796630859 C 19.77527618408203 77.75814056396484 24.160400390625 80.71494293212891 29.04216766357422 82.77975463867188 C 34.09427642822266 84.91661834716797 39.46327590942383 86.00009918212891 45 86.00009918212891 C 50.53672409057617 86.00009918212891 55.90572357177734 84.91661834716797 60.95783233642578 82.77975463867188 C 65.839599609375 80.71494293212891 70.22472381591797 77.75814056396484 73.99138641357422 73.99147796630859 C 77.75804901123047 70.22482299804688 80.71484375 65.83970642089844 82.7796630859375 60.95792388916016 C 84.91651916503906 55.90581893920898 86 50.53683471679688 86 45.00000381469727 C 86 39.46326446533203 84.91651916503906 34.09428024291992 82.7796630859375 29.04217147827148 C 80.71484375 24.160400390625 77.75804901123047 19.77528381347656 73.99138641357422 16.00862121582031 C 70.22472381591797 12.24195861816406 65.839599609375 9.28515625 60.95783233642578 7.220344543457031 C 55.90572357177734 5.083480834960938 50.53672409057617 4 45 4 M 45 0 C 69.85281372070312 0 90 20.14717102050781 90 45.00000381469727 L 90 45.0001106262207 C 90 69.85292816162109 69.85281372070312 90.00009918212891 45 90.00009918212891 C 20.14718627929688 90.00009918212891 0 69.85292816162109 0 45.0001106262207 L 0 45.00000381469727 C 0 20.14717102050781 20.14718627929688 0 45 0 Z" stroke="none" fill="#3e7dad"/>
                </g>
              </g>
            </g>
          </g>
        </g>
      </g>
    </g>
    <g id="money-bag_9277791" transform="translate(18.114 17.488)">
      <g id="Grupo_1178537" data-name="Grupo 1178537" transform="translate(0.126 0.126)">
        <path id="Trazado_1033643" data-name="Trazado 1033643" d="M62.515,195.209a5.073,5.073,0,0,1-1.757-3.7V185.6a22.444,22.444,0,0,0-4.489-13.466l-5.87-7.827-1.723-1.726H24.506l-1.734,1.726L16.9,172.136A22.444,22.444,0,0,0,12.417,185.6v5.9a5.087,5.087,0,0,1-1.757,3.706,2.584,2.584,0,0,0-.829,2.042,2.689,2.689,0,0,0,2.733,2.45H60.612a2.689,2.689,0,0,0,2.733-2.45A2.584,2.584,0,0,0,62.515,195.209Z" transform="translate(-9.827 -145.929)" fill="#f4aa73"/>
        <path id="Trazado_1033644" data-name="Trazado 1033644" d="M258.941,13.654l-12.9-4.931a.863.863,0,0,0-1.115.5l-2.851,7.346,5.948,3.572h9.364l2.053-5.371A.863.863,0,0,0,258.941,13.654Z" transform="translate(-216.946 -8.666)" fill="#f8ebcc"/>
        <path id="Trazado_1033645" data-name="Trazado 1033645" d="M357.682,56.049l2.8.013,2.053-5.371a.863.863,0,0,0-.5-1.115l-1.646-.63Z" transform="translate(-320.046 -44.589)" fill="#fcdbb2"/>
        <path id="Trazado_1033646" data-name="Trazado 1033646" d="M287.713,57.329,284.488,56.1l-3.344,1.495,7.321,5.019.742-1.937Z" transform="translate(-251.789 -50.964)" fill="#98db7c"/>
        <path id="Trazado_1033647" data-name="Trazado 1033647" d="M251.264,62.794a3.453,3.453,0,0,0-3.013-.095l1.265,5.657,11.785-.3Z" transform="translate(-222.455 -56.586)" fill="#f5c89d"/>
        <circle id="Elipse_13186" data-name="Elipse 13186" cx="10.359" cy="10.359" r="10.359" transform="translate(16.402 27.875)" fill="#d48c64"/>
        <path id="Trazado_1033648" data-name="Trazado 1033648" d="M193.127,305.78a7.769,7.769,0,1,1,7.769-7.769A7.778,7.778,0,0,1,193.127,305.78Z" transform="translate(-166.367 -259.777)" fill="#e29a6c"/>
        <path id="Trazado_1033649" data-name="Trazado 1033649" d="M62.517,145.4a5.086,5.086,0,0,1-1.757-3.706v-5.9a22.444,22.444,0,0,0-4.489-13.467L50.4,114.5l3.9-4.685a1.78,1.78,0,0,0-1.735-2.881,12.751,12.751,0,0,1-3.9.66c-3.023,0-3.023-.863-6.046-.863a11.725,11.725,0,0,0-3.318.466l-15.081.352a13.773,13.773,0,0,1-3.623-.614,1.78,1.78,0,0,0-1.735,2.881l3.9,4.685H47.129l7.07,9.38a19.982,19.982,0,0,1,3.971,11.913V141.7a7,7,0,0,0,.533,2.644,2.131,2.131,0,0,1-1.956,2.959H9.841l-.012.012a2.677,2.677,0,0,0,2.736,2.578H60.613a2.691,2.691,0,0,0,2.7-2.126A2.591,2.591,0,0,0,62.517,145.4Z" transform="translate(-9.829 -96.121)" fill="#e29a6c"/>
        <path id="Trazado_1033650" data-name="Trazado 1033650" d="M145.65,62.556a3.434,3.434,0,0,0-1.721.27l-12.656,5.657,5.989,13.4a.863.863,0,0,0,1.14.436l12.61-5.636a.863.863,0,0,0,.436-1.14Z" transform="translate(-118.133 -56.711)" fill="#f8ebcc"/>
        <path id="Trazado_1033651" data-name="Trazado 1033651" d="M168.291,71.883l-7.881,3.523,3.875,8.669,3.421,1.307,3.152-1.409,1.307-3.421Z" transform="translate(-144.118 -65.043)" fill="#98db7c"/>
        <path id="Trazado_1033652" data-name="Trazado 1033652" d="M352.384,115.842l3.9-4.685a1.78,1.78,0,0,0-1.735-2.881,12.751,12.751,0,0,1-3.9.66h-.045l-1.75,3.245a3.45,3.45,0,0,0,.249,3.662h3.276Z" transform="translate(-311.811 -97.463)" fill="#d48c64"/>
        <path id="Trazado_1033653" data-name="Trazado 1033653" d="M194.711,75.539l-5.8-12.983a3.435,3.435,0,0,0-1.721.27l-.864.387,4.554,10.145a1.726,1.726,0,0,1-.872,2.282l-10.226,4.57.74,1.671a.863.863,0,0,0,1.14.436l12.609-5.636A.863.863,0,0,0,194.711,75.539Z" transform="translate(-161.397 -56.711)" fill="#fcdbb2"/>
      </g>
      <g id="Grupo_1178538" data-name="Grupo 1178538">
        <path id="Trazado_1033654" data-name="Trazado 1033654" d="M21.671,178.17l-5.9,7.865a22.55,22.55,0,0,0-4.507,13.526v5.931A5.111,5.111,0,0,1,9.5,209.216a2.6,2.6,0,0,0-.833,2.051,2.7,2.7,0,0,0,2.746,2.462H59.689a2.7,2.7,0,0,0,2.746-2.462,2.6,2.6,0,0,0-.833-2.051,5.1,5.1,0,0,1-1.765-3.717v-5.936a22.549,22.549,0,0,0-4.51-13.53l-5.9-7.864" transform="translate(-8.666 -159.705)" fill="none" stroke="#000" stroke-linecap="round" stroke-linejoin="round" stroke-miterlimit="10" stroke-width="1.2"/>
        <path id="Trazado_1033655" data-name="Trazado 1033655" d="M167.874,71.013l3.893,8.71-1.314,3.437-3.167,1.416-3.437-1.314-3.893-8.71" transform="translate(-143.587 -64.141)" fill="none" stroke="#000" stroke-linecap="round" stroke-linejoin="round" stroke-miterlimit="10" stroke-width="1.2"/>
        <line id="Línea_1559" data-name="Línea 1559" y1="0.708" x2="1.584" transform="translate(22.721 15.414)" fill="none" stroke="#000" stroke-linecap="round" stroke-linejoin="round" stroke-miterlimit="10" stroke-width="1.2"/>
        <path id="Trazado_1033656" data-name="Trazado 1033656" d="M156.51,67.171l-10.084-5.289a3.469,3.469,0,0,0-3.027-.095l-12.716,5.684,6.017,13.46a.867.867,0,0,0,1.146.438l12.669-5.663a.867.867,0,0,0,.438-1.146l-5.781-12.933" transform="translate(-117.482 -55.644)" fill="none" stroke="#000" stroke-linecap="round" stroke-linejoin="round" stroke-miterlimit="10" stroke-width="1.2"/>
        <path id="Trazado_1033657" data-name="Trazado 1033657" d="M281.256,56.654l3.359-1.5,3.241,1.238,1.5,3.359-.276.723" transform="translate(-251.764 -49.996)" fill="none" stroke="#000" stroke-linecap="round" stroke-linejoin="round" stroke-miterlimit="10" stroke-width="1.2"/>
        <path id="Trazado_1033658" data-name="Trazado 1033658" d="M264.434,18.721l1.945-5.09a.867.867,0,0,0-.5-1.12L252.916,7.557a.867.867,0,0,0-1.12.5l-2.023,5.294" transform="translate(-223.687 -7.5)" fill="none" stroke="#000" stroke-linecap="round" stroke-linejoin="round" stroke-miterlimit="10" stroke-width="1.2"/>
        <path id="Trazado_1033659" data-name="Trazado 1033659" d="M257.166,178.17" transform="translate(-230.28 -159.705)" fill="none" stroke="#000" stroke-linecap="round" stroke-linejoin="round" stroke-miterlimit="10" stroke-width="1.2"/>
        <path id="Trazado_1033660" data-name="Trazado 1033660" d="M287.132,106.4a9.332,9.332,0,0,1,2.823-.374c3.037,0,3.037.867,6.074.867a12.809,12.809,0,0,0,3.916-.663,1.787,1.787,0,0,1,2.158,1.75h0a1.787,1.787,0,0,1-.414,1.144l-3.922,4.707h-3.829" transform="translate(-257.004 -95.365)" fill="none" stroke="#000" stroke-linecap="round" stroke-linejoin="round" stroke-miterlimit="10" stroke-width="1.2"/>
        <path id="Trazado_1033661" data-name="Trazado 1033661" d="M96.117,115.179H93.125L89.2,110.472a1.788,1.788,0,0,1-.414-1.144h0a1.787,1.787,0,0,1,2.158-1.75,15.232,15.232,0,0,0,3.1.639" transform="translate(-80.119 -96.713)" fill="none" stroke="#000" stroke-linecap="round" stroke-linejoin="round" stroke-miterlimit="10" stroke-width="1.2"/>
        <path id="Trazado_1033662" data-name="Trazado 1033662" d="M162.67,282.447a10.421,10.421,0,1,1,2.463,2.628" transform="translate(-144.493 -238.341)" fill="none" stroke="#000" stroke-linecap="round" stroke-linejoin="round" stroke-miterlimit="10" stroke-width="1.2"/>
        <path id="Trazado_1033663" data-name="Trazado 1033663" d="M234.956,313.321a3.694,3.694,0,0,0-3.254-.537c-1.812.5-2.262,2.772-1.031,3.657a12.175,12.175,0,0,0,3.2,1.39c3.209,1.039,2.023,5.186-1.242,5.206a4.669,4.669,0,0,1-2.989-.737" transform="translate(-205.737 -279.617)" fill="none" stroke="#000" stroke-linecap="round" stroke-linejoin="round" stroke-miterlimit="10" stroke-width="1.2"/>
        <line id="Línea_1560" data-name="Línea 1560" y2="12.489" transform="translate(26.907 31.972)" fill="none" stroke="#000" stroke-linecap="round" stroke-linejoin="round" stroke-miterlimit="10" stroke-width="1.2"/>
      </g>
    </g>
  </g>
</svg>
