<svg xmlns="http://www.w3.org/2000/svg" width="499.128" height="803.538" viewBox="0 0 499.128 803.538">
  <g id="Grupo_1178832" data-name="Grupo 1178832" transform="translate(-918.85 -29724.875)">
    <g id="Grupo_1178453" data-name="Grupo 1178453" transform="translate(1000 29724.875)">
      <g id="Grupo_1178450" data-name="Grupo 1178450">
        <rect id="Rectángulo_405350" data-name="Rectángulo 405350" width="327.071" height="803.537" rx="12" transform="translate(0 0)" fill="#fed6a8"/>
      </g>
    </g>
    <g id="graficos_cf13_lista" data-name="graficos cf13_lista" transform="translate(918.85 29747.557)">
      <g id="freepik--background-complete--inject-118" transform="translate(90.425 0)">
        <path id="Trazado_109896" data-name="Trazado 109896" d="M102.615,416.836h36.844a4.693,4.693,0,0,0,4.693-4.693V400.777a7.907,7.907,0,0,0-7.907-7.907H102.36Z" transform="translate(-42.245 -157.647)" fill="#ebebeb"/>
        <path id="Trazado_109897" data-name="Trazado 109897" d="M128.667,430.159H56.283A3.571,3.571,0,0,1,52.72,426.6h0a3.564,3.564,0,0,1,3.532-3.6h72.384a3.564,3.564,0,0,1,3.563,3.571h0a3.579,3.579,0,0,1-3.532,3.587Z" transform="translate(-32.089 -163.811)" fill="#ebebeb"/>
        <path id="Trazado_109898" data-name="Trazado 109898" d="M36.191,303.268l39.835-.708,25.287,95.57-53.93.541L27.051,314.889a9.41,9.41,0,0,1,6.92-11.359,9.06,9.06,0,0,1,2.22-.262Z" transform="translate(-26.784 -139.172)" fill="#e0e0e0"/>
        <path id="Trazado_109899" data-name="Trazado 109899" d="M60.493,431.94,48.57,501.2h3.269l15.67-69.258Z" transform="translate(-31.24 -165.64)" fill="#ebebeb"/>
        <path id="Trazado_109900" data-name="Trazado 109900" d="M95.623,431.94,82.96,501.2h3.261l16.425-69.258Z" transform="translate(-38.276 -165.64)" fill="#e0e0e0"/>
        <path id="Trazado_109901" data-name="Trazado 109901" d="M136.154,431.94,150.28,501.2h-3.269L129.13,431.94Z" transform="translate(-47.721 -165.64)" fill="#ebebeb"/>
        <path id="Trazado_109902" data-name="Trazado 109902" d="M83,302.56l19.711,95.674h15.113L102,313.7a13.61,13.61,0,0,0-13.387-11.14Z" transform="translate(-38.284 -139.172)" fill="#ebebeb"/>
        <rect id="Rectángulo_8849" data-name="Rectángulo 8849" width="54.526" height="2.649" transform="translate(105.836 195.531)" fill="#ebebeb"/>
        <path id="Trazado_109903" data-name="Trazado 109903" d="M228.319,336.443l10.229-38.323H195.969l-9.259,38.323Z" transform="translate(-59.501 -138.264)" fill="#ebebeb"/>
        <path id="Trazado_109904" data-name="Trazado 109904" d="M189.92,333.988h38.029L236.8,300.35H198.574Z" transform="translate(-60.157 -138.72)" fill="#e0e0e0"/>
        <rect id="Rectángulo_8850" data-name="Rectángulo 8850" width="2.752" height="131.468" transform="translate(95.042 206.031)" fill="#f5f5f5"/>
        <rect id="Rectángulo_8851" data-name="Rectángulo 8851" width="2.752" height="131.086" transform="translate(97.795 206.412)" fill="#ebebeb"/>
        <rect id="Rectángulo_8852" data-name="Rectángulo 8852" width="2.752" height="131.468" transform="translate(264.682 206.031)" fill="#ebebeb"/>
        <rect id="Rectángulo_8853" data-name="Rectángulo 8853" width="2.752" height="131.086" transform="translate(267.435 206.412)" fill="#e0e0e0"/>
        <rect id="Rectángulo_8854" data-name="Rectángulo 8854" width="209.157" height="10.786" transform="translate(83.151 198.395)" fill="#e0e0e0"/>
        <rect id="Rectángulo_8855" data-name="Rectángulo 8855" width="92.078" height="17.849" transform="translate(173.98 209.181)" fill="#ebebeb"/>
        <path id="Trazado_109905" data-name="Trazado 109905" d="M307.494,369.272a2.052,2.052,0,1,1-2.052-2.052h0a2.044,2.044,0,0,1,2.052,2.052Z" transform="translate(-83.371 -152.4)" fill="#e0e0e0"/>
        <rect id="Rectángulo_8856" data-name="Rectángulo 8856" width="114.621" height="5.107" transform="translate(3.06 75.176)" fill="#e0e0e0"/>
        <rect id="Rectángulo_8857" data-name="Rectángulo 8857" width="4.653" height="17.428" transform="translate(21.824 77.633)" fill="#e0e0e0"/>
        <rect id="Rectángulo_8858" data-name="Rectángulo 8858" width="4.653" height="17.428" transform="translate(91.288 77.633)" fill="#e0e0e0"/>
        <path id="Trazado_109906" data-name="Trazado 109906" d="M120.1,136.314c.191-.183,1.464.748,3.182,2.657a29.912,29.912,0,0,1,2.657,3.571,33.805,33.805,0,0,1,4.3,10.054,29.5,29.5,0,0,1,.8,4.415c.231,2.545,0,4.12-.239,4.128-.6.048-1.145-6.109-4.112-12.934S119.664,136.728,120.1,136.314Z" transform="translate(-45.867 -105.157)" fill="#ebebeb"/>
        <path id="Trazado_109907" data-name="Trazado 109907" d="M135.166,158.278c-.262,0-.986-3.333-1.654-8.853s-1.241-13.172-1.456-21.636-.135-16.131,0-21.675.422-8.964.7-8.964.525,3.428.716,8.964.334,13.18.557,21.62.557,16.052.867,21.572S135.428,158.278,135.166,158.278Z" transform="translate(-48.292 -97.15)" fill="#ebebeb"/>
        <path id="Trazado_109908" data-name="Trazado 109908" d="M148.119,113.458c.255.143-.8,2.5-2.172,6.427s-3.182,9.418-4.844,15.551-2.983,11.756-3.77,15.853-1.114,6.65-1.408,6.642-.469-2.649,0-6.865a116.93,116.93,0,0,1,8.694-31.722C146.353,115.479,147.857,113.323,148.119,113.458Z" transform="translate(-49.052 -100.485)" fill="#ebebeb"/>
        <path id="Trazado_109909" data-name="Trazado 109909" d="M116.23,165.11v6.737a14.318,14.318,0,0,0,14.2,14.381h0a14.318,14.318,0,0,0,14.206-14.381V165.11Z" transform="translate(-45.082 -111.053)" fill="#e0e0e0"/>
        <path id="Trazado_109910" data-name="Trazado 109910" d="M144.9,172.219c0,.119-6.419.207-14.318.207s-14.318-.088-14.318-.207,6.419-.2,14.318-.2S144.9,172.107,144.9,172.219Z" transform="translate(-45.088 -112.467)" fill="#fafafa"/>
        <path id="Trazado_109911" data-name="Trazado 109911" d="M144.9,174.577c0,.111-6.419.2-14.318.2s-14.318-.087-14.318-.2,6.419-.207,14.318-.207S144.9,174.457,144.9,174.577Z" transform="translate(-45.088 -112.947)" fill="#fafafa"/>
        <rect id="Rectángulo_8859" data-name="Rectángulo 8859" width="31.292" height="6.371" transform="translate(17.507 52.413) rotate(-0.286)" fill="#e0e0e0"/>
        <rect id="Rectángulo_8860" data-name="Rectángulo 8860" width="34.871" height="9.895" transform="translate(17.671 65.441) rotate(-0.286)" fill="#f5f5f5"/>
        <path id="Trazado_109912" data-name="Trazado 109912" d="M84.41,189.005a35.48,35.48,0,0,1-.175-4.948,35.4,35.4,0,0,1,.175-4.948,36.653,36.653,0,0,1,.167,4.948,36.739,36.739,0,0,1-.167,4.948Z" transform="translate(-38.532 -113.917)" fill="#e0e0e0"/>
        <path id="Trazado_109913" data-name="Trazado 109913" d="M86.28,189.005a35.48,35.48,0,0,1-.175-4.948,35.393,35.393,0,0,1,.175-4.948,36.65,36.65,0,0,1,.167,4.948,36.738,36.738,0,0,1-.167,4.948Z" transform="translate(-38.915 -113.917)" fill="#e0e0e0"/>
        <path id="Trazado_109914" data-name="Trazado 109914" d="M55.6,189.005a39.556,39.556,0,0,1-.167-4.948,39.46,39.46,0,0,1,.167-4.948,34.2,34.2,0,0,1,.175,4.948A34.3,34.3,0,0,1,55.6,189.005Z" transform="translate(-32.642 -113.917)" fill="#e0e0e0"/>
        <path id="Trazado_109915" data-name="Trazado 109915" d="M57.45,189.005a35.485,35.485,0,0,1-.175-4.948,35.4,35.4,0,0,1,.175-4.948,36.654,36.654,0,0,1,.167,4.948,36.738,36.738,0,0,1-.167,4.948Z" transform="translate(-33.017 -113.917)" fill="#e0e0e0"/>
        <path id="Trazado_109916" data-name="Trazado 109916" d="M61.52,185.487c0-.1,3.516-.167,7.851-.167s7.859.072,7.859.167-3.516.175-7.859.175S61.52,185.582,61.52,185.487Z" transform="translate(-33.89 -115.187)" fill="#e0e0e0"/>
        <rect id="Rectángulo_8861" data-name="Rectángulo 8861" width="43.032" height="6.371" transform="translate(22.623 58.693) rotate(-0.286)" fill="#ebebeb"/>
        <ellipse id="Elipse_4174" data-name="Elipse 4174" cx="2.036" cy="2.06" rx="2.036" ry="2.06" transform="translate(57.491 59.935)" fill="#e0e0e0"/>
        <rect id="Rectángulo_8862" data-name="Rectángulo 8862" width="28.81" height="1.273" transform="translate(25.125 61.359)" fill="#e0e0e0"/>
        <rect id="Rectángulo_8863" data-name="Rectángulo 8863" width="57" height="82.621" transform="translate(286.986 13.459)" fill="#e0e0e0"/>
        <rect id="Rectángulo_8864" data-name="Rectángulo 8864" width="57" height="82.621" transform="translate(284.131 13.459)" fill="#f5f5f5"/>
        <rect id="Rectángulo_8865" data-name="Rectángulo 8865" width="42.842" height="64.724" transform="translate(291.21 22.407)" fill="#fff"/>
        <path id="Trazado_109917" data-name="Trazado 109917" d="M435.723,189.986v-4.773c0-3.1,0-7.62-.04-13.331,0-11.414-.04-27.577-.072-46.612l.143.143H392.922l.159-.159v64.732l-.127-.127,31.181.064h.1l-31.26.064h-.119V125h43.136v.135c0,19.09-.056,35.269-.072,46.707,0,5.7,0,10.205-.04,13.3v4.423A1.018,1.018,0,0,1,435.723,189.986Z" transform="translate(-101.672 -102.847)" fill="#e0e0e0"/>
        <path id="Trazado_109918" data-name="Trazado 109918" d="M453.853,114.07a9.307,9.307,0,0,1-1.01,1.5c-.668.883-1.591,2.092-2.68,3.389s-2.076,2.458-2.816,3.277a9.62,9.62,0,0,1-1.257,1.289,11.242,11.242,0,0,1,1.09-1.424l2.744-3.349,2.72-3.333a11.47,11.47,0,0,1,1.209-1.344Z" transform="translate(-112.564 -100.611)" fill="#e0e0e0"/>
        <path id="Trazado_109919" data-name="Trazado 109919" d="M447,206.43a52.9,52.9,0,0,0,7.477,9.346" transform="translate(-112.75 -119.506)" fill="#fff"/>
        <path id="Trazado_109920" data-name="Trazado 109920" d="M454.5,215.776a8.4,8.4,0,0,1-1.3-1.185,41.992,41.992,0,0,1-5.3-6.626,8.883,8.883,0,0,1-.875-1.535,10.792,10.792,0,0,1,1.05,1.408c.628.883,1.511,2.092,2.545,3.381s2.012,2.386,2.736,3.221A11.527,11.527,0,0,1,454.5,215.776Z" transform="translate(-112.754 -119.506)" fill="#e0e0e0"/>
        <path id="Trazado_109921" data-name="Trazado 109921" d="M384,215.491l7.437-9.211" transform="translate(-99.861 -119.475)" fill="#fff"/>
        <path id="Trazado_109922" data-name="Trazado 109922" d="M391.409,206.28a57.346,57.346,0,0,1-3.619,4.709,58.975,58.975,0,0,1-3.85,4.5c-.064-.048,1.591-2.156,3.611-4.7a54.882,54.882,0,0,1,3.858-4.509Z" transform="translate(-99.849 -119.475)" fill="#e0e0e0"/>
        <path id="Trazado_109923" data-name="Trazado 109923" d="M384,114.07a52.575,52.575,0,0,1,3.627,4.335,49.584,49.584,0,0,1,3.381,4.526,51.043,51.043,0,0,1-3.627-4.335A51.855,51.855,0,0,1,384,114.07Z" transform="translate(-99.861 -100.611)" fill="#e0e0e0"/>
        <rect id="Rectángulo_8866" data-name="Rectángulo 8866" width="14.341" height="40.726" transform="translate(306.363 35.555)" fill="#e0e0e0"/>
      </g>
      <g id="freepik--Floor--inject-118" transform="translate(90.718 381.708)">
        <path id="Trazado_109924" data-name="Trazado 109924" d="M381.957,530.047c0,.111-79.439.207-177.379.207s-177.427-.1-177.427-.207,79.423-.207,177.427-.207S381.957,529.967,381.957,530.047Z" transform="translate(-27.151 -529.84)" fill="#344154"/>
      </g>
      <g id="freepik--Floor--inject-118-2" data-name="freepik--Floor--inject-118" transform="translate(144.322 631.981)">
        <path id="Trazado_109925" data-name="Trazado 109925" d="M449.347,837.417c0,.111-79.439.207-177.379.207s-177.427-.1-177.427-.207,79.423-.207,177.427-.207S449.347,837.3,449.347,837.417Z" transform="translate(-94.541 -837.21)" fill="#344154"/>
      </g>
      <g id="freepik--Floor--inject-118-3" data-name="freepik--Floor--inject-118" transform="translate(0 780.442)">
        <path id="Trazado_109926" data-name="Trazado 109926" d="M267.907,1024.06c0,.111-79.439.207-177.379.207s-177.427-.1-177.427-.207,79.423-.207,177.427-.207S267.907,1023.97,267.907,1024.06Z" transform="translate(86.899 -1023.853)" fill="#344154"/>
      </g>
      <g id="freepik--Plant--inject-118" transform="translate(96.121 481.836)">
        <path id="Trazado_109927" data-name="Trazado 109927" d="M119.882,739.189c7.652,2.673,17.627.286,24.173-4.494s11.255-11.629,15.431-18.573c1.774-2.967,3.516-6.053,4.081-9.466s-.27-7.254-2.911-9.481c-4.112-3.46-10.412-1.7-15.113.954a52.021,52.021,0,0,0-25.692,41.06" transform="translate(-51.518 -660.729)" fill="#d9a171"/>
        <path id="Trazado_109928" data-name="Trazado 109928" d="M130.26,770.389c4.6,6.061,12.488,8.75,20.092,9.108s15.113-1.742,22.2-4.47c2.577-.986,5.4-2.386,6.284-4.955a6.363,6.363,0,0,0-1.344-5.854,13.227,13.227,0,0,0-5.13-3.492,35.027,35.027,0,0,0-22.351-1.209c-7.358,1.909-13.777,6.173-19.75,10.873" transform="translate(-53.648 -673.618)" fill="#d9a171"/>
        <path id="Trazado_109929" data-name="Trazado 109929" d="M118.942,697.531c6.363.127,11.136-5.417,13.992-11.064a41.028,41.028,0,0,0,3.77-25.581c-.581-3.237-1.806-6.729-4.7-8.288s-6.769-.533-9.235,1.718S118.95,659.78,118,662.97c-3.4,11-2.673,23.648.978,34.561" transform="translate(-50.689 -651.85)" fill="#d9a171"/>
        <path id="Trazado_109930" data-name="Trazado 109930" d="M90.949,735.7c10.8-18.374,12.6-40.861,6.22-61.2-1.034-3.3-2.983-7.071-6.435-7.294-3.818-.239-6.22,4.025-7.27,7.7-3.707,12.918-2.919,26.631-2.1,40.042.509,8.265,3.341,15.328,9.545,20.753" transform="translate(-43.504 -654.99)" fill="#d9a171"/>
        <path id="Trazado_109931" data-name="Trazado 109931" d="M70.164,755.423a44.21,44.21,0,0,0-26.2-27.784c-2.871-1.074-6.515-1.694-8.654.5s-1.448,5.751-.1,8.439c2.172,4.335,5.7,7.827,9.219,11.136,3.182,3.047,6.522,6.1,10.563,7.875s11.478,2.211,15.177-.2" transform="translate(-33.943 -667.155)" fill="#d9a171"/>
        <path id="Trazado_109932" data-name="Trazado 109932" d="M150.9,703.47a1.433,1.433,0,0,1-.191.167l-.581.453-2.259,1.686-1.647,1.217c-.589.453-1.2.986-1.877,1.535-1.336,1.114-2.919,2.315-4.51,3.826l-2.545,2.315c-.883.8-1.726,1.726-2.641,2.625-1.861,1.79-3.659,3.874-5.568,6.029a118.678,118.678,0,0,0-19.734,31.928c-1.058,2.7-2.124,5.242-2.887,7.7-.4,1.225-.843,2.386-1.169,3.54l-.931,3.309c-.644,2.1-1.01,4.049-1.416,5.743-.183.851-.382,1.639-.525,2.386s-.247,1.4-.35,2.012c-.215,1.177-.382,2.108-.5,2.784-.064.286-.1.525-.143.716s-.056.247-.072.247a1.358,1.358,0,0,1,0-.255,6.775,6.775,0,0,1,.1-.724c.1-.684.239-1.591.406-2.8.1-.612.2-1.289.31-2.02s.31-1.535.485-2.386c.382-1.7.724-3.667,1.344-5.775q.429-1.6.907-3.333c.318-1.154.748-2.331,1.137-3.563.8-2.474,1.806-5.035,2.864-7.747a116.554,116.554,0,0,1,19.814-32.056c1.949-2.148,3.77-4.232,5.647-6.013.923-.907,1.782-1.814,2.673-2.617l2.577-2.3c1.591-1.5,3.182-2.681,4.566-3.778.692-.541,1.312-1.058,1.917-1.5l1.67-1.185,2.323-1.591.612-.406C150.816,703.5,150.887,703.462,150.9,703.47Z" transform="translate(-47.732 -662.41)" fill="#344154"/>
        <path id="Trazado_109933" data-name="Trazado 109933" d="M165.307,766.989a3.971,3.971,0,0,1-.748-.119c-.477-.088-1.177-.278-2.1-.43a57.27,57.27,0,0,0-54.137,18.295,60.775,60.775,0,0,0-4.828,6.22c-.541.8-.9,1.384-1.177,1.79a3.411,3.411,0,0,1-.437.612,4.455,4.455,0,0,1,.35-.668c.247-.422.581-1.066,1.1-1.846a53.355,53.355,0,0,1,4.725-6.363,56.157,56.157,0,0,1,46.628-19.369,52.051,52.051,0,0,1,7.835,1.122c.915.183,1.591.4,2.092.517C164.814,766.822,165.076,766.9,165.307,766.989Z" transform="translate(-47.842 -674.99)" fill="#344154"/>
        <path id="Trazado_109934" data-name="Trazado 109934" d="M125.327,662a1.082,1.082,0,0,1,0,.286c-.048.215-.1.485-.175.8-.167.8-.406,1.822-.708,3.182-.62,2.744-1.591,6.705-2.76,11.6-2.386,9.784-5.838,23.258-9.442,38.18-1.79,7.469-3.4,14.6-4.773,21.11s-2.537,12.385-3.4,17.34c-.469,2.474-.8,4.725-1.153,6.7s-.6,3.667-.8,5.059-.374,2.434-.493,3.182c-.064.342-.111.613-.143.8s-.056.286-.072.286a1.719,1.719,0,0,1,0-.286,8.253,8.253,0,0,1,.1-.843c.1-.8.231-1.845.406-3.182s.406-3.1.716-5.083.628-4.232,1.074-6.705c.8-4.971,1.957-10.858,3.309-17.38s2.975-13.657,4.773-21.134c3.6-14.93,7.119-28.389,9.545-38.18l2.919-11.557c.342-1.336.612-2.386.8-3.182.087-.334.159-.6.223-.8a1.4,1.4,0,0,1,.064-.183Z" transform="translate(-47.744 -653.927)" fill="#344154"/>
        <path id="Trazado_109935" data-name="Trazado 109935" d="M98.392,773.733a.915.915,0,0,1-.072-.223l-.143-.66c-.135-.628-.31-1.487-.533-2.561-.461-2.219-1.066-5.449-1.758-9.45-1.384-7.994-3.031-19.09-4.033-31.443-.493-6.181-.8-12.075-.883-17.444s0-10.205.127-14.262c.048-2.028.183-3.858.27-5.473s.191-2.991.3-4.12.175-1.965.239-2.6a6.111,6.111,0,0,1,.072-.676c0-.183,0-.231.048-.231a1.192,1.192,0,0,1,0,.239v.676c0,.636-.088,1.511-.151,2.609s-.159,2.513-.215,4.12-.167,3.444-.191,5.473c-.119,4.049-.135,8.877,0,14.238s.43,11.239.915,17.4c1.01,12.329,2.593,23.425,3.89,31.435.644,3.977,1.193,7.238,1.591,9.466.183,1.09.334,1.949.437,2.577a3.469,3.469,0,0,0,.1.676,1.093,1.093,0,0,1-.01.234Z" transform="translate(-45.603 -658.548)" fill="#344154"/>
        <path id="Trazado_109936" data-name="Trazado 109936" d="M90.114,786.612a3.428,3.428,0,0,1-.278-.628l-.708-1.853c-.159-.406-.326-.851-.509-1.336l-.692-1.551c-.247-.557-.517-1.153-.8-1.79s-.636-1.265-.978-1.957-.724-1.392-1.106-2.14L83.71,773.1c-.867-1.591-1.989-3.182-3.07-4.876a115.514,115.514,0,0,0-8.066-10.388,131.006,131.006,0,0,0-9.338-9.346c-1.591-1.3-2.975-2.617-4.407-3.715l-2.044-1.591-1.917-1.432c-1.225-.923-2.386-1.7-3.389-2.386s-1.885-1.281-2.617-1.718l-1.718-1.1a3.026,3.026,0,0,1-.565-.4,4.52,4.52,0,0,1,.62.31l1.718.978c.756.422,1.654.978,2.673,1.654s2.2,1.416,3.444,2.331l1.973,1.408,2.068,1.591c1.456,1.082,2.887,2.386,4.454,3.691a122.706,122.706,0,0,1,9.378,9.394A109.259,109.259,0,0,1,81.052,768c1.074,1.734,2.187,3.325,3.046,4.924.445.8.875,1.551,1.3,2.291l1.074,2.164c.334.7.684,1.344.955,1.981l.8,1.814.652,1.591c.175.493.326.947.469,1.36.255.8.461,1.4.62,1.877A2.706,2.706,0,0,1,90.114,786.612Z" transform="translate(-36.529 -669.096)" fill="#344154"/>
        <path id="Trazado_109937" data-name="Trazado 109937" d="M152.757,730.227c0,.079-1.312.079-3.412.191a66.9,66.9,0,0,0-8.153.986,64.9,64.9,0,0,0-7.954,2.076A33.567,33.567,0,0,1,130,734.546a3.182,3.182,0,0,1,.8-.437c.533-.262,1.32-.6,2.315-.97A48.979,48.979,0,0,1,149.3,730.06c1.058,0,1.917,0,2.506.048a3.18,3.18,0,0,1,.947.119Z" transform="translate(-53.594 -667.85)" fill="#344154"/>
        <path id="Trazado_109938" data-name="Trazado 109938" d="M166.069,777.289a31.179,31.179,0,0,0-4.446-6.7,34.879,34.879,0,0,0-6.363-4.932,7.644,7.644,0,0,1,2.2.97,19.44,19.44,0,0,1,7.8,8.4,7.951,7.951,0,0,1,.819,2.259Z" transform="translate(-58.762 -675.133)" fill="#344154"/>
        <path id="Trazado_109939" data-name="Trazado 109939" d="M131.888,680.77c.1.111-1.885,2.084-4.049,4.773s-3.715,5-3.842,4.924a21.352,21.352,0,0,1,3.444-5.25,22.435,22.435,0,0,1,4.446-4.446Z" transform="translate(-52.365 -657.766)" fill="#344154"/>
        <path id="Trazado_109940" data-name="Trazado 109940" d="M125.71,666.61a37.691,37.691,0,0,1,1.472,8.606,37.691,37.691,0,0,1-1.472-8.606Z" transform="translate(-52.708 -654.87)" fill="#344154"/>
        <path id="Trazado_109941" data-name="Trazado 109941" d="M98.581,711.06a52.9,52.9,0,0,1-3.182,6.65,57.07,57.07,0,0,1-3.611,6.419,51.363,51.363,0,0,1,3.182-6.658,58.261,58.261,0,0,1,3.611-6.411Z" transform="translate(-45.775 -663.963)" fill="#344154"/>
        <path id="Trazado_109942" data-name="Trazado 109942" d="M85.255,696a30.189,30.189,0,0,1,2.681,4.773c1.352,2.681,2.386,4.971,2.227,5.035s-1.328-2.092-2.681-4.812S85.088,696.039,85.255,696Z" transform="translate(-44.437 -660.882)" fill="#344154"/>
        <path id="Trazado_109943" data-name="Trazado 109943" d="M60.5,747.306c0,.151-2.179-.271-4.852-.453s-4.852-.079-4.868-.231a13.341,13.341,0,0,1,4.908-.278,14.472,14.472,0,0,1,4.812.962Z" transform="translate(-37.388 -671.168)" fill="#344154"/>
        <path id="Trazado_109944" data-name="Trazado 109944" d="M78.17,793.2l6.013,31.61a4.414,4.414,0,0,0,4.351,3.6H106.3a4.415,4.415,0,0,0,4.367-3.707l5.226-31.507Z" transform="translate(-42.991 -680.767)" fill="#344154"/>
        <path id="Trazado_109945" data-name="Trazado 109945" d="M80.127,803.487h33.957l1.806-10.277H78.17Z" transform="translate(-42.991 -680.769)" fill="#455a64"/>
        <path id="Trazado_109946" data-name="Trazado 109946" d="M80.63,806.13l.708,3.746H114.07l.517-3.746Z" transform="translate(-43.494 -683.412)" fill="#fafafa"/>
      </g>
      <g id="freepik--Character--inject-118" transform="translate(87.987 322.326)">
        <path id="Trazado_109947" data-name="Trazado 109947" d="M177.948,1010.95l3.182-13.466,26.249.644-2.187,19.162-1.662.135c-7.437.5-37.814,2.036-42.857.589C155.19,1016.38,177.948,1010.95,177.948,1010.95Z" transform="translate(-51.561 -560.342)" fill="#d9a171"/>
        <g id="Grupo_58321" data-name="Grupo 58321" transform="translate(143.823 449.004)" opacity="0.4">
          <path id="Trazado_109948" data-name="Trazado 109948" d="M204.53,1020.24a9.379,9.379,0,0,1,3.373-5.791,9.084,9.084,0,0,1,6.268-2.036l.1,7.533Z" transform="translate(-204.53 -1012.398)"/>
        </g>
        <g id="Grupo_58322" data-name="Grupo 58322" transform="translate(108.178 453.667)" opacity="0.4">
          <path id="Trazado_109949" data-name="Trazado 109949" d="M166.791,1018.26s-7.994,2.45-6.984,3.675,31.817.915,45.339-.445v-.6l-35.874.756S168.358,1018.29,166.791,1018.26Z" transform="translate(-159.719 -1018.26)"/>
        </g>
        <path id="Trazado_109950" data-name="Trazado 109950" d="M205.525,1021.58a1.841,1.841,0,0,1-.461.064l-1.328.1-4.892.271c-4.128.207-9.8.406-16.163.493s-12.035,0-16.179,0l-4.892-.151h-1.79a2.242,2.242,0,0,1,.461,0h22.383c6.363,0,12.027-.255,16.147-.406l4.9-.159h1.336Z" transform="translate(-51.561 -565.272)" fill="#344154"/>
        <path id="Trazado_109951" data-name="Trazado 109951" d="M170.991,1022.03a7.071,7.071,0,0,0-2.641-4.192,4.383,4.383,0,0,1,2.641,4.192Z" transform="translate(-53.306 -564.507)" fill="#344154"/>
        <path id="Trazado_109952" data-name="Trazado 109952" d="M181.222,1017.35a3.309,3.309,0,0,1-.867-1.026c-.406-.62-.668-1.153-.589-1.225s.461.422.867,1.034S181.309,1017.28,181.222,1017.35Z" transform="translate(-55.638 -563.945)" fill="#344154"/>
        <path id="Trazado_109953" data-name="Trazado 109953" d="M183.881,1016.01a2.837,2.837,0,0,1-.954-.628c-.461-.406-.8-.8-.748-.867s.493.207.955.62a2.767,2.767,0,0,1,.748.875Z" transform="translate(-56.134 -563.825)" fill="#344154"/>
        <path id="Trazado_109954" data-name="Trazado 109954" d="M185.276,1013.15a3.049,3.049,0,0,1-1.408.215,3.365,3.365,0,0,1-1.408-.135,3.179,3.179,0,0,1,1.408-.2,3.244,3.244,0,0,1,1.408.12Z" transform="translate(-56.192 -563.517)" fill="#344154"/>
        <path id="Trazado_109955" data-name="Trazado 109955" d="M185.772,1010.93a3.977,3.977,0,0,1-3.182.278,10.854,10.854,0,0,1,1.591-.12,9.638,9.638,0,0,1,1.591-.159Z" transform="translate(-56.219 -563.093)" fill="#344154"/>
        <path id="Trazado_109956" data-name="Trazado 109956" d="M179.1,1014.39a4.886,4.886,0,0,1-1.734,0,11.266,11.266,0,0,1-1.853-.374,6.363,6.363,0,0,1-1.05-.429,1,1,0,0,1-.453-.5.692.692,0,0,1,.255-.7,3.182,3.182,0,0,1,3.977.883,2.99,2.99,0,0,1,.533,1.122c.08.294.08.453,0,.469a4.774,4.774,0,0,0-.8-1.471,3.063,3.063,0,0,0-1.5-.939,2.689,2.689,0,0,0-2.06.167c-.27.2-.159.525.151.7a4.387,4.387,0,0,0,.978.406,11.312,11.312,0,0,0,1.79.437,10.165,10.165,0,0,1,1.758.231Z" transform="translate(-54.459 -563.319)" fill="#344154"/>
        <path id="Trazado_109957" data-name="Trazado 109957" d="M179.779,1014.23a1.782,1.782,0,0,1-.207-1.225,2.824,2.824,0,0,1,.453-1.225,1.734,1.734,0,0,1,1.432-.907.684.684,0,0,1,.541.8,1.773,1.773,0,0,1-.278.8,5.314,5.314,0,0,1-.8,1.066c-.541.541-.954.748-.978.708s.342-.318.8-.867a5.629,5.629,0,0,0,.716-1.058c.231-.366.39-1.01,0-1.09s-.883.4-1.137.748a2.84,2.84,0,0,0-.477,1.13,6.2,6.2,0,0,0-.064,1.13Z" transform="translate(-55.595 -563.081)" fill="#344154"/>
        <path id="Trazado_109958" data-name="Trazado 109958" d="M214.038,1012.29c0,.064-.8-.064-2,.1a8.391,8.391,0,0,0-6.976,5.711c-.406,1.161-.43,1.949-.493,1.933a1.241,1.241,0,0,1,0-.541,7.606,7.606,0,0,1,.286-1.456,8.2,8.2,0,0,1,7.159-5.878,7.657,7.657,0,0,1,1.48,0,1.353,1.353,0,0,1,.541.135Z" transform="translate(-60.71 -563.336)" fill="#344154"/>
        <path id="Trazado_109959" data-name="Trazado 109959" d="M212.768,998.28a51.424,51.424,0,0,1,.3,5.568,49.327,49.327,0,0,1,0,5.568,47.364,47.364,0,0,1-.3-5.52,46.059,46.059,0,0,1,0-5.616Z" transform="translate(-62.375 -560.505)" fill="#344154"/>
        <path id="Trazado_109960" data-name="Trazado 109960" d="M198.155,1019a22.015,22.015,0,0,1-7.875.175c0-.1,1.774,0,3.977,0S198.155,1018.91,198.155,1019Z" transform="translate(-57.792 -564.74)" fill="#344154"/>
        <path id="Trazado_109961" data-name="Trazado 109961" d="M206.665,1018.92c.072.064-.135.366-.31.8s-.262.8-.366.8-.135-.414.064-.875S206.617,1018.85,206.665,1018.92Z" transform="translate(-60.989 -564.725)" fill="#344154"/>
        <path id="Trazado_109962" data-name="Trazado 109962" d="M209.064,1015.76c.072.064-.1.35-.382.636s-.549.469-.6.406.1-.342.374-.636S209.008,1015.7,209.064,1015.76Z" transform="translate(-61.431 -564.079)" fill="#344154"/>
        <path id="Trazado_109963" data-name="Trazado 109963" d="M212.489,1014.26c0,.087-.374.1-.8.231s-.668.374-.748.31.151-.445.636-.612S212.513,1014.17,212.489,1014.26Z" transform="translate(-62.017 -563.745)" fill="#344154"/>
        <path id="Trazado_109964" data-name="Trazado 109964" d="M215.222,1013.57c0,.088-.119.239-.342.318s-.43.087-.461,0,.119-.231.342-.318S215.19,1013.49,215.222,1013.57Z" transform="translate(-62.73 -563.621)" fill="#344154"/>
        <path id="Trazado_109965" data-name="Trazado 109965" d="M310.606,1010.71l.087-14.381L283.752,996l-.342,21.047,1.678.119c7.421.509,37.806,2.036,42.794.589C333.426,1016.14,310.606,1010.71,310.606,1010.71Z" transform="translate(-76.844 -560.039)" fill="#d9a171"/>
        <g id="Grupo_58323" data-name="Grupo 58323" transform="translate(206.537 449.068)" opacity="0.4">
          <path id="Trazado_109966" data-name="Trazado 109966" d="M293.116,1020.32a9.377,9.377,0,0,0-3.373-5.791,9.084,9.084,0,0,0-6.268-2.036l-.1,7.533Z" transform="translate(-283.375 -1012.478)"/>
        </g>
        <g id="Grupo_58324" data-name="Grupo 58324" transform="translate(206.542 453.723)" opacity="0.4">
          <path id="Trazado_109967" data-name="Trazado 109967" d="M321.743,1018.33s7.994,2.45,6.976,3.675-31.777.923-45.339-.437v-.613l35.882.8S320.176,1018.39,321.743,1018.33Z" transform="translate(-283.38 -1018.33)"/>
        </g>
        <path id="Trazado_109968" data-name="Trazado 109968" d="M282.93,1021.68h.469l1.32.1,4.9.278c4.12.2,9.792.39,16.163.493s12.035,0,16.171-.064l4.9-.135h1.8a2.247,2.247,0,0,0-.461,0H305.783c-6.363,0-12.027-.255-16.155-.39l-4.892-.175H283.4Z" transform="translate(-76.746 -565.293)" fill="#344154"/>
        <path id="Trazado_109969" data-name="Trazado 109969" d="M328.536,1022.11a11.764,11.764,0,0,1,.947-2.323,10.154,10.154,0,0,1,1.7-1.853,3.541,3.541,0,0,0-1.973,1.678A3.69,3.69,0,0,0,328.536,1022.11Z" transform="translate(-86.073 -564.525)" fill="#344154"/>
        <path id="Trazado_109970" data-name="Trazado 109970" d="M318.61,1017.35a3.341,3.341,0,0,0,.875-1.01c.4-.612.66-1.153.589-1.225s-.469.406-.875,1.018A3.069,3.069,0,0,0,318.61,1017.35Z" transform="translate(-84.045 -563.949)" fill="#344154"/>
        <path id="Trazado_109971" data-name="Trazado 109971" d="M315.888,1016.11c.064.064.485-.207.97-.62s.8-.8.732-.875-.493.215-.955.628S315.824,1016.03,315.888,1016.11Z" transform="translate(-83.487 -563.845)" fill="#344154"/>
        <path id="Trazado_109972" data-name="Trazado 109972" d="M314.2,1013.28a3.382,3.382,0,0,0,1.408.191,3.029,3.029,0,0,0,1.408-.135,3.341,3.341,0,0,0-1.4-.191,3.182,3.182,0,0,0-1.416.135Z" transform="translate(-83.143 -563.541)" fill="#344154"/>
        <path id="Trazado_109973" data-name="Trazado 109973" d="M313.64,1011a3.977,3.977,0,0,0,3.182.286Q315.23,1011.159,313.64,1011Z" transform="translate(-83.029 -563.108)" fill="#344154"/>
        <path id="Trazado_109974" data-name="Trazado 109974" d="M319.8,1014.39a4.886,4.886,0,0,0,1.734,0,9.251,9.251,0,0,0,1.853-.382,6.26,6.26,0,0,0,1.05-.414,1,1,0,0,0,.445-.541.684.684,0,0,0-.262-.692,3.182,3.182,0,0,0-3.929.875,3,3,0,0,0-.589,1.153,1.169,1.169,0,0,0,0,.469,4.668,4.668,0,0,1,.8-1.472,3.135,3.135,0,0,1,1.5-.947,2.672,2.672,0,0,1,2.052.175c.27.207.159.525-.143.708a4.907,4.907,0,0,1-.978.39,9.994,9.994,0,0,1-1.79.453,9.472,9.472,0,0,1-1.743.225Z" transform="translate(-84.289 -563.317)" fill="#344154"/>
        <path id="Trazado_109975" data-name="Trazado 109975" d="M319.8,1014.3a1.774,1.774,0,0,0,.207-1.225,2.792,2.792,0,0,0-.453-1.217,1.726,1.726,0,0,0-1.432-.907.7.7,0,0,0-.541.8,1.964,1.964,0,0,0,.286.8,5.454,5.454,0,0,0,.8,1.058,2.5,2.5,0,0,0,.978.708,8.662,8.662,0,0,1-.8-.867,6.057,6.057,0,0,1-.716-1.042c-.231-.366-.39-1.034,0-1.106s.875.39,1.129.748a2.792,2.792,0,0,1,.477,1.129,6.916,6.916,0,0,1,.064,1.13Z" transform="translate(-83.832 -563.097)" fill="#344154"/>
        <path id="Trazado_109976" data-name="Trazado 109976" d="M283.73,1012.36a10.449,10.449,0,0,1,2,.1,8.439,8.439,0,0,1,6.984,5.719c.4,1.153.422,1.933.485,1.925a1.24,1.24,0,0,0,0-.541,6.922,6.922,0,0,0-.278-1.456,8.343,8.343,0,0,0-2.673-4.057,8.432,8.432,0,0,0-4.5-1.822,6.641,6.641,0,0,0-1.487,0A2.136,2.136,0,0,0,283.73,1012.36Z" transform="translate(-76.91 -563.351)" fill="#344154"/>
        <path id="Trazado_109977" data-name="Trazado 109977" d="M287.34,998.35a99.135,99.135,0,0,0-.31,11.088,46.044,46.044,0,0,0,.31-5.568,49.711,49.711,0,0,0,0-5.52Z" transform="translate(-77.577 -560.52)" fill="#344154"/>
        <path id="Trazado_109978" data-name="Trazado 109978" d="M300,1019.08a22.016,22.016,0,0,0,7.875.167c0-.08-1.782,0-3.977-.056S300,1019.01,300,1019.08Z" transform="translate(-80.238 -564.757)" fill="#344154"/>
        <path id="Trazado_109979" data-name="Trazado 109979" d="M293.346,1019c-.072.056.135.366.31.8s.27.8.366.8.143-.43-.064-.9S293.394,1018.93,293.346,1019Z" transform="translate(-78.874 -564.742)" fill="#344154"/>
        <path id="Trazado_109980" data-name="Trazado 109980" d="M290.886,1015.85c-.072.056.1.342.382.62s.549.469.612.406-.111-.342-.382-.628S290.973,1015.78,290.886,1015.85Z" transform="translate(-78.37 -564.097)" fill="#344154"/>
        <path id="Trazado_109981" data-name="Trazado 109981" d="M287.32,1014.34c0,.1.382.1.8.247s.676.35.748.294-.151-.445-.636-.612S287.3,1014.26,287.32,1014.34Z" transform="translate(-77.644 -563.761)" fill="#344154"/>
        <path id="Trazado_109982" data-name="Trazado 109982" d="M284.84,1013.65c0,.088.119.231.342.318s.43.1.469,0-.127-.223-.342-.318S284.84,1013.58,284.84,1013.65Z" transform="translate(-77.137 -563.638)" fill="#344154"/>
        <path id="Trazado_109983" data-name="Trazado 109983" d="M305.425,684.39,293.167,943.563l-33.638.8,2.649-224.715-50.335,225.14-28.643-1.3L228.11,684.92Z" transform="translate(-56.344 -496.291)" fill="#344154"/>
        <path id="Trazado_109984" data-name="Trazado 109984" d="M290.565,688.8a28.213,28.213,0,0,1-.3,4.256c-.286,2.625-.716,6.236-1.225,10.229a42.213,42.213,0,0,1-.931,5.632,7.954,7.954,0,0,1-2.45,4.025,6.076,6.076,0,0,1-2.856,1.408,2.387,2.387,0,0,1-1.161,0,7.246,7.246,0,0,0,5.862-5.632,50.177,50.177,0,0,0,.859-5.568c.525-3.977,1.026-7.588,1.432-10.181a24.751,24.751,0,0,1,.772-4.168Z" transform="translate(-76.482 -497.193)" fill="#455a64"/>
        <path id="Trazado_109985" data-name="Trazado 109985" d="M282.3,690.529c.1.056-.223.485,0,1.161a1.336,1.336,0,0,0,.7.8,1.145,1.145,0,0,0,1.225-.286,1.113,1.113,0,0,0,.342-1.225,1.44,1.44,0,0,0-.8-.748,2.323,2.323,0,0,0-1.169-.056c-.056-.064.358-.6,1.3-.43a1.853,1.853,0,0,1,1.225.994,1.829,1.829,0,0,1-1.1,2.339,1.884,1.884,0,0,1-1.352-.048,1.75,1.75,0,0,1-.907-1.32C281.69,690.847,282.279,690.441,282.3,690.529Z" transform="translate(-76.509 -497.379)" fill="#455a64"/>
        <path id="Trazado_109986" data-name="Trazado 109986" d="M255.417,694.519a7.525,7.525,0,0,1,.509-7.159c.191.072-.334,1.591-.453,3.556S255.632,694.407,255.417,694.519Z" transform="translate(-70.98 -496.899)" fill="#455a64"/>
        <path id="Trazado_109987" data-name="Trazado 109987" d="M261.445,693.819a8.75,8.75,0,0,1,.247-7.469,55.8,55.8,0,0,0-.247,7.469Z" transform="translate(-72.204 -496.692)" fill="#455a64"/>
        <path id="Trazado_109988" data-name="Trazado 109988" d="M313.664,693.147q.131-3.872.087-7.747a10.476,10.476,0,0,1-.111,7.747Z" transform="translate(-83.029 -496.498)" fill="#455a64"/>
        <path id="Trazado_109989" data-name="Trazado 109989" d="M320.239,692.494c-.2-.072.366-1.774.422-3.977s-.366-3.906-.167-3.977a6.116,6.116,0,0,1,.867,3.977,6.228,6.228,0,0,1-1.122,3.977Z" transform="translate(-84.37 -496.322)" fill="#455a64"/>
        <path id="Trazado_109990" data-name="Trazado 109990" d="M298.879,473.515c1.376-1.631,2.45-4.534,1.591-6.491,1.639-.843,1.79-2.307,1.79-4.136a11.367,11.367,0,0,0-1.591-5.234,15.208,15.208,0,0,0-5.918-6.475,7.875,7.875,0,0,0-8.408.366,10.2,10.2,0,0,0-14.373-1.233l-.239.207a10.676,10.676,0,0,1-2.211,2.02c-1.464.8-3.245.5-4.9.66a8.567,8.567,0,0,0-7.159,11.931,9.322,9.322,0,0,0-3.977,7.159,27.218,27.218,0,0,0,.954,8.36c.756,3.4,1.591,6.952,3.977,9.466a9.816,9.816,0,0,0,6.292,2.975,10.022,10.022,0,0,0,8.813-4.152" transform="translate(-70.717 -447.914)" fill="#344154"/>
        <path id="Trazado_109991" data-name="Trazado 109991" d="M264.792,534.554l27.2-1.225c.159-2.887-1.32-20.816-1.32-20.816s10.285-1.591,10.42-11.876-1.67-33.893-1.67-33.893h0a35.794,35.794,0,0,0-35.9,4.5L262,472.471Z" transform="translate(-72.464 -451.173)" fill="#b78876"/>
        <path id="Trazado_109992" data-name="Trazado 109992" d="M294.616,523.91a23.863,23.863,0,0,1-13.466-3.81s3.182,7.35,13.466,6.483Z" transform="translate(-76.382 -462.681)" fill="#aa6550"/>
        <path id="Trazado_109993" data-name="Trazado 109993" d="M261.821,487.986c-.167-.072-7.063-2.092-6.833,4.9s7.238,5.361,7.238,5.154S261.821,487.986,261.821,487.986Z" transform="translate(-71.029 -456.045)" fill="#b78876"/>
        <path id="Trazado_109994" data-name="Trazado 109994" d="M260.463,496.057a1.9,1.9,0,0,1-.334.2,1.273,1.273,0,0,1-.907,0,3.015,3.015,0,0,1-1.487-2.681,3.834,3.834,0,0,1,.294-1.766,1.44,1.44,0,0,1,.875-.97.644.644,0,0,1,.74.318c.1.2.064.334.1.35s.151-.127.087-.422a.844.844,0,0,0-.294-.43.915.915,0,0,0-.684-.159,1.75,1.75,0,0,0-1.225,1.137,4.026,4.026,0,0,0-.366,1.973,3.182,3.182,0,0,0,1.885,2.975,1.328,1.328,0,0,0,1.114-.215C260.447,496.184,260.487,496.073,260.463,496.057Z" transform="translate(-71.492 -456.622)" fill="#aa6550"/>
        <path id="Trazado_109995" data-name="Trazado 109995" d="M305.457,487.457a1.472,1.472,0,0,1-1.408,1.487,1.416,1.416,0,0,1-1.519-1.3h0a1.464,1.464,0,0,1,1.408-1.479,1.4,1.4,0,0,1,1.511,1.265A.035.035,0,0,1,305.457,487.457Z" transform="translate(-80.756 -455.739)" fill="#344154"/>
        <path id="Trazado_109996" data-name="Trazado 109996" d="M305.109,485.323c-.175.191-1.289-.636-2.871-.628s-2.736.8-2.911.6.1-.422.6-.8a4.08,4.08,0,0,1,2.339-.716,3.794,3.794,0,0,1,2.283.732C305.03,484.894,305.2,485.236,305.109,485.323Z" transform="translate(-80.09 -455.251)" fill="#344154"/>
        <path id="Trazado_109997" data-name="Trazado 109997" d="M286,487.926a1.456,1.456,0,0,1-1.408,1.479,1.408,1.408,0,0,1-1.519-1.289h0a1.472,1.472,0,0,1,1.424-1.487,1.408,1.408,0,0,1,1.5,1.281Z" transform="translate(-76.775 -455.833)" fill="#344154"/>
        <path id="Trazado_109998" data-name="Trazado 109998" d="M285.588,485.693c-.183.191-1.3-.644-2.879-.628s-2.744.8-2.911.6.1-.422.612-.8a4.025,4.025,0,0,1,2.323-.716,3.834,3.834,0,0,1,2.291.732C285.516,485.264,285.675,485.621,285.588,485.693Z" transform="translate(-76.095 -455.327)" fill="#344154"/>
        <path id="Trazado_109999" data-name="Trazado 109999" d="M294.1,497.428a11.332,11.332,0,0,1,2.569-.469c.406,0,.8-.119.859-.39a2.188,2.188,0,0,0-.27-1.225l-1.225-3.07a55.016,55.016,0,0,1-2.681-8.034,51.7,51.7,0,0,1,3.317,7.8l1.153,3.1a2.3,2.3,0,0,1,.207,1.591.994.994,0,0,1-.66.589,2.5,2.5,0,0,1-.684.1A10.046,10.046,0,0,1,294.1,497.428Z" transform="translate(-78.878 -455.345)" fill="#344154"/>
        <path id="Trazado_110000" data-name="Trazado 110000" d="M288.368,502.26c.262,0,.27,1.7,1.742,2.927s3.293,1.034,3.309,1.225-.422.342-1.225.358a4.3,4.3,0,0,1-2.76-.955,3.77,3.77,0,0,1-1.344-2.45C288.066,502.618,288.257,502.26,288.368,502.26Z" transform="translate(-77.801 -459.032)" fill="#344154"/>
        <path id="Trazado_110001" data-name="Trazado 110001" d="M285.744,478c-.159.422-1.726.231-3.587.453s-3.357.732-3.6.342c-.111-.183.151-.589.756-1.01a6.292,6.292,0,0,1,5.48-.6C285.474,477.463,285.816,477.8,285.744,478Z" transform="translate(-75.846 -453.826)" fill="#344154"/>
        <path id="Trazado_110002" data-name="Trazado 110002" d="M304.5,479.586c-.278.366-1.368,0-2.681,0s-2.45.247-2.665-.135c-.111-.183.056-.541.549-.883a3.874,3.874,0,0,1,4.311.135C304.473,479.014,304.592,479.38,304.5,479.586Z" transform="translate(-80.058 -454.064)" fill="#344154"/>
        <path id="Trazado_110003" data-name="Trazado 110003" d="M261.247,470.992c.135,2.991-.525,6.363,0,9.275.087.453,1.225,1.639,1.352,2.076.6,2.6,1.678,3.675,3.229,1.034a23.153,23.153,0,0,0,1.225-5.075l1.909-9.5a16.5,16.5,0,0,0,7.819,1.861,8,8,0,0,0,6.674-3.977,8.3,8.3,0,0,0,11.4,2.824,8.5,8.5,0,0,0,1.471-1.13,3.468,3.468,0,0,0,4.582.962,4.112,4.112,0,0,0,1.678-4.526c-.716-2.514-3.4-3.874-5.9-4.606-9.8-2.879-20.594-.628-29.391,4.526a15.177,15.177,0,0,0-3.548,2.688c-1,1.09-2.386,2.442-2.45,3.866" transform="translate(-72.268 -450.171)" fill="#344154"/>
        <path id="Trazado_110004" data-name="Trazado 110004" d="M287.692,492.45a10.22,10.22,0,0,0,.859-1.312,6.364,6.364,0,0,0,.732-4.041,6.117,6.117,0,1,0-6.928,6.928,6.427,6.427,0,0,0,4.041-.724c.867-.485,1.225-.907,1.3-.851s-.072.119-.255.318a5.569,5.569,0,0,1-.923.748,6.363,6.363,0,0,1-4.224.962,6.658,6.658,0,1,1,7.437-7.429,6.363,6.363,0,0,1-.955,4.208,4.987,4.987,0,0,1-.748.923Q287.732,492.466,287.692,492.45Z" transform="translate(-75.423 -454.726)" fill="#455a64"/>
        <path id="Trazado_110005" data-name="Trazado 110005" d="M308.108,492.45a10.223,10.223,0,0,0,.859-1.312,6.427,6.427,0,0,0,.724-4.041,6.125,6.125,0,1,0-6.936,6.928,6.427,6.427,0,0,0,4.041-.724c.875-.485,1.225-.907,1.312-.851s-.072.119-.255.318a5.254,5.254,0,0,1-.931.748,6.363,6.363,0,0,1-4.216.962,6.658,6.658,0,1,1,7.421-7.429,6.364,6.364,0,0,1-.955,4.208,4.992,4.992,0,0,1-.748.931,1.25,1.25,0,0,1-.318.262Z" transform="translate(-79.597 -454.726)" fill="#455a64"/>
        <path id="Trazado_110006" data-name="Trazado 110006" d="M296.545,488.918c0,.183-.8.318-1.814.318s-1.822-.135-1.822-.318.8-.318,1.822-.318S296.545,488.767,296.545,488.918Z" transform="translate(-78.788 -456.237)" fill="#455a64"/>
        <path id="Trazado_110007" data-name="Trazado 110007" d="M263,488.253a24.519,24.519,0,0,1,5.568-.517,26,26,0,0,1,5.616.135,23.58,23.58,0,0,1-5.568.5,25.08,25.08,0,0,1-5.616-.119Z" transform="translate(-72.669 -456.042)" fill="#455a64"/>
        <path id="Trazado_110008" data-name="Trazado 110008" d="M261.108,485.112l-8.75-3.182-8.328,2.9-11.557,12.051-7.493,7.159,12.242,5.441L243.7,506.9l10.34-7.032,5.838-11.017s-1.662-.8-3.54,1.853l-1.75,2.339-1.662-6.363v-1.9l5.162,1.591a2.736,2.736,0,0,0,2.943-.859Z" transform="translate(-64.891 -454.873)" fill="#b78876"/>
        <path id="Trazado_110009" data-name="Trazado 110009" d="M249.512,497.65a3.1,3.1,0,0,1,.8,1.392,9.768,9.768,0,0,1-.477,7.509c-.453.875-.867,1.328-.931,1.281a21.1,21.1,0,0,0,1.225-5.027A20.781,20.781,0,0,0,249.512,497.65Z" transform="translate(-69.784 -458.088)" fill="#aa6550"/>
        <path id="Trazado_110010" data-name="Trazado 110010" d="M249.459,496.781a16.937,16.937,0,0,1,3.182-.8h.08a1.153,1.153,0,0,1,.525,1.225,3.431,3.431,0,0,1-.557,1.225,1.3,1.3,0,0,0-.215,1.114,2.6,2.6,0,0,0,.867,1.034h-.382a7.031,7.031,0,0,0,2.227-2.156c.859-1.36-.119-2.792-.644-4.1a5.572,5.572,0,0,0-.43-.843.8.8,0,0,0-.684-.151l-1.742.271a19.627,19.627,0,0,1-3.476.4,17.88,17.88,0,0,1,3.4-.8l1.742-.342a1.289,1.289,0,0,1,1.161.27,3.979,3.979,0,0,1,.549.986c.294.66.652,1.3.923,2.084a3.126,3.126,0,0,1-.239,2.569,7.452,7.452,0,0,1-2.45,2.386l-.191.135-.183-.159a3.182,3.182,0,0,1-1.018-1.312,1.837,1.837,0,0,1,.3-1.591,3.355,3.355,0,0,0,.533-1.066.724.724,0,0,0-.239-.8h.135a17.966,17.966,0,0,1-3.182.414Z" transform="translate(-69.643 -457.1)" fill="#aa6550"/>
        <path id="Trazado_110011" data-name="Trazado 110011" d="M255.754,496.956a1,1,0,0,0,.565.39,1.074,1.074,0,0,0,1.352-.7v-.056a3.643,3.643,0,0,0-.517-2.72c-.437-1.026-.891-2.251-1.416-3.365s-1.885-.931-2.991-.8-2.132.255-2.975.39a16.067,16.067,0,0,1-2.752.406,9.814,9.814,0,0,1,2.665-.843c.851-.2,1.861-.39,3.007-.541a7.951,7.951,0,0,1,1.845-.1,2.156,2.156,0,0,1,1.75,1.225c.6,1.225.978,2.45,1.424,3.452a9.325,9.325,0,0,1,.509,1.591,2.426,2.426,0,0,1-.135,1.519,1.48,1.48,0,0,1-.915.907,1.217,1.217,0,0,1-.97-.072C255.69,497.3,255.69,496.956,255.754,496.956Z" transform="translate(-69.4 -456.321)" fill="#aa6550"/>
        <path id="Trazado_110012" data-name="Trazado 110012" d="M259.4,493.751a9.9,9.9,0,0,1-.843-2.386c-.231-.8-.485-1.67-.748-2.577-.143-.477-.278-1.034-.43-1.511a1.655,1.655,0,0,0-.962-1.01,5.083,5.083,0,0,0-3.015.286l-2.609.7a9.825,9.825,0,0,1-2.45.477,9.926,9.926,0,0,1,2.331-.915l2.561-.8a5.29,5.29,0,0,1,3.428-.318,2.283,2.283,0,0,1,1.3,1.392c.175.573.27,1.066.406,1.591l.628,2.625a9.543,9.543,0,0,1,.4,2.446Z" transform="translate(-69.67 -455.613)" fill="#aa6550"/>
        <path id="Trazado_110013" data-name="Trazado 110013" d="M234.4,496.841a1.229,1.229,0,0,1,.183-.231c.167-.167.35-.39.589-.644l2.291-2.45,8.344-8.829h0l8.328-2.927h.064l8.8,3.182h.119v.573h0a2.784,2.784,0,0,1-1.392.931,3.754,3.754,0,0,1-1.734,0h0l-3.643-1.122-1.543-.477.247-.175V486.5c.565,2.179,1.13,4.311,1.67,6.363h-.334c.8-1,1.456-1.981,2.227-2.935a3.182,3.182,0,0,1,3.3-1.3h.167l-.1.183-5.862,11.017h0l-7.6,5.091-2.187,1.464c-.477.318-.74.461-.74.461s.239-.2.692-.525l2.044-1.424,7.517-5.186h0l5.8-11.025.087.247a2.044,2.044,0,0,0-1.543.143,4.638,4.638,0,0,0-1.32,1.066c-.724.907-1.448,1.941-2.2,2.927l-.231.31-.1-.366-1.678-6.363h0v-2.14l.247.072,1.543.477,3.611,1.106h0a3.645,3.645,0,0,0,1.591,0,2.474,2.474,0,0,0,1.225-.8v-.239l.127.175-8.8-3.182h.127l-8.344,2.84h0l-8.447,8.75-2.339,2.45-.62.62a.859.859,0,0,1-.184.064Z" transform="translate(-66.818 -454.838)" fill="#aa6550"/>
        <path id="Trazado_110014" data-name="Trazado 110014" d="M238.743,585.8l-.573-42.285,11-3.691c3.468-.66,6.833-1.925,10.913-2.092h0a21.476,21.476,0,0,0,26.209.326l.374-.278c1.05.119,2.45.255,4.2.469h.342a25.684,25.684,0,0,1,12.035,4.773h0L358,575.711l32.151-24.491,16.282,12.775s-42.157,42.157-46.206,43.12c-2.832.7-30.926-14.691-47.964-24.141.7,10.2,4.51,66.887,4.327,74.69H238.369l-.064-35.754V612.2Z" transform="translate(-67.589 -466.288)" fill="#d9a171"/>
        <path id="Trazado_110015" data-name="Trazado 110015" d="M329.977,564.24a8.3,8.3,0,0,0-.064,1.885c0,1.36.1,3.07.151,5.091.159,4.311.438,10.245.8,16.815s.708,12.5,1.018,16.791c.159,2.02.294,3.675.39,5.083a9.958,9.958,0,0,0,.255,1.877,8.236,8.236,0,0,0,.064-1.877c0-1.368-.1-3.07-.159-5.107-.159-4.3-.43-10.245-.8-16.807s-.708-12.512-1.01-16.815c-.159-2.02-.294-3.667-.406-5.075A9.707,9.707,0,0,0,329.977,564.24Z" transform="translate(-86.352 -471.711)" fill="#344154"/>
        <path id="Trazado_110016" data-name="Trazado 110016" d="M418.438,563.53c-.183.191,3.357,3.54,7.875,7.477s8.288,7.008,8.432,6.833-3.4-3.476-7.954-7.429c-2.251-1.973-4.319-3.675-5.838-4.972a17,17,0,0,0-2.514-1.909Z" transform="translate(-104.467 -471.566)" fill="#344154"/>
        <path id="Trazado_110017" data-name="Trazado 110017" d="M413.739,567c-.143.167,3.444,3.524,7.954,7.541,2.267,2,4.351,3.786,5.878,5.043a13.11,13.11,0,0,0,2.6,1.925,13.159,13.159,0,0,0-2.219-2.339c-1.448-1.376-3.468-3.221-5.743-5.226s-4.287-3.762-5.878-5A12.721,12.721,0,0,0,413.739,567Z" transform="translate(-103.506 -472.276)" fill="#344154"/>
        <path id="Trazado_110018" data-name="Trazado 110018" d="M216.453,500.89s-31.3,29.256-41.179,41.243c-4.47,5.4-5.488,13.467-1.885,19.464h0a14.843,14.843,0,0,0,13.785,7.222l37.687-2.521,2.856-31.356-22.789,7.119L231.5,514.3Z" transform="translate(-53.89 -458.751)" fill="#d9a171"/>
        <path id="Trazado_110019" data-name="Trazado 110019" d="M238.334,606.607c-.183,0-.231-6.737-.119-15.026s.342-15,.525-15,.223,6.721.111,15.01S238.557,606.607,238.334,606.607Z" transform="translate(-67.586 -474.236)" fill="#344154"/>
        <path id="Trazado_110020" data-name="Trazado 110020" d="M218.638,539.08a7.084,7.084,0,0,1-.947,1.225l-2.768,3.1c-2.386,2.609-5.7,6.228-9.545,10.341l.072-.135a49.756,49.756,0,0,1-5.465,12.448,19.091,19.091,0,0,1-5.568,5.274,13.46,13.46,0,0,1-4.773,1.925,8.272,8.272,0,0,1-1.4.151h-.485s.668-.1,1.837-.382a14.6,14.6,0,0,0,4.6-2.06,19.513,19.513,0,0,0,5.3-5.226,41.436,41.436,0,0,0,4.049-8.288c.5-1.352.947-2.7,1.328-3.977V553.4h0c3.826-4.088,7.23-7.652,9.68-10.189l2.887-2.959A9,9,0,0,1,218.638,539.08Z" transform="translate(-57.277 -466.564)" fill="#344154"/>
        <path id="Trazado_110021" data-name="Trazado 110021" d="M207.273,563.39a14.747,14.747,0,0,1-1.408,11.534c-.183-.072.883-2.45,1.225-5.7S207.082,563.414,207.273,563.39Z" transform="translate(-60.976 -471.537)" fill="#344154"/>
        <path id="Trazado_110022" data-name="Trazado 110022" d="M251.038,658.224a1.346,1.346,0,0,1-.167-.247l-.477-.8-1.766-2.943a51.32,51.32,0,0,1-2.609-4.773,11.629,11.629,0,0,1-1.1-7.111c.5-2.7,2.1-5.242,3.277-8.1a12.957,12.957,0,0,0,1.018-4.613,21.028,21.028,0,0,0-.525-5.035c-.708-3.412-2.044-6.928-2.386-10.81a38.474,38.474,0,0,1,1.034-11.828c.891-3.977,2-7.8,2.776-11.534a54.283,54.283,0,0,0,.859-5.568c0-.907.127-1.814.159-2.712s0-1.782,0-2.657a99.091,99.091,0,0,0-3.07-18.366,123.638,123.638,0,0,1-2.434-12.321c-.207-1.479-.318-2.633-.366-3.412v-.9a.96.96,0,0,1,0-.3,1.066,1.066,0,0,0,.064.3c.056.2.072.533.119.883.072.8.231,1.925.477,3.4.461,2.935,1.392,7.159,2.681,12.3a96.125,96.125,0,0,1,3.182,18.446v2.688c0,.907-.087,1.822-.135,2.752a55.568,55.568,0,0,1-.859,5.568c-.8,3.77-1.885,7.58-2.768,11.534a38.182,38.182,0,0,0-1.05,11.669c.318,3.786,1.591,7.278,2.339,10.754a20.958,20.958,0,0,1,.5,5.178,13.618,13.618,0,0,1-1.074,4.772c-1.225,2.911-2.832,5.4-3.325,7.954a11.231,11.231,0,0,0,.986,6.88,50.789,50.789,0,0,0,2.442,4.773l1.654,3,.422.8C251.014,658.129,251.054,658.224,251.038,658.224Z" transform="translate(-68.94 -467.611)" fill="#fafafa"/>
        <path id="Trazado_110023" data-name="Trazado 110023" d="M272.922,543.69a1.148,1.148,0,0,1,.08.294l.2.867c.159.8.366,1.885.613,3.357a87.719,87.719,0,0,1,1.066,12.5,92.745,92.745,0,0,1-1.591,18.525c-1.225,6.9-3.253,14.318-3.914,22.375s.557,15.678,1.519,22.6a145.982,145.982,0,0,1,1.845,18.518,43.788,43.788,0,0,1-1.464,12.44l-.27,1.01-.3.875-.517,1.36-.318.8c-.072.183-.119.278-.119.278a.964.964,0,0,1,0-.3l.27-.851.437-1.368.286-.867c.1-.318.143-.66.231-1.018A45.644,45.644,0,0,0,272.2,642.7a153.069,153.069,0,0,0-2-18.366c-.978-6.92-2.172-14.612-1.591-22.741s2.712-15.559,3.977-22.415a94.349,94.349,0,0,0,1.726-18.43,99.027,99.027,0,0,0-.859-12.464c-.191-1.471-.366-2.609-.5-3.365a6.444,6.444,0,0,0-.119-.883.661.661,0,0,1,.088-.346Z" transform="translate(-73.786 -467.507)" fill="#fafafa"/>
        <path id="Trazado_110024" data-name="Trazado 110024" d="M308.014,657.4l-.167-.255-.453-.8a7.4,7.4,0,0,1-.628-1.344c-.1-.27-.231-.565-.326-.891s-.175-.676-.27-1.042a19.51,19.51,0,0,1-.39-5.52,66.026,66.026,0,0,1,.963-7.278,60.915,60.915,0,0,0,1.09-8.75,26.248,26.248,0,0,0-1.726-9.792A80.923,80.923,0,0,1,302.7,611a35.413,35.413,0,0,1,.239-12.114c.636-4.1,1.464-8.042,1.7-11.931a45.968,45.968,0,0,0-.875-11.136c-1.368-7-3.269-13.212-3.913-18.637a34.682,34.682,0,0,1,.39-12.806,17.621,17.621,0,0,1,1.591-4.43,1.026,1.026,0,0,1-.1.3l-.318.851a24.043,24.043,0,0,0-.955,3.325,35.284,35.284,0,0,0-.183,12.727c.684,5.369,2.633,11.542,4.041,18.589a45.586,45.586,0,0,1,.915,11.239c-.223,3.929-1.066,7.954-1.7,11.979a35.078,35.078,0,0,0-.247,11.884,80.862,80.862,0,0,0,3.349,10.667A37.559,37.559,0,0,1,308,626.6a22.669,22.669,0,0,1,.334,4.971,60.967,60.967,0,0,1-1.225,8.821,66.533,66.533,0,0,0-1.058,7.2,19.623,19.623,0,0,0,.286,5.457,18.854,18.854,0,0,0,1.675,4.353Z" transform="translate(-80.123 -466.74)" fill="#fafafa"/>
        <path id="Trazado_110025" data-name="Trazado 110025" d="M322.552,549.3a2,2,0,0,1,.1.286l.239.8c.215.724.453,1.8.724,3.182a52.9,52.9,0,0,1,.477,12.074c-.294,5.091-1.289,11.136-2.211,17.77a159.829,159.829,0,0,0-1.352,21.8,295.651,295.651,0,0,0,3.524,39.572c.748,5,1.36,9.06,1.79,11.931.207,1.36.35,2.45.477,3.245a4.444,4.444,0,0,0,.111.843,1.821,1.821,0,0,1,0,.294,1.132,1.132,0,0,1-.087-.278,6.853,6.853,0,0,0-.159-.843c-.151-.8-.342-1.861-.6-3.182-.485-2.808-1.225-6.872-1.981-11.931a274.739,274.739,0,0,1-3.675-39.644,155.021,155.021,0,0,1,1.424-21.89c.954-6.674,1.973-12.647,2.323-17.722a54.5,54.5,0,0,0-.27-11.995c-.215-1.4-.414-2.45-.6-3.182l-.175-.835a.891.891,0,0,1-.072-.294Z" transform="translate(-84.313 -468.655)" fill="#fafafa"/>
        <path id="Trazado_110026" data-name="Trazado 110026" d="M346.754,596.1a4.27,4.27,0,0,1-.183-1.225c-.08-.8-.159-1.989-.239-3.444-.159-2.9-.294-6.92-.3-11.359s.072-8.463.207-11.367c.072-1.456.135-2.633.207-3.436a5.742,5.742,0,0,1,.159-1.225,4.5,4.5,0,0,1,.087,1.225v14.787c0,4.351.087,8.288.119,11.351v3.444A5.478,5.478,0,0,1,346.754,596.1Z" transform="translate(-89.655 -471.67)" fill="#fafafa"/>
        <path id="Trazado_110027" data-name="Trazado 110027" d="M360.875,569.67a9.756,9.756,0,0,1-.565,1.114,7.11,7.11,0,0,0-.708,3.229c0,1.408.294,3.126.485,5.011s.652,3.977.931,6.125a28.83,28.83,0,0,1,.127,6.252,15.908,15.908,0,0,1-1.225,5,13,13,0,0,1-1.806,2.943,3.731,3.731,0,0,1-.875.915,27.725,27.725,0,0,0,2.259-4.025,23.45,23.45,0,0,0,.859-11.025c-.27-2.164-.676-4.232-.883-6.117a43.806,43.806,0,0,1-.35-5.1,6.778,6.778,0,0,1,.939-3.341,3.317,3.317,0,0,1,.812-.981Z" transform="translate(-91.948 -472.822)" fill="#fafafa"/>
        <path id="Trazado_110028" data-name="Trazado 110028" d="M196,576.967a9.363,9.363,0,0,1,1.639,0,17.557,17.557,0,0,0,4.375-.406,10.587,10.587,0,0,0,5.29-3.524c1.631-1.853,3.253-4.065,5.059-6.292,3.571-4.51,6.833-8.575,9.219-11.462l2.84-3.428a7.744,7.744,0,0,1,1.114-1.225,8.172,8.172,0,0,1-.915,1.344l-2.689,3.563c-2.3,2.975-5.5,7.079-9.068,11.573-1.814,2.235-3.428,4.415-5.123,6.292a10.818,10.818,0,0,1-5.616,3.572,15.228,15.228,0,0,1-4.534.2,7.536,7.536,0,0,1-1.591-.207Z" transform="translate(-58.962 -468.927)" fill="#fafafa"/>
        <path id="Trazado_110029" data-name="Trazado 110029" d="M222.918,510.1a5.117,5.117,0,0,1-.294.724,15.433,15.433,0,0,1-1.05,1.957,24.523,24.523,0,0,1-5.441,6.125c-2.633,2.235-6.117,4.494-9.736,7.159s-7.525,5.942-9.879,10.595a66.73,66.73,0,0,1-3.6,6.793,19.336,19.336,0,0,1-5.194,4.979c-1.885,1.313-3.746,2.45-5.377,3.563a19.887,19.887,0,0,0-4.112,3.675,9.625,9.625,0,0,0-2.275,7.421,7.954,7.954,0,0,0,1.018,2.752l-.135-.143a2.31,2.31,0,0,1-.35-.477,6.538,6.538,0,0,1-.8-2.084,9.791,9.791,0,0,1,2.164-7.747,19.954,19.954,0,0,1,4.168-3.85c1.639-1.217,3.5-2.307,5.337-3.611a18.945,18.945,0,0,0,5.019-4.892,61.732,61.732,0,0,0,3.54-6.737c2.45-4.773,6.443-8.145,10.11-10.778s7.159-4.892,9.8-7.024a25.771,25.771,0,0,0,5.512-5.87,15,15,0,0,0,1.137-1.885,3.067,3.067,0,0,1,.438-.645Z" transform="translate(-54.787 -460.635)" fill="#fafafa"/>
        <g id="Grupo_58325" data-name="Grupo 58325" transform="translate(131.12 85.623)" opacity="0.3">
          <path id="Trazado_110030" data-name="Trazado 110030" d="M188.56,576.542a19.3,19.3,0,0,0,19.583-19v-.2c0-.644-.111-1.416-.692-1.71a1.3,1.3,0,0,0-1.527.525,3.921,3.921,0,0,0-.549,1.654,26.949,26.949,0,0,1-15.232,19.21" transform="translate(-188.56 -555.558)"/>
        </g>
        <g id="Grupo_58326" data-name="Grupo 58326" transform="translate(263.462 105.378)" opacity="0.3">
          <path id="Trazado_110031" data-name="Trazado 110031" d="M373.107,580.693a6.7,6.7,0,0,0-1.909,2.45c-2.657,4.184-7.907,5.878-11.422,9.362-2.681,2.681-4.82,5.854-4.836,9.648l5.743,2.609L375.621,581.5C375.486,580.439,374.006,580.081,373.107,580.693Z" transform="translate(-354.94 -580.394)"/>
        </g>
        <path id="Trazado_110032" data-name="Trazado 110032" d="M36.825,944.7s-20.132,4.327-9.688,28.826,4.2,31.165-3.007,32.891l55.218-.358,4.9-61.574Z" transform="translate(-23.802 -549.501)" fill="#e0e0e0"/>
        <path id="Trazado_110033" data-name="Trazado 110033" d="M80.251,1006.4a15.908,15.908,0,0,1-10.643-3.977c-4.542-3.977-10.15-11.462-11.263-24.419-2.339-27.41-18.255-33.265-18.255-33.265l47.4-.207s15.391,0,16.64,24.332c1.3,25.5,36.669,40.145,58.5,37.29Z" transform="translate(-27.067 -549.509)" fill="#f5f5f5"/>
        <path id="Trazado_110034" data-name="Trazado 110034" d="M160.77,891.493s-24.825-2.983-27.585,52.021S88.84,995.526,88.84,995.526h82.915s17.253-3.834,13.236-42.643c-1.678-16.29,27.538-61.359,27.538-61.359Z" transform="translate(-37.04 -538.654)" fill="#ebebeb"/>
        <path id="Trazado_110035" data-name="Trazado 110035" d="M161.481,897.7c-2.641,3.182-1.591,8.256.748,11.685s5.926,5.743,9.6,7.652,7.517,3.524,10.81,6.037c5.091,3.89,8.487,9.672,10.539,15.741a96.82,96.82,0,0,1,3.746,18.836s-2.712-45.633-10.738-58.3S166.548,891.659,161.481,897.7Z" transform="translate(-51.583 -538.653)" fill="#e0e0e0"/>
        <path id="Trazado_110036" data-name="Trazado 110036" d="M229.35,995.533s-24.483,1.225-27.888-27.2S195.2,893.194,179.27,891.5h50.207a17.141,17.141,0,0,1,15.988,10.865c2.179,5.608,4.4,13.9,5.767,25.971,2.9,25.509,17.348,67.516,53.54,67.15Z" transform="translate(-55.54 -538.661)" fill="#f5f5f5"/>
        <path id="Trazado_110037" data-name="Trazado 110037" d="M254.592,992.778c0,.167-7.342.318-16.346.318s-16.346-.151-16.346-.318,7.35-.318,16.346-.318S254.592,992.6,254.592,992.778Z" transform="translate(-64.261 -559.315)" fill="#344154"/>
        <path id="Trazado_110038" data-name="Trazado 110038" d="M272.141,994.008a44.246,44.246,0,0,1-.263-4.812l.263.271h-4.773l.318-.318h0v4.709l-.286-.27a44.242,44.242,0,0,1,4.812.27,32.436,32.436,0,0,1-4.812.286h-.27v-5h0l.318-.318h5.1v.262A32.832,32.832,0,0,1,272.141,994.008Z" transform="translate(-73.514 -558.572)" fill="#344154"/>
        <path id="Trazado_110039" data-name="Trazado 110039" d="M263.984,1006.03c0,.183-7.35.318-16.338.318s-16.346-.135-16.346-.318,7.35-.318,16.346-.318S263.984,1005.86,263.984,1006.03Z" transform="translate(-66.184 -562.025)" fill="#344154"/>
        <path id="Trazado_110040" data-name="Trazado 110040" d="M281.591,1007.28a40.554,40.554,0,0,1-.286-4.812l.286.271h-4.812l.318-.318h0v4.773l-.27-.278a40.6,40.6,0,0,1,4.812.278,34.792,34.792,0,0,1-4.812.271h-.286v-5.035h0l.318-.318h5.059v.318a33.8,33.8,0,0,1-.327,4.85Z" transform="translate(-75.439 -561.289)" fill="#344154"/>
        <path id="Trazado_110041" data-name="Trazado 110041" d="M246.6,959.358c0,.175-7.342.318-16.33.318s-16.346-.143-16.346-.318,7.35-.318,16.346-.318S246.6,959.183,246.6,959.358Z" transform="translate(-62.628 -552.478)" fill="#344154"/>
        <path id="Trazado_110042" data-name="Trazado 110042" d="M264.216,960.611a42.172,42.172,0,0,1-.278-4.773l.278.286h-4.773l.318-.318h0v4.709l-.27-.262a44.053,44.053,0,0,1,4.812.262,32.362,32.362,0,0,1-4.812.286h-.278v-5h0c-.278.278.39-.39.334-.318H264.6v.271a33.513,33.513,0,0,1-.384,4.857Z" transform="translate(-71.88 -551.75)" fill="#344154"/>
        <path id="Trazado_110043" data-name="Trazado 110043" d="M244.372,941.918c0,.167-7.35.318-16.346.318s-16.346-.151-16.346-.318,7.342-.318,16.346-.318S244.372,941.759,244.372,941.918Z" transform="translate(-62.17 -548.91)" fill="#344154"/>
        <path id="Trazado_110044" data-name="Trazado 110044" d="M261.985,943.173a44.4,44.4,0,0,1-.27-4.828l.27.286h-4.812l.318-.318h0v4.725l-.278-.278a40.578,40.578,0,0,1,4.773.278,36.067,36.067,0,0,1-4.773.271h-.231V938.3h0c-.286.294.39-.374.318-.318h5.091v.271a32.93,32.93,0,0,1-.406,4.92Z" transform="translate(-71.423 -548.169)" fill="#344154"/>
        <path id="Trazado_110045" data-name="Trazado 110045" d="M241.382,925.968c0,.175-7.35.318-16.346.318s-16.346-.143-16.346-.318,7.35-.318,16.346-.318S241.382,925.785,241.382,925.968Z" transform="translate(-61.558 -545.647)" fill="#344154"/>
        <path id="Trazado_110046" data-name="Trazado 110046" d="M258.909,927.211a46.352,46.352,0,0,1-.278-4.773l.278.286h-4.773l.318-.318h0v4.709l-.27-.271a44.114,44.114,0,0,1,4.773.271,32.368,32.368,0,0,1-4.773.286h-.263v-5h0c-.286.278.374-.4.318-.318h5.091v.366A34.6,34.6,0,0,1,258.909,927.211Z" transform="translate(-70.797 -544.917)" fill="#344154"/>
        <path id="Trazado_110047" data-name="Trazado 110047" d="M237.152,911.326c0,.175-7.35.318-16.346.318s-16.346-.143-16.346-.318S211.8,911,220.8,911,237.152,911.143,237.152,911.326Z" transform="translate(-60.693 -542.65)" fill="#344154"/>
        <path id="Trazado_110048" data-name="Trazado 110048" d="M254.713,912.568a44.229,44.229,0,0,1-.27-4.772l.27.271H249.94l.318-.318h0v4.773l-.278-.278a46.327,46.327,0,0,1,4.773.278,34.808,34.808,0,0,1-4.773.286h-.27v-5.059h0l.318-.318h5.091v.278a32.542,32.542,0,0,1-.406,4.86Z" transform="translate(-69.95 -541.92)" fill="#344154"/>
        <path id="Trazado_110049" data-name="Trazado 110049" d="M230.022,899.048c0,.175-7.35.318-16.346.318s-16.346-.143-16.346-.318,7.35-.318,16.346-.318S230.022,898.873,230.022,899.048Z" transform="translate(-59.234 -540.14)" fill="#344154"/>
        <path id="Trazado_110050" data-name="Trazado 110050" d="M247.623,900.278a44.263,44.263,0,0,1-.27-4.812l.27.278H242.85l.318-.318h0v4.717l-.278-.271a46.393,46.393,0,0,1,4.812.271,32.516,32.516,0,0,1-4.812.278h-.27v-5h0l.318-.318h5.1v.27a32.734,32.734,0,0,1-.414,4.908Z" transform="translate(-68.5 -539.397)" fill="#344154"/>
        <path id="Trazado_110051" data-name="Trazado 110051" d="M252.76,929.371a12.131,12.131,0,0,1,2.2-3.182c.286-.318.541-.636.8-.962l.215-.247.215.207c1.13,1.026,1.861,1.829,1.774,1.933s-.986-.509-2.164-1.479h.43l-.8.994a11.934,11.934,0,0,1-2.673,2.736Z" transform="translate(-70.574 -545.51)" fill="#d9a171"/>
        <path id="Trazado_110052" data-name="Trazado 110052" d="M255.93,944.613a12.13,12.13,0,0,1,2.2-3.182l.8-.962.215-.239.215.2c1.13,1.026,1.861,1.822,1.782,1.933s-.994-.509-2.172-1.464h.43l-.8.986a11.93,11.93,0,0,1-2.673,2.728Z" transform="translate(-71.223 -548.63)" fill="#d9a171"/>
        <path id="Trazado_110053" data-name="Trazado 110053" d="M265,996.789a11.93,11.93,0,0,1,2.2-3.182c.286-.318.541-.636.8-.971l.207-.247.215.207c1.13,1.034,1.861,1.829,1.782,1.941s-.994-.517-2.172-1.487h.43l-.8.994A11.813,11.813,0,0,1,265,996.789Z" transform="translate(-73.078 -559.301)" fill="#d9a171"/>
        <path id="Trazado_110054" data-name="Trazado 110054" d="M258.21,962.161a11.525,11.525,0,0,1,2.2-3.182l.8-.962.207-.247.223.207c1.114,1.026,1.861,1.821,1.774,1.933s-.986-.517-2.164-1.479h.43l-.8.994a12.291,12.291,0,0,1-2.673,2.736Z" transform="translate(-71.689 -552.218)" fill="#d9a171"/>
        <path id="Trazado_110055" data-name="Trazado 110055" d="M250.592,976.078c0,.167-7.35.318-16.346.318s-16.346-.151-16.346-.318,7.342-.318,16.346-.318S250.592,975.9,250.592,976.078Z" transform="translate(-63.443 -555.898)" fill="#344154"/>
        <path id="Trazado_110056" data-name="Trazado 110056" d="M268.136,977.319a44.256,44.256,0,0,1-.286-4.773l.286.278h-4.812l.318-.318h0v4.717l-.27-.271a42.324,42.324,0,0,1,4.812.271,33.589,33.589,0,0,1-4.812.278h-.27v-5h0c-.294.278.382-.39.318-.318h5.091v.271a33.706,33.706,0,0,1-.374,4.86Z" transform="translate(-72.674 -555.167)" fill="#344154"/>
        <path id="Trazado_110057" data-name="Trazado 110057" d="M261.3,979.571a12.16,12.16,0,0,1,2.211-3.182c.278-.318.549-.636.8-.97l.207-.239.223.207c1.122,1.026,1.869,1.822,1.774,1.925s-.994-.509-2.172-1.471h.43l-.8.986a12.229,12.229,0,0,1-2.673,2.744Z" transform="translate(-72.321 -555.78)" fill="#d9a171"/>
        <path id="Trazado_110058" data-name="Trazado 110058" d="M88.18,1002.09c0-.183,6.634-.318,14.827-.318s14.843.135,14.843.318-6.642.318-14.843.318S88.18,1002.26,88.18,1002.09Z" transform="translate(-36.905 -561.219)" fill="#344154"/>
        <path id="Trazado_110059" data-name="Trazado 110059" d="M78.564,999.845a34.888,34.888,0,0,1,.27,4.367l-.27-.262h4.375c.064-.08-.612.6-.334.318h0v-4.4l.286.278a35.008,35.008,0,0,1-4.375-.278,27.736,27.736,0,0,1,4.375-.27h.27v4.645h0l-.318.318H78.19v-.271A26.839,26.839,0,0,1,78.564,999.845Z" transform="translate(-34.861 -560.774)" fill="#344154"/>
        <path id="Trazado_110060" data-name="Trazado 110060" d="M84.856,998.048a10.206,10.206,0,0,1-1.981,2.911l-.748.883-.207.247-.223-.215c-1.01-.931-1.686-1.662-1.591-1.774s.907.453,1.989,1.328h-.43l.708-.907C83.608,999.058,84.713,997.945,84.856,998.048Z" transform="translate(-35.252 -560.457)" fill="#d9a171"/>
        <path id="Trazado_110061" data-name="Trazado 110061" d="M80.76,991.148c0-.183,6.65-.318,14.835-.318s14.835.135,14.835.318-6.642.318-14.835.318S80.76,991.315,80.76,991.148Z" transform="translate(-35.387 -558.981)" fill="#344154"/>
        <path id="Trazado_110062" data-name="Trazado 110062" d="M71.173,988.929a36.59,36.59,0,0,1,.262,4.375l-.262-.271H75.54l-.318.318h0v-4.423l.278.286a34.9,34.9,0,0,1-4.367-.286,27.693,27.693,0,0,1,4.367-.27h.247V993.3h0l-.318.318h-4.55v-.271a25.67,25.67,0,0,1,.294-4.423Z" transform="translate(-33.364 -558.536)" fill="#344154"/>
        <path id="Trazado_110063" data-name="Trazado 110063" d="M77.437,987.148a9.992,9.992,0,0,1-1.981,2.911l-.748.883-.207.246-.223-.207c-1.01-.931-1.678-1.67-1.591-1.782s.923.453,1.989,1.328h-.43l.668-.931a9.788,9.788,0,0,1,2.523-2.448Z" transform="translate(-33.734 -558.226)" fill="#d9a171"/>
        <path id="Trazado_110064" data-name="Trazado 110064" d="M78.23,978.788c0-.183,6.642-.318,14.827-.318s14.843.135,14.843.318-6.634.318-14.843.318S78.23,978.955,78.23,978.788Z" transform="translate(-34.869 -556.453)" fill="#344154"/>
        <path id="Trazado_110065" data-name="Trazado 110065" d="M68.622,976.546a36.591,36.591,0,0,1,.27,4.375l-.27-.271h4.359l-.318.318h0v-4.359l.27.278a34.787,34.787,0,0,1-4.359-.278,27.52,27.52,0,0,1,4.359-.271h.278v4.645h0c.286-.286-.39.39-.326.318H68.24v-.27a26.547,26.547,0,0,1,.382-4.484Z" transform="translate(-32.826 -556.016)" fill="#344154"/>
        <path id="Trazado_110066" data-name="Trazado 110066" d="M74.908,974.738a9.711,9.711,0,0,1-1.973,2.911l-.748.883-.207.247-.223-.207c-1.018-.931-1.694-1.662-1.591-1.774s.907.453,1.981,1.32h-.43l.716-.907a10.66,10.66,0,0,1,2.475-2.473Z" transform="translate(-33.218 -555.688)" fill="#d9a171"/>
        <path id="Trazado_110067" data-name="Trazado 110067" d="M75.49,966.144c0-.183,6.642-.334,14.835-.334s14.827.151,14.827.334-6.642.318-14.827.318S75.49,966.311,75.49,966.144Z" transform="translate(-34.309 -553.863)" fill="#344154"/>
        <path id="Trazado_110068" data-name="Trazado 110068" d="M65.9,963.944a33.357,33.357,0,0,1,.278,4.367l-.278-.278h4.375l-.318.318h0v-4.335l.278.278a38.371,38.371,0,0,1-4.375-.278,28.735,28.735,0,0,1,4.375-.286h.27v4.621h0l-.318.318H65.52v-.27a27.842,27.842,0,0,1,.382-4.454Z" transform="translate(-32.269 -553.437)" fill="#344154"/>
        <path id="Trazado_110069" data-name="Trazado 110069" d="M72.183,962.1a10.136,10.136,0,0,1-1.981,2.919l-.724.883-.207.231-.223-.2c-1.018-.939-1.678-1.662-1.591-1.774s.915.453,1.981,1.313h-.43l.724-.9a10.436,10.436,0,0,1,2.451-2.472Z" transform="translate(-32.664 -553.103)" fill="#d9a171"/>
        <path id="Trazado_110070" data-name="Trazado 110070" d="M68.44,953.658c0-.167,6.642-.318,14.827-.318s14.835.151,14.835.318-6.642.326-14.835.326S68.44,953.865,68.44,953.658Z" transform="translate(-32.867 -551.312)" fill="#344154"/>
        <path id="Trazado_110071" data-name="Trazado 110071" d="M58.846,951.442a34.674,34.674,0,0,1,.278,4.359l-.278-.271h4.367l-.318.318h0V951.5l.27.27a35.015,35.015,0,0,1-4.375-.27,27.724,27.724,0,0,1,4.375-.278h.294v4.6h0c.278-.278-.39.39-.318.326H58.559v-.278a27.841,27.841,0,0,1,.287-4.428Z" transform="translate(-30.845 -550.877)" fill="#344154"/>
        <path id="Trazado_110072" data-name="Trazado 110072" d="M65.107,949.618a9.688,9.688,0,0,1-1.981,2.911l-.748.883-.191.247-.239-.207c-1-.931-1.678-1.67-1.591-1.766s.907.445,1.981,1.313H61.9l.724-.907a9.872,9.872,0,0,1,2.483-2.474Z" transform="translate(-31.212 -550.549)" fill="#d9a171"/>
        <path id="Trazado_110073" data-name="Trazado 110073" d="M178.23,891.387h3.977l10.945-.072h37.393a12.813,12.813,0,0,1,7.716,1.472,17.157,17.157,0,0,1,6.125,5.5,33.926,33.926,0,0,1,4.773,12.918c.875,4.367,1.5,8.567,2.02,12.671,1.09,8.1,1.75,15.439,3.046,21.476a63.326,63.326,0,0,0,4.693,13.626c.732,1.591,1.408,2.72,1.861,3.516q.31.541.525.883a1.487,1.487,0,0,1,.159.318,1.372,1.372,0,0,1-.215-.278l-.581-.859a38.246,38.246,0,0,1-1.981-3.468,61.878,61.878,0,0,1-4.971-13.761c-1.376-6.125-2.068-13.387-3.182-21.476-.557-4.041-1.225-8.28-2.06-12.623a33.543,33.543,0,0,0-4.717-12.727,16.538,16.538,0,0,0-5.846-5.3,12.233,12.233,0,0,0-7.35-1.408h0l-37.4-.183-10.945-.111-2.935-.056h-.8Z" transform="translate(-55.327 -538.603)" fill="#344154"/>
        <path id="Trazado_110074" data-name="Trazado 110074" d="M24.045,995.471a8.1,8.1,0,0,0,1.042-.286,9.642,9.642,0,0,0,2.824-1.392,9.92,9.92,0,0,0,3.221-3.906,15.28,15.28,0,0,0,1.225-6.809A35.532,35.532,0,0,0,31.1,974.4a82.475,82.475,0,0,0-3.675-9.8c-.708-1.75-1.392-3.572-2-5.512a35.1,35.1,0,0,1-1.456-6.117,19.981,19.981,0,0,1,2.442-13.188,13.331,13.331,0,0,1,5.4-4.971,11.289,11.289,0,0,1,1.79-.676c.3-.072.612-.183.931-.246l.97-.119a6.3,6.3,0,0,1,3.826.8,19.576,19.576,0,0,1,5.87,5.385,49.462,49.462,0,0,1,4.407,6.992,57.4,57.4,0,0,1,3.381,7.843,32.212,32.212,0,0,1,1.225,4.232c.27,1.472.39,2.927.612,4.4a83.743,83.743,0,0,0,1.647,8.853,90.112,90.112,0,0,0,2.744,8.837,20.3,20.3,0,0,0,1.909,4.24A16.564,16.564,0,0,0,64.2,988.9a24.892,24.892,0,0,0,3.882,2.792A27.071,27.071,0,0,0,72.4,993.84a14.239,14.239,0,0,0,4.773.939c1.591,0,3.293-.183,4.9-.318a36.506,36.506,0,0,0,9.792-2.028,38.045,38.045,0,0,0,8.964-4.9,30.391,30.391,0,0,0,7.246-7.342,60.733,60.733,0,0,0,8.933-19.249,74.769,74.769,0,0,0,1.877-9.442c.4-3.182.589-6.363.851-9.505a160.85,160.85,0,0,1,2.386-18.6c.612-3.023,1.384-5.982,2.251-8.877a66.719,66.719,0,0,1,2.975-8.479,32.76,32.76,0,0,1,4.7-7.5,21.89,21.89,0,0,1,6.713-5.5h0A14.468,14.468,0,0,1,145.919,891a10.532,10.532,0,0,1,6.849,2.561,17.578,17.578,0,0,1,4.2,5.83,59.91,59.91,0,0,1,2.506,6.522,137.8,137.8,0,0,1,5.807,25.541c1.145,8.193,1.734,15.908,2.251,23.131s1.225,13.809,3.094,19.591a35.062,35.062,0,0,0,7.763,13.9,23.861,23.861,0,0,0,9.967,6.363,20.375,20.375,0,0,0,7.35.979,18.355,18.355,0,0,0,1.909-.231l.652-.088-.636.135a14.4,14.4,0,0,1-1.925.278,19.561,19.561,0,0,1-7.421-.891,24.047,24.047,0,0,1-10.11-6.363,35.263,35.263,0,0,1-7.954-13.992c-1.861-5.767-2.641-12.44-3.182-19.591s-1.137-14.93-2.3-23.067a138.715,138.715,0,0,0-5.894-25.454,57.146,57.146,0,0,0-2.386-6.411,16.7,16.7,0,0,0-4.049-5.632,10,10,0,0,0-6.491-2.45,13.912,13.912,0,0,0-6.88,1.973h0a20.855,20.855,0,0,0-6.475,5.329,31.82,31.82,0,0,0-4.6,7.342,64.241,64.241,0,0,0-3,8.368c-.867,2.9-1.631,5.83-2.243,8.829a163.016,163.016,0,0,0-2.386,18.517c-.255,3.182-.445,6.363-.843,9.545a77.8,77.8,0,0,1-1.885,9.545,61.6,61.6,0,0,1-9.012,19.448,30.654,30.654,0,0,1-7.342,7.517,38.555,38.555,0,0,1-9.116,4.971,37.812,37.812,0,0,1-9.975,2.068c-1.694.119-3.317.294-5.019.3a14.765,14.765,0,0,1-4.9-.978,27.1,27.1,0,0,1-4.431-2.211,25.958,25.958,0,0,1-3.977-2.871,16.507,16.507,0,0,1-3.18-3.653,20.6,20.6,0,0,1-1.957-4.359,89.888,89.888,0,0,1-2.752-8.9,84.918,84.918,0,0,1-1.647-8.917,41.776,41.776,0,0,0-5.075-16.3,47.6,47.6,0,0,0-4.335-6.92,19.089,19.089,0,0,0-5.7-5.258c-2.219-1.36-4.9-.748-7.079.231a12.726,12.726,0,0,0-5.162,4.773A19.575,19.575,0,0,0,24.5,952.94a34.685,34.685,0,0,0,1.336,5.958c.6,1.909,1.225,3.675,1.965,5.489a80.33,80.33,0,0,1,3.675,9.871,35.8,35.8,0,0,1,1.225,8.75,15.455,15.455,0,0,1-1.368,6.888,10.134,10.134,0,0,1-3.317,3.937,9.713,9.713,0,0,1-2.879,1.344,6.358,6.358,0,0,1-1.092.294Z" transform="translate(-23.716 -538.559)" fill="#344154"/>
        <path id="Trazado_110075" data-name="Trazado 110075" d="M113.178,988.644s-.087,0-.223-.151-.358-.271-.612-.485a30.256,30.256,0,0,1-2.179-2.108,35.4,35.4,0,0,1-3.046-3.675,24.45,24.45,0,0,1-3.015-5.568,50.458,50.458,0,0,1-1.678-7.509c-.43-2.728-.8-5.655-1.3-8.694a31.022,31.022,0,0,0-2.935-9.131,16.883,16.883,0,0,0-2.943-4.073,6.411,6.411,0,0,0-1.973-1.535,10.525,10.525,0,0,0-2.442-.732,54.948,54.948,0,0,0-10.341-.525c-3.373,0-6.61.215-9.712.239l-16.465.151H40.19a5.134,5.134,0,0,1-1.05-.064,7.678,7.678,0,0,1,1.05-.072l3.015-.1,11.088-.246,16.457-.286c3.094,0,6.363-.231,9.72-.278a55.677,55.677,0,0,1,10.484.525,10.794,10.794,0,0,1,2.617.8,4.964,4.964,0,0,1,1.225.748c.334.294.66.589.97.915a17.5,17.5,0,0,1,3.039,4.224,31.49,31.49,0,0,1,2.959,9.322c.517,3.07.8,6,1.225,8.75a48.522,48.522,0,0,0,1.591,7.437,23.865,23.865,0,0,0,2.872,5.568,39.325,39.325,0,0,0,2.943,3.746c.867.963,1.591,1.686,2.076,2.164a5.216,5.216,0,0,1,.708.644Z" transform="translate(-26.873 -549.35)" fill="#344154"/>
        <path id="Trazado_110076" data-name="Trazado 110076" d="M455.71,532.877a8.177,8.177,0,0,1,4.391-7.1,2.743,2.743,0,0,1,1.36-.382,1.217,1.217,0,0,1,1.129.724,1.392,1.392,0,0,1-.4,1.384,10.863,10.863,0,0,1-1.225.939,4.4,4.4,0,0,0-1.5,4.224" transform="translate(-112.093 -463.765)" fill="#b78876"/>
        <path id="Trazado_110077" data-name="Trazado 110077" d="M389.5,468.332a21.254,21.254,0,0,0-19.623,22.677c1.122,16.529.8,38.976-7.159,52.649-13.665,23.656-34.163,27.84-32.612,75.159s3.675,52.3-5.783,64.525-29.948,5.9-38.888,33.758-2.625,167.119-16.823,181.834c0,0-11.557,11.017-23.64,9.983h67.9a22.083,22.083,0,0,0,15.638-6.109,17.5,17.5,0,0,0,5.385-12.775c0-9.545,3.182-145.038,8.416-156.611s32.612-23.362,36.733-50.04,2.712-69.854,2.681-77.617c0-7.35,1.432-21.771,15.559-38.578,21.476-25.406,18.525-53.182,19-62.64s-3.667-37.958-3.667-37.958Z" transform="translate(-68.98 -451.734)" fill="#ebebeb"/>
        <path id="Trazado_110078" data-name="Trazado 110078" d="M404.43,488.58a6.546,6.546,0,0,1,11.709-1.957c2.02,2.935,1.591,7.35,4.271,9.672,1.726,1.479,4.224,1.591,6.5,1.543A104.25,104.25,0,0,0,448.2,495.2l-1.591-22.383s-33.98-2.991-38.117,2.593S404.43,488.58,404.43,488.58Z" transform="translate(-101.602 -452.844)" fill="#e0e0e0"/>
        <path id="Trazado_110079" data-name="Trazado 110079" d="M402.361,498.438c0-5.051,1.137-9.489,2.323-14.389,1.432-5.926,5.568-10.245,10.571-11.017,6.363-.907,12.576,8.225,12.576,8.225s24.61-3.579,36.311-4.446c-.859-3.046-7-10.9-11.422-11.86a55.767,55.767,0,0,0-13.467-.724c-8.081.215-16.441.5-23.743,3.977s-14.811,8.543-13.037,27.355" transform="translate(-101.148 -451.225)" fill="#f5f5f5"/>
        <path id="Trazado_110080" data-name="Trazado 110080" d="M454.622,465.916a5.262,5.262,0,0,1-1.225.143l-3.341.262c-2.816.207-6.713.5-11.017.955s-8.161,1-10.937,1.5l-3.285.6a7.031,7.031,0,0,1-1.217.183,7.05,7.05,0,0,1,1.217-.326c.8-.2,1.885-.445,3.269-.724a105.167,105.167,0,0,1,10.937-1.591c4.287-.382,8.193-.7,11.017-.843l3.349-.135a7.955,7.955,0,0,1,1.233-.024Z" transform="translate(-105.524 -451.593)" fill="#344154"/>
        <path id="Trazado_110081" data-name="Trazado 110081" d="M354.745,803.876c0,.183-10.42,1.869-23.266,3.778s-23.385,3.325-23.409,3.182,10.4-1.861,23.266-3.786S354.722,803.7,354.745,803.876Z" transform="translate(-81.889 -520.732)" fill="#344154"/>
        <path id="Trazado_110082" data-name="Trazado 110082" d="M358.826,797.414c0,.175-9.545.382-21.413.453S316,797.836,316,797.677s9.545-.382,21.413-.453S358.826,797.231,358.826,797.414Z" transform="translate(-83.511 -519.369)" fill="#344154"/>
        <path id="Trazado_110083" data-name="Trazado 110083" d="M248.91,916.8l1.225-.159a24.614,24.614,0,0,0,3.4-.7,38.181,38.181,0,0,0,11.931-5.926,42.884,42.884,0,0,0,3.6-2.856,11.054,11.054,0,0,0,2.72-4.152,56.159,56.159,0,0,0,2.943-11.016,272.925,272.925,0,0,0,3.086-27.84c1.432-20.737,2.012-45.5,2.871-72.972.453-13.753.907-28.158,2.06-43.112.294-3.675.644-7.477,1.137-11.263a74.19,74.19,0,0,1,2.156-11.335c.612-1.853,1.32-3.675,2.02-5.5l1.312-2.633.66-1.32c.247-.414.525-.8.8-1.225a30.051,30.051,0,0,1,7.994-8.75,45.84,45.84,0,0,1,10.484-5.568,70.932,70.932,0,0,0,10.579-4.773l1.225-.8c.374-.286.732-.6,1.1-.9l1.106-.891.954-1.058c.3-.342.636-.684.939-1.034l.843-1.153a23.758,23.758,0,0,0,1.591-2.339,28.082,28.082,0,0,0,2.553-4.987,29.072,29.072,0,0,0,1.376-5.385,69.888,69.888,0,0,0,.62-11.017c0-3.675-.135-7.35-.255-10.9q-.43-10.786-.8-21.1c-.1-3.436-.31-6.817-.27-10.181v-5c0-1.655.167-3.293.247-4.9.08-3.269.66-6.451,1.042-9.6a73,73,0,0,1,2.2-9.084,57.462,57.462,0,0,1,7.747-15.909,149.915,149.915,0,0,1,10.261-12.727,116.284,116.284,0,0,0,9.052-11.709l1.829-2.919c.612-.962,1.082-1.973,1.591-2.943a49.961,49.961,0,0,0,2.386-5.926A88.135,88.135,0,0,0,370.9,522.43c.39-5.8.382-10.34.358-13.371,0-1.519,0-2.681-.064-3.484a5.946,5.946,0,0,1,0-1.225s.135,1.591.207,4.661.111,7.6-.247,13.4A87.213,87.213,0,0,1,367.5,543.23a52.288,52.288,0,0,1-2.386,5.99c-.525.963-.994,2-1.591,2.959s-1.225,1.949-1.821,2.951a118.1,118.1,0,0,1-9.02,11.78,152.05,152.05,0,0,0-10.3,12.727,57.8,57.8,0,0,0-7.652,15.789,74.681,74.681,0,0,0-2.14,9.02c-.382,3.126-.931,6.284-1.018,9.545-.072,1.591-.215,3.245-.247,4.9s0,3.309,0,4.979c0,3.333.191,6.737.286,10.166q.406,10.341.843,21.111c.119,3.587.255,7.222.255,10.905a68.663,68.663,0,0,1-.62,11.136,29.326,29.326,0,0,1-1.4,5.512,27.38,27.38,0,0,1-2.617,5.107c-.517.8-1.042,1.591-1.631,2.386l-.851,1.153c-.318.382-.668.724-.986,1.09l-.986,1.09-1.129.931c-.382.294-.748.628-1.153.907l-1.225.8a70.578,70.578,0,0,1-10.659,4.828,45.128,45.128,0,0,0-10.341,5.488,29.3,29.3,0,0,0-7.835,8.567c-.255.406-.541.8-.8,1.225l-.644,1.3-1.225,2.6c-.684,1.806-1.4,3.611-2,5.417a73.815,73.815,0,0,0-2.14,11.231c-.493,3.77-.851,7.517-1.153,11.255-1.153,14.9-1.591,29.319-2.084,43.056-.891,27.482-1.519,52.251-3.015,73A266.275,266.275,0,0,1,275.04,892.1a55.487,55.487,0,0,1-3.023,11.136,11.041,11.041,0,0,1-2.8,4.247,43.649,43.649,0,0,1-3.675,2.848,37.585,37.585,0,0,1-12,5.846,20.836,20.836,0,0,1-3.428.636Z" transform="translate(-69.786 -459.459)" fill="#344154"/>
        <path id="Trazado_110084" data-name="Trazado 110084" d="M387.889,495.945l-.111-1.543c0-1.042-.159-2.553-.278-4.55a23.568,23.568,0,0,1,.119-3.349c.135-1.225.469-2.545.748-3.977a19.3,19.3,0,0,1,4.566-8.933,29.264,29.264,0,0,1,10.754-6.626,55.027,55.027,0,0,1,14.755-3.078c2.7-.231,5.5-.358,8.408-.406a31.215,31.215,0,0,1,8.925.931A26.65,26.65,0,0,1,440.212,466a19.528,19.528,0,0,1,4.025,2.689,23.743,23.743,0,0,1,3.476,3.563A13.008,13.008,0,0,1,449.1,474.4a5.862,5.862,0,0,1,.8,2.521v.207h-.223c-5.5.477-11.391,1.686-17.563,2.45l.223-.27c.724,5.974,1.456,12.242,1.853,18.645.08,1.591.143,3.245.119,4.9s-.119,3.285-.119,4.9c0,3.333,0,6.705-.263,10.134a92.274,92.274,0,0,1-3.556,20.768,78.184,78.184,0,0,1-9.283,20.116c-4.065,6.435-9.672,11.852-13.467,18.708a55.679,55.679,0,0,0-7.6,22.351,101.382,101.382,0,0,0-.143,12.242q.072,6.125.143,12.417c.064,8.328,0,16.76-.278,25.286-.342,9.792-.859,19.583-2.108,29.065a52.93,52.93,0,0,1-3.381,13.888,53.834,53.834,0,0,1-7.159,12.091c-5.743,7.35-12.878,13.188-19.416,19.2l-2.315,2.386c-.748.8-1.5,1.591-2.227,2.45l-.994,1.3a7.588,7.588,0,0,0-.907,1.336l-.8,1.408q-.3.734-.533,1.5a102.659,102.659,0,0,0-1.9,12.727c-1.631,16.942-2.386,33.129-3.126,48.266s-1.217,29.232-1.662,42.157-.8,24.483-1.042,34.76q-.167,7.676-.318,14.254a38.766,38.766,0,0,1-.342,6.3,16.754,16.754,0,0,1-1.933,5.377,19.885,19.885,0,0,1-6.61,6.873,22.619,22.619,0,0,1-10.738,3.365H331.12a8.062,8.062,0,0,0,1.106-.064,22.591,22.591,0,0,0,10.627-3.452,19.656,19.656,0,0,0,6.5-6.833,16.362,16.362,0,0,0,1.885-5.3,38.307,38.307,0,0,0,.31-6.26c.088-4.383.167-9.147.27-14.262.231-10.237.533-21.89.939-34.776s.907-26.933,1.591-42.157,1.456-31.324,3.07-48.306a102.988,102.988,0,0,1,1.822-12.862c.191-.533.334-1.09.565-1.591l.835-1.464a8.1,8.1,0,0,1,.931-1.384l1.018-1.32c.732-.843,1.5-1.654,2.251-2.45l2.45-2.323c6.562-6.053,13.665-11.828,19.345-19.138a53.38,53.38,0,0,0,7.1-11.931,52.579,52.579,0,0,0,3.309-13.737c1.225-9.489,1.758-19.2,2.1-29.017.278-8.511.342-16.935.278-25.263l-.143-12.4a101.535,101.535,0,0,1,.151-12.281,56.063,56.063,0,0,1,7.7-22.59c3.834-6.928,9.473-12.385,13.466-18.732a77.156,77.156,0,0,0,9.227-19.925,92.629,92.629,0,0,0,3.532-20.681c.191-3.42.239-6.8.262-10.126,0-1.654.08-3.341.127-4.9s0-3.253-.111-4.9c-.382-6.427-1.106-12.647-1.814-18.621v-.247h.223c6.125-.8,12.035-1.957,17.6-2.45l-.223.239a8.591,8.591,0,0,0-2.028-4.4,23.613,23.613,0,0,0-3.4-3.5,19.8,19.8,0,0,0-3.929-2.649,27.494,27.494,0,0,0-4.359-1.591,31.1,31.1,0,0,0-8.8-.947c-2.887,0-5.679.151-8.376.382a54.293,54.293,0,0,0-14.691,3.039,29.161,29.161,0,0,0-10.675,6.5,19.241,19.241,0,0,0-4.566,8.813c-.286,1.424-.636,2.736-.8,3.977a20.3,20.3,0,0,0-.159,3.333q.15,2.984.223,4.534A11.5,11.5,0,0,1,387.889,495.945Z" transform="translate(-86.605 -451.094)" fill="#344154"/>
        <path id="Trazado_110085" data-name="Trazado 110085" d="M464.771,479.22a2.435,2.435,0,0,1-.684.143l-2,.294-7.35.97-24.3,2.959-1.949.239h-.2l-.1-.159a31.5,31.5,0,0,0-4.089-5.146,10.723,10.723,0,0,0-5.13-2.935,10.453,10.453,0,0,0-5.329.318,9.911,9.911,0,0,0-3.977,2.45,17.5,17.5,0,0,0-3.667,5.8c-.286.8-.493,1.36-.612,1.774a5.072,5.072,0,0,1-.215.612,2.208,2.208,0,0,1,.087-.644,18.4,18.4,0,0,1,.517-1.829,16.862,16.862,0,0,1,3.524-6.021,10.451,10.451,0,0,1,4.112-2.641,10.341,10.341,0,0,1,11.056,2.665,31.132,31.132,0,0,1,4.192,5.226l-.31-.127,1.949-.239,24.332-2.776,7.342-.8,2.012-.183a3.179,3.179,0,0,1,.789.05Z" transform="translate(-101.754 -453.412)" fill="#344154"/>
        <path id="Trazado_110086" data-name="Trazado 110086" d="M457.253,536.732a1.591,1.591,0,0,1-1,1.4l-7.35,2.776c-1.122.43-2.625.748-3.325-.231a1.893,1.893,0,0,1,.294-2.267,5.571,5.571,0,0,1,2.076-1.225c2.832-1.225,5.926-2.386,8.8-3.563a.413.413,0,0,1,.541.231.389.389,0,0,1,0,.191Z" transform="translate(-109.969 -465.441)" fill="#b78876"/>
        <path id="Trazado_110087" data-name="Trazado 110087" d="M457.51,540.391a3.126,3.126,0,0,1-1.925,3.587l-6.817,2.617c-1.129.43-2.633.748-3.333-.215a1.885,1.885,0,0,1,.294-2.267,5.321,5.321,0,0,1,2.084-1.225c2.7-1.129,5.655-2.267,8.4-3.4a.891.891,0,0,1,1.169.477.58.58,0,0,1,.048.167Z" transform="translate(-109.939 -466.634)" fill="#b78876"/>
        <path id="Trazado_110088" data-name="Trazado 110088" d="M456.041,545.218a4.534,4.534,0,0,1-2.792,5.282l-5.679,2.164c-1.129.43-2.633.748-3.333-.231a1.909,1.909,0,0,1,.294-2.267,5.607,5.607,0,0,1,2.092-1.225c3.023-1.225,6.363-2.545,9.378-3.81Z" transform="translate(-109.695 -467.802)" fill="#b78876"/>
        <path id="Trazado_110089" data-name="Trazado 110089" d="M411.005,618.248c0,.175-8.949,3.492-20.116,7.421s-20.275,6.992-20.339,6.817,8.949-3.484,20.116-7.421S410.942,618.049,411.005,618.248Z" transform="translate(-94.671 -482.758)" fill="#344154"/>
        <path id="Trazado_110090" data-name="Trazado 110090" d="M409.3,624.41a22.889,22.889,0,0,1-3.261,2.323c-2.052,1.36-4.892,3.182-8.185,5.1s-6.22,3.587-8.4,4.773a21.787,21.787,0,0,1-3.6,1.742,28.118,28.118,0,0,1,3.381-2.132l8.3-4.971,8.272-4.892a26.042,26.042,0,0,1,3.493-1.943Z" transform="translate(-97.801 -484.021)" fill="#344154"/>
      </g>
      <g id="freepik--speech-bubble--inject-118" transform="translate(149.122 284.115)">
        <path id="Trazado_110091" data-name="Trazado 110091" d="M130.041,441.741a2.236,2.236,0,0,1,0,.565v1.527c0,1.408,0,3.4.087,5.711,0,4.948.119,11.892.207,20.069l-.4-.374h27.84c.1,0-.835.835-.422.445h0V441.741l.39.39L137.69,441.9l-5.711-.1H129.9a15.781,15.781,0,0,1,1.941,0l5.568-.1,20.387-.183h.374v28h0c.39-.39-.541.549-.453.445H129.5v-.445c.087-8.32.151-15.288.183-20.387,0-2.346,0-4.216.1-5.624a6,6,0,0,1,.258-1.765Z" transform="translate(-106.493 -415.12)" fill="#344154"/>
        <path id="Trazado_110092" data-name="Trazado 110092" d="M164.756,433.994c.557.453-5.353,8.6-13.2,18.144-1.7,2-3.229,3.914-4.709,5.648l-.867.978-.939-.8c-6.522-5.878-10.937-10.34-10.563-10.794s5.449,3.285,12.218,8.893l-1.79.151c1.4-1.79,2.959-3.723,4.606-5.727C157.359,440.9,164.175,433.509,164.756,433.994Z" transform="translate(-107.506 -413.578)" fill="#d9a171"/>
        <path id="Trazado_110093" data-name="Trazado 110093" d="M140.964,408.378H136.8l-1.806.255-2.1.3-2.386.581a37.894,37.894,0,0,0-11.375,4.963,40.169,40.169,0,0,0-18.4,30.178,41,41,0,0,0-.111,5.5,14.491,14.491,0,0,0,.183,2.808c.191.931.286,1.885.422,2.84a40.168,40.168,0,0,0,3.832,11.2,43.151,43.151,0,0,0,7.31,10.062,42.427,42.427,0,0,0,10.531,7.564,38.179,38.179,0,0,0,12.846,3.977,27.16,27.16,0,0,0,3.4.286,30.238,30.238,0,0,0,3.4,0,42.429,42.429,0,0,0,6.936-.883,40.44,40.44,0,0,0,13.793-5.8h-.406l14.055,5.648.835.334-.239-.867c-1.416-5.1-2.808-10.2-4.128-15.034v.374a40.352,40.352,0,0,0,7.389-17.03,35.794,35.794,0,0,0,.541-8.789,26.077,26.077,0,0,0-.39-4.232c-.1-.692-.223-1.376-.318-2.052a19.633,19.633,0,0,0-.493-1.989A40.249,40.249,0,0,0,164.437,415.7a38.8,38.8,0,0,0-9.33-4.924L153,410.024l-2-.509-1.822-.461-1.694-.255c-1.074-.135-2-.31-2.824-.358H140.9a1.867,1.867,0,0,0,.422,0l1.257.1,2.06.135a24.415,24.415,0,0,1,2.784.422,39.962,39.962,0,0,1,31.984,29.653c.151.652.358,1.3.477,1.957s.183,1.344.286,2.02a25.1,25.1,0,0,1,.374,4.152,35.688,35.688,0,0,1-.557,8.63,39.867,39.867,0,0,1-7.413,16.807l-.119.167v.207l4.112,15.041.6-.533-13.936-5.711-.223-.1-.2.135a39.413,39.413,0,0,1-20.275,6.523,30.231,30.231,0,0,1-3.4,0,24.477,24.477,0,0,1-3.4-.286,37.225,37.225,0,0,1-12.544-3.89,40.981,40.981,0,0,1-10.341-7.4,42.611,42.611,0,0,1-7.159-9.839,39.85,39.85,0,0,1-3.77-10.945c-.151-.939-.294-1.869-.445-2.784s-.119-1.837-.183-2.76a43.746,43.746,0,0,1,.08-5.4,39.771,39.771,0,0,1,17.969-29.8,38.521,38.521,0,0,1,11.192-5.1l2.315-.612,2.076-.342,1.782-.3,1.5-.1,2.036-.151a3.373,3.373,0,0,0,.723.046Z" transform="translate(-100.577 -408.332)" fill="#455a64"/>
      </g>
    </g>
  </g>
</svg>
