<svg xmlns="http://www.w3.org/2000/svg" width="153.841" height="92" viewBox="0 0 153.841 92">
  <g id="Grupo_1178927" data-name="Grupo 1178927" transform="translate(-705 -16910.828)">
    <rect id="Rectángulo_405515" data-name="Rectángulo 405515" width="153.841" height="92" transform="translate(705 16910.828)" fill="#ddeffd"/>
    <g id="Grupo_1178761" data-name="Grupo 1178761" transform="translate(728.05 16921.828)">
      <path id="Trazado_1034045" data-name="Trazado 1034045" d="M5.445-2.336a.727.727,0,0,0-.41-.652,4.659,4.659,0,0,0-1.316-.426Q.7-4.047.7-5.977a2.323,2.323,0,0,1,.934-1.879,3.766,3.766,0,0,1,2.441-.754,4.053,4.053,0,0,1,2.574.758,2.388,2.388,0,0,1,.965,1.969H5.359a1.092,1.092,0,0,0-.312-.8A1.322,1.322,0,0,0,4.07-7a1.351,1.351,0,0,0-.883.258.814.814,0,0,0-.312.656.7.7,0,0,0,.355.605,3.657,3.657,0,0,0,1.2.4A9.8,9.8,0,0,1,5.852-4.7,2.336,2.336,0,0,1,7.641-2.43,2.2,2.2,0,0,1,6.648-.559,4.28,4.28,0,0,1,4.086.156,4.47,4.47,0,0,1,2.2-.223,3.166,3.166,0,0,1,.906-1.262,2.414,2.414,0,0,1,.438-2.687H2.578a1.179,1.179,0,0,0,.445.922,1.766,1.766,0,0,0,1.109.32,1.635,1.635,0,0,0,.98-.246A.766.766,0,0,0,5.445-2.336Zm18.8-3.492H17.258V-7.672h6.984Zm0,3.383H17.258V-4.289h6.984ZM35.594,0H33.336V-8.7l-2.7.836V-9.7l4.711-1.687h.242ZM47.086,0h-7.8V-1.547l3.68-3.922A9.078,9.078,0,0,0,44.09-6.914a2.322,2.322,0,0,0,.363-1.172,1.738,1.738,0,0,0-.383-1.191,1.382,1.382,0,0,0-1.094-.434,1.49,1.49,0,0,0-1.207.527A2.089,2.089,0,0,0,41.328-7.8H39.063a3.729,3.729,0,0,1,.5-1.9,3.5,3.5,0,0,1,1.4-1.348,4.262,4.262,0,0,1,2.055-.488,4.036,4.036,0,0,1,2.73.844A2.985,2.985,0,0,1,46.719-8.3a3.825,3.825,0,0,1-.437,1.719,9.551,9.551,0,0,1-1.5,2.039L42.2-1.82h4.891Zm9.039-4.7a5.762,5.762,0,0,1-.977,3.609A3.409,3.409,0,0,1,52.289.156,3.433,3.433,0,0,1,49.445-1.07a5.594,5.594,0,0,1-1.008-3.516V-6.68a5.687,5.687,0,0,1,.988-3.617,3.434,3.434,0,0,1,2.848-1.234,3.437,3.437,0,0,1,2.844,1.223A5.576,5.576,0,0,1,56.125-6.8ZM53.867-7a4.158,4.158,0,0,0-.387-2.059A1.307,1.307,0,0,0,52.273-9.7,1.284,1.284,0,0,0,51.1-9.09a3.891,3.891,0,0,0-.4,1.918v2.766a4.365,4.365,0,0,0,.379,2.066,1.29,1.29,0,0,0,1.215.676,1.268,1.268,0,0,0,1.2-.648A4.26,4.26,0,0,0,53.867-4.3Z" transform="translate(26 67)" fill="#12263f"/>
      <g id="Grupo_1178358" data-name="Grupo 1178358" transform="translate(0)">
        <path id="Trazado_1034043" data-name="Trazado 1034043" d="M5.445-2.336a.727.727,0,0,0-.41-.652,4.659,4.659,0,0,0-1.316-.426Q.7-4.047.7-5.977a2.323,2.323,0,0,1,.934-1.879,3.766,3.766,0,0,1,2.441-.754,4.053,4.053,0,0,1,2.574.758,2.388,2.388,0,0,1,.965,1.969H5.359a1.092,1.092,0,0,0-.312-.8A1.322,1.322,0,0,0,4.07-7a1.351,1.351,0,0,0-.883.258.814.814,0,0,0-.312.656.7.7,0,0,0,.355.605,3.657,3.657,0,0,0,1.2.4A9.8,9.8,0,0,1,5.852-4.7,2.336,2.336,0,0,1,7.641-2.43,2.2,2.2,0,0,1,6.648-.559,4.28,4.28,0,0,1,4.086.156,4.47,4.47,0,0,1,2.2-.223,3.166,3.166,0,0,1,.906-1.262,2.414,2.414,0,0,1,.438-2.687H2.578a1.179,1.179,0,0,0,.445.922,1.766,1.766,0,0,0,1.109.32,1.635,1.635,0,0,0,.98-.246A.766.766,0,0,0,5.445-2.336Zm18.8-3.492H17.258V-7.672h6.984Zm0,3.383H17.258V-4.289h6.984Zm8.039-6.008.07.977a2.951,2.951,0,0,1,2.43-1.133,2.453,2.453,0,0,1,2,.789,3.682,3.682,0,0,1,.672,2.359V0H35.2V-5.406a1.465,1.465,0,0,0-.312-1.043,1.4,1.4,0,0,0-1.039-.324,1.553,1.553,0,0,0-1.43.813V0H30.156V-8.453Zm6.984,3.828a11.99,11.99,0,0,1,.477-3.406,8.989,8.989,0,0,1,1.406-2.863,5.251,5.251,0,0,1,2.016-1.73l.438,1.219A5.438,5.438,0,0,0,41.82-8.8a12.082,12.082,0,0,0-.641,4.125v.242a12.313,12.313,0,0,0,.633,4.141A5.544,5.544,0,0,0,43.6,2.359l-.437,1.2a5.253,5.253,0,0,1-1.98-1.684,8.838,8.838,0,0,1-1.4-2.785,11.918,11.918,0,0,1-.516-3.3ZM50.172,0H47.914V-8.7l-2.7.836V-9.7l4.711-1.687h.242ZM54.2-5.594l.656-5.781h6.375v1.883H56.711L56.43-7.047a3.58,3.58,0,0,1,1.711-.43,3.279,3.279,0,0,1,2.547,1.008,4.026,4.026,0,0,1,.922,2.82,4.124,4.124,0,0,1-.465,1.973A3.281,3.281,0,0,1,59.813-.324a4.158,4.158,0,0,1-2.047.48,4.416,4.416,0,0,1-1.914-.418,3.4,3.4,0,0,1-1.395-1.176,3.2,3.2,0,0,1-.543-1.727h2.234a1.669,1.669,0,0,0,.5,1.105,1.573,1.573,0,0,0,1.113.395,1.388,1.388,0,0,0,1.18-.551,2.551,2.551,0,0,0,.414-1.559,2.11,2.11,0,0,0-.477-1.484,1.749,1.749,0,0,0-1.352-.516,1.954,1.954,0,0,0-1.3.422l-.219.2ZM67.7-6.367h2.82v2.039H67.7v3.188H65.547V-4.328H62.719V-6.367h2.828V-9.422H67.7ZM77.266,0H75.008V-8.7l-2.7.836V-9.7l4.711-1.687h.242Zm7.68-4.445a11.377,11.377,0,0,1-.508,3.4,9.225,9.225,0,0,1-1.461,2.883,5.263,5.263,0,0,1-2.039,1.719l-.437-1.2A5.494,5.494,0,0,0,82.25-.219a11.939,11.939,0,0,0,.664-4.008v-.414a12.209,12.209,0,0,0-.637-4.117A5.727,5.727,0,0,0,80.5-11.43l.438-1.2a5.265,5.265,0,0,1,2,1.672A9.106,9.106,0,0,1,84.4-8.133,11.3,11.3,0,0,1,84.945-4.8Z" transform="translate(0 17)" fill="#12263f"/>
        <path id="Trazado_1034044" data-name="Trazado 1034044" d="M8.57,0H.773V-1.547l3.68-3.922A9.078,9.078,0,0,0,5.574-6.914a2.322,2.322,0,0,0,.363-1.172,1.738,1.738,0,0,0-.383-1.191,1.382,1.382,0,0,0-1.094-.434,1.49,1.49,0,0,0-1.207.527A2.089,2.089,0,0,0,2.813-7.8H.547a3.729,3.729,0,0,1,.5-1.9,3.5,3.5,0,0,1,1.4-1.348A4.262,4.262,0,0,1,4.5-11.531a4.036,4.036,0,0,1,2.73.844A2.985,2.985,0,0,1,8.2-8.3a3.825,3.825,0,0,1-.437,1.719,9.551,9.551,0,0,1-1.5,2.039L3.68-1.82H8.57Z" transform="translate(54.639 42)" fill="#12263f"/>
        <path id="Trazado_1033456" data-name="Trazado 1033456" d="M-6842.757,6702.94h57.14" transform="translate(6873.326 -6677.586)" fill="none" stroke="#12263f" stroke-width="1"/>
      </g>
    </g>
  </g>
</svg>
