<svg xmlns="http://www.w3.org/2000/svg" xmlns:xlink="http://www.w3.org/1999/xlink" width="505" height="513" viewBox="0 0 505 513">
  <defs>
    <clipPath id="clip-path">
      <rect id="Rectángulo_405194" data-name="Rectángulo 405194" width="505" height="513" transform="translate(180.051 5333.05)" fill="#5b39a6" opacity="0.49"/>
    </clipPath>
    <clipPath id="clip-path-2">
      <path id="Trazado_107400" data-name="Trazado 107400" d="M271.634,172.042a79.684,79.684,0,0,1-9.5,32.5c-9.209,17.324-4.859,50.089-.279,48.51s32.51-20.106,36.313-30.638,2.964-26.265,9.719-43.043,11.129-26.3,11.129-26.3S278.71,171.512,271.634,172.042Z" transform="translate(-256.716 -153.069)" fill="none"/>
    </clipPath>
    <clipPath id="clip-path-3">
      <path id="Trazado_107404" data-name="Trazado 107404" d="M289.236,74.018A68.894,68.894,0,0,0,265.68,100.55c-8.658,17.6-8.117,40.88-8.117,40.88s.814,26-.547,36.276,11.42,17.6,17.324,17.883,24.358-11.918,33.032-15.442,11.1-4.07,19.438-12.452,22.754-33.858,23.568-48.194-1.592-31.015-14.069-41.147S307.095,65.089,289.236,74.018Z" transform="translate(-256.916 -68.769)" fill="none"/>
    </clipPath>
    <clipPath id="clip-path-4">
      <path id="Trazado_107419" data-name="Trazado 107419" d="M315.036,269.88s7.568,19.22,12.987,25.682S348,312.57,360.241,320.734s14.578,26.265,12.72,33.032-7.568,12.148-20.3,8.658-23.022-18.685-33.579-34.393-17.591-27.346-18.4-28.16S315.036,269.88,315.036,269.88Z" transform="translate(-300.645 -269.88)" fill="none"/>
    </clipPath>
    <clipPath id="clip-path-5">
      <path id="Trazado_107424" data-name="Trazado 107424" d="M326.661,450.871s7.058,2.588,21.661-3.1c20.823-8.067,54.013-35.413,54.013-35.413a136.657,136.657,0,0,1-48.5,0c-26.84-4.859-41.305-12.039-41.305-12.039l-28.222,40.26Z" transform="translate(-284.31 -400.321)" fill="none"/>
    </clipPath>
    <clipPath id="clip-path-6">
      <path id="Trazado_107428" data-name="Trazado 107428" d="M348.774,383.081s11.262-1.823,5.078,15.043-26.407,31.733-28.817,43.735.34,12.72.34,12.72l-35.086-7.556s2.758-26.144,22.013-46.092S348.774,383.081,348.774,383.081Z" transform="translate(-290.289 -383.017)" fill="none"/>
    </clipPath>
    <clipPath id="clip-path-7">
      <path id="Trazado_107433" data-name="Trazado 107433" d="M294.621,467.627s5.856-1.421,11.7-9.986,18.916-35.778,29.594-50.223,27.176-22.694,27.176-22.694l-83.607-9.293s-34.016,38.183-45.74,51.607-13.072,25.792-4.859,28.878,34.393,6.2,41.305,7.289S288.778,468.634,294.621,467.627Z" transform="translate(-223.656 -375.431)" fill="none"/>
    </clipPath>
    <clipPath id="clip-path-8">
      <path id="Trazado_107437" data-name="Trazado 107437" d="M326.953,373.909s6.877,0,3.1,11.007-26.144,39.945-33.372,59.524,5.151,26.484,5.151,26.484-2.746,4.131-42.994-4.459-66.028-9.646-68.47-16.523,13.364-25.451,19.255-40.237,20.653-49.53,20.653-49.53,58.5,11.408,70.864,12.38S326.953,373.909,326.953,373.909Z" transform="translate(-190.111 -360.174)" fill="none"/>
    </clipPath>
    <clipPath id="clip-path-9">
      <path id="Trazado_107442" data-name="Trazado 107442" d="M284.474,419.213s0,2.746,10.339-9.632,33.36-34.016,33.36-34.016L221.883,352.48s-30.275,31.271-34.016,36.081-6.548,6.184,3.438,10.667,59.918,9.986,70.462,12.732S284.474,419.213,284.474,419.213Z" transform="translate(-184.435 -352.48)" fill="none"/>
    </clipPath>
    <clipPath id="clip-path-10">
      <path id="Trazado_107449" data-name="Trazado 107449" d="M329.833,266.626s-2.369,7.751-5.807,33.55-8.5,55.373-15.476,77.387-20.3,54.013-21.32,58.132a8.5,8.5,0,0,0,1.7,7.216s-13.364-2.056-51.255-6.184-74.97-22.694-73.949-25.108,25.853-26.84,39.945-58.484S239.782,242,239.782,242s44.72,21,58.132,22.378S329.833,266.626,329.833,266.626Z" transform="translate(-163.705 -242)" fill="none"/>
    </clipPath>
    <clipPath id="clip-path-11">
      <path id="Trazado_107459" data-name="Trazado 107459" d="M326.5,268.261s-6.233,17.6-13.266,39.265a396.641,396.641,0,0,0-11.117,43.325s-4.859-2.706-41.135-15.161-81.773-27.662-81.773-27.662,34.114-40.091,41.305-59.286,11.1-15.693,27.942-9.2,40.091,18.4,53.6,19.753S326.5,265.589,326.5,268.261Z" transform="translate(-179.21 -234.387)" fill="none"/>
    </clipPath>
    <clipPath id="clip-path-12">
      <path id="Trazado_107465" data-name="Trazado 107465" d="M203.454,181.177s1.623,27.6,1.623,28.68-44.683,47.671-54.961,58.5-10.557,19.754-8.14,26.532,10.849,16.523,18.418,17.591,15.975-6.487,23.556-23.289,34.66-67.413,37.662-72.819,9.993-10.282,9.993-10.282,7.289-3.788,10.545-9.209,9.476-16.242,16.242-21.406,9.986-6.5,7.047-8.117-12.452,1.883-15.161,3.778-8.658,6.779-8.658,6.779-5.152-7.593-5.419-14.08,1.349-15.793-2.43-13.873-10.1,15.9-18.174,23.35C208.046,180.363,203.454,177.108,203.454,181.177Z" transform="translate(-140.724 -149.702)" fill="none"/>
    </clipPath>
  </defs>
  <g id="Enmascarar_grupo_1098752" data-name="Enmascarar grupo 1098752" transform="translate(-180.051 -5333.05)" clip-path="url(#clip-path)">
    <rect id="Rectángulo_405079" data-name="Rectángulo 405079" width="327.071" height="513" rx="12" transform="translate(252.929 5333.05)" fill="#fed6a8"/>
    <g id="graficos_cf13_Recuperado__norma_copia_2" data-name="graficos cf13 [Recuperado]_norma copia 2" transform="translate(184.27 5349.382)">
      <g id="freepik--Pictures--inject-143" transform="translate(59.057 81.815)">
        <rect id="Rectángulo_8387" data-name="Rectángulo 8387" width="76.585" height="102.124" transform="translate(84.261)" fill="#b5b5b5"/>
        <rect id="Rectángulo_8388" data-name="Rectángulo 8388" width="62.549" height="83.399" transform="translate(91.278 9.358)" fill="#d9a171"/>
        <rect id="Rectángulo_8389" data-name="Rectángulo 8389" width="62.549" height="83.399" transform="translate(91.278 9.358)" fill="#5e6178" opacity="0.5"/>
        <rect id="Rectángulo_8390" data-name="Rectángulo 8390" width="65.104" height="86.805" transform="translate(0 59.574)" fill="#b5b5b5"/>
        <rect id="Rectángulo_8391" data-name="Rectángulo 8391" width="53.17" height="70.893" transform="translate(5.973 67.529)" fill="#d9a171"/>
        <rect id="Rectángulo_8392" data-name="Rectángulo 8392" width="53.17" height="70.893" transform="translate(5.973 67.529)" fill="#5e6178" opacity="0.5"/>
      </g>
      <g id="freepik--Window--inject-143" transform="translate(298.561 31.569)">
        <path id="Trazado_107394" data-name="Trazado 107394" d="M318.37,368.523H478.6V111.72H318.37Zm83.552-61.752h70.3v-6.166H401.941V243.232h70.3v-6.22h-70.3V180.888h70.3v-6.231h-70.3V117.951h70.752V362.269H401.941Zm-77.709-188.82H396.1v56.706H324.213Zm0,62.937H396.1v56.123H324.213Zm0,62.344H396.1v57.373H324.213Zm0,63.54H396.1v55.52H324.213Z" transform="translate(-317.497 -32.813)" fill="#aed3f2"/>
        <path id="Trazado_107395" data-name="Trazado 107395" d="M478.061,111.547a80.4,80.4,0,0,0-160.124,0l-.377,4.2H478.439Zm-151.909-3.515a72.229,72.229,0,0,1,18.165-38.465l45.17,38.465Zm67.216-6.813-43.532-37.01A72.532,72.532,0,0,1,393.372,46.3Zm7.751-54.981A72.467,72.467,0,0,1,442.9,61.428L401.12,100.669Zm3.406,61.794,44.2-41.526a72.316,72.316,0,0,1,21.224,41.526Z" transform="translate(-317.56 -38.526)" fill="#aed3f2"/>
      </g>
      <g id="freepik--Character--inject-143" transform="translate(11 13.387)">
        <path id="Trazado_107396" data-name="Trazado 107396" d="M289.5,186.31s-27.346,1.6-41.974,1.337-25.172-3.778-28.95,2.706-4.289,3.8-10.581,15.44-64.388,64.874-65.6,73.268c-1.9,13.229,11.808,22.694,19.438,24.589S210.546,264.4,210.546,264.4s-4.18,67.049-5.528,94.638-2.164,108.572-2.164,108.572h140.26s-2.706-65.518-2.43-78.8,15.693-78.457,15.693-78.457-1.093,25.682,2.43,36.009,26.909,34.114,40.443,29.229,6.67-25.439,5.042-39.787-1.623-55.775-1.623-83.117,1.623-32.8-7.849-36.009-27.881-7.035-41.962-12.452-36.009-11.65-39.812-13S289.5,186.31,289.5,186.31Z" transform="translate(-35.373 -43.513)" fill="#344154" stroke="#263238" stroke-linecap="round" stroke-linejoin="round" stroke-width="1"/>
        <line id="Línea_302" data-name="Línea 302" x2="497.1" transform="translate(0 424.101)" fill="none" stroke="#263238" stroke-linecap="round" stroke-linejoin="round" stroke-width="1"/>
        <path id="Trazado_107397" data-name="Trazado 107397" d="M278.43,179.42s-8.93-.535-16.5,8.128S236.251,226,233.5,229.776s2.43,1.9,7.568,1.36,20.653-2.706,24.091-1.36,18.15,2.988,24.115,9.488,19.22,21.078,21.115,17.324,6.487-21.115,8.658-32.8,3.788-23.277-5.139-34.939S278.43,179.42,278.43,179.42Z" transform="translate(-15.922 -45.03)" fill="#5e6178" stroke="#263238" stroke-linecap="round" stroke-linejoin="round" stroke-width="1"/>
        <path id="Trazado_107398" data-name="Trazado 107398" d="M271.634,172.042a79.684,79.684,0,0,1-9.5,32.5c-9.209,17.324-4.859,50.089-.279,48.51s32.51-20.106,36.313-30.638,2.964-26.265,9.719-43.043,11.129-26.3,11.129-26.3S278.71,171.512,271.634,172.042Z" transform="translate(-10.77 -50.655)" fill="#ffbf9d"/>
        <g id="Grupo_57912" data-name="Grupo 57912" transform="translate(245.945 102.414)" clip-path="url(#clip-path-2)">
          <path id="Trazado_107399" data-name="Trazado 107399" d="M269.6,172.042a70.692,70.692,0,0,1-3.39,17.822,38.717,38.717,0,0,0,12.319,1.53c14.663,0,16.17-2.527,16.17-2.527s-3.037,21.734-6.572,32.352c-2.041,6.147-4.933,12.962-7.022,17.628,7-5.6,13.364-11.772,15.028-16.437,3.778-10.557,2.964-26.265,9.719-43.043s11.128-26.3,11.128-26.3S276.67,171.512,269.6,172.042Z" transform="translate(-254.676 -153.069)" opacity="0.15"/>
        </g>
        <path id="Trazado_107401" data-name="Trazado 107401" d="M271.634,172.042a79.684,79.684,0,0,1-9.5,32.5c-9.209,17.324-4.859,50.089-.279,48.51s32.51-20.106,36.313-30.638,2.964-26.265,9.719-43.043,11.129-26.3,11.129-26.3S278.71,171.512,271.634,172.042Z" transform="translate(-10.77 -50.655)" fill="none" stroke="#263238" stroke-linecap="round" stroke-linejoin="round" stroke-width="1"/>
        <path id="Trazado_107402" data-name="Trazado 107402" d="M289.236,74.018A68.894,68.894,0,0,0,265.68,100.55c-8.658,17.6-8.117,40.88-8.117,40.88s.814,26-.547,36.276,11.42,17.6,17.324,17.883,24.358-11.918,33.032-15.442,11.1-4.07,19.438-12.452,22.754-33.858,23.568-48.194-1.592-31.015-14.069-41.147S307.095,65.089,289.236,74.018Z" transform="translate(-10.728 -68.769)" fill="#ffbf9d"/>
        <g id="Grupo_57913" data-name="Grupo 57913" transform="translate(246.189)" clip-path="url(#clip-path-3)">
          <path id="Trazado_107403" data-name="Trazado 107403" d="M266.26,189.091a17.276,17.276,0,0,0,6.075,1.774c5.952.267,24.358-11.918,33.032-15.44s11.1-4.07,19.438-12.452,22.754-33.858,23.568-48.194a66.113,66.113,0,0,0-2.7-24.018,39.677,39.677,0,0,0-17.081,12.44c-10.108,12.647,0,22.828-8.5,36.446S297.822,160.834,287.7,171.5,279.963,188.824,266.26,189.091Z" transform="translate(-254.908 -64.043)" opacity="0.15"/>
        </g>
        <path id="Trazado_107405" data-name="Trazado 107405" d="M289.236,74.018A68.894,68.894,0,0,0,265.68,100.55c-8.658,17.6-8.117,40.88-8.117,40.88s.814,26-.547,36.276,11.42,17.6,17.324,17.883,24.358-11.918,33.032-15.442,11.1-4.07,19.438-12.452,22.754-33.858,23.568-48.194-1.592-31.015-14.069-41.147S307.095,65.089,289.236,74.018Z" transform="translate(-10.728 -68.769)" fill="none" stroke="#263238" stroke-linecap="round" stroke-linejoin="round" stroke-width="1"/>
        <path id="Trazado_107406" data-name="Trazado 107406" d="M275.489,122.45s-3.8,1.9-3.8,4.07,2.706,2.7,2.706,2.7" transform="translate(-7.553 -57.234)" fill="none" stroke="#263238" stroke-linecap="round" stroke-linejoin="round" stroke-width="1"/>
        <path id="Trazado_107407" data-name="Trazado 107407" d="M276.81,123.12s-3.8,4.276-1.895,7.035,7.568.814,7.568.814-.267,1.36,2.988,1.623,5.138-3.788,3.247-6.487l-1.9-2.721" transform="translate(-6.976 -57.09)" fill="none" stroke="#263238" stroke-linecap="round" stroke-linejoin="round" stroke-width="1"/>
        <path id="Trazado_107408" data-name="Trazado 107408" d="M279.335,111.735c-.656,1.956-1.948,3.292-2.855,2.988s-1.215-2.164-.535-4.118,1.932-3.292,2.855-2.976S279.979,109.766,279.335,111.735Z" transform="translate(-6.718 -60.429)" fill="#344154" stroke="#263238" stroke-linecap="round" stroke-linejoin="round" stroke-width="1"/>
        <path id="Trazado_107409" data-name="Trazado 107409" d="M280.709,108.639a4.057,4.057,0,0,0-5.285-2.235l-.146.061c-3.788,1.623-5.7,11.116-1.623,13" transform="translate(-7.621 -60.746)" fill="none" stroke="#263238" stroke-linecap="round" stroke-linejoin="round" stroke-width="1"/>
        <path id="Trazado_107410" data-name="Trazado 107410" d="M298.055,117.061c-.656,1.981-1.948,3.3-2.855,3s-1.215-2.15-.535-4.106,1.948-3.292,2.855-2.988S298.687,115.118,298.055,117.061Z" transform="translate(-2.696 -59.281)" fill="#344154" stroke="#263238" stroke-linecap="round" stroke-linejoin="round" stroke-width="1"/>
        <path id="Trazado_107411" data-name="Trazado 107411" d="M299.42,113.992a4.034,4.034,0,0,0-5.248-2.235H294c-3.778,1.623-5.71,11.1-1.623,13" transform="translate(-3.599 -59.596)" fill="none" stroke="#263238" stroke-linecap="round" stroke-linejoin="round" stroke-width="1"/>
        <path id="Trazado_107412" data-name="Trazado 107412" d="M270.74,145.1c-1.623-.814-8.674-5.152-8.407-7.86s2.988-6.536,5.673-4.106,9.719,7.593,9.719,7.593,4.07,4.859,11.639,1.421" transform="translate(-9.566 -55.104)" fill="none" stroke="#263238" stroke-linecap="round" stroke-linejoin="round" stroke-width="1"/>
        <path id="Trazado_107413" data-name="Trazado 107413" d="M269.7,102.236s3.511-6.767,8.383-7.289,7.289,4.859,7.289,5.7" transform="translate(-7.981 -63.152)" fill="none" stroke="#263238" stroke-linecap="round" stroke-linejoin="round" stroke-width="4"/>
        <path id="Trazado_107414" data-name="Trazado 107414" d="M292,103.84s4.859,5.965,15.693,6.512" transform="translate(-3.19 -61.233)" fill="none" stroke="#263238" stroke-linecap="round" stroke-linejoin="round" stroke-width="4"/>
        <path id="Trazado_107415" data-name="Trazado 107415" d="M345.292,119.5c.8-14.347-1.623-31.137-14.08-41.147s-29.242-13.266-47.078-4.289c0,0-1.312.79-3.365,2.345a32.8,32.8,0,0,0,22.6,12.554c16.775,1.9,22.2-1.421,27.1,2.174s6.22,13.266,2.7,16.5-11.9,2.988-12.452,7.86,7.86,16.523,6.779,20.3-3.255,6.245-1.623,7.86,6.233-.535,7.289-1.082.51,6.075-2.648,13.655C337.565,144.91,344.721,129.5,345.292,119.5Z" transform="translate(-5.603 -68.76)" fill="#344154" stroke="#263238" stroke-linecap="round" stroke-linejoin="round" stroke-width="1"/>
        <path id="Trazado_107416" data-name="Trazado 107416" d="M315.751,136.579s6.779-8.93,11.639-8.93,7.289,7.849,4.617,15.161-7.576,11.1-13.545,11.639-6.487-2.43-5.94-4.276" transform="translate(1.185 -56.117)" fill="#ffbf9d" stroke="#263238" stroke-linecap="round" stroke-linejoin="round" stroke-width="1"/>
        <path id="Trazado_107417" data-name="Trazado 107417" d="M315.036,269.88s7.568,19.22,12.987,25.682S348,312.57,360.241,320.734s14.578,26.265,12.72,33.032-7.568,12.148-20.3,8.658-23.022-18.685-33.579-34.393-17.591-27.346-18.4-28.16S315.036,269.88,315.036,269.88Z" transform="translate(-1.331 -25.556)" fill="#ffbf9d"/>
        <g id="Grupo_57914" data-name="Grupo 57914" transform="translate(299.313 244.324)" clip-path="url(#clip-path-4)">
          <path id="Trazado_107418" data-name="Trazado 107418" d="M372.96,353.836c1.895-6.767-.535-24.9-12.72-33.021s-26.812-18.7-32.219-25.184-12.987-25.682-12.987-25.682-15.174,29.221-14.359,29.959,7.849,12.452,18.4,28.16l.377.558,7.289-11.176s39.435,30.367,40.444,37.418a28.406,28.406,0,0,1,0,6.889,12.951,12.951,0,0,0,5.771-7.921Z" transform="translate(-300.645 -269.865)" opacity="0.15"/>
        </g>
        <path id="Trazado_107420" data-name="Trazado 107420" d="M315.036,269.88s7.568,19.22,12.987,25.682S348,312.57,360.241,320.734s14.578,26.265,12.72,33.032-7.568,12.148-20.3,8.658-23.022-18.685-33.579-34.393-17.591-27.346-18.4-28.16S315.036,269.88,315.036,269.88Z" transform="translate(-1.331 -25.556)" fill="none" stroke="#263238" stroke-linecap="round" stroke-linejoin="round" stroke-width="1"/>
        <path id="Trazado_107421" data-name="Trazado 107421" d="M326.661,450.871s7.058,2.588,21.661-3.1c20.823-8.067,54.013-35.413,54.013-35.413a136.657,136.657,0,0,1-48.5,0c-26.84-4.859-41.305-12.039-41.305-12.039l-28.222,40.26Z" transform="translate(-4.842 2.471)" fill="#fff"/>
        <g id="Grupo_57916" data-name="Grupo 57916" transform="translate(279.468 402.792)" clip-path="url(#clip-path-5)">
          <g id="Grupo_57915" data-name="Grupo 57915" transform="translate(0 0)">
            <path id="Trazado_107422" data-name="Trazado 107422" d="M326.661,450.871s7.058,2.588,21.661-3.1c20.823-8.067,54.013-35.413,54.013-35.413a136.657,136.657,0,0,1-48.5,0c-26.84-4.859-41.305-12.039-41.305-12.039l-28.222,40.26Z" transform="translate(-284.31 -400.321)" fill="#d9a171"/>
            <path id="Trazado_107423" data-name="Trazado 107423" d="M326.661,450.871s7.058,2.588,21.661-3.1c20.823-8.067,54.013-35.413,54.013-35.413a136.657,136.657,0,0,1-48.5,0c-26.84-4.859-41.305-12.039-41.305-12.039l-28.222,40.26Z" transform="translate(-284.31 -400.321)" fill="#fff" opacity="0.5"/>
          </g>
        </g>
        <path id="Trazado_107425" data-name="Trazado 107425" d="M326.661,450.871s7.058,2.588,21.661-3.1c20.823-8.067,54.013-35.413,54.013-35.413a136.657,136.657,0,0,1-48.5,0c-26.84-4.859-41.305-12.039-41.305-12.039l-28.222,40.26Z" transform="translate(-4.842 2.471)" fill="none" stroke="#263238" stroke-linecap="round" stroke-linejoin="round" stroke-width="1"/>
        <line id="Línea_303" data-name="Línea 303" x2="54.317" y2="9.111" transform="translate(283.672 438.909)" fill="none" stroke="#263238" stroke-linecap="round" stroke-linejoin="round" stroke-width="1"/>
        <line id="Línea_304" data-name="Línea 304" x1="53.916" y1="9.913" transform="translate(291.605 433.357)" fill="none" stroke="#263238" stroke-linecap="round" stroke-linejoin="round" stroke-width="1"/>
        <line id="Línea_305" data-name="Línea 305" x1="46.384" y1="8.334" transform="translate(304.689 430.174)" fill="none" stroke="#263238" stroke-linecap="round" stroke-linejoin="round" stroke-width="1"/>
        <line id="Línea_306" data-name="Línea 306" x1="44.015" y1="8.31" transform="translate(314.991 424.246)" fill="none" stroke="#263238" stroke-linecap="round" stroke-linejoin="round" stroke-width="1"/>
        <line id="Línea_307" data-name="Línea 307" x1="41.646" y1="7.131" transform="translate(320.143 420.274)" fill="none" stroke="#263238" stroke-linecap="round" stroke-linejoin="round" stroke-width="1"/>
        <path id="Trazado_107426" data-name="Trazado 107426" d="M348.774,383.081s11.262-1.823,5.078,15.043-26.407,31.733-28.817,43.735.34,12.72.34,12.72l-35.086-7.556s2.758-26.144,22.013-46.092S348.774,383.081,348.774,383.081Z" transform="translate(-3.557 -1.246)" fill="#fff"/>
        <g id="Grupo_57917" data-name="Grupo 57917" transform="translate(286.732 381.771)" clip-path="url(#clip-path-6)">
          <path id="Trazado_107427" data-name="Trazado 107427" d="M348.774,383.081s11.262-1.823,5.078,15.043-26.407,31.733-28.817,43.735.34,12.72.34,12.72l-35.086-7.556s2.758-26.144,22.013-46.092S348.774,383.081,348.774,383.081Z" transform="translate(-290.289 -383.017)" opacity="0.15"/>
        </g>
        <path id="Trazado_107429" data-name="Trazado 107429" d="M348.774,383.081s11.262-1.823,5.078,15.043-26.407,31.733-28.817,43.735.34,12.72.34,12.72l-35.086-7.556s2.758-26.144,22.013-46.092S348.774,383.081,348.774,383.081Z" transform="translate(-3.557 -1.246)" fill="none" stroke="#263238" stroke-linecap="round" stroke-linejoin="round" stroke-width="1"/>
        <path id="Trazado_107430" data-name="Trazado 107430" d="M294.621,467.627s5.856-1.421,11.7-9.986,18.916-35.778,29.594-50.223,27.176-22.694,27.176-22.694l-83.607-9.293s-34.016,38.183-45.74,51.607-13.072,25.792-4.859,28.878,34.393,6.2,41.305,7.289S288.778,468.634,294.621,467.627Z" transform="translate(-17.874 -2.877)" fill="#fff"/>
        <g id="Grupo_57919" data-name="Grupo 57919" transform="translate(205.781 372.554)" clip-path="url(#clip-path-7)">
          <g id="Grupo_57918" data-name="Grupo 57918" transform="translate(0 0)">
            <path id="Trazado_107431" data-name="Trazado 107431" d="M294.621,467.627s5.856-1.421,11.7-9.986,18.916-35.778,29.594-50.223,27.176-22.694,27.176-22.694l-83.607-9.293s-34.016,38.183-45.74,51.607-13.072,25.792-4.859,28.878,34.393,6.2,41.305,7.289S288.778,468.634,294.621,467.627Z" transform="translate(-223.656 -375.431)" fill="#d9a171"/>
            <path id="Trazado_107432" data-name="Trazado 107432" d="M294.621,467.627s5.856-1.421,11.7-9.986,18.916-35.778,29.594-50.223,27.176-22.694,27.176-22.694l-83.607-9.293s-34.016,38.183-45.74,51.607-13.072,25.792-4.859,28.878,34.393,6.2,41.305,7.289S288.778,468.634,294.621,467.627Z" transform="translate(-223.656 -375.431)" fill="#fff" opacity="0.5"/>
          </g>
        </g>
        <path id="Trazado_107434" data-name="Trazado 107434" d="M294.621,467.627s5.856-1.421,11.7-9.986,18.916-35.778,29.594-50.223,27.176-22.694,27.176-22.694l-83.607-9.293s-34.016,38.183-45.74,51.607-13.072,25.792-4.859,28.878,34.393,6.2,41.305,7.289S288.778,468.634,294.621,467.627Z" transform="translate(-17.874 -2.877)" fill="none" stroke="#263238" stroke-linecap="round" stroke-linejoin="round" stroke-width="1"/>
        <line id="Línea_308" data-name="Línea 308" x1="75.151" y1="15.975" transform="translate(206.783 436.941)" fill="none" stroke="#263238" stroke-linecap="round" stroke-linejoin="round" stroke-width="1"/>
        <line id="Línea_309" data-name="Línea 309" x1="75.164" y1="15.988" transform="translate(211.497 427.465)" fill="none" stroke="#263238" stroke-linecap="round" stroke-linejoin="round" stroke-width="1"/>
        <line id="Línea_310" data-name="Línea 310" x1="75.164" y1="15.975" transform="translate(217.425 416.824)" fill="none" stroke="#263238" stroke-linecap="round" stroke-linejoin="round" stroke-width="1"/>
        <line id="Línea_311" data-name="Línea 311" x1="75.164" y1="15.975" transform="translate(223.937 403.8)" fill="none" stroke="#263238" stroke-linecap="round" stroke-linejoin="round" stroke-width="1"/>
        <line id="Línea_312" data-name="Línea 312" x1="75.151" y1="15.975" transform="translate(231.044 390.776)" fill="none" stroke="#263238" stroke-linecap="round" stroke-linejoin="round" stroke-width="1"/>
        <line id="Línea_313" data-name="Línea 313" x1="75.164" y1="15.975" transform="translate(236.948 380.134)" fill="none" stroke="#263238" stroke-linecap="round" stroke-linejoin="round" stroke-width="1"/>
        <line id="Línea_314" data-name="Línea 314" x1="75.164" y1="15.975" transform="translate(245.841 371.848)" fill="none" stroke="#263238" stroke-linecap="round" stroke-linejoin="round" stroke-width="1"/>
        <path id="Trazado_107435" data-name="Trazado 107435" d="M326.953,373.909s6.877,0,3.1,11.007-26.144,39.945-33.372,59.524,5.151,26.484,5.151,26.484-2.746,4.131-42.994-4.459-66.028-9.646-68.47-16.523,13.364-25.451,19.255-40.237,20.653-49.53,20.653-49.53,58.5,11.408,70.864,12.38S326.953,373.909,326.953,373.909Z" transform="translate(-25.082 -6.155)" fill="#fff"/>
        <g id="Grupo_57920" data-name="Grupo 57920" transform="translate(165.029 354.019)" clip-path="url(#clip-path-8)">
          <path id="Trazado_107436" data-name="Trazado 107436" d="M324.961,373.923s-13.42-.353-25.8-1.434S228.3,360.11,228.3,360.11s-14.785,34.733-20.653,49.53a111.112,111.112,0,0,1-8.261,15.693l94.156,22.694a26.731,26.731,0,0,1,1.215-3.645c7.216-19.6,29.57-48.5,33.36-59.524S324.961,373.923,324.961,373.923Z" transform="translate(-188.119 -360.189)" opacity="0.15"/>
        </g>
        <path id="Trazado_107438" data-name="Trazado 107438" d="M326.953,373.909s6.877,0,3.1,11.007-26.144,39.945-33.372,59.524,5.151,26.484,5.151,26.484-2.746,4.131-42.994-4.459-66.028-9.646-68.47-16.523,13.364-25.451,19.255-40.237,20.653-49.53,20.653-49.53,58.5,11.408,70.864,12.38S326.953,373.909,326.953,373.909Z" transform="translate(-25.082 -6.155)" fill="none" stroke="#263238" stroke-linecap="round" stroke-linejoin="round" stroke-width="1"/>
        <path id="Trazado_107439" data-name="Trazado 107439" d="M284.474,419.213s0,2.746,10.339-9.632,33.36-34.016,33.36-34.016L221.883,352.48s-30.275,31.271-34.016,36.081-6.548,6.184,3.438,10.667,59.918,9.986,70.462,12.732S284.474,419.213,284.474,419.213Z" transform="translate(-26.302 -7.808)" fill="#fff"/>
        <g id="Grupo_57922" data-name="Grupo 57922" transform="translate(158.135 344.672)" clip-path="url(#clip-path-9)">
          <g id="Grupo_57921" data-name="Grupo 57921" transform="translate(0)">
            <path id="Trazado_107440" data-name="Trazado 107440" d="M284.474,419.213s0,2.746,10.339-9.632,33.36-34.016,33.36-34.016L221.883,352.48s-30.275,31.271-34.016,36.081-6.548,6.184,3.438,10.667,59.918,9.986,70.462,12.732S284.474,419.213,284.474,419.213Z" transform="translate(-184.435 -352.48)" fill="#d9a171"/>
            <path id="Trazado_107441" data-name="Trazado 107441" d="M284.474,419.213s0,2.746,10.339-9.632,33.36-34.016,33.36-34.016L221.883,352.48s-30.275,31.271-34.016,36.081-6.548,6.184,3.438,10.667,59.918,9.986,70.462,12.732S284.474,419.213,284.474,419.213Z" transform="translate(-184.435 -352.48)" fill="#fff" opacity="0.5"/>
          </g>
        </g>
        <path id="Trazado_107443" data-name="Trazado 107443" d="M284.474,419.213s0,2.746,10.339-9.632,33.36-34.016,33.36-34.016L221.883,352.48s-30.275,31.271-34.016,36.081-6.548,6.184,3.438,10.667,59.918,9.986,70.462,12.732S284.474,419.213,284.474,419.213Z" transform="translate(-26.302 -7.808)" fill="none" stroke="#263238" stroke-linecap="round" stroke-linejoin="round" stroke-width="1"/>
        <path id="Trazado_107444" data-name="Trazado 107444" d="M287.929,400.356s-64.194-7.532-82.089-11.116" transform="translate(-21.703 0.09)" fill="none" stroke="#263238" stroke-linecap="round" stroke-linejoin="round" stroke-width="1"/>
        <path id="Trazado_107445" data-name="Trazado 107445" d="M287.54,391.161s-38.087-3.96-53.94-7.131" transform="translate(-15.738 -1.029)" fill="none" stroke="#263238" stroke-linecap="round" stroke-linejoin="round" stroke-width="1"/>
        <path id="Trazado_107446" data-name="Trazado 107446" d="M295.21,383.112s-46.785-8.321-58.69-11.492" transform="translate(-15.11 -3.696)" fill="none" stroke="#263238" stroke-linecap="round" stroke-linejoin="round" stroke-width="1"/>
        <line id="Línea_315" data-name="Línea 315" x1="55.921" y1="13.084" transform="translate(231.712 358.011)" fill="none" stroke="#263238" stroke-linecap="round" stroke-linejoin="round" stroke-width="1"/>
        <path id="Trazado_107447" data-name="Trazado 107447" d="M329.833,266.626s-2.369,7.751-5.807,33.55-8.5,55.373-15.476,77.387-20.3,54.013-21.32,58.132a8.5,8.5,0,0,0,1.7,7.216s-13.364-2.056-51.255-6.184-74.97-22.694-73.949-25.108,25.853-26.84,39.945-58.484S239.782,242,239.782,242s44.72,21,58.132,22.378S329.833,266.626,329.833,266.626Z" transform="translate(-30.756 -31.546)" fill="#fff"/>
        <g id="Grupo_57923" data-name="Grupo 57923" transform="translate(132.949 210.454)" clip-path="url(#clip-path-10)">
          <path id="Trazado_107448" data-name="Trazado 107448" d="M315.733,300.193c3.438-25.8,5.807-33.55,5.807-33.55s-18.551-.851-31.951-2.223-58.132-22.366-58.132-22.366S215.664,298.96,202.3,335.6l101.539,29.555A580.543,580.543,0,0,0,315.733,300.2Z" transform="translate(-155.412 -241.989)" opacity="0.15"/>
        </g>
        <path id="Trazado_107450" data-name="Trazado 107450" d="M329.833,266.626s-2.369,7.751-5.807,33.55-8.5,55.373-15.476,77.387-20.3,54.013-21.32,58.132a8.5,8.5,0,0,0,1.7,7.216s-13.364-2.056-51.255-6.184-74.97-22.694-73.949-25.108,25.853-26.84,39.945-58.484S239.782,242,239.782,242s44.72,21,58.132,22.378S329.833,266.626,329.833,266.626Z" transform="translate(-30.756 -31.546)" fill="none" stroke="#263238" stroke-linecap="round" stroke-linejoin="round" stroke-width="1"/>
        <path id="Trazado_107451" data-name="Trazado 107451" d="M312.95,249.7s6.767,1.616,8.658,12.148,1.623,36.822.814,40.091-23.289,6.22-33.032,7.359-4.6-2.43-.267-17.871,8.93-26.812,11.1-30.043S306.986,246.445,312.95,249.7Z" transform="translate(-4.945 -30.014)" fill="#ffbf9d" stroke="#263238" stroke-linecap="round" stroke-linejoin="round" stroke-width="1"/>
        <path id="Trazado_107452" data-name="Trazado 107452" d="M305.706,259.53s1.774,37.783,2.515,41.962-24.772,6.075-24.772,6.075l15.684-43.99" transform="translate(-5.026 -27.78)" opacity="0.15"/>
        <path id="Trazado_107453" data-name="Trazado 107453" d="M308.166,306.078s-9.2,6.5-12.452,8.128-20.616-5.357-21.115-7.86,2.988-1.895,7.848-1.421,13.266,1.9,16.79.535S308.98,302.883,308.166,306.078Z" transform="translate(-6.939 -18.213)" fill="#ffbf9d" stroke="#263238" stroke-linecap="round" stroke-linejoin="round" stroke-width="1"/>
        <path id="Trazado_107454" data-name="Trazado 107454" d="M319.759,296.392s-2.976,8.14-6.779,10.557-19.207,4.859-25.986,4.289-12.452-4.859-10.822-7.289-.279-1.082,8.93-2.43,20.58-2.174,25.439-3.8a27.288,27.288,0,0,1,9.219-1.325Z" transform="translate(-6.651 -19.863)" fill="#ffbf9d" stroke="#263238" stroke-linecap="round" stroke-linejoin="round" stroke-width="1"/>
        <path id="Trazado_107455" data-name="Trazado 107455" d="M320.984,283.24s-10.29,5.419-18.672,9.221a87.549,87.549,0,0,1-8.419,3.122,90.835,90.835,0,0,1-10.281.656c-5.94,0-9.464-.523-9.464,1.9,0,3.706,6.487,5.71,9.245,6.463,9.574,2.746,20.847-.607,30.493-2.2a20.238,20.238,0,0,0,6.075-1.84c5.005-2.43,5.94-8.4,5.127-11.918l-.325-.425" transform="translate(-7.025 -22.686)" fill="#ffbf9d" stroke="#263238" stroke-linecap="round" stroke-linejoin="round" stroke-width="1"/>
        <path id="Trazado_107456" data-name="Trazado 107456" d="M326.5,268.261s-6.233,17.6-13.266,39.265a396.641,396.641,0,0,0-11.117,43.325s-4.859-2.706-41.135-15.161-81.773-27.662-81.773-27.662,34.114-40.091,41.305-59.286,11.1-15.693,27.942-9.2,40.091,18.4,53.6,19.753S326.5,265.589,326.5,268.261Z" transform="translate(-27.424 -33.183)" fill="#fff"/>
        <g id="Grupo_57925" data-name="Grupo 57925" transform="translate(151.786 201.205)" clip-path="url(#clip-path-11)">
          <g id="Grupo_57924" data-name="Grupo 57924" transform="translate(0 0)">
            <path id="Trazado_107457" data-name="Trazado 107457" d="M326.5,268.261s-6.233,17.6-13.266,39.265a396.641,396.641,0,0,0-11.117,43.325s-4.859-2.706-41.135-15.161-81.773-27.662-81.773-27.662,34.114-40.091,41.305-59.286,11.1-15.693,27.942-9.2,40.091,18.4,53.6,19.753S326.5,265.589,326.5,268.261Z" transform="translate(-179.21 -234.387)" fill="#d9a171"/>
            <path id="Trazado_107458" data-name="Trazado 107458" d="M326.5,268.261s-6.233,17.6-13.266,39.265a396.641,396.641,0,0,0-11.117,43.325s-4.859-2.706-41.135-15.161-81.773-27.662-81.773-27.662,34.114-40.091,41.305-59.286,11.1-15.693,27.942-9.2,40.091,18.4,53.6,19.753S326.5,265.589,326.5,268.261Z" transform="translate(-179.21 -234.387)" fill="#fff" opacity="0.5"/>
          </g>
        </g>
        <path id="Trazado_107460" data-name="Trazado 107460" d="M326.5,268.261s-6.233,17.6-13.266,39.265a396.641,396.641,0,0,0-11.117,43.325s-4.859-2.706-41.135-15.161-81.773-27.662-81.773-27.662,34.114-40.091,41.305-59.286,11.1-15.693,27.942-9.2,40.091,18.4,53.6,19.753S326.5,265.589,326.5,268.261Z" transform="translate(-27.424 -33.183)" fill="none" stroke="#263238" stroke-linecap="round" stroke-linejoin="round" stroke-width="1"/>
        <line id="Línea_316" data-name="Línea 316" x1="90.8" y1="31.319" transform="translate(181.756 261.259)" fill="none" stroke="#263238" stroke-linecap="round" stroke-linejoin="round" stroke-width="1"/>
        <line id="Línea_317" data-name="Línea 317" x1="87.483" y1="30.166" transform="translate(188.888 251.747)" fill="none" stroke="#263238" stroke-linecap="round" stroke-linejoin="round" stroke-width="1"/>
        <line id="Línea_318" data-name="Línea 318" x1="84.858" y1="29.352" transform="translate(195.241 241.822)" fill="none" stroke="#263238" stroke-linecap="round" stroke-linejoin="round" stroke-width="1"/>
        <line id="Línea_319" data-name="Línea 319" x1="79.306" y1="26.97" transform="translate(203.964 231.118)" fill="none" stroke="#263238" stroke-linecap="round" stroke-linejoin="round" stroke-width="1"/>
        <line id="Línea_320" data-name="Línea 320" x1="73.767" y1="26.181" transform="translate(211.885 219.614)" fill="none" stroke="#263238" stroke-linecap="round" stroke-linejoin="round" stroke-width="1"/>
        <ellipse id="Elipse_4129" data-name="Elipse 4129" cx="3.571" cy="2.588" rx="3.571" ry="2.588" transform="translate(173.423 257.287)" fill="none" stroke="#263238" stroke-linecap="round" stroke-linejoin="round" stroke-width="1"/>
        <ellipse id="Elipse_4130" data-name="Elipse 4130" cx="3.571" cy="2.588" rx="3.571" ry="2.588" transform="translate(180.954 247.774)" fill="none" stroke="#263238" stroke-linecap="round" stroke-linejoin="round" stroke-width="1"/>
        <ellipse id="Elipse_4131" data-name="Elipse 4131" cx="3.571" cy="2.588" rx="3.571" ry="2.588" transform="translate(186.896 238.844)" fill="none" stroke="#263238" stroke-linecap="round" stroke-linejoin="round" stroke-width="1"/>
        <ellipse id="Elipse_4132" data-name="Elipse 4132" cx="3.571" cy="2.588" rx="3.571" ry="2.588" transform="translate(193.249 226.538)" fill="none" stroke="#263238" stroke-linecap="round" stroke-linejoin="round" stroke-width="1"/>
        <path id="Trazado_107461" data-name="Trazado 107461" d="M227.331,248.046c0-1.421-1.592-2.576-3.559-2.576s-3.571,1.154-3.571,2.576,1.6,2.576,3.571,2.576S227.331,249.455,227.331,248.046Z" transform="translate(-18.617 -30.801)" fill="none" stroke="#263238" stroke-linecap="round" stroke-linejoin="round" stroke-width="1"/>
        <path id="Trazado_107462" data-name="Trazado 107462" d="M312.9,258.78s-8.4,14.578-13.813,16.8-21.115-.279-19.973-3.8,8.93-4.6,14.08-11.408,9.719-15.693,14.578-14.347,8.4,7.022,8.674,8.93" transform="translate(-5.971 -30.711)" fill="#ffbf9d" stroke="#263238" stroke-linecap="round" stroke-linejoin="round" stroke-width="1"/>
        <path id="Trazado_107463" data-name="Trazado 107463" d="M203.454,181.177s1.623,27.6,1.623,28.68-44.683,47.671-54.961,58.5-10.557,19.754-8.14,26.532,10.849,16.523,18.418,17.591,15.975-6.487,23.556-23.289,34.66-67.413,37.662-72.819,9.993-10.282,9.993-10.282,7.289-3.788,10.545-9.209,9.476-16.242,16.242-21.406,9.986-6.5,7.047-8.117-12.452,1.883-15.161,3.778-8.658,6.779-8.658,6.779-5.152-7.593-5.419-14.08,1.349-15.793-2.43-13.873-10.1,15.9-18.174,23.35C208.046,180.363,203.454,177.108,203.454,181.177Z" transform="translate(-35.693 -51.379)" fill="#ffbf9d"/>
        <g id="Grupo_57926" data-name="Grupo 57926" transform="translate(105.031 98.323)" clip-path="url(#clip-path-12)">
          <path id="Trazado_107464" data-name="Trazado 107464" d="M264.709,167.363c-2.976-1.616-12.452,1.883-15.161,3.788s-8.658,6.767-8.658,6.767-5.151-7.576-5.419-14.08,1.36-15.793-2.43-13.873-10.108,15.891-18.139,23.35a20.033,20.033,0,0,1-7.289,4.568l-1.348,5.71s5.564,3.548,5.564,8.091,7.131,6.075,7.568,10.618-3.03,9.6-5.564,12.647-43.48,73.8-54.1,82.4c-4.437,3.584-10.265,3.912-15.563,3.086,3.741,5.637,9.877,11.311,15.551,12.148,7.576,1.082,15.975-6.5,23.556-23.289s34.66-67.413,37.662-72.819,9.974-10.29,9.974-10.29,7.289-3.788,10.557-9.209,9.4-16.279,16.158-21.406S267.7,168.979,264.709,167.363Z" transform="translate(-139.983 -149.7)" opacity="0.15"/>
        </g>
        <path id="Trazado_107466" data-name="Trazado 107466" d="M203.454,181.177s1.623,27.6,1.623,28.68-44.683,47.671-54.961,58.5-10.557,19.754-8.14,26.532,10.849,16.523,18.418,17.591,15.975-6.487,23.556-23.289,34.66-67.413,37.662-72.819,9.993-10.282,9.993-10.282,7.289-3.788,10.545-9.209,9.476-16.242,16.242-21.406,9.986-6.5,7.047-8.117-12.452,1.883-15.161,3.778-8.658,6.779-8.658,6.779-5.152-7.593-5.419-14.08,1.349-15.793-2.43-13.873-10.1,15.9-18.174,23.35C208.046,180.363,203.454,177.108,203.454,181.177Z" transform="translate(-35.693 -51.379)" fill="none" stroke="#263238" stroke-linecap="round" stroke-linejoin="round" stroke-width="1"/>
        <path id="Trazado_107467" data-name="Trazado 107467" d="M272.057,151.369l.121.216a3.11,3.11,0,0,1-1.215,4.252h0L219.5,184.374l-9.957,2.174,6.8-7.824,51.474-28.537a3.138,3.138,0,0,1,4.24,1.179Z" transform="translate(-20.907 -51.359)" fill="#d9a171" stroke="#263238" stroke-linecap="round" stroke-linejoin="round" stroke-width="1"/>
        <path id="Trazado_107468" data-name="Trazado 107468" d="M219.5,179.32l.365-.216-3.159-5.661-.377.195-6.791,7.836Z" transform="translate(-20.907 -46.278)" fill="#fff" stroke="#263238" stroke-linecap="round" stroke-linejoin="round" stroke-width="1"/>
        <path id="Trazado_107469" data-name="Trazado 107469" d="M256.289,158.805l5.309-2.964a3.122,3.122,0,0,0,1.215-4.24h0l-.121-.207a3.138,3.138,0,0,0-4.252-1.215h0l-5.308,2.964Z" transform="translate(-11.541 -51.36)" fill="#fff" stroke="#263238" stroke-linecap="round" stroke-linejoin="round" stroke-width="1"/>
        <rect id="Rectángulo_8393" data-name="Rectángulo 8393" width="3.255" height="6.5" transform="matrix(0.873, -0.487, 0.487, 0.873, 239.456, 102.975)" fill="#fff" stroke="#263238" stroke-linecap="round" stroke-linejoin="round" stroke-width="1"/>
        <path id="Trazado_107470" data-name="Trazado 107470" d="M209.54,180.7l4.689-1.032-1.495-2.66Z" transform="translate(-20.907 -45.511)" fill="#fff" stroke="#263238" stroke-linecap="round" stroke-linejoin="round" stroke-width="1"/>
        <path id="Trazado_107471" data-name="Trazado 107471" d="M203.445,181s-.814,6.512-5.965,6.767" transform="translate(-23.499 -44.653)" fill="none" stroke="#263238" stroke-linecap="round" stroke-linejoin="round" stroke-width="1"/>
        <path id="Trazado_107472" data-name="Trazado 107472" d="M214.41,155.385s9.476,15.161,12.732,18.15,7.289,2.43,8.117-.279-4.592-8.383-6.767-15.684-2.976-9.476-7.289-8.4S214.689,152.663,214.41,155.385Z" transform="translate(-19.86 -51.548)" fill="#ffbf9d" stroke="#263238" stroke-linecap="round" stroke-linejoin="round" stroke-width="1"/>
        <path id="Trazado_107473" data-name="Trazado 107473" d="M232.173,172.838s-17.009-8.658-20.847-13-8.117,1.349-8.93,4.276,12.452,8.4,18.672,10.557,9.986,2.988,11.9.814S232.173,172.838,232.173,172.838Z" transform="translate(-22.45 -49.539)" fill="#ffbf9d" stroke="#263238" stroke-linecap="round" stroke-linejoin="round" stroke-width="1"/>
        <path id="Trazado_107474" data-name="Trazado 107474" d="M204.518,165.12s-5.71,1.907-6.779,4.289,1.907,4.057,7.289,7.289,14.08,4.276,16.234,3.247,2.43-3.247-.547-4.289S206.959,166.748,204.518,165.12Z" transform="translate(-23.49 -48.066)" fill="#ffbf9d" stroke="#263238" stroke-linecap="round" stroke-linejoin="round" stroke-width="1"/>
        <path id="Trazado_107475" data-name="Trazado 107475" d="M200.825,172.066s-6.22-1.623-8.128,1.9.279,5.71,6.767,7.576,16.242,3.255,16.523-.279-5.152-4.057-9.719-5.94S200.825,172.066,200.825,172.066Z" transform="translate(-24.668 -46.654)" fill="#ffbf9d" stroke="#263238" stroke-linecap="round" stroke-linejoin="round" stroke-width="1"/>
      </g>
    </g>
    <g id="freepik--Plants--inject-143" transform="translate(182.143 5648.091)">
      <path id="Trazado_107476" data-name="Trazado 107476" d="M80.606,363.154s-2.874-9.362-11.225-12.718c-5.837-2.346-12.55-1.729-18.6-.674-11.225,1.953-21.093,6.432-31.79,10.271,0,0,4.558-1.7,23.27,7.431,6.892,3.368,14.784,5.972,22.664,5.781C71.211,373.123,80.909,371.315,80.606,363.154Z" transform="translate(-18.991 -272.543)" fill="#5e6178"/>
      <path id="Trazado_107477" data-name="Trazado 107477" d="M81.126,339.492s0-9.789-7.117-15.435c-4.917-3.951-11.528-5.265-17.624-6.017-11.36-1.325-22.058.067-33.4.64,0,0,4.849-.292,20.138,13.852,5.613,5.209,12.415,9.979,20.026,12.09C69.25,346.306,79.061,347.395,81.126,339.492Z" transform="translate(-18.501 -276.383)" fill="#5e6178"/>
      <path id="Trazado_107478" data-name="Trazado 107478" d="M92.833,375.858s-7.611-6.152-7.633-15.132c0-6.286,3.02-12.348,6.23-17.545,5.972-9.755,13.762-17.231,21.261-25.751,0,0-3.244,3.615-1.661,24.37.584,7.645.1,15.94-2.975,23.2C105.585,370.829,100.332,379.147,92.833,375.858Z" transform="translate(-10.878 -276.39)" fill="#5e6178"/>
      <path id="Trazado_107479" data-name="Trazado 107479" d="M116.128,385.87S115,376.126,121.393,369.7c4.49-4.49,10.844-6.589,16.838-8.015,11.124-2.638,21.912-2.481,33.25-3.21,0,0-4.849.269-18.455,16.075-5,5.826-11.225,11.349-18.455,14.335C128.723,391.269,119.092,393.47,116.128,385.87Z" transform="translate(-7.097 -271.36)" fill="#5e6178"/>
      <path id="Trazado_107480" data-name="Trazado 107480" d="M116.5,358.582s-9.7-1.313-14.368-9.081c-3.244-5.388-3.716-12.112-3.648-18.253.112-11.45,2.952-21.867,5.007-32.958,0,0-.92,4.76,11.1,21.766,4.412,6.275,8.262,13.628,9.362,21.429C124.883,347.659,124.6,357.538,116.5,358.582Z" transform="translate(-9.251 -278.735)" fill="#5e6178"/>
      <path id="Trazado_107481" data-name="Trazado 107481" d="M139.528,339.346s6.993,6.881,15.974,5.837c6.241-.707,11.865-4.49,16.692-8.239,8.98-7.061,15.513-15.716,23.1-24.123,0,0-3.21,3.637-24.011,4.49-7.667.314-15.817,1.762-22.7,5.669C143.131,326.111,135.386,332.307,139.528,339.346Z" transform="translate(-4.364 -276.955)" fill="#5e6178"/>
      <path id="Trazado_107482" data-name="Trazado 107482" d="M132.78,336.447s9.755.977,16.108-5.456c4.423-4.49,6.466-10.911,7.858-16.838,2.571-11.147,2.245-21.946,2.874-33.283,0,0-.224,4.849-15.9,18.567-5.77,5.063-11.225,11.3-14.133,18.634C127.325,323.931,125.147,333.584,132.78,336.447Z" transform="translate(-5.699 -280.87)" fill="#5e6178"/>
      <path id="Trazado_107483" data-name="Trazado 107483" d="M105.184,424.623l-16.827-41.4L68.96,335.37" transform="translate(-12.868 -274.192)" fill="none" stroke="#263238" stroke-linecap="round" stroke-linejoin="round" stroke-width="1"/>
      <path id="Trazado_107484" data-name="Trazado 107484" d="M104.68,418.707l16.82-57.575,18.1-35.562" transform="translate(-8.491 -275.392)" fill="none" stroke="#263238" stroke-linecap="round" stroke-linejoin="round" stroke-width="1"/>
      <line id="Línea_321" data-name="Línea 321" y1="9.699" x2="16.816" transform="translate(102.655 110.974)" fill="none" stroke="#263238" stroke-linecap="round" stroke-linejoin="round" stroke-width="1"/>
      <line id="Línea_322" data-name="Línea 322" x1="8.408" y1="18.758" transform="translate(104.597 66.993)" fill="none" stroke="#263238" stroke-linecap="round" stroke-linejoin="round" stroke-width="1"/>
      <line id="Línea_323" data-name="Línea 323" y1="9.149" x2="20.531" transform="translate(123.523 57.934)" fill="none" stroke="#263238" stroke-linecap="round" stroke-linejoin="round" stroke-width="1"/>
      <line id="Línea_324" data-name="Línea 324" y1="28.456" x2="7.117" transform="translate(78.723 88.333)" fill="none" stroke="#263238" stroke-linecap="round" stroke-linejoin="round" stroke-width="1"/>
      <line id="Línea_325" data-name="Línea 325" x1="16.434" y1="8.767" transform="translate(52.859 86.391)" fill="none" stroke="#263238" stroke-linecap="round" stroke-linejoin="round" stroke-width="1"/>
      <path id="Trazado_107485" data-name="Trazado 107485" d="M120.189,437.052H89.87l-6.5-34.282h43.319Z" transform="translate(-11.102 -265.932)" fill="#344154" stroke="#263238" stroke-linecap="round" stroke-linejoin="round" stroke-width="1"/>
    </g>
  </g>
</svg>
