<svg xmlns="http://www.w3.org/2000/svg" xmlns:xlink="http://www.w3.org/1999/xlink" width="505" height="600" viewBox="0 0 505 600">
  <defs>
    <clipPath id="clip-path">
      <rect id="Rectángulo_405295" data-name="Rectángulo 405295" width="505" height="600" fill="#412976" stroke="#707070" stroke-width="1" opacity="0.64"/>
    </clipPath>
    <filter id="Trazado_101894" x="332.963" y="492.333" width="110.342" height="110.341" filterUnits="userSpaceOnUse">
      <feOffset dy="3" input="SourceAlpha"/>
      <feGaussianBlur stdDeviation="3" result="blur"/>
      <feFlood flood-opacity="0.161"/>
      <feComposite operator="in" in2="blur"/>
      <feComposite in="SourceGraphic"/>
    </filter>
    <filter id="Trazado_101894-2" x="425.305" y="476.587" width="81.834" height="81.833" filterUnits="userSpaceOnUse">
      <feOffset dy="3" input="SourceAlpha"/>
      <feGaussianBlur stdDeviation="3" result="blur-2"/>
      <feFlood flood-opacity="0.161"/>
      <feComposite operator="in" in2="blur-2"/>
      <feComposite in="SourceGraphic"/>
    </filter>
  </defs>
  <g id="Enmascarar_grupo_1098756" data-name="Enmascarar grupo 1098756" clip-path="url(#clip-path)">
    <g id="Grupo_1178074" data-name="Grupo 1178074" transform="translate(0.051 2.549)">
      <rect id="Rectángulo_404795" data-name="Rectángulo 404795" width="327.071" height="544" rx="12" transform="translate(85)" fill="#fed6a8" opacity="0.42"/>
      <g id="Grupo_56943" data-name="Grupo 56943" transform="translate(0 11.927)">
        <g id="Grupo_56942" data-name="Grupo 56942">
          <g id="Grupo_56682" data-name="Grupo 56682" transform="translate(341.912 468.111)">
            <g id="Grupo_56681" data-name="Grupo 56681" transform="translate(0 15.746)">
              <g transform="matrix(1, 0, 0, 1, -341.96, -498.33)" filter="url(#Trazado_101894)">
                <path id="Trazado_101894-3" data-name="Trazado 101894" d="M958.038,5005.379a37.883,37.883,0,0,1,9.265-4.03l1.909-9.171,15.5-.271,2.229,9.1a37.964,37.964,0,0,1,9.4,3.7l7.833-5.137,11.149,10.771-4.854,8.006a37.822,37.822,0,0,1,4.027,9.268l9.172,1.91.272,15.5-9.1,2.231a38.1,38.1,0,0,1-3.7,9.4l5.132,7.83-10.765,11.154-8-4.856a38.006,38.006,0,0,1-9.269,4.026l-1.91,9.173-15.5.271-2.231-9.1a38.07,38.07,0,0,1-9.4-3.7l-7.832,5.132-11.153-10.763,4.857-8.008a37.879,37.879,0,0,1-4.028-9.27l-9.172-1.911-.272-15.5,9.1-2.229a37.989,37.989,0,0,1,3.7-9.4l-5.134-7.833,10.767-11.153,8.008,4.857Zm8.261,20.645a16.626,16.626,0,1,0,23.509-.414A16.623,16.623,0,0,0,966.3,5026.023Z" transform="translate(-589.64 -4493.57)" fill="#fed6a8"/>
              </g>
            </g>
            <g id="Grupo_1178077" data-name="Grupo 1178077" transform="translate(92.342)">
              <g transform="matrix(1, 0, 0, 1, -434.31, -482.59)" filter="url(#Trazado_101894-2)">
                <path id="Trazado_101894-4" data-name="Trazado 101894" d="M949.875,5001.22a26.164,26.164,0,0,1,6.4-2.786l1.319-6.34,10.713-.187,1.541,6.29a26.247,26.247,0,0,1,6.5,2.557l5.414-3.551,7.707,7.445-3.355,5.534a26.147,26.147,0,0,1,2.784,6.406l6.34,1.32.188,10.712-6.29,1.542a26.336,26.336,0,0,1-2.556,6.5l3.547,5.413-7.441,7.71-5.534-3.357a26.285,26.285,0,0,1-6.408,2.783l-1.32,6.341-10.712.187-1.542-6.29a26.32,26.32,0,0,1-6.5-2.557l-5.414,3.548-7.709-7.44,3.357-5.535a26.2,26.2,0,0,1-2.785-6.408l-6.34-1.321-.188-10.711,6.29-1.541a26.264,26.264,0,0,1,2.557-6.5l-3.549-5.415,7.443-7.71,5.536,3.358Zm5.711,14.271a11.493,11.493,0,1,0,16.251-.286A11.491,11.491,0,0,0,955.586,5015.49Z" transform="translate(-497.29 -4509.32)" fill="#feead4"/>
              </g>
            </g>
          </g>
          <g id="Grupo_1176888" data-name="Grupo 1176888" transform="translate(186.091)">
            <rect id="Rectángulo_5293" data-name="Rectángulo 5293" width="292.994" height="412.511" transform="translate(25.915 21.843)" fill="#344154" opacity="0.15"/>
            <g id="Grupo_56703" data-name="Grupo 56703" transform="translate(0)">
              <g id="Grupo_56699" data-name="Grupo 56699">
                <g id="Grupo_56685" data-name="Grupo 56685">
                  <rect id="Rectángulo_5298" data-name="Rectángulo 5298" width="295.04" height="416.3" transform="translate(0.342 0.343)" fill="#fff"/>
                  <g id="Grupo_56684" data-name="Grupo 56684">
                    <path id="Trazado_101896" data-name="Trazado 101896" d="M1119.235,5138.091c0-2.77-.127-170.367-.311-416.3l.311.311-295.006.03h-.034l.344-.34c-.024,156-.047,300.258-.065,416.3l-.279-.279c179.206.168,292.758.276,295.04.279l-295.04.277h-.277v-.277c-.018-116.041-.04-260.3-.065-416.3v-.345h.376c105.576.014,205.785.022,295.006.031h.312v.314C1119.363,4967.726,1119.238,5135.324,1119.235,5138.091Z" transform="translate(-823.853 -4721.446)" fill="#1a2e35"/>
                  </g>
                </g>
                <rect id="Rectángulo_5299" data-name="Rectángulo 5299" width="125.95" height="28.878" rx="6.688" transform="translate(20.217 276.742)" fill="#f5f5f5"/>
                <rect id="Rectángulo_5300" data-name="Rectángulo 5300" width="59.141" height="28.878" rx="6.688" transform="translate(81.947 276.742)" fill="#f5f5f5"/>
                <rect id="Rectángulo_5301" data-name="Rectángulo 5301" width="259.705" height="28.877" rx="6.688" transform="translate(19.622 335.934)" fill="#f5f5f5"/>
                <g id="Grupo_56686" data-name="Grupo 56686" transform="translate(23.67 264.78)">
                  <path id="Trazado_101897" data-name="Trazado 101897" d="M892.764,4884.378c0,.191-12.175.343-27.186.343s-27.19-.152-27.19-.343,12.171-.341,27.19-.341S892.764,4884.19,892.764,4884.378Z" transform="translate(-838.388 -4884.037)" fill="#1a2e35"/>
                </g>
                <g id="Grupo_56687" data-name="Grupo 56687" transform="translate(24.354 323.673)">
                  <path id="Trazado_101898" data-name="Trazado 101898" d="M927.006,4920.543c0,.188-19.746.343-44.1.343s-44.1-.155-44.1-.343,19.741-.342,44.1-.342S927.006,4920.354,927.006,4920.543Z" transform="translate(-838.808 -4920.201)" fill="#1a2e35"/>
                </g>
                <rect id="Rectángulo_5302" data-name="Rectángulo 5302" width="126.941" height="31.568" rx="6.508" transform="translate(14.985 211.182)" fill="#e1e1e1"/>
                <rect id="Rectángulo_5303" data-name="Rectángulo 5303" width="264.342" height="31.568" rx="6.508" transform="translate(14.985 19.247)" fill="#e1e1e1"/>
                <g id="Grupo_56688" data-name="Grupo 56688" transform="translate(98.699 34.689)">
                  <path id="Trazado_101899" data-name="Trazado 101899" d="M989.221,4743.09c0,.188-23.453.341-52.378.341s-52.384-.153-52.384-.341,23.449-.343,52.384-.343S989.221,4742.9,989.221,4743.09Z" transform="translate(-884.46 -4742.747)" fill="#1a2e35"/>
                </g>
                <g id="Grupo_56689" data-name="Grupo 56689" transform="translate(0.078 58.117)">
                  <path id="Trazado_101900" data-name="Trazado 101900" d="M1119.2,4757.476c0,.19-66.111.345-147.645.345-81.562,0-147.659-.154-147.659-.345s66.1-.342,147.659-.342C1053.093,4757.134,1119.2,4757.287,1119.2,4757.476Z" transform="translate(-823.901 -4757.134)" fill="#ececec"/>
                </g>
                <g id="Grupo_56690" data-name="Grupo 56690" transform="translate(0.078 197.767)">
                  <path id="Trazado_101901" data-name="Trazado 101901" d="M1119.2,4843.229c0,.188-66.111.343-147.645.343-81.562,0-147.659-.154-147.659-.343s66.1-.342,147.659-.342C1053.093,4842.887,1119.2,4843.039,1119.2,4843.229Z" transform="translate(-823.901 -4842.887)" fill="#ececec"/>
                </g>
                <rect id="Rectángulo_5304" data-name="Rectángulo 5304" width="125.95" height="28.878" rx="6.688" transform="translate(20.217 90.107)" fill="#f5f5f5"/>
                <rect id="Rectángulo_5305" data-name="Rectángulo 5305" width="59.141" height="28.878" rx="6.688" transform="translate(81.947 90.107)" fill="#f5f5f5"/>
                <rect id="Rectángulo_5306" data-name="Rectángulo 5306" width="124.714" height="28.877" rx="6.688" transform="translate(17.212 149.3)" fill="#f5f5f5"/>
                <g id="Grupo_56691" data-name="Grupo 56691" transform="translate(23.67 78.146)">
                  <path id="Trazado_101902" data-name="Trazado 101902" d="M892.764,4769.774c0,.188-12.175.346-27.186.346s-27.19-.157-27.19-.346,12.171-.341,27.19-.341S892.764,4769.585,892.764,4769.774Z" transform="translate(-838.388 -4769.433)" fill="#1a2e35"/>
                </g>
                <g id="Grupo_56692" data-name="Grupo 56692" transform="translate(163.859 78.146)">
                  <path id="Trazado_101903" data-name="Trazado 101903" d="M967.287,4769.774c0,.188-9.585.346-21.405.346s-21.41-.157-21.41-.346,9.584-.341,21.41-.341S967.287,4769.585,967.287,4769.774Z" transform="translate(-924.472 -4769.433)" fill="#1a2e35"/>
                </g>
                <g id="Grupo_56693" data-name="Grupo 56693" transform="translate(24.354 137.038)">
                  <path id="Trazado_101904" data-name="Trazado 101904" d="M927.006,4805.939c0,.188-19.746.341-44.1.341s-44.1-.152-44.1-.341,19.741-.343,44.1-.343S927.006,4805.75,927.006,4805.939Z" transform="translate(-838.808 -4805.596)" fill="#1a2e35"/>
                </g>
                <g id="Grupo_56694" data-name="Grupo 56694" transform="translate(184.186 382.019)">
                  <path id="Trazado_101905" data-name="Trazado 101905" d="M1022.983,4956.371c0,.19-19.259.343-43.012.343s-43.017-.153-43.017-.343,19.255-.343,43.017-.343S1022.983,4956.184,1022.983,4956.371Z" transform="translate(-936.954 -4956.028)" fill="#1a2e35"/>
                </g>
                <g id="Grupo_56695" data-name="Grupo 56695" transform="translate(153.584 87.679)">
                  <path id="Trazado_101906" data-name="Trazado 101906" d="M927.626,4792.967a2.482,2.482,0,0,0-.617-1.771,5.577,5.577,0,0,0-2.094-1.211,25.145,25.145,0,0,1-2.549-1.106,8.267,8.267,0,0,1-1.837-1.259,5.072,5.072,0,0,1-1.194-1.676,5.631,5.631,0,0,1-.427-2.291,5.076,5.076,0,0,1,1.464-3.754,6.166,6.166,0,0,1,3.892-1.71v-2.9h2.169v2.943a5.658,5.658,0,0,1,3.755,2,6.59,6.59,0,0,1,1.355,4.3h-3.918a3.732,3.732,0,0,0-.671-2.432,2.211,2.211,0,0,0-1.8-.807,2.286,2.286,0,0,0-1.722.628,2.4,2.4,0,0,0-.611,1.743,2.3,2.3,0,0,0,.6,1.655,6.589,6.589,0,0,0,2.218,1.273,24.57,24.57,0,0,1,2.663,1.228,7.649,7.649,0,0,1,1.764,1.3,5.012,5.012,0,0,1,1.1,1.655,5.706,5.706,0,0,1,.379,2.163,5.059,5.059,0,0,1-1.437,3.74,6.294,6.294,0,0,1-3.958,1.694v2.7h-2.156v-2.683a6.526,6.526,0,0,1-4.3-1.974,6.356,6.356,0,0,1-1.526-4.453h3.918a3.607,3.607,0,0,0,.767,2.475,2.794,2.794,0,0,0,2.2.861,2.691,2.691,0,0,0,1.886-.631A2.193,2.193,0,0,0,927.626,4792.967Z" transform="translate(-918.163 -4775.286)" fill="#aed3f2"/>
                  <path id="Trazado_101907" data-name="Trazado 101907" d="M941.411,4796.959h-3.918v-15.1l-4.678,1.45v-3.185l8.174-2.928h.422Z" transform="translate(-908.954 -4774.089)" fill="#aed3f2"/>
                  <path id="Trazado_101908" data-name="Trazado 101908" d="M955.339,4788.893a9.994,9.994,0,0,1-1.7,6.261,6.77,6.77,0,0,1-9.9.041,9.717,9.717,0,0,1-1.749-6.1v-3.631q0-4.136,1.715-6.276a6.785,6.785,0,0,1,9.876-.021,9.677,9.677,0,0,1,1.75,6.093Zm-3.919-4a7.212,7.212,0,0,0-.671-3.575,2.269,2.269,0,0,0-2.094-1.122,2.231,2.231,0,0,0-2.04,1.066,6.774,6.774,0,0,0-.7,3.333v4.8a7.576,7.576,0,0,0,.658,3.587,2.235,2.235,0,0,0,2.107,1.175,2.2,2.2,0,0,0,2.075-1.125,7.39,7.39,0,0,0,.664-3.445Z" transform="translate(-903.182 -4774.183)" fill="#aed3f2"/>
                  <path id="Trazado_101909" data-name="Trazado 101909" d="M965.121,4788.893a9.99,9.99,0,0,1-1.7,6.261,6.77,6.77,0,0,1-9.9.041,9.708,9.708,0,0,1-1.749-6.1v-3.631q0-4.136,1.715-6.276a6.785,6.785,0,0,1,9.877-.021,9.677,9.677,0,0,1,1.749,6.093Zm-3.918-4a7.208,7.208,0,0,0-.671-3.575,2.269,2.269,0,0,0-2.094-1.122,2.232,2.232,0,0,0-2.041,1.066,6.78,6.78,0,0,0-.7,3.333v4.8a7.576,7.576,0,0,0,.658,3.587,2.237,2.237,0,0,0,2.107,1.175,2.2,2.2,0,0,0,2.075-1.125,7.4,7.4,0,0,0,.664-3.445Z" transform="translate(-897.034 -4774.183)" fill="#aed3f2"/>
                  <path id="Trazado_101910" data-name="Trazado 101910" d="M961.82,4788.958a1.974,1.974,0,0,1,.63-1.518,2.456,2.456,0,0,1,3.172,0,1.973,1.973,0,0,1,.63,1.518,1.939,1.939,0,0,1-.624,1.5,2.486,2.486,0,0,1-3.185,0A1.944,1.944,0,0,1,961.82,4788.958Z" transform="translate(-890.724 -4768.015)" fill="#aed3f2"/>
                  <path id="Trazado_101911" data-name="Trazado 101911" d="M979.855,4788.893a10,10,0,0,1-1.694,6.261,6.771,6.771,0,0,1-9.9.041,9.707,9.707,0,0,1-1.749-6.1v-3.631q0-4.136,1.716-6.276a6.784,6.784,0,0,1,9.876-.021,9.659,9.659,0,0,1,1.749,6.093Zm-3.918-4a7.207,7.207,0,0,0-.671-3.575,2.266,2.266,0,0,0-2.094-1.122,2.232,2.232,0,0,0-2.041,1.066,6.774,6.774,0,0,0-.7,3.333v4.8a7.576,7.576,0,0,0,.658,3.587,2.239,2.239,0,0,0,2.109,1.175,2.195,2.195,0,0,0,2.073-1.125,7.389,7.389,0,0,0,.664-3.445Z" transform="translate(-887.773 -4774.183)" fill="#aed3f2"/>
                  <path id="Trazado_101912" data-name="Trazado 101912" d="M986.955,4777.085v3.227h-.379a6.641,6.641,0,0,0-4.278,1.383,5.607,5.607,0,0,0-1.946,3.728,5.337,5.337,0,0,1,3.974-1.6,5.028,5.028,0,0,1,4.094,1.845,7.393,7.393,0,0,1,1.518,4.854,7.276,7.276,0,0,1-.834,3.485,5.979,5.979,0,0,1-2.358,2.425,6.871,6.871,0,0,1-3.451.867,6.4,6.4,0,0,1-5.037-2.168,8.421,8.421,0,0,1-1.919-5.79v-1.409a12.67,12.67,0,0,1,1.213-5.674,8.9,8.9,0,0,1,3.485-3.811,10.2,10.2,0,0,1,5.267-1.361Zm-3.824,9.9a3.124,3.124,0,0,0-1.721.492,2.974,2.974,0,0,0-1.14,1.306v1.19a5.279,5.279,0,0,0,.774,3.064,2.493,2.493,0,0,0,2.17,1.1,2.465,2.465,0,0,0,2.04-1,4.665,4.665,0,0,0-.006-5.175A2.566,2.566,0,0,0,983.131,4786.984Z" transform="translate(-881.599 -4774.158)" fill="#aed3f2"/>
                  <path id="Trazado_101913" data-name="Trazado 101913" d="M999.419,4788.893a10,10,0,0,1-1.694,6.261,6.772,6.772,0,0,1-9.9.041,9.713,9.713,0,0,1-1.749-6.1v-3.631q0-4.136,1.716-6.276a6.784,6.784,0,0,1,9.876-.021,9.66,9.66,0,0,1,1.749,6.093Zm-3.918-4a7.21,7.21,0,0,0-.671-3.575,2.266,2.266,0,0,0-2.094-1.122,2.232,2.232,0,0,0-2.041,1.066,6.779,6.779,0,0,0-.7,3.333v4.8a7.57,7.57,0,0,0,.658,3.587,2.238,2.238,0,0,0,2.109,1.175,2.195,2.195,0,0,0,2.073-1.125,7.392,7.392,0,0,0,.664-3.445Z" transform="translate(-875.477 -4774.183)" fill="#aed3f2"/>
                </g>
                <g id="Grupo_56696" data-name="Grupo 56696" transform="translate(153.584 123.63)">
                  <path id="Trazado_101914" data-name="Trazado 101914" d="M927.626,4815.043a2.493,2.493,0,0,0-.617-1.773,5.6,5.6,0,0,0-2.094-1.211,24.209,24.209,0,0,1-2.549-1.1,8.186,8.186,0,0,1-1.837-1.259,5.076,5.076,0,0,1-1.194-1.677,5.63,5.63,0,0,1-.427-2.29,5.094,5.094,0,0,1,1.464-3.757,6.187,6.187,0,0,1,3.892-1.708v-2.9h2.169v2.94a5.682,5.682,0,0,1,3.755,2,6.6,6.6,0,0,1,1.355,4.307h-3.918a3.742,3.742,0,0,0-.671-2.434,2.212,2.212,0,0,0-1.8-.808,2.284,2.284,0,0,0-1.722.632,2.4,2.4,0,0,0-.611,1.743,2.287,2.287,0,0,0,.6,1.652,6.521,6.521,0,0,0,2.218,1.275,25,25,0,0,1,2.663,1.226,7.712,7.712,0,0,1,1.764,1.3,5.094,5.094,0,0,1,1.1,1.653,5.721,5.721,0,0,1,.379,2.165,5.056,5.056,0,0,1-1.437,3.74,6.3,6.3,0,0,1-3.958,1.694v2.7h-2.156v-2.685a6.512,6.512,0,0,1-4.3-1.97,6.356,6.356,0,0,1-1.526-4.454h3.918a3.6,3.6,0,0,0,.767,2.474,2.786,2.786,0,0,0,2.2.86,2.7,2.7,0,0,0,1.886-.63A2.188,2.188,0,0,0,927.626,4815.043Z" transform="translate(-918.163 -4797.363)" fill="#aed3f2"/>
                  <path id="Trazado_101915" data-name="Trazado 101915" d="M945.136,4804.639a4.59,4.59,0,0,1-.718,2.547,5.185,5.185,0,0,1-1.98,1.776,5.716,5.716,0,0,1,2.278,1.9,4.891,4.891,0,0,1,.84,2.854,5.169,5.169,0,0,1-1.79,4.156,8.533,8.533,0,0,1-9.749-.006,5.163,5.163,0,0,1-1.8-4.15,4.923,4.923,0,0,1,.84-2.86,5.62,5.62,0,0,1,2.263-1.9,5.122,5.122,0,0,1-1.972-1.776,4.622,4.622,0,0,1-.712-2.547,5.119,5.119,0,0,1,1.681-4.022,7.735,7.735,0,0,1,9.131-.013A5.1,5.1,0,0,1,945.136,4804.639Zm-3.511,8.8a2.853,2.853,0,0,0-.746-2.064,2.986,2.986,0,0,0-4,0,3.212,3.212,0,0,0-.013,4.1,3.055,3.055,0,0,0,4.032.027A2.825,2.825,0,0,0,941.626,4813.438Zm-.407-8.61a2.707,2.707,0,0,0-.611-1.852,2.479,2.479,0,0,0-3.43-.022,2.7,2.7,0,0,0-.611,1.874,2.83,2.83,0,0,0,.611,1.9,2.413,2.413,0,0,0,3.436,0A2.853,2.853,0,0,0,941.219,4804.828Z" transform="translate(-909.331 -4796.26)" fill="#aed3f2"/>
                  <path id="Trazado_101916" data-name="Trazado 101916" d="M955.339,4810.967a10,10,0,0,1-1.7,6.265,6.772,6.772,0,0,1-9.9.042,9.727,9.727,0,0,1-1.749-6.1v-3.634q0-4.134,1.715-6.277a6.785,6.785,0,0,1,9.876-.022,9.686,9.686,0,0,1,1.75,6.094Zm-3.919-4a7.225,7.225,0,0,0-.671-3.575,2.274,2.274,0,0,0-2.094-1.12,2.229,2.229,0,0,0-2.04,1.066,6.77,6.77,0,0,0-.7,3.332v4.8a7.584,7.584,0,0,0,.658,3.59,2.233,2.233,0,0,0,2.107,1.175,2.2,2.2,0,0,0,2.075-1.127,7.379,7.379,0,0,0,.664-3.446Z" transform="translate(-903.182 -4796.26)" fill="#aed3f2"/>
                  <path id="Trazado_101917" data-name="Trazado 101917" d="M965.121,4810.967a10,10,0,0,1-1.7,6.265,6.771,6.771,0,0,1-9.9.042,9.719,9.719,0,0,1-1.749-6.1v-3.634q0-4.134,1.715-6.277a6.785,6.785,0,0,1,9.877-.022,9.686,9.686,0,0,1,1.749,6.094Zm-3.918-4a7.22,7.22,0,0,0-.671-3.575,2.273,2.273,0,0,0-2.094-1.12,2.23,2.23,0,0,0-2.041,1.066,6.775,6.775,0,0,0-.7,3.332v4.8a7.584,7.584,0,0,0,.658,3.59,2.234,2.234,0,0,0,2.107,1.175,2.2,2.2,0,0,0,2.075-1.127,7.393,7.393,0,0,0,.664-3.446Z" transform="translate(-897.034 -4796.26)" fill="#aed3f2"/>
                  <path id="Trazado_101918" data-name="Trazado 101918" d="M961.82,4811.035a1.972,1.972,0,0,1,.63-1.518,2.454,2.454,0,0,1,3.172,0,1.971,1.971,0,0,1,.63,1.518,1.942,1.942,0,0,1-.624,1.5,2.486,2.486,0,0,1-3.185,0A1.947,1.947,0,0,1,961.82,4811.035Z" transform="translate(-890.724 -4790.088)" fill="#aed3f2"/>
                  <path id="Trazado_101919" data-name="Trazado 101919" d="M979.855,4810.967a10.009,10.009,0,0,1-1.694,6.265,6.773,6.773,0,0,1-9.9.042,9.718,9.718,0,0,1-1.749-6.1v-3.634q0-4.134,1.716-6.277a6.784,6.784,0,0,1,9.876-.022,9.668,9.668,0,0,1,1.749,6.094Zm-3.918-4a7.219,7.219,0,0,0-.671-3.575,2.27,2.27,0,0,0-2.094-1.12,2.23,2.23,0,0,0-2.041,1.066,6.769,6.769,0,0,0-.7,3.332v4.8a7.584,7.584,0,0,0,.658,3.59,2.236,2.236,0,0,0,2.109,1.175,2.2,2.2,0,0,0,2.073-1.127,7.379,7.379,0,0,0,.664-3.446Z" transform="translate(-887.773 -4796.26)" fill="#aed3f2"/>
                  <path id="Trazado_101920" data-name="Trazado 101920" d="M989.638,4810.967a10.01,10.01,0,0,1-1.694,6.265,6.774,6.774,0,0,1-9.9.042,9.724,9.724,0,0,1-1.749-6.1v-3.634q0-4.134,1.717-6.277a6.783,6.783,0,0,1,9.875-.022,9.666,9.666,0,0,1,1.749,6.094Zm-3.918-4a7.222,7.222,0,0,0-.671-3.575,2.27,2.27,0,0,0-2.094-1.12,2.23,2.23,0,0,0-2.041,1.066,6.774,6.774,0,0,0-.7,3.332v4.8a7.582,7.582,0,0,0,.658,3.59,2.236,2.236,0,0,0,2.109,1.175,2.2,2.2,0,0,0,2.073-1.127,7.389,7.389,0,0,0,.665-3.446Z" transform="translate(-881.625 -4796.26)" fill="#aed3f2"/>
                  <path id="Trazado_101921" data-name="Trazado 101921" d="M999.419,4810.967a10.01,10.01,0,0,1-1.694,6.265,6.774,6.774,0,0,1-9.9.042,9.724,9.724,0,0,1-1.749-6.1v-3.634q0-4.134,1.716-6.277a6.784,6.784,0,0,1,9.876-.022,9.669,9.669,0,0,1,1.749,6.094Zm-3.918-4a7.222,7.222,0,0,0-.671-3.575,2.271,2.271,0,0,0-2.094-1.12,2.23,2.23,0,0,0-2.041,1.066,6.775,6.775,0,0,0-.7,3.332v4.8a7.578,7.578,0,0,0,.658,3.59,2.236,2.236,0,0,0,2.109,1.175,2.2,2.2,0,0,0,2.073-1.127,7.382,7.382,0,0,0,.664-3.446Z" transform="translate(-875.477 -4796.26)" fill="#aed3f2"/>
                </g>
                <g id="Grupo_56697" data-name="Grupo 56697" transform="translate(153.584 155.251)">
                  <path id="Trazado_101922" data-name="Trazado 101922" d="M927.626,4834.46a2.475,2.475,0,0,0-.617-1.771,5.564,5.564,0,0,0-2.094-1.214,24.549,24.549,0,0,1-2.549-1.1,8.228,8.228,0,0,1-1.837-1.263,5.074,5.074,0,0,1-1.194-1.674,5.625,5.625,0,0,1-.427-2.29,5.084,5.084,0,0,1,1.464-3.756,6.189,6.189,0,0,1,3.892-1.708v-2.9h2.169v2.944a5.641,5.641,0,0,1,3.755,2,6.588,6.588,0,0,1,1.355,4.3h-3.918a3.741,3.741,0,0,0-.671-2.434,2.211,2.211,0,0,0-1.8-.809,2.287,2.287,0,0,0-1.722.63,2.4,2.4,0,0,0-.611,1.741,2.3,2.3,0,0,0,.6,1.658,6.623,6.623,0,0,0,2.218,1.273,24.376,24.376,0,0,1,2.663,1.229,7.566,7.566,0,0,1,1.764,1.3,5,5,0,0,1,1.1,1.654,5.687,5.687,0,0,1,.379,2.161,5.062,5.062,0,0,1-1.437,3.742,6.316,6.316,0,0,1-3.958,1.7v2.7h-2.156v-2.687a6.518,6.518,0,0,1-4.3-1.973,6.357,6.357,0,0,1-1.526-4.455h3.918a3.6,3.6,0,0,0,.767,2.476,2.79,2.79,0,0,0,2.2.86,2.69,2.69,0,0,0,1.886-.629A2.191,2.191,0,0,0,927.626,4834.46Z" transform="translate(-918.163 -4816.778)" fill="#344154"/>
                  <path id="Trazado_101923" data-name="Trazado 101923" d="M941.411,4838.455h-3.918v-15.1l-4.678,1.451v-3.186l8.174-2.929h.422Z" transform="translate(-908.954 -4815.58)" fill="#344154"/>
                  <path id="Trazado_101924" data-name="Trazado 101924" d="M955.339,4830.386a10,10,0,0,1-1.7,6.263,6.771,6.771,0,0,1-9.9.041,9.717,9.717,0,0,1-1.749-6.1v-3.634q0-4.131,1.715-6.276a6.787,6.787,0,0,1,9.876-.019,9.675,9.675,0,0,1,1.75,6.093Zm-3.919-4a7.222,7.222,0,0,0-.671-3.574,2.269,2.269,0,0,0-2.094-1.119,2.227,2.227,0,0,0-2.04,1.064,6.76,6.76,0,0,0-.7,3.331v4.8a7.588,7.588,0,0,0,.658,3.59,2.232,2.232,0,0,0,2.107,1.172,2.2,2.2,0,0,0,2.075-1.125,7.39,7.39,0,0,0,.664-3.446Z" transform="translate(-903.182 -4815.674)" fill="#344154"/>
                  <path id="Trazado_101925" data-name="Trazado 101925" d="M965.121,4830.386a9.991,9.991,0,0,1-1.7,6.263,6.77,6.77,0,0,1-9.9.041,9.709,9.709,0,0,1-1.749-6.1v-3.634q0-4.131,1.715-6.276a6.787,6.787,0,0,1,9.877-.019,9.675,9.675,0,0,1,1.749,6.093Zm-3.918-4a7.217,7.217,0,0,0-.671-3.574,2.269,2.269,0,0,0-2.094-1.119,2.228,2.228,0,0,0-2.041,1.064,6.765,6.765,0,0,0-.7,3.331v4.8a7.588,7.588,0,0,0,.658,3.59,2.234,2.234,0,0,0,2.107,1.172,2.2,2.2,0,0,0,2.075-1.125,7.4,7.4,0,0,0,.664-3.446Z" transform="translate(-897.034 -4815.674)" fill="#344154"/>
                  <path id="Trazado_101926" data-name="Trazado 101926" d="M961.82,4830.453a1.977,1.977,0,0,1,.63-1.52,2.454,2.454,0,0,1,3.172,0,1.976,1.976,0,0,1,.63,1.52,1.94,1.94,0,0,1-.624,1.5,2.486,2.486,0,0,1-3.185,0A1.945,1.945,0,0,1,961.82,4830.453Z" transform="translate(-890.724 -4809.505)" fill="#344154"/>
                  <path id="Trazado_101927" data-name="Trazado 101927" d="M979.855,4830.386a10,10,0,0,1-1.694,6.263,6.772,6.772,0,0,1-9.9.041,9.707,9.707,0,0,1-1.749-6.1v-3.634q0-4.131,1.716-6.276a6.786,6.786,0,0,1,9.876-.019,9.657,9.657,0,0,1,1.749,6.093Zm-3.918-4a7.216,7.216,0,0,0-.671-3.574,2.266,2.266,0,0,0-2.094-1.119,2.228,2.228,0,0,0-2.041,1.064,6.759,6.759,0,0,0-.7,3.331v4.8a7.588,7.588,0,0,0,.658,3.59,2.236,2.236,0,0,0,2.109,1.172,2.194,2.194,0,0,0,2.073-1.125,7.39,7.39,0,0,0,.664-3.446Z" transform="translate(-887.773 -4815.674)" fill="#344154"/>
                  <path id="Trazado_101928" data-name="Trazado 101928" d="M989.638,4830.386a10,10,0,0,1-1.694,6.263,6.772,6.772,0,0,1-9.9.041,9.713,9.713,0,0,1-1.749-6.1v-3.634q0-4.131,1.717-6.276a6.785,6.785,0,0,1,9.875-.019,9.655,9.655,0,0,1,1.749,6.093Zm-3.918-4a7.218,7.218,0,0,0-.671-3.574,2.266,2.266,0,0,0-2.094-1.119,2.228,2.228,0,0,0-2.041,1.064,6.764,6.764,0,0,0-.7,3.331v4.8a7.587,7.587,0,0,0,.658,3.59,2.236,2.236,0,0,0,2.109,1.172,2.195,2.195,0,0,0,2.073-1.125,7.4,7.4,0,0,0,.665-3.446Z" transform="translate(-881.625 -4815.674)" fill="#344154"/>
                  <path id="Trazado_101929" data-name="Trazado 101929" d="M999.419,4830.386a10,10,0,0,1-1.694,6.263,6.772,6.772,0,0,1-9.9.041,9.713,9.713,0,0,1-1.749-6.1v-3.634q0-4.131,1.716-6.276a6.786,6.786,0,0,1,9.876-.019,9.659,9.659,0,0,1,1.749,6.093Zm-3.918-4a7.219,7.219,0,0,0-.671-3.574,2.266,2.266,0,0,0-2.094-1.119,2.227,2.227,0,0,0-2.041,1.064,6.764,6.764,0,0,0-.7,3.331v4.8a7.582,7.582,0,0,0,.658,3.59,2.235,2.235,0,0,0,2.109,1.172,2.195,2.195,0,0,0,2.073-1.125,7.393,7.393,0,0,0,.664-3.446Z" transform="translate(-875.477 -4815.674)" fill="#344154"/>
                </g>
                <g id="Grupo_56698" data-name="Grupo 56698" transform="translate(153.584 185.011)">
                  <path id="Trazado_101930" data-name="Trazado 101930" d="M927.626,4852.733a2.469,2.469,0,0,0-.617-1.768,5.525,5.525,0,0,0-2.094-1.214,24.825,24.825,0,0,1-2.549-1.105,8.2,8.2,0,0,1-1.837-1.263,5.052,5.052,0,0,1-1.194-1.674,5.635,5.635,0,0,1-.427-2.29,5.1,5.1,0,0,1,1.464-3.758,6.186,6.186,0,0,1,3.892-1.707v-2.9h2.169V4838a5.656,5.656,0,0,1,3.755,2,6.6,6.6,0,0,1,1.355,4.307h-3.918a3.755,3.755,0,0,0-.671-2.437,2.219,2.219,0,0,0-1.8-.805,2.278,2.278,0,0,0-1.722.631,2.4,2.4,0,0,0-.611,1.744,2.283,2.283,0,0,0,.6,1.65,6.527,6.527,0,0,0,2.218,1.277,24.384,24.384,0,0,1,2.663,1.228,7.611,7.611,0,0,1,1.764,1.3,5.011,5.011,0,0,1,1.1,1.651,5.722,5.722,0,0,1,.379,2.166,5.064,5.064,0,0,1-1.437,3.741,6.3,6.3,0,0,1-3.958,1.693v2.7h-2.156v-2.685a6.515,6.515,0,0,1-4.3-1.974,6.345,6.345,0,0,1-1.526-4.451h3.918a3.6,3.6,0,0,0,.767,2.473,2.8,2.8,0,0,0,2.2.862,2.7,2.7,0,0,0,1.886-.63A2.2,2.2,0,0,0,927.626,4852.733Z" transform="translate(-918.163 -4835.055)" fill="#aed3f2"/>
                  <path id="Trazado_101931" data-name="Trazado 101931" d="M944.071,4849.287h2.237v3.16h-2.237v4.27h-3.918v-4.27h-8.094l-.176-2.468,8.229-13h3.959Zm-8.283,0h4.364v-6.969l-.258.45Z" transform="translate(-909.54 -4833.845)" fill="#aed3f2"/>
                  <path id="Trazado_101932" data-name="Trazado 101932" d="M955.339,4848.659a10,10,0,0,1-1.7,6.265,6.772,6.772,0,0,1-9.9.04,9.72,9.72,0,0,1-1.749-6.1v-3.634q0-4.132,1.715-6.275a6.787,6.787,0,0,1,9.876-.021,9.676,9.676,0,0,1,1.75,6.094Zm-3.919-4a7.222,7.222,0,0,0-.671-3.574,2.267,2.267,0,0,0-2.094-1.121,2.228,2.228,0,0,0-2.04,1.065,6.767,6.767,0,0,0-.7,3.334v4.8a7.573,7.573,0,0,0,.658,3.589,2.232,2.232,0,0,0,2.107,1.176,2.2,2.2,0,0,0,2.075-1.128,7.381,7.381,0,0,0,.664-3.446Z" transform="translate(-903.182 -4833.951)" fill="#aed3f2"/>
                  <path id="Trazado_101933" data-name="Trazado 101933" d="M965.434,4839.164l-7.633,17.552h-4.135l7.646-16.58H951.5v-3.16h13.937Z" transform="translate(-897.212 -4833.845)" fill="#aed3f2"/>
                  <path id="Trazado_101934" data-name="Trazado 101934" d="M961.82,4848.727a1.968,1.968,0,0,1,.63-1.518,2.446,2.446,0,0,1,3.172,0,1.967,1.967,0,0,1,.63,1.518,1.944,1.944,0,0,1-.624,1.5,2.489,2.489,0,0,1-3.185,0A1.949,1.949,0,0,1,961.82,4848.727Z" transform="translate(-890.724 -4827.781)" fill="#aed3f2"/>
                  <path id="Trazado_101935" data-name="Trazado 101935" d="M979.855,4848.659a10.008,10.008,0,0,1-1.694,6.265,6.773,6.773,0,0,1-9.9.04,9.71,9.71,0,0,1-1.749-6.1v-3.634q0-4.132,1.716-6.275a6.786,6.786,0,0,1,9.876-.021,9.658,9.658,0,0,1,1.749,6.094Zm-3.918-4a7.216,7.216,0,0,0-.671-3.574,2.264,2.264,0,0,0-2.094-1.121,2.229,2.229,0,0,0-2.041,1.065,6.766,6.766,0,0,0-.7,3.334v4.8a7.573,7.573,0,0,0,.658,3.589,2.235,2.235,0,0,0,2.109,1.176,2.2,2.2,0,0,0,2.073-1.128,7.381,7.381,0,0,0,.664-3.446Z" transform="translate(-887.773 -4833.951)" fill="#aed3f2"/>
                  <path id="Trazado_101936" data-name="Trazado 101936" d="M989.638,4848.659a10.008,10.008,0,0,1-1.694,6.265,6.774,6.774,0,0,1-9.9.04,9.716,9.716,0,0,1-1.749-6.1v-3.634q0-4.132,1.717-6.275a6.785,6.785,0,0,1,9.875-.021,9.656,9.656,0,0,1,1.749,6.094Zm-3.918-4a7.218,7.218,0,0,0-.671-3.574,2.264,2.264,0,0,0-2.094-1.121,2.228,2.228,0,0,0-2.041,1.065,6.771,6.771,0,0,0-.7,3.334v4.8a7.572,7.572,0,0,0,.658,3.589,2.235,2.235,0,0,0,2.109,1.176,2.2,2.2,0,0,0,2.073-1.128,7.392,7.392,0,0,0,.665-3.446Z" transform="translate(-881.625 -4833.951)" fill="#aed3f2"/>
                  <path id="Trazado_101937" data-name="Trazado 101937" d="M999.419,4848.659a10.008,10.008,0,0,1-1.694,6.265,6.774,6.774,0,0,1-9.9.04,9.716,9.716,0,0,1-1.749-6.1v-3.634q0-4.132,1.716-6.275a6.786,6.786,0,0,1,9.876-.021,9.66,9.66,0,0,1,1.749,6.094Zm-3.918-4a7.219,7.219,0,0,0-.671-3.574,2.264,2.264,0,0,0-2.094-1.121,2.228,2.228,0,0,0-2.041,1.065,6.772,6.772,0,0,0-.7,3.334v4.8a7.567,7.567,0,0,0,.658,3.589,2.235,2.235,0,0,0,2.109,1.176,2.2,2.2,0,0,0,2.073-1.128,7.384,7.384,0,0,0,.664-3.446Z" transform="translate(-875.477 -4833.951)" fill="#aed3f2"/>
                </g>
              </g>
              <g id="Grupo_56700" data-name="Grupo 56700" transform="translate(31.743 96.897)">
                <path id="Trazado_101938" data-name="Trazado 101938" d="M938.42,4791.632a15.147,15.147,0,0,1-2.039.51,24.122,24.122,0,0,1-15.2-2.177,8.7,8.7,0,0,1-2.337-1.769,5.562,5.562,0,0,1-1.406-2.807,4.156,4.156,0,0,1,.677-3.266,3.164,3.164,0,0,1,3.327-1.056,2.4,2.4,0,0,1,1.462,1.231,3.088,3.088,0,0,1,.247,1.923,6.921,6.921,0,0,1-1.821,3.379,16.53,16.53,0,0,1-6.605,4.51,15.931,15.931,0,0,1-8.528.776,9.56,9.56,0,0,1-4.171-1.834,4.959,4.959,0,0,1-2.028-4.22,4.619,4.619,0,0,1,.907-2.294,3.6,3.6,0,0,1,2.075-1.45,2.581,2.581,0,0,1,2.462.812,3.683,3.683,0,0,1,.883,2.434,4.985,4.985,0,0,1-.606,2.506,5.638,5.638,0,0,1-1.788,1.875,16.233,16.233,0,0,1-4.712,1.892c-3.2.908-6.691,1.886-10.244,1.088a9.661,9.661,0,0,1-4.713-2.557,6.767,6.767,0,0,1-2.043-5.035,4.457,4.457,0,0,1,1.426-3.2,3.263,3.263,0,0,1,3.474-.37,2.686,2.686,0,0,1,1.313,1.277,2.753,2.753,0,0,1,.156,1.817,5.17,5.17,0,0,1-2.055,2.713,26.651,26.651,0,0,1-11.849,4.5,12,12,0,0,1-6.17-.541,6.217,6.217,0,0,1-3.793-4.648,4.239,4.239,0,0,1,3.138-4.736,2.939,2.939,0,0,1,2.809,1.008,4.481,4.481,0,0,1,.987,2.736,5.459,5.459,0,0,1-.6,2.775,6.5,6.5,0,0,1-1.87,2.042,14.345,14.345,0,0,1-4.83,2.024c-3.227.858-6.628,1.459-9.637.349a8.274,8.274,0,0,1-3.661-2.667,5.942,5.942,0,0,1-1.3-4.057,5.691,5.691,0,0,1,1.759-3.578,3.883,3.883,0,0,1,3.513-1.052l.142.039,0,.14a10.183,10.183,0,0,1-2.581,7,10.664,10.664,0,0,1-4.612,3.145,8.79,8.79,0,0,1-3.457.443,10.175,10.175,0,0,1-1.182-.224,9.164,9.164,0,0,0,4.571-.41,10.6,10.6,0,0,0,4.454-3.148,9.894,9.894,0,0,0,2.423-6.785l.147.176a3.466,3.466,0,0,0-3.136.982,5.275,5.275,0,0,0-1.6,3.306c-.2,2.633,1.918,5.227,4.688,6.215,2.829,1.027,6.117.459,9.317-.415a13.9,13.9,0,0,0,4.63-1.951,6,6,0,0,0,1.69-1.854,4.854,4.854,0,0,0,.523-2.467,3.9,3.9,0,0,0-.848-2.365,2.323,2.323,0,0,0-2.227-.8,3.62,3.62,0,0,0-2.625,4.038,5.58,5.58,0,0,0,3.415,4.136,11.415,11.415,0,0,0,5.835.483,26.03,26.03,0,0,0,11.52-4.39,4.555,4.555,0,0,0,1.8-2.33,1.954,1.954,0,0,0-1.1-2.317,2.593,2.593,0,0,0-2.735.274,3.782,3.782,0,0,0-1.186,2.71,6.078,6.078,0,0,0,1.847,4.521,8.987,8.987,0,0,0,4.379,2.371c3.316.755,6.717-.161,9.9-1.07a15.71,15.71,0,0,0,4.524-1.794,5.035,5.035,0,0,0,1.585-1.646,4.348,4.348,0,0,0,.529-2.172,3.044,3.044,0,0,0-.708-2.008,1.934,1.934,0,0,0-1.849-.621,3.691,3.691,0,0,0-2.49,3.181,4.355,4.355,0,0,0,1.792,3.674,8.949,8.949,0,0,0,3.9,1.723,15.374,15.374,0,0,0,8.216-.719,15.962,15.962,0,0,0,6.408-4.332,6.4,6.4,0,0,0,1.715-3.107,2.172,2.172,0,0,0-1.353-2.605,2.7,2.7,0,0,0-2.822.877,3.724,3.724,0,0,0-.611,2.9,6.31,6.31,0,0,0,3.5,4.315,23.919,23.919,0,0,0,9.02,2.585,25.164,25.164,0,0,0,5.972-.211c.676-.111,1.192-.2,1.536-.282A3.063,3.063,0,0,1,938.42,4791.632Z" transform="translate(-843.345 -4780.947)" fill="#d9a171"/>
              </g>
              <g id="Grupo_56701" data-name="Grupo 56701" transform="translate(174.407 95.948)">
                <path id="Trazado_101939" data-name="Trazado 101939" d="M1012.143,4790.428a8.8,8.8,0,0,1-1.655.824,15.2,15.2,0,0,1-5.182,1.087,15.907,15.907,0,0,1-8.134-1.9,10.118,10.118,0,0,1-3.961-3.477,4.709,4.709,0,0,1-.71-2.862,3.988,3.988,0,0,1,1.527-2.712,2.57,2.57,0,0,1,1.6-.531,2.457,2.457,0,0,1,1.6.678,3.911,3.911,0,0,1,1.067,3.245,5.722,5.722,0,0,1-1.653,3.13,13.655,13.655,0,0,1-2.881,2.2,17.155,17.155,0,0,1-7.19,2.3,13.743,13.743,0,0,1-7.862-1.466,7.706,7.706,0,0,1-3.049-2.948,5.735,5.735,0,0,1-.7-2.1,5.078,5.078,0,0,1,.323-2.227,5.161,5.161,0,0,1,3.135-3.164,3.017,3.017,0,0,1,2.366.238,3.667,3.667,0,0,1,1.586,1.77,5.472,5.472,0,0,1-.174,4.611,9.558,9.558,0,0,1-3.135,3.448,17.2,17.2,0,0,1-8.835,3.054,17.543,17.543,0,0,1-9.141-1.964,13.8,13.8,0,0,1-3.718-2.77,6.3,6.3,0,0,1-1.845-4.227,4.173,4.173,0,0,1,2.536-3.755,2.568,2.568,0,0,1,2.363.283,3.457,3.457,0,0,1,1.306,1.921,4.969,4.969,0,0,1-.887,4.26,13.186,13.186,0,0,1-3.031,2.919,18.525,18.525,0,0,1-14.87,3.182,10.041,10.041,0,0,1-6.032-3.612,5.578,5.578,0,0,1-1.117-3.2,6.06,6.06,0,0,1,.793-3.148,4.007,4.007,0,0,1,2.432-1.938,3.447,3.447,0,0,1,2.878.643,5.286,5.286,0,0,1,1.943,4.824,6.5,6.5,0,0,1-2.326,3.941,8.778,8.778,0,0,1-3.438,1.745,16.94,16.94,0,0,1-5.29.33l-1.371-.12a2.146,2.146,0,0,1-.466-.072,3.192,3.192,0,0,1,.47,0l1.373.054a17.751,17.751,0,0,0,5.213-.451,8.508,8.508,0,0,0,3.3-1.734,6.178,6.178,0,0,0,2.158-3.745,4.894,4.894,0,0,0-1.824-4.423,3,3,0,0,0-2.508-.543,3.547,3.547,0,0,0-2.122,1.732,5.3,5.3,0,0,0,.336,5.8,9.533,9.533,0,0,0,5.727,3.366,17.986,17.986,0,0,0,14.371-3.136,12.69,12.69,0,0,0,2.875-2.779,4.311,4.311,0,0,0,.788-3.71,2.8,2.8,0,0,0-1.049-1.555,1.883,1.883,0,0,0-1.763-.205,3.523,3.523,0,0,0-2.093,3.137,5.635,5.635,0,0,0,1.674,3.76,13.149,13.149,0,0,0,3.537,2.626,16.9,16.9,0,0,0,8.782,1.883,16.525,16.525,0,0,0,8.478-2.924,8.858,8.858,0,0,0,2.922-3.193,4.793,4.793,0,0,0,.169-4.039,2.625,2.625,0,0,0-3.148-1.643,4.526,4.526,0,0,0-2.713,2.76,4.456,4.456,0,0,0-.29,1.931,5.136,5.136,0,0,0,.617,1.852,7.058,7.058,0,0,0,2.795,2.708,13.138,13.138,0,0,0,7.5,1.418,16.638,16.638,0,0,0,6.954-2.192,13.134,13.134,0,0,0,2.771-2.089,5.2,5.2,0,0,0,1.523-2.816,3.4,3.4,0,0,0-.889-2.808,1.942,1.942,0,0,0-2.564-.128,3.551,3.551,0,0,0-1.357,2.379,4.279,4.279,0,0,0,.628,2.583,9.785,9.785,0,0,0,3.768,3.367,15.9,15.9,0,0,0,13.083,1.021C1011.574,4790.716,1012.122,4790.384,1012.143,4790.428Z" transform="translate(-930.949 -4780.363)" fill="#d9a171"/>
              </g>
              <g id="Grupo_56702" data-name="Grupo 56702" transform="translate(29.114 157.223)">
                <path id="Trazado_101940" data-name="Trazado 101940" d="M945.843,4824.924a3.616,3.616,0,0,1-.505.253c-.369.169-.871.4-1.511.687-1.334.59-3.306,1.452-5.9,2.431a48.055,48.055,0,0,1-9.768,2.6,37.561,37.561,0,0,1-6.315.382,21.423,21.423,0,0,1-7.029-1.061,8.368,8.368,0,0,1-5.34-5.561,5.433,5.433,0,0,1,.518-4.2,4.764,4.764,0,0,1,3.638-2.453,4.036,4.036,0,0,1,3.78,2.44,6.218,6.218,0,0,1,.332,4.685,9.146,9.146,0,0,1-2.757,3.954,17.931,17.931,0,0,1-4.135,2.665,14.17,14.17,0,0,1-9.994,1.17,10.134,10.134,0,0,1-6.944-7.653,8.338,8.338,0,0,1-.018-2.785,5.368,5.368,0,0,1,1.132-2.61,3.543,3.543,0,0,1,2.535-1.462,2.55,2.55,0,0,1,2.431,1.7,6.807,6.807,0,0,1-.97,5.595,16.91,16.91,0,0,1-3.69,4.37,15.568,15.568,0,0,1-20.629-.315,8.792,8.792,0,0,1-2.673-4.71,5.388,5.388,0,0,1,.176-2.739,5.547,5.547,0,0,1,1.542-2.246,4.59,4.59,0,0,1,2.452-1.154,3.255,3.255,0,0,1,2.591.812,5.007,5.007,0,0,1,1.178,4.933,9.226,9.226,0,0,1-2.73,4.138,22.475,22.475,0,0,1-3.829,2.858,22.251,22.251,0,0,1-8.6,2.922,19.345,19.345,0,0,1-8.447-.758,9.419,9.419,0,0,1-3.475-2.084,6.5,6.5,0,0,1-1.884-3.4,5.929,5.929,0,0,1,.342-3.7,3.646,3.646,0,0,1,2.765-2.152,4.131,4.131,0,0,1,3.212.878,3.048,3.048,0,0,1,1.021,2.933,4.609,4.609,0,0,1-1.519,2.486,9.616,9.616,0,0,1-2.23,1.479,25.717,25.717,0,0,1-4.324,1.653,24.56,24.56,0,0,1-6.317.938,16.114,16.114,0,0,1-2.224-.095,3.4,3.4,0,0,1,.565-.014c.373.007.928.007,1.655-.031a25.933,25.933,0,0,0,10.5-2.743,9.406,9.406,0,0,0,2.135-1.448,4.271,4.271,0,0,0,1.384-2.294,2.638,2.638,0,0,0-.909-2.547,3.723,3.723,0,0,0-2.881-.765,3.2,3.2,0,0,0-2.413,1.918,5.455,5.455,0,0,0-.287,3.4c.448,2.4,2.568,4.261,5.061,5.085a18.791,18.791,0,0,0,8.2.691,21.624,21.624,0,0,0,12.068-5.665,8.626,8.626,0,0,0,2.546-3.852,4.395,4.395,0,0,0-1-4.29c-1.139-1.086-3.016-.732-4.182.359a4.858,4.858,0,0,0-1.352,1.972,4.722,4.722,0,0,0-.145,2.407,8.153,8.153,0,0,0,2.487,4.339,14.9,14.9,0,0,0,19.721.275,16.228,16.228,0,0,0,3.54-4.192,7.816,7.816,0,0,0,1.008-2.466,4.617,4.617,0,0,0-.081-2.535,1.865,1.865,0,0,0-1.777-1.266,2.88,2.88,0,0,0-2.028,1.208,6.1,6.1,0,0,0-.98,4.847,9.482,9.482,0,0,0,6.468,7.148,13.567,13.567,0,0,0,9.538-1.112c2.859-1.375,5.617-3.373,6.59-6.241a5.612,5.612,0,0,0-.286-4.231,3.447,3.447,0,0,0-3.218-2.134,4.2,4.2,0,0,0-3.2,2.163,4.888,4.888,0,0,0-.479,3.79,7.863,7.863,0,0,0,5,5.237,21,21,0,0,0,6.867,1.079,37.569,37.569,0,0,0,6.252-.325,48.894,48.894,0,0,0,9.729-2.471c2.6-.934,4.589-1.758,5.94-2.306l1.537-.622A3.418,3.418,0,0,1,945.843,4824.924Z" transform="translate(-841.731 -4817.991)" fill="#d9a171"/>
              </g>
            </g>
          </g>
          <g id="Grupo_56941" data-name="Grupo 56941" transform="translate(0 66.174)">
            <g id="Grupo_56895" data-name="Grupo 56895" transform="translate(86.405)">
              <g id="Grupo_56891" data-name="Grupo 56891" transform="translate(0 20.098)">
                <g id="Grupo_56761" data-name="Grupo 56761" transform="translate(20.648)">
                  <g id="Grupo_56760" data-name="Grupo 56760">
                    <g id="Grupo_56759" data-name="Grupo 56759">
                      <g id="Grupo_56743" data-name="Grupo 56743">
                        <g id="Grupo_56742" data-name="Grupo 56742">
                          <g id="Grupo_56741" data-name="Grupo 56741">
                            <g id="Grupo_56740" data-name="Grupo 56740">
                              <g id="Grupo_56739" data-name="Grupo 56739">
                                <g id="Grupo_56738" data-name="Grupo 56738">
                                  <g id="Grupo_56737" data-name="Grupo 56737">
                                    <g id="Grupo_56736" data-name="Grupo 56736">
                                      <g id="Grupo_56735" data-name="Grupo 56735">
                                        <g id="Grupo_56734" data-name="Grupo 56734">
                                          <g id="Grupo_56733" data-name="Grupo 56733">
                                            <g id="Grupo_56732" data-name="Grupo 56732">
                                              <g id="Grupo_56731" data-name="Grupo 56731">
                                                <g id="Grupo_56730" data-name="Grupo 56730">
                                                  <g id="Grupo_56729" data-name="Grupo 56729">
                                                    <path id="Trazado_101953" data-name="Trazado 101953" d="M740.661,4816.413l-1.632,131.355c-.278,22.338,3.879,55.207,39.215,54.034h0c30.583-3.328,38.7-32.279,38.935-53.123.112-9.89.226-18.133.3-19.149,0,0,33.478-2.732,36.3-35.8,1.364-15.977,1.5-49.119,1.27-79.1a61.815,61.815,0,0,0-57.331-61.148l-3.195-.232C759.953,4752.741,740.206,4781.832,740.661,4816.413Z" transform="translate(-739.017 -4753.243)" fill="#ffbf9d"/>
                                                  </g>
                                                </g>
                                              </g>
                                            </g>
                                          </g>
                                        </g>
                                      </g>
                                    </g>
                                  </g>
                                </g>
                              </g>
                            </g>
                          </g>
                        </g>
                      </g>
                      <g id="Grupo_56758" data-name="Grupo 56758" transform="translate(36.306 160.402)">
                        <g id="Grupo_56757" data-name="Grupo 56757">
                          <g id="Grupo_56756" data-name="Grupo 56756">
                            <g id="Grupo_56755" data-name="Grupo 56755">
                              <g id="Grupo_56754" data-name="Grupo 56754">
                                <g id="Grupo_56753" data-name="Grupo 56753">
                                  <g id="Grupo_56752" data-name="Grupo 56752">
                                    <g id="Grupo_56751" data-name="Grupo 56751">
                                      <g id="Grupo_56750" data-name="Grupo 56750">
                                        <g id="Grupo_56749" data-name="Grupo 56749">
                                          <g id="Grupo_56748" data-name="Grupo 56748">
                                            <g id="Grupo_56747" data-name="Grupo 56747">
                                              <g id="Grupo_56746" data-name="Grupo 56746">
                                                <g id="Grupo_56745" data-name="Grupo 56745">
                                                  <g id="Grupo_56744" data-name="Grupo 56744">
                                                    <path id="Trazado_101954" data-name="Trazado 101954" d="M801.535,4859.067s-20.95-.3-42.161-15.885c0,0,8.746,24.94,41.988,24.369Z" transform="translate(-759.374 -4843.182)" fill="#ff9a6c"/>
                                                  </g>
                                                </g>
                                              </g>
                                            </g>
                                          </g>
                                        </g>
                                      </g>
                                    </g>
                                  </g>
                                </g>
                              </g>
                            </g>
                          </g>
                        </g>
                      </g>
                    </g>
                  </g>
                </g>
                <g id="Grupo_56845" data-name="Grupo 56845" transform="translate(57.176 49.952)">
                  <g id="Grupo_56844" data-name="Grupo 56844">
                    <g id="Grupo_56813" data-name="Grupo 56813" transform="translate(2.643 19.136)">
                      <g id="Grupo_56812" data-name="Grupo 56812">
                        <g id="Grupo_56811" data-name="Grupo 56811">
                          <g id="Grupo_56778" data-name="Grupo 56778">
                            <g id="Grupo_56777" data-name="Grupo 56777">
                              <g id="Grupo_56776" data-name="Grupo 56776">
                                <g id="Grupo_56775" data-name="Grupo 56775">
                                  <g id="Grupo_56774" data-name="Grupo 56774">
                                    <g id="Grupo_56773" data-name="Grupo 56773">
                                      <g id="Grupo_56772" data-name="Grupo 56772">
                                        <g id="Grupo_56771" data-name="Grupo 56771">
                                          <g id="Grupo_56770" data-name="Grupo 56770">
                                            <g id="Grupo_56769" data-name="Grupo 56769">
                                              <g id="Grupo_56768" data-name="Grupo 56768">
                                                <g id="Grupo_56767" data-name="Grupo 56767">
                                                  <g id="Grupo_56766" data-name="Grupo 56766">
                                                    <g id="Grupo_56765" data-name="Grupo 56765">
                                                      <g id="Grupo_56764" data-name="Grupo 56764">
                                                        <g id="Grupo_56763" data-name="Grupo 56763">
                                                          <g id="Grupo_56762" data-name="Grupo 56762">
                                                            <path id="Trazado_101955" data-name="Trazado 101955" d="M781.318,4797.83c-.657.673-4.475-2.406-10.016-2.554-5.532-.229-9.677,2.569-10.258,1.856-.287-.315.4-1.539,2.2-2.807a13.885,13.885,0,0,1,8.238-2.34,13.4,13.4,0,0,1,7.947,2.895C781.1,4796.271,781.641,4797.532,781.318,4797.83Z" transform="translate(-760.981 -4791.979)" fill="#1a2e35"/>
                                                          </g>
                                                        </g>
                                                      </g>
                                                    </g>
                                                  </g>
                                                </g>
                                              </g>
                                            </g>
                                          </g>
                                        </g>
                                      </g>
                                    </g>
                                  </g>
                                </g>
                              </g>
                            </g>
                          </g>
                          <g id="Grupo_56794" data-name="Grupo 56794" transform="translate(11.214 12.937)">
                            <g id="Grupo_56793" data-name="Grupo 56793">
                              <g id="Grupo_56792" data-name="Grupo 56792">
                                <g id="Grupo_56791" data-name="Grupo 56791">
                                  <g id="Grupo_56790" data-name="Grupo 56790">
                                    <g id="Grupo_56789" data-name="Grupo 56789">
                                      <g id="Grupo_56788" data-name="Grupo 56788">
                                        <g id="Grupo_56787" data-name="Grupo 56787">
                                          <g id="Grupo_56786" data-name="Grupo 56786">
                                            <g id="Grupo_56785" data-name="Grupo 56785">
                                              <g id="Grupo_56784" data-name="Grupo 56784">
                                                <g id="Grupo_56783" data-name="Grupo 56783">
                                                  <g id="Grupo_56782" data-name="Grupo 56782">
                                                    <g id="Grupo_56781" data-name="Grupo 56781">
                                                      <g id="Grupo_56780" data-name="Grupo 56780">
                                                        <g id="Grupo_56779" data-name="Grupo 56779">
                                                          <path id="Trazado_101956" data-name="Trazado 101956" d="M776.226,4803.607a4.482,4.482,0,0,1-4.641,4.195,4.287,4.287,0,0,1-4.314-4.37,4.486,4.486,0,0,1,4.637-4.2A4.291,4.291,0,0,1,776.226,4803.607Z" transform="translate(-767.268 -4799.234)" fill="#1a2e35"/>
                                                        </g>
                                                      </g>
                                                    </g>
                                                  </g>
                                                </g>
                                              </g>
                                            </g>
                                          </g>
                                        </g>
                                      </g>
                                    </g>
                                  </g>
                                </g>
                              </g>
                            </g>
                          </g>
                          <g id="Grupo_56810" data-name="Grupo 56810" transform="translate(34.215 1.84)">
                            <g id="Grupo_56809" data-name="Grupo 56809" transform="translate(0)">
                              <g id="Grupo_56808" data-name="Grupo 56808">
                                <g id="Grupo_56807" data-name="Grupo 56807">
                                  <g id="Grupo_56806" data-name="Grupo 56806">
                                    <g id="Grupo_56805" data-name="Grupo 56805">
                                      <g id="Grupo_56804" data-name="Grupo 56804">
                                        <g id="Grupo_56803" data-name="Grupo 56803">
                                          <g id="Grupo_56802" data-name="Grupo 56802">
                                            <g id="Grupo_56801" data-name="Grupo 56801">
                                              <g id="Grupo_56800" data-name="Grupo 56800">
                                                <g id="Grupo_56799" data-name="Grupo 56799">
                                                  <g id="Grupo_56798" data-name="Grupo 56798">
                                                    <g id="Grupo_56797" data-name="Grupo 56797">
                                                      <g id="Grupo_56796" data-name="Grupo 56796">
                                                        <g id="Grupo_56795" data-name="Grupo 56795">
                                                          <path id="Trazado_101957" data-name="Trazado 101957" d="M780.165,4835.56c0-.291,3.2-.606,8.37-.887,1.309-.04,2.556-.208,2.839-1.077.374-.919-.066-2.357-.585-3.914q-1.487-4.845-3.119-10.171c-4.306-14.471-7.321-26.33-6.736-26.5s4.548,11.425,8.853,25.9c1.031,3.566,2.017,6.964,2.954,10.216.384,1.513,1.105,3.249.3,5.146a3.265,3.265,0,0,1-2.274,1.743,8.767,8.767,0,0,1-2.229.147C783.363,4836.06,780.163,4835.853,780.165,4835.56Z" transform="translate(-780.165 -4793.011)" fill="#1a2e35"/>
                                                        </g>
                                                      </g>
                                                    </g>
                                                  </g>
                                                </g>
                                              </g>
                                            </g>
                                          </g>
                                        </g>
                                      </g>
                                    </g>
                                  </g>
                                </g>
                              </g>
                            </g>
                          </g>
                        </g>
                      </g>
                    </g>
                    <g id="Grupo_56828" data-name="Grupo 56828">
                      <g id="Grupo_56827" data-name="Grupo 56827">
                        <g id="Grupo_56826" data-name="Grupo 56826">
                          <g id="Grupo_56825" data-name="Grupo 56825">
                            <g id="Grupo_56824" data-name="Grupo 56824">
                              <g id="Grupo_56823" data-name="Grupo 56823">
                                <g id="Grupo_56822" data-name="Grupo 56822">
                                  <g id="Grupo_56821" data-name="Grupo 56821">
                                    <g id="Grupo_56820" data-name="Grupo 56820">
                                      <g id="Grupo_56819" data-name="Grupo 56819">
                                        <g id="Grupo_56818" data-name="Grupo 56818">
                                          <g id="Grupo_56817" data-name="Grupo 56817">
                                            <g id="Grupo_56816" data-name="Grupo 56816">
                                              <g id="Grupo_56815" data-name="Grupo 56815">
                                                <g id="Grupo_56814" data-name="Grupo 56814">
                                                  <path id="Trazado_101958" data-name="Trazado 101958" d="M780.123,4785.408c-.537,1.226-4.97.3-10.282.576-5.316.16-9.677,1.44-10.292.261-.271-.564.555-1.7,2.36-2.791a17.376,17.376,0,0,1,15.673-.64C779.456,4783.76,780.357,4784.822,780.123,4785.408Z" transform="translate(-759.499 -4781.25)" fill="#1a2e35"/>
                                                </g>
                                              </g>
                                            </g>
                                          </g>
                                        </g>
                                      </g>
                                    </g>
                                  </g>
                                </g>
                              </g>
                            </g>
                          </g>
                        </g>
                      </g>
                    </g>
                    <g id="Grupo_56843" data-name="Grupo 56843" transform="translate(52.915 10.123)">
                      <g id="Grupo_56842" data-name="Grupo 56842" transform="translate(0)">
                        <g id="Grupo_56841" data-name="Grupo 56841">
                          <g id="Grupo_56840" data-name="Grupo 56840">
                            <g id="Grupo_56839" data-name="Grupo 56839">
                              <g id="Grupo_56838" data-name="Grupo 56838">
                                <g id="Grupo_56837" data-name="Grupo 56837">
                                  <g id="Grupo_56836" data-name="Grupo 56836">
                                    <g id="Grupo_56835" data-name="Grupo 56835">
                                      <g id="Grupo_56834" data-name="Grupo 56834">
                                        <g id="Grupo_56833" data-name="Grupo 56833">
                                          <g id="Grupo_56832" data-name="Grupo 56832">
                                            <g id="Grupo_56831" data-name="Grupo 56831">
                                              <g id="Grupo_56830" data-name="Grupo 56830">
                                                <g id="Grupo_56829" data-name="Grupo 56829">
                                                  <path id="Trazado_101959" data-name="Trazado 101959" d="M809.492,4791.225c-.581,1-4.9-.11-10.142-.272-5.24-.254-9.588.513-10.141-.536-.243-.5.621-1.4,2.447-2.192a18.289,18.289,0,0,1,7.749-1.282,18.925,18.925,0,0,1,7.7,1.9C808.91,4789.781,809.749,4790.746,809.492,4791.225Z" transform="translate(-789.168 -4786.927)" fill="#1a2e35"/>
                                                </g>
                                              </g>
                                            </g>
                                          </g>
                                        </g>
                                      </g>
                                    </g>
                                  </g>
                                </g>
                              </g>
                            </g>
                          </g>
                        </g>
                      </g>
                    </g>
                  </g>
                </g>
                <g id="Grupo_56858" data-name="Grupo 56858" transform="translate(0 86.239)">
                  <g id="Grupo_56857" data-name="Grupo 56857">
                    <g id="Grupo_56856" data-name="Grupo 56856">
                      <g id="Grupo_56855" data-name="Grupo 56855">
                        <g id="Grupo_56854" data-name="Grupo 56854">
                          <g id="Grupo_56853" data-name="Grupo 56853">
                            <g id="Grupo_56852" data-name="Grupo 56852">
                              <g id="Grupo_56851" data-name="Grupo 56851">
                                <g id="Grupo_56850" data-name="Grupo 56850">
                                  <g id="Grupo_56849" data-name="Grupo 56849">
                                    <g id="Grupo_56848" data-name="Grupo 56848">
                                      <g id="Grupo_56847" data-name="Grupo 56847">
                                        <g id="Grupo_56846" data-name="Grupo 56846">
                                          <path id="Trazado_101960" data-name="Trazado 101960" d="M750.645,4803.233c-.547-.285-22.249-8.386-23.178,14.292s22.031,18.935,22.1,18.288S750.645,4803.233,750.645,4803.233Z" transform="translate(-727.439 -4801.597)" fill="#ffbf9d"/>
                                        </g>
                                      </g>
                                    </g>
                                  </g>
                                </g>
                              </g>
                            </g>
                          </g>
                        </g>
                      </g>
                    </g>
                  </g>
                </g>
                <g id="Grupo_56872" data-name="Grupo 56872" transform="translate(5.759 93.458)">
                  <g id="Grupo_56871" data-name="Grupo 56871">
                    <g id="Grupo_56870" data-name="Grupo 56870">
                      <g id="Grupo_56869" data-name="Grupo 56869">
                        <g id="Grupo_56868" data-name="Grupo 56868">
                          <g id="Grupo_56867" data-name="Grupo 56867">
                            <g id="Grupo_56866" data-name="Grupo 56866">
                              <g id="Grupo_56865" data-name="Grupo 56865">
                                <g id="Grupo_56864" data-name="Grupo 56864">
                                  <g id="Grupo_56863" data-name="Grupo 56863">
                                    <g id="Grupo_56862" data-name="Grupo 56862">
                                      <g id="Grupo_56861" data-name="Grupo 56861">
                                        <g id="Grupo_56860" data-name="Grupo 56860">
                                          <g id="Grupo_56859" data-name="Grupo 56859">
                                            <path id="Trazado_101961" data-name="Trazado 101961" d="M740.458,4823.765c-.1-.077-.407.259-1.086.538a3.944,3.944,0,0,1-2.957-.059c-2.359-.978-4.222-4.865-4.164-8.958a13.078,13.078,0,0,1,1.337-5.611c.761-1.63,1.882-2.745,3.1-2.911a2.017,2.017,0,0,1,2.286,1.18c.278.647.116,1.091.234,1.138.063.058.5-.36.359-1.306a2.525,2.525,0,0,0-.835-1.457,3,3,0,0,0-2.16-.667c-1.755.051-3.4,1.593-4.271,3.345a13.442,13.442,0,0,0-1.63,6.267c-.041,4.578,2.122,8.949,5.363,10.032a4.246,4.246,0,0,0,3.636-.451C740.394,4824.31,740.535,4823.81,740.458,4823.765Z" transform="translate(-730.669 -4805.645)" fill="#ff9a6c"/>
                                          </g>
                                        </g>
                                      </g>
                                    </g>
                                  </g>
                                </g>
                              </g>
                            </g>
                          </g>
                        </g>
                      </g>
                    </g>
                  </g>
                </g>
                <g id="Grupo_56873" data-name="Grupo 56873" transform="translate(76.68 114.575)">
                  <path id="Trazado_101962" data-name="Trazado 101962" d="M782.438,4832.085c.248-.57-4.2-1.9-7.319-6.07a25.5,25.5,0,0,1-3.139-5.919c-.662-1.649-1.163-2.684-1.407-2.607s-.175,1.188.19,2.978a16.749,16.749,0,0,0,2.919,6.634,13.55,13.55,0,0,0,5.792,4.434C781.206,4832.237,782.377,4832.284,782.438,4832.085Z" transform="translate(-770.435 -4817.485)" fill="#1a2e35"/>
                </g>
                <g id="Grupo_56882" data-name="Grupo 56882" transform="translate(110.325 71.174)">
                  <g id="Grupo_56881" data-name="Grupo 56881" transform="translate(0)">
                    <g id="Grupo_56880" data-name="Grupo 56880">
                      <g id="Grupo_56879" data-name="Grupo 56879">
                        <g id="Grupo_56878" data-name="Grupo 56878">
                          <g id="Grupo_56877" data-name="Grupo 56877">
                            <g id="Grupo_56876" data-name="Grupo 56876">
                              <g id="Grupo_56875" data-name="Grupo 56875">
                                <g id="Grupo_56874" data-name="Grupo 56874">
                                  <path id="Trazado_101963" data-name="Trazado 101963" d="M809.637,4799c-.658.669-4.474-2.406-10.016-2.554-5.532-.232-9.677,2.571-10.259,1.858-.287-.32.4-1.543,2.2-2.809a13.872,13.872,0,0,1,8.237-2.338,13.369,13.369,0,0,1,7.949,2.894C809.418,4797.439,809.96,4798.7,809.637,4799Z" transform="translate(-789.299 -4793.15)" fill="#1a2e35"/>
                                </g>
                              </g>
                            </g>
                          </g>
                        </g>
                      </g>
                    </g>
                  </g>
                </g>
                <g id="Grupo_56890" data-name="Grupo 56890" transform="translate(120.797 83.634)">
                  <g id="Grupo_56889" data-name="Grupo 56889" transform="translate(0)">
                    <g id="Grupo_56888" data-name="Grupo 56888">
                      <g id="Grupo_56887" data-name="Grupo 56887">
                        <g id="Grupo_56886" data-name="Grupo 56886">
                          <g id="Grupo_56885" data-name="Grupo 56885">
                            <g id="Grupo_56884" data-name="Grupo 56884">
                              <g id="Grupo_56883" data-name="Grupo 56883">
                                <path id="Trazado_101964" data-name="Trazado 101964" d="M804.127,4804.507a4.485,4.485,0,0,1-4.641,4.2,4.29,4.29,0,0,1-4.312-4.369,4.488,4.488,0,0,1,4.637-4.2A4.292,4.292,0,0,1,804.127,4804.507Z" transform="translate(-795.171 -4800.135)" fill="#1a2e35"/>
                              </g>
                            </g>
                          </g>
                        </g>
                      </g>
                    </g>
                  </g>
                </g>
              </g>
              <g id="Grupo_56892" data-name="Grupo 56892" transform="translate(1.846)">
                <path id="Trazado_101965" data-name="Trazado 101965" d="M886.385,4779.549c-4.255-7.445-14.555-10.7-22.318-7.063a24.493,24.493,0,0,0-42.191-21.15,10.01,10.01,0,0,0-4.878-6.71,19.758,19.758,0,0,0-8.141-2.428,38.924,38.924,0,0,0-35.566,15.508c-13.116-1.543-27.023,3.258-35.91,13.1-10.655,11.8-12.663,39.151-.994,62.774l2.747,14.813c3.66-.01,7.007.254,9.263,2.281,3.066,2.754,4.435,7.941,9.529,5.972,2.593-1,4.958-6.438,5.827-9.079a129.055,129.055,0,0,0,5.588-54.63,41.514,41.514,0,0,1,12.809-9.244l-.391.352c9.24-3.209,19.695-6.366,28.462-2.026,6.8,3.365,10.8,10.423,15.884,16.056a51.931,51.931,0,0,0,37,17.089c.489,9.312-.293,22.473.2,31.782l7.833-14.915.005.074c.642-1.09,1.172-2.19,1.686-3.3l.175-.333v-.043l.005-.011c1.432-1.164,2.52-3.3,4.94-6.067a19.531,19.531,0,0,0,3.208-19.988C888.23,4797.521,890.642,4786.99,886.385,4779.549Z" transform="translate(-728.475 -4741.974)" fill="#1a2e35"/>
                <path id="Trazado_101966" data-name="Trazado 101966" d="M811.044,4787.54l-.03-.026h0Z" transform="translate(-663.808 -4706.296)" fill="#1a2e35"/>
              </g>
              <g id="Grupo_56893" data-name="Grupo 56893" transform="translate(107.499 37.915)">
                <path id="Trazado_101967" data-name="Trazado 101967" d="M826.416,4763.232c.023,0,.08.161.166.488a6.668,6.668,0,0,1,.208,1.465,9.841,9.841,0,0,1-1.32,5.315,10.133,10.133,0,0,1-2.534,2.936,9.065,9.065,0,0,1-4.132,1.762,10.232,10.232,0,0,1-9.456-3.559l.564-.484a6.244,6.244,0,0,1,1.6,4.446,8.212,8.212,0,0,1-2.534,5.717,9.274,9.274,0,0,1-5.363,2.283,14.419,14.419,0,0,1-9.324-2.566,30.494,30.494,0,0,1-4.983-4.236,12.468,12.468,0,0,1-1.587-1.79,17.026,17.026,0,0,1,1.79,1.58,35.135,35.135,0,0,0,5.067,4,14.069,14.069,0,0,0,8.964,2.326,8.638,8.638,0,0,0,4.933-2.127,7.535,7.535,0,0,0,2.288-5.2,5.527,5.527,0,0,0-1.389-3.921l.562-.484a9.624,9.624,0,0,0,8.773,3.37,8.884,8.884,0,0,0,6.342-4.3,10.016,10.016,0,0,0,1.477-5.058C826.534,4763.932,826.348,4763.246,826.416,4763.232Z" transform="translate(-787.715 -4763.232)" fill="#375a64"/>
              </g>
              <g id="Grupo_56894" data-name="Grupo 56894" transform="translate(95.728 13.057)">
                <path id="Trazado_101968" data-name="Trazado 101968" d="M803.211,4749.3c.012-.022.18.056.487.217a10.272,10.272,0,0,1,1.264.853,11.049,11.049,0,0,1,3.421,4.444,8.692,8.692,0,0,1-.78,8.168,6.706,6.706,0,0,1-4.132,2.837,6.8,6.8,0,0,1-5.284-1.025,5.845,5.845,0,0,1-1.258-1.252l.65-.366a6.348,6.348,0,0,1-.17,5.1,6.964,6.964,0,0,1-3.3,3.38,9.186,9.186,0,0,1-7.726-.016,12.34,12.34,0,0,1-4.163-3.139,5.966,5.966,0,0,1-1.1-1.547c.048-.034.455.5,1.309,1.354a13.161,13.161,0,0,0,4.161,2.857,8.745,8.745,0,0,0,7.22-.117,6.33,6.33,0,0,0,2.941-3.072,5.648,5.648,0,0,0,.143-4.5l-1.2-2.781,1.848,2.415a5.225,5.225,0,0,0,1.087,1.079,6.113,6.113,0,0,0,4.694.912,6.021,6.021,0,0,0,3.717-2.509,8.216,8.216,0,0,0,.852-7.582,11.477,11.477,0,0,0-3.114-4.413C803.808,4749.723,803.173,4749.356,803.211,4749.3Z" transform="translate(-781.115 -4749.294)" fill="#375a64"/>
              </g>
            </g>
            <g id="Grupo_56940" data-name="Grupo 56940" transform="translate(0 174.93)">
              <g id="Grupo_56910" data-name="Grupo 56910" transform="translate(338.617)">
                <g id="Grupo_56896" data-name="Grupo 56896" transform="translate(3.077)">
                  <path id="Trazado_101969" data-name="Trazado 101969" d="M925.572,4843.537l-52.327,39.954a6.778,6.778,0,0,0-1,9.831h0a6.776,6.776,0,0,0,9.274.909l51.9-40.328,7.021-13.845Z" transform="translate(-870.581 -4840.059)" fill="#d9a171"/>
                  <path id="Trazado_101970" data-name="Trazado 101970" d="M909.761,4840.938l3.711,4.321-4.011,7.954s-3.842.193-3.488-3.62c0,0-3.9.4-3.166-3.633,0,0-2.722-.241-1.186-3.115Z" transform="translate(-846.63 -4839.367)" fill="#fff" opacity="0.5"/>
                  <path id="Trazado_101971" data-name="Trazado 101971" d="M872.075,4865.5l8.587,10.49,2.883-2.239-8.236-10.724Z" transform="translate(-869.411 -4822.061)" fill="#1a2e35"/>
                </g>
                <g id="Grupo_56897" data-name="Grupo 56897" transform="translate(0 6.77)">
                  <path id="Trazado_101972" data-name="Trazado 101972" d="M870.738,4980.69l-1.882-.338,38.552-67.389-6.093-19.426s-7.064-27.67-1.177-34.736c0,0,12.876-15.156,17.053-14.947s7.519,1.046,8.354,4.178c0,0,7.1-.833,8.981,1.462a36.129,36.129,0,0,1,3.342,5.012s7.728-.626,9.817,6.061c0,0,7.31,3.757,7.936,9.187s-1.463,30.7-3.759,37.178-10.861,20.049-13.367,40.1S927.156,4980.1,919.3,5009.4l-21.328,8.433Z" transform="translate(-868.856 -4843.853)" fill="#ffbf9d"/>
                </g>
                <g id="Grupo_56899" data-name="Grupo 56899" transform="translate(48.992 10.503)">
                  <g id="Grupo_56898" data-name="Grupo 56898" transform="translate(0)">
                    <path id="Trazado_101973" data-name="Trazado 101973" d="M903.656,4845.963c.157.223-2.5,1.977-4.5,5.212-2.05,3.21-2.479,6.359-2.745,6.316-.218.023-.168-3.367,2-6.781C900.551,4847.275,903.585,4845.759,903.656,4845.963Z" transform="translate(-896.326 -4845.945)" fill="#ff9a6c"/>
                  </g>
                </g>
                <g id="Grupo_56901" data-name="Grupo 56901" transform="translate(61.225 17.391)">
                  <g id="Grupo_56900" data-name="Grupo 56900" transform="translate(0)">
                    <path id="Trazado_101974" data-name="Trazado 101974" d="M910.556,4849.83c.143.229-2.39,1.755-4.4,4.665-2.058,2.882-2.638,5.781-2.9,5.722-.22.01-.006-3.144,2.183-6.226C907.591,4850.892,910.49,4849.619,910.556,4849.83Z" transform="translate(-903.185 -4849.808)" fill="#ff9a6c"/>
                  </g>
                </g>
                <g id="Grupo_56903" data-name="Grupo 56903" transform="translate(71.912 23.252)">
                  <g id="Grupo_56902" data-name="Grupo 56902" transform="translate(0)">
                    <path id="Trazado_101975" data-name="Trazado 101975" d="M915.683,4853.112c.164.2-1.757,1.881-3.517,4.427-1.785,2.529-2.7,4.91-2.944,4.827-.218-.05.355-2.669,2.226-5.33C913.3,4854.363,915.561,4852.922,915.683,4853.112Z" transform="translate(-909.177 -4853.096)" fill="#ff9a6c"/>
                  </g>
                </g>
                <g id="Grupo_56905" data-name="Grupo 56905" transform="translate(33.783 23.866)">
                  <g id="Grupo_56904" data-name="Grupo 56904" transform="translate(0)">
                    <path id="Trazado_101976" data-name="Trazado 101976" d="M896.232,4855.059c-.137.215-1.875-.929-4.28-.733-2.409.131-3.977,1.5-4.141,1.307-.077-.075.206-.547.906-1.065a6.326,6.326,0,0,1,6.474-.438C895.956,4854.547,896.3,4854.976,896.232,4855.059Z" transform="translate(-887.798 -4853.441)" fill="#ff9a6c"/>
                  </g>
                </g>
                <g id="Grupo_56907" data-name="Grupo 56907" transform="translate(49.891 29.061)">
                  <g id="Grupo_56906" data-name="Grupo 56906">
                    <path id="Trazado_101977" data-name="Trazado 101977" d="M904.528,4862.39c-.243.087-.967-2.164-3.182-3.807-2.174-1.7-4.535-1.8-4.516-2.062,0-.105.594-.244,1.564-.119a7.676,7.676,0,0,1,5.835,4.449C904.608,4861.755,904.631,4862.365,904.528,4862.39Z" transform="translate(-896.83 -4856.352)" fill="#ff9a6c"/>
                  </g>
                </g>
                <g id="Grupo_56909" data-name="Grupo 56909" transform="translate(62.776 34.746)">
                  <g id="Grupo_56908" data-name="Grupo 56908" transform="translate(0)">
                    <path id="Trazado_101978" data-name="Trazado 101978" d="M914.134,4863.15c-.188.184-1.865-1.718-4.741-2.462-2.859-.81-5.265-.013-5.336-.265-.038-.1.51-.451,1.526-.691a8.6,8.6,0,0,1,7.582,2.051C913.921,4862.5,914.217,4863.084,914.134,4863.15Z" transform="translate(-904.055 -4859.54)" fill="#ff9a6c"/>
                  </g>
                </g>
              </g>
              <g id="Grupo_56934" data-name="Grupo 56934" transform="translate(0 16.395)">
                <g id="Grupo_56911" data-name="Grupo 56911" transform="translate(0 95.467)">
                  <path id="Trazado_101979" data-name="Trazado 101979" d="M701.517,4902.78s-23.626,134.191-22.486,146.738,7.425,32.509,21.678,35.93a62.734,62.734,0,0,0,27.371,0L710.97,4920.625Z" transform="translate(-678.991 -4902.78)" fill="#fd9826"/>
                </g>
                <g id="Grupo_56912" data-name="Grupo 56912" transform="translate(22.227)">
                  <path id="Trazado_101980" data-name="Trazado 101980" d="M760.932,4875.5s-28.275,20.1-34.526,26.011c-26.14,24.724-31.61,34.842-34.653,43.206S709.9,5147.367,709.9,5147.367l4.293,33.945h0l198.462.512h0V5008.394l-29.818-122.052-18.347-5.223-3.7-14.547s-22.8-16.833-60.4-17.318c-11.567-.15-27.929,4.395-37.069,11.487h0Z" transform="translate(-691.455 -4849.25)" fill="#fd9826"/>
                </g>
                <g id="Grupo_56913" data-name="Grupo 56913" transform="translate(169.935 34.536)">
                  <path id="Trazado_101981" data-name="Trazado 101981" d="M793.523,4870.6s20.4-.917,22.2-.5c6.286,1.449,23.551,17.277,43.214,36.78,18.758,18.605,55.668,57.313,55.668,57.313s6.634-6.7,14.2,2.243l29.139-42.383s43.734,5.373,50.611,38.382c0,0-13.4,25.592-24.384,43.892,0,0-40.647,67.448-72.751,55.235-29.328-11.156-66.1-40.994-71.277-47.365l-43.176-30.811s-29.572-56.389-16.506-84.586Z" transform="translate(-777.123 -4869.987)" fill="#fd9826"/>
                </g>
                <g id="Grupo_56915" data-name="Grupo 56915" transform="translate(91.705 22.506)">
                  <g id="Grupo_56914" data-name="Grupo 56914">
                    <path id="Trazado_101982" data-name="Trazado 101982" d="M833.971,4871.233a5.084,5.084,0,0,1-1.047-.214c-.763-.2-1.739-.457-2.944-.776-2.561-.649-6.281-1.544-10.924-2.424a304.737,304.737,0,0,0-36.629-4.515c-14.4-.875-27.486-.795-36.891.108-4.7.4-8.486.991-11.083,1.463l-2.985.593a5.385,5.385,0,0,1-1.058.147,4.613,4.613,0,0,1,1.015-.322c.767-.2,1.748-.445,2.961-.749a96.689,96.689,0,0,1,11.089-1.748c9.431-1.069,22.57-1.248,37.007-.366a270.758,270.758,0,0,1,36.695,4.779c4.642.959,8.354,1.948,10.893,2.7,1.192.385,2.154.694,2.907.935A4.916,4.916,0,0,1,833.971,4871.233Z" transform="translate(-730.411 -4861.869)" fill="#1a2e35"/>
                  </g>
                </g>
                <g id="Grupo_56917" data-name="Grupo 56917" transform="translate(115.797 6.814)">
                  <g id="Grupo_56916" data-name="Grupo 56916" transform="translate(0)">
                    <path id="Trazado_101983" data-name="Trazado 101983" d="M746.085,4868.031c-.24.036-.9-3.288-1.473-7.419s-.845-7.5-.6-7.541.9,3.288,1.472,7.42S746.324,4868,746.085,4868.031Z" transform="translate(-743.92 -4853.071)" fill="#1a2e35"/>
                  </g>
                </g>
                <g id="Grupo_56919" data-name="Grupo 56919" transform="translate(123.558 6.118)">
                  <g id="Grupo_56918" data-name="Grupo 56918" transform="translate(0)">
                    <path id="Trazado_101984" data-name="Trazado 101984" d="M750.087,4867.7c-.208.078-1.464-3.173-1.746-7.422-.307-4.25.487-7.646.7-7.6.259.038-.132,3.4.169,7.534C749.487,4864.349,750.338,4867.626,750.087,4867.7Z" transform="translate(-748.271 -4852.681)" fill="#1a2e35"/>
                  </g>
                </g>
                <g id="Grupo_56921" data-name="Grupo 56921" transform="translate(92.359 23.069)" opacity="0.3">
                  <g id="Grupo_56920" data-name="Grupo 56920">
                    <path id="Trazado_101985" data-name="Trazado 101985" d="M730.778,4865.2c31.059,5.5,62.542.052,95.412,3.941-31.738-6.567-64.79-9.684-95.412-3.941" transform="translate(-730.778 -4862.185)"/>
                  </g>
                </g>
                <g id="Grupo_56923" data-name="Grupo 56923" transform="translate(23.265 146.801)" opacity="0.3">
                  <g id="Grupo_56922" data-name="Grupo 56922" transform="translate(0)">
                    <path id="Trazado_101986" data-name="Trazado 101986" d="M706.626,5063.151c-17.471-40.916-15.4-87.163-13.034-131.589Z" transform="translate(-692.036 -4931.562)"/>
                  </g>
                </g>
                <g id="Grupo_56925" data-name="Grupo 56925" transform="translate(22.516 124.723)">
                  <g id="Grupo_56924" data-name="Grupo 56924">
                    <path id="Trazado_101987" data-name="Trazado 101987" d="M691.627,4919.184a2.292,2.292,0,0,1,.093.513c.046.394.107.895.184,1.524.148,1.4.355,3.359.621,5.854.51,5.151,1.238,12.5,2.133,21.553,1.774,18.2,4.2,43.348,7.089,71.1s5.791,52.855,8.106,71c1.139,9.069,2.12,16.4,2.809,21.469.33,2.488.587,4.445.772,5.839.073.631.132,1.133.178,1.521a2.187,2.187,0,0,1,.031.524,2.377,2.377,0,0,1-.12-.511c-.068-.388-.155-.884-.264-1.509-.223-1.388-.537-3.335-.934-5.812-.792-5.055-1.868-12.375-3.086-21.439-2.474-18.123-5.464-43.219-8.363-70.986s-5.218-52.915-6.836-71.13c-.779-9.067-1.413-16.423-1.857-21.579-.194-2.506-.348-4.467-.456-5.871-.039-.633-.072-1.138-.1-1.529A2.335,2.335,0,0,1,691.627,4919.184Z" transform="translate(-691.616 -4919.184)" fill="#1a2e35"/>
                  </g>
                </g>
                <g id="Grupo_56927" data-name="Grupo 56927" transform="translate(32.404 102.388)">
                  <g id="Grupo_56926" data-name="Grupo 56926">
                    <path id="Trazado_101988" data-name="Trazado 101988" d="M821.647,4907.04a6.659,6.659,0,0,1-1.279.07l-3.665.023c-3.182-.013-7.786.033-13.47.169-11.37.254-27.071,1.089-44.3,3.128-17.236,2.06-32.7,4.935-43.809,7.355-5.557,1.208-10.043,2.241-13.132,3-1.484.344-2.67.624-3.569.832a8.181,8.181,0,0,1-1.259.238,6.545,6.545,0,0,1,1.214-.405l3.528-1c3.066-.859,7.535-1.992,13.083-3.272a414.9,414.9,0,0,1,88.235-10.5c5.695-.05,10.3,0,13.485.116,1.525.057,2.743.1,3.665.138A7.047,7.047,0,0,1,821.647,4907.04Z" transform="translate(-697.161 -4906.659)" fill="#1a2e35"/>
                  </g>
                </g>
                <g id="Grupo_56929" data-name="Grupo 56929" transform="translate(80.614 63.245)">
                  <g id="Grupo_56928" data-name="Grupo 56928" transform="translate(0)">
                    <path id="Trazado_101989" data-name="Trazado 101989" d="M724.258,4967.685c-.243-.009.214-18.592,1.018-41.5s1.651-41.48,1.894-41.472-.214,18.586-1.019,41.505S724.5,4967.692,724.258,4967.685Z" transform="translate(-724.192 -4884.712)" fill="#1a2e35"/>
                  </g>
                </g>
                <g id="Grupo_56931" data-name="Grupo 56931" transform="translate(159.792 34.535)">
                  <g id="Grupo_56930" data-name="Grupo 56930" transform="translate(0)">
                    <path id="Trazado_101990" data-name="Trazado 101990" d="M790.9,4978a8.7,8.7,0,0,1-.746-1.168c-.494-.853-1.157-1.989-1.989-3.419l-7.323-12.578a109.192,109.192,0,0,1-9.185-19.571,64.153,64.153,0,0,1-2.739-12.516,75.381,75.381,0,0,1-.04-13.747c.865-9.356,2.882-18.269,6.553-25.619a42.248,42.248,0,0,1,6.46-9.638,36.706,36.706,0,0,1,7.76-6.478,29.591,29.591,0,0,1,13.768-4.614,19.373,19.373,0,0,1,5.336.3,48.346,48.346,0,0,0-5.309.042,30.035,30.035,0,0,0-13.465,4.794,36.547,36.547,0,0,0-7.549,6.443,41.9,41.9,0,0,0-6.276,9.509c-3.57,7.25-5.545,16.052-6.4,25.343a75.622,75.622,0,0,0,.021,13.575,64.256,64.256,0,0,0,2.654,12.356,112.521,112.521,0,0,0,8.956,19.516c2.957,5.31,5.365,9.637,7.081,12.715q1.158,2.2,1.846,3.5A7.8,7.8,0,0,1,790.9,4978Z" transform="translate(-768.588 -4868.615)" fill="#1a2e35"/>
                  </g>
                </g>
                <g id="Grupo_56933" data-name="Grupo 56933" transform="translate(34.873 103.16)" opacity="0.3">
                  <g id="Grupo_56932" data-name="Grupo 56932">
                    <path id="Trazado_101991" data-name="Trazado 101991" d="M699.289,4921.412a236.173,236.173,0,0,0,37.294-4.917,56.855,56.855,0,0,0-2.089,16.683,38.279,38.279,0,0,0,8.292-15.26,23.088,23.088,0,0,0,9.408,15.438,50.426,50.426,0,0,0,.839-17q27.835-3.353,55.3-9.152a374.96,374.96,0,0,0-109.788,13.668" transform="translate(-698.545 -4907.092)"/>
                  </g>
                </g>
              </g>
              <g id="Grupo_56935" data-name="Grupo 56935" transform="translate(195.812 167.916)">
                <path id="Trazado_101992" data-name="Trazado 101992" d="M867.177,4992.672a5.089,5.089,0,0,1-.854-.511l-2.372-1.583c-2.051-1.384-5-3.424-8.62-5.968-7.244-5.082-17.174-12.222-28-20.293s-20.5-15.56-27.442-21.056c-3.471-2.742-6.264-4.985-8.176-6.556-.906-.753-1.634-1.354-2.194-1.82a4.923,4.923,0,0,1-.733-.674,5,5,0,0,1,.828.554q.872.654,2.279,1.713c2.035,1.556,4.86,3.717,8.322,6.368,7.022,5.385,16.741,12.8,27.565,20.87s20.7,15.27,27.861,20.465c3.527,2.56,6.406,4.649,8.479,6.158.945.7,1.7,1.261,2.29,1.7A4.681,4.681,0,0,1,867.177,4992.672Z" transform="translate(-788.784 -4934.209)" fill="#1a2e35"/>
              </g>
              <g id="Grupo_56936" data-name="Grupo 56936" transform="translate(311.352 145.817)">
                <path id="Trazado_101993" data-name="Trazado 101993" d="M864.862,4958.142c-.131-.007-.046-2.181-.3-5.667a59.4,59.4,0,0,0-8.024-25.816c-1.767-3.016-3.069-4.76-2.964-4.839a5.964,5.964,0,0,1,1.016,1.147,38.091,38.091,0,0,1,2.4,3.415,52.787,52.787,0,0,1,8.1,26.063,37.733,37.733,0,0,1-.043,4.173A6.04,6.04,0,0,1,864.862,4958.142Z" transform="translate(-853.569 -4921.818)" fill="#1a2e35"/>
              </g>
              <g id="Grupo_56937" data-name="Grupo 56937" transform="translate(328.133 149.079)">
                <path id="Trazado_101994" data-name="Trazado 101994" d="M866.42,4953.447c-.119-.021.155-1.7.364-4.438a55.468,55.468,0,0,0-2.43-21.12c-.824-2.612-1.475-4.191-1.362-4.241a3.8,3.8,0,0,1,.6,1.049,30.936,30.936,0,0,1,1.266,3.022,46.44,46.44,0,0,1,2.456,21.34,31.082,31.082,0,0,1-.546,3.233A3.7,3.7,0,0,1,866.42,4953.447Z" transform="translate(-862.978 -4923.647)" fill="#1a2e35"/>
              </g>
              <g id="Grupo_56938" data-name="Grupo 56938" transform="translate(349.399 118.465)">
                <path id="Trazado_101995" data-name="Trazado 101995" d="M924.784,4948.333c-.043.012.02-.277-.335-.541a1.71,1.71,0,0,1-.585-.635c-.17-.3-.278-.671-.485-1.021-.385-.72-1.343-1.282-2.038-2.348a15.239,15.239,0,0,1-1.739-3.8,25.362,25.362,0,0,0-4.948-9.334,41.116,41.116,0,0,0-4.458-4.444,47.368,47.368,0,0,0-5.377-4.108,44.033,44.033,0,0,0-5.754-3.568c-1.976-.967-3.885-1.9-5.707-2.793-1.824-.861-3.515-1.754-5.174-2.465l-4.618-1.966a20.265,20.265,0,0,1-2.008-.918c-.612-.367-1.122-.76-1.639-1.045s-1.03-.55-1.5-.8-.851-.574-1.2-.792c-.709-.442-1.338-.687-1.735-.9-.4-.2-.6-.34-.591-.364a3.174,3.174,0,0,1,.651.228,13.956,13.956,0,0,1,1.826.793,19.585,19.585,0,0,0,2.741,1.468c.557.287,1.092.676,1.675,1,.565.318,1.293.547,1.987.846l4.639,1.875c1.664.685,3.4,1.568,5.241,2.418,1.83.878,3.745,1.8,5.728,2.755a43.286,43.286,0,0,1,5.841,3.6,45.665,45.665,0,0,1,5.448,4.181,40.443,40.443,0,0,1,4.505,4.552,25.251,25.251,0,0,1,4.921,9.61,15.456,15.456,0,0,0,1.583,3.738c.6,1.013,1.534,1.605,1.944,2.44.211.4.292.775.429,1.061a1.724,1.724,0,0,0,.487.625C924.92,4948.029,924.791,4948.36,924.784,4948.333Z" transform="translate(-874.901 -4906.481)" fill="#1a2e35"/>
              </g>
              <g id="Grupo_56939" data-name="Grupo 56939" transform="translate(213.963 182.682)">
                <path id="Trazado_101996" data-name="Trazado 101996" d="M799.339,5105.415c-.209,0-.377-36.475-.377-81.46s.168-81.466.377-81.466.374,36.468.374,81.466S799.545,5105.415,799.339,5105.415Z" transform="translate(-798.962 -4942.488)" fill="#1a2e35"/>
              </g>
            </g>
          </g>
        </g>
      </g>
    </g>
  </g>
</svg>
