<svg xmlns="http://www.w3.org/2000/svg" xmlns:xlink="http://www.w3.org/1999/xlink" width="108" height="108" viewBox="0 0 108 108">
  <defs>
    <filter id="Trazado_1033109" x="0" y="0" width="108" height="108" filterUnits="userSpaceOnUse">
      <feOffset dy="3" input="SourceAlpha"/>
      <feGaussianBlur stdDeviation="3" result="blur"/>
      <feFlood flood-opacity="0.161"/>
      <feComposite operator="in" in2="blur"/>
      <feComposite in="SourceGraphic"/>
    </filter>
  </defs>
  <g id="Grupo_1178523" data-name="Grupo 1178523" transform="translate(-200.759 -2931)">
    <g id="Grupo_1178519" data-name="Grupo 1178519">
      <g transform="matrix(1, 0, 0, 1, 200.76, 2931)" filter="url(#Trazado_1033109)">
        <g id="Trazado_1033109-2" data-name="Trazado 1033109" transform="translate(9 6)" fill="#fed401" opacity="0.859">
          <path d="M 45 88.00010681152344 C 39.19416046142578 88.00010681152344 33.56304168701172 86.86346435546875 28.2630672454834 84.62177276611328 C 23.14290618896484 82.45613098144531 18.54409408569336 79.35540008544922 14.59441375732422 75.40570831298828 C 10.64472007751465 71.45601654052734 7.543986797332764 66.85721588134766 5.378333568572998 61.73704147338867 C 3.136640071868896 56.43708038330078 2 50.80596160888672 2 45.00011825561523 C 2 39.19416046142578 3.136640071868896 33.56304168701172 5.378333568572998 28.26308059692383 C 7.543986797332764 23.14290618896484 10.64472007751465 18.54409408569336 14.59441375732422 14.59441375732422 C 18.54409408569336 10.64472007751465 23.14290618896484 7.543986797332764 28.26308059692383 5.378333568572998 C 33.56304168701172 3.136640071868896 39.19416046142578 2 45 2 C 50.80583953857422 2 56.43695831298828 3.136640071868896 61.73691940307617 5.378333568572998 C 66.85709381103516 7.543986797332764 71.45590972900391 10.64472007751465 75.40558624267578 14.59441375732422 C 79.35527801513672 18.54409408569336 82.45601654052734 23.14290618896484 84.62166595458984 28.26308059692383 C 86.86335754394531 33.56304168701172 88 39.19416046142578 88 45 C 88 50.80596160888672 86.86335754394531 56.43708038330078 84.62166595458984 61.73704147338867 C 82.45601654052734 66.85721588134766 79.35527801513672 71.45601654052734 75.40558624267578 75.40570831298828 C 71.45590972900391 79.35540008544922 66.85709381103516 82.45613098144531 61.73693466186523 84.62177276611328 C 56.43695831298828 86.86346435546875 50.80583953857422 88.00010681152344 45 88.00010681152344 Z" stroke="none"/>
          <path d="M 45 3.999992370605469 C 39.46327590942383 3.999992370605469 34.09429168701172 5.083465576171875 29.04218292236328 7.220329284667969 C 24.160400390625 9.285148620605469 19.77527618408203 12.24195861816406 16.00861358642578 16.00862121582031 C 12.24196624755859 19.77528381347656 9.28515625 24.16040802001953 7.2203369140625 29.04217529296875 C 5.083473205566406 34.09428405761719 4 39.46328353881836 4 45.00011444091797 C 4 50.53683853149414 5.083473205566406 55.90582275390625 7.2203369140625 60.95793151855469 C 9.28515625 65.83971405029297 12.24195098876953 70.22482299804688 16.00861358642578 73.99148559570312 C 19.77527618408203 77.75814819335938 24.160400390625 80.71494293212891 29.04216766357422 82.77976226806641 C 34.09427642822266 84.9166259765625 39.46327590942383 86.00009918212891 45 86.00009918212891 C 50.53672409057617 86.00009918212891 55.90572357177734 84.9166259765625 60.95783233642578 82.77976226806641 C 65.839599609375 80.71494293212891 70.22472381591797 77.75814819335938 73.99138641357422 73.99148559570312 C 77.75804901123047 70.22482299804688 80.71484375 65.83971405029297 82.7796630859375 60.95793151855469 C 84.91651916503906 55.90582275390625 86 50.53683853149414 86 45.00000762939453 C 86 39.46328353881836 84.91651916503906 34.09428405761719 82.7796630859375 29.04217529296875 C 80.71484375 24.16040802001953 77.75803375244141 19.77528381347656 73.99138641357422 16.00862121582031 C 70.22472381591797 12.24195861816406 65.839599609375 9.285148620605469 60.95781707763672 7.220329284667969 C 55.90570831298828 5.083465576171875 50.53672409057617 3.999992370605469 45 3.999992370605469 M 45 -7.62939453125e-06 C 69.85281372070312 -7.62939453125e-06 90 20.14719390869141 90 45.00000762939453 L 90 45.00011444091797 C 90 69.85292816162109 69.85281372070312 90.00009918212891 45 90.00009918212891 C 20.14718627929688 90.00009918212891 0 69.85292816162109 0 45.00011444091797 L 0 45.00000762939453 C 0 20.14719390869141 20.14718627929688 -7.62939453125e-06 45 -7.62939453125e-06 Z" stroke="none" fill="#fff"/>
        </g>
      </g>
    </g>
    <g id="Page-1" transform="translate(224.759 2952)">
      <g id="_044---Internet-Degree" data-name="044---Internet-Degree" transform="translate(-1)">
        <g id="Icons_copy" transform="translate(1)">
          <path id="Shape" d="M49,20a18.83,18.83,0,0,1-5.4,13.24L33.83,34.3c-.02-.05-.05-.09-.07-.14A1.989,1.989,0,0,0,31.95,33a2.016,2.016,0,0,0-.97.26,1.977,1.977,0,0,1-1.96,0,2.016,2.016,0,0,0-.97-.26,1.989,1.989,0,0,0-1.81,1.16c-.02.05-.05.09-.07.14L16.4,33.24A18.992,18.992,0,1,1,49,20Z" fill="#00bcd4"/>
          <path id="Shape-2" data-name="Shape" d="M30,1c-.506,0-1,.037-1.5.076A18.966,18.966,0,0,1,40.6,33.24l-6.948.754a1.687,1.687,0,0,1,.108.166c.02.05.05.09.07.14l9.77-1.06A18.98,18.98,0,0,0,30,1Z" fill="#00838f"/>
          <path id="Shape-3" data-name="Shape" d="M26.17,47.7,5.11,49.99a1.979,1.979,0,0,1-1.87-.86A14.589,14.589,0,0,1,1,41a14.589,14.589,0,0,1,2.24-8.13,1.979,1.979,0,0,1,1.87-.86L16.4,33.24l9.77,1.06a2,2,0,0,1-1.51,1.01,1.994,1.994,0,0,0-1.76,1.97,1.81,1.81,0,0,0,.04.4,2,2,0,0,1-.61,1.85v.01a2,2,0,0,0,0,2.93,2,2,0,0,1,.61,1.85v.01a1.81,1.81,0,0,0-.04.4,1.977,1.977,0,0,0,1.76,1.96,2.024,2.024,0,0,1,1.51,1.01Z" fill="#ffe0b2"/>
          <path id="Shape-4" data-name="Shape" d="M24.66,46.69a1.977,1.977,0,0,1-1.76-1.96,1.81,1.81,0,0,1,.04-.4v-.01a2,2,0,0,0-.61-1.85,2,2,0,0,1,0-2.93v-.01a2,2,0,0,0,.61-1.85,1.81,1.81,0,0,1-.04-.4,1.994,1.994,0,0,1,1.76-1.97,2,2,0,0,0,1.51-1.01L5.11,32.01A2.013,2.013,0,0,0,4,32.215L23.17,34.3a2,2,0,0,1-1.51,1.01,1.994,1.994,0,0,0-1.76,1.97,1.81,1.81,0,0,0,.04.4,2,2,0,0,1-.61,1.85v.01a2,2,0,0,0,0,2.93,2,2,0,0,1,.61,1.85v.01a1.81,1.81,0,0,0-.04.4,1.977,1.977,0,0,0,1.76,1.96,2.024,2.024,0,0,1,1.51,1.01L4,49.785a2.013,2.013,0,0,0,1.115.205L26.17,47.7A2.024,2.024,0,0,0,24.66,46.69Z" fill="#dfc49c"/>
          <path id="Shape-5" data-name="Shape" d="M59,41a14.589,14.589,0,0,1-2.24,8.13,1.979,1.979,0,0,1-1.87.86L33.83,47.7a2.024,2.024,0,0,1,1.51-1.01,1.977,1.977,0,0,0,1.72-2.36v-.01a2,2,0,0,1,.61-1.85,2,2,0,0,0,0-2.93v-.01a1.986,1.986,0,0,1-.65-1.47,2.45,2.45,0,0,1,.04-.38,1.81,1.81,0,0,0,.04-.4,1.994,1.994,0,0,0-1.76-1.97,2,2,0,0,1-1.51-1.01l9.77-1.06,11.29-1.23a1.979,1.979,0,0,1,1.87.86A14.589,14.589,0,0,1,59,41Z" fill="#ffe0b2"/>
          <path id="Shape-6" data-name="Shape" d="M56.76,32.87a1.979,1.979,0,0,0-1.87-.86l-1.885.205a1.925,1.925,0,0,1,.755.655A14.589,14.589,0,0,1,56,41a14.589,14.589,0,0,1-2.24,8.13,1.925,1.925,0,0,1-.755.655l1.885.205a1.979,1.979,0,0,0,1.87-.86A14.589,14.589,0,0,0,59,41,14.589,14.589,0,0,0,56.76,32.87Z" fill="#dfc49c"/>
          <path id="Shape-7" data-name="Shape" d="M37.67,42.47a2,2,0,0,0-.61,1.85v.01a1.977,1.977,0,0,1-1.72,2.36,2.024,2.024,0,0,0-1.51,1.01c-.02.05-.05.09-.07.14a1.938,1.938,0,0,1-.76.86v.01a1.964,1.964,0,0,1-2.02.04,2.046,2.046,0,0,0-1.96,0A1.964,1.964,0,0,1,27,48.71V48.7a1.938,1.938,0,0,1-.76-.86c-.02-.05-.05-.09-.07-.14a2.024,2.024,0,0,0-1.51-1.01,1.977,1.977,0,0,1-1.76-1.96,1.81,1.81,0,0,1,.04-.4v-.01a2,2,0,0,0-.61-1.85,2,2,0,0,1,0-2.93v-.01a2,2,0,0,0,.61-1.85,1.81,1.81,0,0,1-.04-.4,1.994,1.994,0,0,1,1.76-1.97,2,2,0,0,0,1.51-1.01c.02-.05.05-.09.07-.14A1.989,1.989,0,0,1,28.05,33a2.016,2.016,0,0,1,.97.26,1.977,1.977,0,0,0,1.96,0,2.016,2.016,0,0,1,.97-.26,1.989,1.989,0,0,1,1.81,1.16c.02.05.05.09.07.14a2,2,0,0,0,1.51,1.01,1.994,1.994,0,0,1,1.76,1.97,1.81,1.81,0,0,1-.04.4,2.45,2.45,0,0,0-.04.38,1.986,1.986,0,0,0,.65,1.47v.01a2,2,0,0,1,0,2.93Z" fill="#ef314c"/>
          <g id="Grupo_1178520" data-name="Grupo 1178520">
            <path id="Shape-8" data-name="Shape" d="M27,33.52a2,2,0,0,0,.98-.26,2.163,2.163,0,0,1,.52-.2,1.918,1.918,0,0,0-.45-.06,2,2,0,0,0-1.28.49,2.011,2.011,0,0,0,.23.03Z" fill="#bb193b"/>
            <path id="Shape-9" data-name="Shape" d="M27.98,48.75A1.985,1.985,0,0,0,27,48.5a2.109,2.109,0,0,0-.21.025A1.91,1.91,0,0,0,27,48.7v.01a2.033,2.033,0,0,0,1.05.3,1.868,1.868,0,0,0,.45-.061,2.119,2.119,0,0,1-.52-.2Z" fill="#bb193b"/>
            <path id="Shape-10" data-name="Shape" d="M37.67,39.54v-.01a1.986,1.986,0,0,1-.65-1.47,2.45,2.45,0,0,1,.04-.38,1.81,1.81,0,0,0,.04-.4,1.994,1.994,0,0,0-1.76-1.97,2,2,0,0,1-1.51-1.01c-.02-.05-.05-.09-.07-.14A1.989,1.989,0,0,0,31.95,33a2.016,2.016,0,0,0-.97.26,1.99,1.99,0,0,1-.75.23,1.915,1.915,0,0,1,.53.67c.02.05.05.09.07.14a2,2,0,0,0,1.51,1.01,1.994,1.994,0,0,1,1.76,1.97,1.81,1.81,0,0,1-.04.4,2.45,2.45,0,0,0-.04.38,1.986,1.986,0,0,0,.65,1.47v.01a2,2,0,0,1,0,2.93,2,2,0,0,0-.61,1.85v.01a1.977,1.977,0,0,1-1.72,2.36,2.024,2.024,0,0,0-1.51,1.01c-.02.05-.05.09-.07.14a1.937,1.937,0,0,1-.55.685,1.935,1.935,0,0,1,.77.225A1.964,1.964,0,0,0,33,48.71V48.7a1.938,1.938,0,0,0,.76-.86c.02-.05.05-.09.07-.14a2.024,2.024,0,0,1,1.51-1.01,1.977,1.977,0,0,0,1.72-2.36v-.01a2,2,0,0,1,.61-1.85,2,2,0,0,0,0-2.93Z" fill="#bb193b"/>
            <circle id="Oval" cx="3" cy="3" r="3" transform="translate(27 38.002)" fill="#bb193b"/>
            <path id="Shape-11" data-name="Shape" d="M33,48.71v9.63a.657.657,0,0,1-1.02.55l-1.61-1.08a.7.7,0,0,0-.74,0l-1.61,1.08A.657.657,0,0,1,27,58.34V48.71a1.964,1.964,0,0,0,2.02.04,2.046,2.046,0,0,1,1.96,0A1.964,1.964,0,0,0,33,48.71Z" fill="#bb193b"/>
          </g>
        </g>
        <g id="Icons">
          <path id="Shape-12" data-name="Shape" d="M17.108,36.226,7.1,35.138a1,1,0,1,0-.216,1.988l10.008,1.088a1,1,0,0,0,.216-1.988Z" fill="#fff"/>
          <path id="Shape-13" data-name="Shape" d="M54.9,35.138,44.892,36.226a1,1,0,1,0,.217,1.988l10.008-1.088a1,1,0,1,0-.216-1.988Z" fill="#fff"/>
          <g id="Grupo_1178521" data-name="Grupo 1178521">
            <path id="Shape-14" data-name="Shape" d="M55.782,31.018l-8.8.956A19.763,19.763,0,0,0,51,20a20,20,0,0,0-40,0,19.763,19.763,0,0,0,4.016,11.974l-8.8-.956a2.962,2.962,0,0,0-2.812,1.3A15.644,15.644,0,0,0,1,41a15.633,15.633,0,0,0,2.406,8.681,2.98,2.98,0,0,0,2.812,1.3L26.63,48.767a3.083,3.083,0,0,0,.37.412v9.16a1.656,1.656,0,0,0,2.577,1.381L31,58.765l1.421.953A1.657,1.657,0,0,0,35,58.339v-9.16a3.083,3.083,0,0,0,.37-.412l20.411,2.219a2.983,2.983,0,0,0,2.812-1.3A15.644,15.644,0,0,0,61,41a15.633,15.633,0,0,0-2.406-8.681,2.952,2.952,0,0,0-2.812-1.3ZM39.475,32.791A25.313,25.313,0,0,0,40.823,29h5.743a17.884,17.884,0,0,1-2.454,3.287Zm-1.484,7.482a.992.992,0,0,1,0,1.458h-.005a3.016,3.016,0,0,0-.9,2.786.992.992,0,0,1-.84,1.178h-.021a3.009,3.009,0,0,0-2.369,1.723.994.994,0,0,1-1.389.45,3.017,3.017,0,0,0-2.931,0,.992.992,0,0,1-1.388-.451A3.008,3.008,0,0,0,25.777,45.7h-.02a.993.993,0,0,1-.84-1.182,3.016,3.016,0,0,0-.908-2.786.991.991,0,0,1,0-1.461,3.019,3.019,0,0,0,.9-2.788.993.993,0,0,1,.857-1.178L25.8,36.3a3.012,3.012,0,0,0,2.335-1.719.994.994,0,0,1,1.388-.45,3.006,3.006,0,0,0,2.931,0,.994.994,0,0,1,1.389.451,3.011,3.011,0,0,0,2.34,1.718.1.1,0,0,1,.04.006.991.991,0,0,1,.856,1.183A3.015,3.015,0,0,0,37.991,40.273ZM13.048,21h6.98a35.108,35.108,0,0,0,.674,6H14.421a17.828,17.828,0,0,1-1.373-6Zm35.9-2H41.973a35.382,35.382,0,0,0-.655-6h6.265a17.887,17.887,0,0,1,1.366,6ZM35.37,33.237A2.966,2.966,0,0,0,32,32.165V29h6.759a21.059,21.059,0,0,1-1.649,4.048ZM32,27V21h7.973a32.943,32.943,0,0,1-.71,6Zm9.972-6h6.98a17.828,17.828,0,0,1-1.373,6H41.3A35.108,35.108,0,0,0,41.972,21Zm-2-2H32V13h7.262a32.816,32.816,0,0,1,.712,6ZM32,11V2.125c2.841.662,5.322,4.1,6.741,8.875ZM30,2.125V11H23.259C24.678,6.224,27.159,2.787,30,2.125ZM30,13v6H22.026a32.816,32.816,0,0,1,.712-6Zm-9.973,6H13.051a17.887,17.887,0,0,1,1.366-6h6.265A35.382,35.382,0,0,0,20.027,19Zm2,2H30v6H22.737A32.943,32.943,0,0,1,22.027,21ZM30,29v3.165a2.966,2.966,0,0,0-3.37,1.072l-1.74-.189A21.059,21.059,0,0,1,23.241,29ZM46.564,11H40.85a19.9,19.9,0,0,0-4-8.006A18.072,18.072,0,0,1,46.564,11ZM25.154,2.994a19.9,19.9,0,0,0-4,8.006H15.436A18.072,18.072,0,0,1,25.154,2.994ZM15.434,29h5.743a25.313,25.313,0,0,0,1.348,3.791l-4.637-.5A17.884,17.884,0,0,1,15.434,29ZM6,49a.986.986,0,0,1-.928-.42A13.621,13.621,0,0,1,3,41a13.623,13.623,0,0,1,2.075-7.579A.98.98,0,0,1,6,33.006l18.023,1.96a2.9,2.9,0,0,0-1.07,2.912,1,1,0,0,1-.3.927,2.993,2.993,0,0,0,0,4.4,1,1,0,0,1,.3.927,3,3,0,0,0,.515,2.343,2.942,2.942,0,0,0,.556.564Zm25.891,7.958a1.722,1.722,0,0,0-1.819.023L29,57.7V50h.046a3.006,3.006,0,0,0,1.468-.383,1,1,0,0,1,.972,0A2.986,2.986,0,0,0,33,49.984V57.7Zm25.033-8.375A1,1,0,0,1,56,49L37.978,47.04a2.907,2.907,0,0,0,1.069-2.912.992.992,0,0,1,.285-.909l.015-.013a2.993,2.993,0,0,0,0-4.4,1,1,0,0,1-.3-.928,3,3,0,0,0-.516-2.344,2.965,2.965,0,0,0-.556-.563L56,33.006a.988.988,0,0,1,.928.42A13.621,13.621,0,0,1,59,41a13.623,13.623,0,0,1-2.075,7.581Z"/>
            <path id="Shape-15" data-name="Shape" d="M31,37a4,4,0,1,0,4,4A4,4,0,0,0,31,37Zm0,6a2,2,0,1,1,2-2A2,2,0,0,1,31,43Z"/>
          </g>
        </g>
      </g>
      <g id="Coin" transform="translate(21.646 9.646)">
        <path id="Trazado_1033600" data-name="Trazado 1033600" d="M7.693,0A7.693,7.693,0,1,1,0,7.693,7.693,7.693,0,0,1,7.693,0Z" transform="translate(0.661 0.661)" fill="#e7be18"/>
        <g id="Grupo_1178522" data-name="Grupo 1178522">
          <path id="Trazado_1033598" data-name="Trazado 1033598" d="M8.354,0a8.354,8.354,0,1,0,8.354,8.354A8.354,8.354,0,0,0,8.354,0Zm0,15.665a7.31,7.31,0,1,1,7.31-7.31,7.31,7.31,0,0,1-7.31,7.31Z"/>
          <path id="Trazado_1033599" data-name="Trazado 1033599" d="M14.907,7.413a1.044,1.044,0,0,1,.315.7.522.522,0,1,0,1.044.044,2.065,2.065,0,0,0-.6-1.461,3.043,3.043,0,0,0-2.012-.8V5.522a.522.522,0,1,0-1.044,0v.372A2.722,2.722,0,0,0,10,8.569a2.723,2.723,0,0,0,2.61,2.675v3.309a2.031,2.031,0,0,1-1.251-.479,1.045,1.045,0,0,1-.315-.695.523.523,0,0,0-.5-.547.516.516,0,0,0-.547.5,2.065,2.065,0,0,0,.6,1.461,3.045,3.045,0,0,0,2.012.8v.377a.522.522,0,0,0,1.044,0v-.372a2.676,2.676,0,0,0,0-5.35V6.937a2.03,2.03,0,0,1,1.251.477ZM11.046,8.569a1.648,1.648,0,0,1,1.565-1.618v3.235a1.65,1.65,0,0,1-1.565-1.618Zm4.175,4.35a1.648,1.648,0,0,1-1.565,1.618V11.3a1.65,1.65,0,0,1,1.565,1.618Z" transform="translate(-4.779 -2.389)"/>
        </g>
      </g>
    </g>
  </g>
</svg>
