<svg xmlns="http://www.w3.org/2000/svg" xmlns:xlink="http://www.w3.org/1999/xlink" width="108" height="108" viewBox="0 0 108 108">
  <defs>
    <filter id="Trazado_896985" x="0" y="0" width="108" height="108" filterUnits="userSpaceOnUse">
      <feOffset dy="3" input="SourceAlpha"/>
      <feGaussianBlur stdDeviation="3" result="blur"/>
      <feFlood flood-opacity="0.161"/>
      <feComposite operator="in" in2="blur"/>
      <feComposite in="SourceGraphic"/>
    </filter>
  </defs>
  <g id="Grupo_1178525" data-name="Grupo 1178525" transform="translate(-200.759 -3216)">
    <g id="Grupo_1177410" data-name="Grupo 1177410" transform="translate(-0.094 1727.448)">
      <g id="Grupo_1176700" data-name="Grupo 1176700" transform="translate(209.853 1494.552)">
        <g id="Grupo_1111318" data-name="Grupo 1111318" transform="translate(0 0)">
          <g id="Grupo_1109826" data-name="Grupo 1109826">
            <g id="Grupo_1098742" data-name="Grupo 1098742">
              <g transform="matrix(1, 0, 0, 1, -9, -6)" filter="url(#Trazado_896985)">
                <g id="Trazado_896985-2" data-name="Trazado 896985" transform="translate(9 6)" fill="#f2ecfd" opacity="0.859">
                  <path d="M 45 88.00010681152344 C 39.19416046142578 88.00010681152344 33.56304168701172 86.86346435546875 28.2630672454834 84.62177276611328 C 23.14290618896484 82.45613098144531 18.54409408569336 79.35540008544922 14.59441375732422 75.40570831298828 C 10.64472007751465 71.45601654052734 7.543986797332764 66.85721588134766 5.378333568572998 61.73704147338867 C 3.136640071868896 56.43708038330078 2 50.80596160888672 2 45.00011825561523 C 2 39.19416046142578 3.136640071868896 33.56304168701172 5.378333568572998 28.26308059692383 C 7.543986797332764 23.14290618896484 10.64472007751465 18.54409408569336 14.59441375732422 14.59441375732422 C 18.54409408569336 10.64472007751465 23.14290618896484 7.543986797332764 28.26308059692383 5.378333568572998 C 33.56304168701172 3.136640071868896 39.19416046142578 2 45 2 C 50.80583953857422 2 56.43695831298828 3.136640071868896 61.73691940307617 5.378333568572998 C 66.85709381103516 7.543986797332764 71.45590972900391 10.64472007751465 75.40558624267578 14.59441375732422 C 79.35527801513672 18.54409408569336 82.45601654052734 23.14290618896484 84.62166595458984 28.26308059692383 C 86.86335754394531 33.56304168701172 88 39.19416046142578 88 45 C 88 50.80596160888672 86.86335754394531 56.43708038330078 84.62166595458984 61.73704147338867 C 82.45601654052734 66.85721588134766 79.35527801513672 71.45601654052734 75.40558624267578 75.40570831298828 C 71.45590972900391 79.35540008544922 66.85709381103516 82.45613098144531 61.73693466186523 84.62177276611328 C 56.43695831298828 86.86346435546875 50.80583953857422 88.00010681152344 45 88.00010681152344 Z" stroke="none"/>
                  <path d="M 45 3.999992370605469 C 39.46327590942383 3.999992370605469 34.09429168701172 5.083465576171875 29.04218292236328 7.220329284667969 C 24.160400390625 9.285148620605469 19.77527618408203 12.24195861816406 16.00861358642578 16.00862121582031 C 12.24196624755859 19.77528381347656 9.28515625 24.16040802001953 7.2203369140625 29.04217529296875 C 5.083473205566406 34.09428405761719 4 39.46328353881836 4 45.00011444091797 C 4 50.53683853149414 5.083473205566406 55.90582275390625 7.2203369140625 60.95793151855469 C 9.28515625 65.83971405029297 12.24195098876953 70.22482299804688 16.00861358642578 73.99148559570312 C 19.77527618408203 77.75814819335938 24.160400390625 80.71494293212891 29.04216766357422 82.77976226806641 C 34.09427642822266 84.9166259765625 39.46327590942383 86.00009918212891 45 86.00009918212891 C 50.53672409057617 86.00009918212891 55.90572357177734 84.9166259765625 60.95783233642578 82.77976226806641 C 65.839599609375 80.71494293212891 70.22472381591797 77.75814819335938 73.99138641357422 73.99148559570312 C 77.75804901123047 70.22482299804688 80.71484375 65.83971405029297 82.7796630859375 60.95793151855469 C 84.91651916503906 55.90582275390625 86 50.53683853149414 86 45.00000762939453 C 86 39.46328353881836 84.91651916503906 34.09428405761719 82.7796630859375 29.04217529296875 C 80.71484375 24.16040802001953 77.75803375244141 19.77528381347656 73.99138641357422 16.00862121582031 C 70.22472381591797 12.24195861816406 65.839599609375 9.285148620605469 60.95781707763672 7.220329284667969 C 55.90570831298828 5.083465576171875 50.53672409057617 3.999992370605469 45 3.999992370605469 M 45 -7.62939453125e-06 C 69.85281372070312 -7.62939453125e-06 90 20.14719390869141 90 45.00000762939453 L 90 45.00011444091797 C 90 69.85292816162109 69.85281372070312 90.00009918212891 45 90.00009918212891 C 20.14718627929688 90.00009918212891 0 69.85292816162109 0 45.00011444091797 L 0 45.00000762939453 C 0 20.14719390869141 20.14718627929688 -7.62939453125e-06 45 -7.62939453125e-06 Z" stroke="none" fill="#8454ee"/>
                </g>
              </g>
            </g>
          </g>
        </g>
      </g>
    </g>
    <g id="copyright" transform="translate(226.314 3238.556)">
      <path id="Trazado_1033601" data-name="Trazado 1033601" d="M41.785,9.17V52.363a1.768,1.768,0,0,1-1.763,1.763H4.763A1.768,1.768,0,0,1,3,52.363V4.763A1.768,1.768,0,0,1,4.763,3H35.615V9.17Z" transform="translate(-0.119 -0.119)" fill="#ebe5dd"/>
      <path id="Trazado_1033602" data-name="Trazado 1033602" d="M46.289,10V53.192a1.768,1.768,0,0,1-1.763,1.763H41a1.768,1.768,0,0,0,1.763-1.763V10Z" transform="translate(-4.622 -0.948)" fill="#c0ab91"/>
      <path id="Trazado_1033603" data-name="Trazado 1033603" d="M32.63,14.815c0,.573-.538,1.031-1.1,1.481a3.806,3.806,0,0,0-1.2,1.216c-.4.97.45,2.8-.282,3.535s-2.565-.115-3.535.282a3.806,3.806,0,0,0-1.216,1.2c-.45.564-.908,1.1-1.481,1.1s-1.031-.538-1.481-1.1a3.806,3.806,0,0,0-1.216-1.2c-.97-.4-2.8.45-3.535-.282s.115-2.565-.282-3.535A3.806,3.806,0,0,0,16.1,16.3c-.564-.45-1.1-.908-1.1-1.481,0-1.075,1.913-1.763,2.3-2.7.4-.97-.45-2.8.282-3.535s2.565.115,3.535-.282c.934-.388,1.622-2.3,2.7-2.3s1.763,1.913,2.7,2.3c.97.4,2.8-.45,3.535.282s-.115,2.565.282,3.535C30.717,13.052,32.63,13.739,32.63,14.815Z" transform="translate(-1.541 -0.474)" fill="#ffde55"/>
      <circle id="Elipse_13185" data-name="Elipse 13185" cx="3.5" cy="3.5" r="3.5" transform="translate(18.444 10.444)" fill="#ff7956"/>
      <path id="Trazado_1033604" data-name="Trazado 1033604" d="M57.681,25.289v8.559a17.611,17.611,0,0,1-7.389,14.343l-4.952,3.542L40.387,48.19c-.379-.273-.749-.555-1.1-.864a17.326,17.326,0,0,1-3.2-3.526,16.86,16.86,0,0,1-1.86-3.526,16.084,16.084,0,0,1-.978-3.526,16.728,16.728,0,0,1-.247-2.9V25.289l1.869-.8h.009l3.72-1.6L45.341,20Z" transform="translate(-3.674 -2.133)" fill="#e0e0e2"/>
      <path id="Trazado_1033605" data-name="Trazado 1033605" d="M59.1,25.289v8.559a17.611,17.611,0,0,1-7.389,14.343l-4.952,3.542L45,50.473l3.191-2.283a17.61,17.61,0,0,0,7.387-14.342V25.289L45,20.758,46.763,20Z" transform="translate(-5.096 -2.133)" fill="#c6c5ca"/>
      <path id="Trazado_1033606" data-name="Trazado 1033606" d="M54.63,28.526v5.562A14.1,14.1,0,0,1,49.341,45.1l-3.526,2.821L42.289,45.1A14.1,14.1,0,0,1,37,34.088V28.526L45.815,25Z" transform="translate(-4.148 -2.726)" fill="#57a4ff"/>
      <path id="Trazado_1033607" data-name="Trazado 1033607" d="M55.578,28.526v5.562A14.1,14.1,0,0,1,50.289,45.1l-3.526,2.821L45,46.508l1.763-1.41a14.1,14.1,0,0,0,5.289-11.01V28.526L45,25.705,46.763,25Z" transform="translate(-5.096 -2.726)" fill="#2488ff"/>
      <path id="Trazado_1033608" data-name="Trazado 1033608" d="M46.17,9.17H40V3Z" transform="translate(-4.504 -0.119)" fill="#a78966"/>
      <path id="Trazado_1033609" data-name="Trazado 1033609" d="M37.848,22.616l-3.72,1.6H34.12l-1.869.8v4.469L26.68,23.912a3.806,3.806,0,0,1,1.216-1.2c.97-.4,2.8.45,3.535-.282s-.115-2.565.282-3.535a3.806,3.806,0,0,1,1.2-1.216Z" transform="translate(-2.925 -1.858)" fill="#ff7956"/>
      <path id="Trazado_1033610" data-name="Trazado 1033610" d="M21.675,23.912l-6,6L15.055,24.3,9.44,23.683l6-6a3.806,3.806,0,0,1,1.2,1.216c.4.97-.45,2.8.282,3.535s2.565-.115,3.535.282a3.806,3.806,0,0,1,1.216,1.2Z" transform="translate(-0.882 -1.858)" fill="#ff7956"/>
      <path id="Trazado_1033611" data-name="Trazado 1033611" d="M54.351,22.345l-11.8-5.06V9.052a.911.911,0,0,0-.256-.626l-6.17-6.17A.911.911,0,0,0,35.5,2H4.644A2.652,2.652,0,0,0,2,4.644v47.6a2.652,2.652,0,0,0,2.644,2.644H39.9a2.652,2.652,0,0,0,2.644-2.644V50.049l4.592-3.27a18.567,18.567,0,0,0,7.748-15.064V23.155a.881.881,0,0,0-.538-.811ZM36.378,5.006,39.542,8.17H36.378Zm4.407,47.238a.881.881,0,0,1-.881.881H4.644a.881.881,0,0,1-.881-.881V4.644a.881.881,0,0,1,.881-.881h29.97V9.052a.881.881,0,0,0,.881.881h5.289v7.352l-5.659,2.424-3.852-3.852a2.188,2.188,0,0,0,.7-1.516c0-1.04-.864-1.719-1.551-2.265a3.447,3.447,0,0,1-.811-.767,3.188,3.188,0,0,1,.018-1.19,3.057,3.057,0,0,0-.494-2.636A3.062,3.062,0,0,0,26.5,6.989a3.14,3.14,0,0,1-1.181.018,3.284,3.284,0,0,1-.776-.811,3.1,3.1,0,0,0-2.265-1.551c-1.04,0-1.719.864-2.265,1.551a3.447,3.447,0,0,1-.767.811,3.188,3.188,0,0,1-1.19-.018,3.057,3.057,0,0,0-2.636.494,3.057,3.057,0,0,0-.494,2.636A3.14,3.14,0,0,1,14.94,11.3a3.284,3.284,0,0,1-.811.776,3.1,3.1,0,0,0-1.551,2.265,2.188,2.188,0,0,0,.7,1.516L7.932,21.2a.881.881,0,0,0-.2.917.869.869,0,0,0,.732.582l4.91.547.547,4.91a.869.869,0,0,0,.582.732.846.846,0,0,0,.291.053.888.888,0,0,0,.626-.256l5.342-5.342a2,2,0,0,0,3.032,0l4.654,4.645v3.729a19.231,19.231,0,0,0,.115,2.019H7.289V35.5H28.841c.132.6.282,1.181.458,1.763H7.289v1.763H29.96a19.253,19.253,0,0,0,.873,1.763H7.289v1.763H31.961a17.265,17.265,0,0,0,1.446,1.763H7.289v1.763H35.276c.3.238.608.476.917.705l4.592,3.27ZM15.416,21.2a3.057,3.057,0,0,0,2.636.494,3.336,3.336,0,0,1,1.181-.018,1.22,1.22,0,0,1,.37.317l-4.134,4.143-.423-3.79a.881.881,0,0,0-.776-.776l-3.79-.423,4.143-4.134a1.208,1.208,0,0,1,.317.361,3.188,3.188,0,0,1-.018,1.19A3.057,3.057,0,0,0,15.416,21.2Zm3.447-1.34a9.642,9.642,0,0,0-1,.079,3.385,3.385,0,0,1-1.19.018,3.2,3.2,0,0,1,.009-1.2,4.132,4.132,0,0,0-.106-2.054,4.005,4.005,0,0,0-1.349-1.481c-.291-.229-.881-.7-.881-.881s.591-.652.881-.881a4.005,4.005,0,0,0,1.349-1.481,4.132,4.132,0,0,0,.106-2.054,3.385,3.385,0,0,1-.018-1.19,3.2,3.2,0,0,1,1.2.009,4.132,4.132,0,0,0,2.054-.106,4.005,4.005,0,0,0,1.481-1.349c.229-.291.7-.881.881-.881s.652.591.881.881a4.005,4.005,0,0,0,1.481,1.349,4.132,4.132,0,0,0,2.054.106,3.385,3.385,0,0,1,1.19-.018,3.2,3.2,0,0,1-.009,1.2,4.132,4.132,0,0,0,.106,2.054,4.005,4.005,0,0,0,1.349,1.481c.291.229.881.7.881.881s-.591.652-.881.881A4.005,4.005,0,0,0,27.977,16.7a4.132,4.132,0,0,0-.106,2.054,3.385,3.385,0,0,1,.018,1.19,3.4,3.4,0,0,1-1.2-.009,4.132,4.132,0,0,0-2.054.106,4.005,4.005,0,0,0-1.481,1.349c-.229.291-.7.881-.881.881s-.652-.591-.881-.881a4.005,4.005,0,0,0-1.481-1.349,2.663,2.663,0,0,0-1.049-.185Zm6.444,1.816a3.188,3.188,0,0,1,1.19.018,3.062,3.062,0,0,0,2.636-.494,3.057,3.057,0,0,0,.494-2.636,3.14,3.14,0,0,1-.018-1.181,1.22,1.22,0,0,1,.317-.37l3.455,3.447-4.4,1.886a.881.881,0,0,0-.538.811V25.5l-3.5-3.508a1.208,1.208,0,0,1,.361-.317Zm27.819,10.04a16.768,16.768,0,0,1-7.017,13.628l-4.443,3.173-4.443-3.173a16.768,16.768,0,0,1-7.017-13.628V23.737l11.459-4.91,11.459,4.91Z"/>
      <path id="Trazado_1033612" data-name="Trazado 1033612" d="M45.369,24.063l-8.815,3.526a.881.881,0,0,0-.554.819v5.562a14.909,14.909,0,0,0,5.624,11.7l3.522,2.821a.881.881,0,0,0,1.1,0l3.521-2.821a14.909,14.909,0,0,0,5.624-11.7V28.407a.881.881,0,0,0-.554-.819l-8.815-3.526A.881.881,0,0,0,45.369,24.063ZM53.63,29v4.965a13.153,13.153,0,0,1-4.963,10.324L45.7,46.672l-2.971-2.38a13.153,13.153,0,0,1-4.963-10.322V29L45.7,25.831Z" transform="translate(-4.03 -2.607)"/>
      <path id="Trazado_1033613" data-name="Trazado 1033613" d="M42.539,36.706l-1.246,1.246L43.937,40.6a.881.881,0,0,0,.623.258h.029a.881.881,0,0,0,.635-.3l6.17-7.052-1.328-1.16L44.514,38.69Z" transform="translate(-4.657 -3.596)"/>
      <path id="Trazado_1033614" data-name="Trazado 1033614" d="M28.815,15.407a4.407,4.407,0,1,0-4.407,4.407,4.407,4.407,0,0,0,4.407-4.407Zm-7.052,0a2.644,2.644,0,1,1,2.644,2.644,2.644,2.644,0,0,1-2.644-2.644Z" transform="translate(-2.133 -1.067)"/>
    </g>
  </g>
</svg>
