<svg xmlns="http://www.w3.org/2000/svg" width="154" height="92" viewBox="0 0 154 92">
  <g id="Grupo_1178926" data-name="Grupo 1178926" transform="translate(-705.051 -16663)">
    <path id="Trazado_1034042" data-name="Trazado 1034042" d="M0,0H154V92H0Z" transform="translate(705.051 16663)" fill="#ddeffd"/>
    <g id="Grupo_1178359" data-name="Grupo 1178359" transform="translate(728.378 16686)">
      <g id="Grupo_1178358" data-name="Grupo 1178358" transform="translate(0)">
        <path id="Trazado_1034040" data-name="Trazado 1034040" d="M5.445-2.336a.727.727,0,0,0-.41-.652,4.659,4.659,0,0,0-1.316-.426Q.7-4.047.7-5.977a2.323,2.323,0,0,1,.934-1.879,3.766,3.766,0,0,1,2.441-.754,4.053,4.053,0,0,1,2.574.758,2.388,2.388,0,0,1,.965,1.969H5.359a1.092,1.092,0,0,0-.312-.8A1.322,1.322,0,0,0,4.07-7a1.351,1.351,0,0,0-.883.258.814.814,0,0,0-.312.656.7.7,0,0,0,.355.605,3.657,3.657,0,0,0,1.2.4A9.8,9.8,0,0,1,5.852-4.7,2.336,2.336,0,0,1,7.641-2.43,2.2,2.2,0,0,1,6.648-.559,4.28,4.28,0,0,1,4.086.156,4.47,4.47,0,0,1,2.2-.223,3.166,3.166,0,0,1,.906-1.262,2.414,2.414,0,0,1,.438-2.687H2.578a1.179,1.179,0,0,0,.445.922,1.766,1.766,0,0,0,1.109.32,1.635,1.635,0,0,0,.98-.246A.766.766,0,0,0,5.445-2.336Zm18.8-3.492H17.258V-7.672h6.984Zm0,3.383H17.258V-4.289h6.984Zm8.039-6.008.07.977a2.951,2.951,0,0,1,2.43-1.133,2.453,2.453,0,0,1,2,.789,3.682,3.682,0,0,1,.672,2.359V0H35.2V-5.406a1.465,1.465,0,0,0-.312-1.043,1.4,1.4,0,0,0-1.039-.324,1.553,1.553,0,0,0-1.43.813V0H30.156V-8.453Zm6.984,3.828a11.99,11.99,0,0,1,.477-3.406,8.989,8.989,0,0,1,1.406-2.863,5.251,5.251,0,0,1,2.016-1.73l.438,1.219A5.438,5.438,0,0,0,41.82-8.8a12.082,12.082,0,0,0-.641,4.125v.242a12.313,12.313,0,0,0,.633,4.141A5.544,5.544,0,0,0,43.6,2.359l-.437,1.2a5.253,5.253,0,0,1-1.98-1.684,8.838,8.838,0,0,1-1.4-2.785,11.918,11.918,0,0,1-.516-3.3Zm7.594-3.828.07.977a2.951,2.951,0,0,1,2.43-1.133,2.453,2.453,0,0,1,2,.789,3.682,3.682,0,0,1,.672,2.359V0H49.773V-5.406a1.465,1.465,0,0,0-.312-1.043,1.4,1.4,0,0,0-1.039-.324,1.553,1.553,0,0,0-1.43.813V0H44.734V-8.453ZM58.3-6.367h2.82v2.039H58.3v3.188H56.148V-4.328H53.32V-6.367h2.828V-9.422H58.3ZM67.867,0H65.609V-8.7l-2.7.836V-9.7l4.711-1.687h.242Zm7.68-4.445a11.377,11.377,0,0,1-.508,3.4,9.225,9.225,0,0,1-1.461,2.883,5.263,5.263,0,0,1-2.039,1.719l-.437-1.2a5.494,5.494,0,0,0,1.75-2.578,11.939,11.939,0,0,0,.664-4.008v-.414a12.209,12.209,0,0,0-.637-4.117A5.727,5.727,0,0,0,71.1-11.43l.438-1.2a5.265,5.265,0,0,1,2,1.672A9.106,9.106,0,0,1,75-8.133,11.3,11.3,0,0,1,75.547-4.8Z" transform="translate(-0.327 17)" fill="#12263f"/>
        <path id="Trazado_1034041" data-name="Trazado 1034041" d="M8.57,0H.773V-1.547l3.68-3.922A9.078,9.078,0,0,0,5.574-6.914a2.322,2.322,0,0,0,.363-1.172,1.738,1.738,0,0,0-.383-1.191,1.382,1.382,0,0,0-1.094-.434,1.49,1.49,0,0,0-1.207.527A2.089,2.089,0,0,0,2.813-7.8H.547a3.729,3.729,0,0,1,.5-1.9,3.5,3.5,0,0,1,1.4-1.348A4.262,4.262,0,0,1,4.5-11.531a4.036,4.036,0,0,1,2.73.844A2.985,2.985,0,0,1,8.2-8.3a3.825,3.825,0,0,1-.437,1.719,9.551,9.551,0,0,1-1.5,2.039L3.68-1.82H8.57Z" transform="translate(54.639 42)" fill="#12263f"/>
        <path id="Trazado_1033456" data-name="Trazado 1033456" d="M-6842.757,6702.94h57.14" transform="translate(6873.326 -6677.586)" fill="none" stroke="#12263f" stroke-width="1"/>
      </g>
    </g>
  </g>
</svg>
